<?xml version="1.0" encoding="UTF-8" standalone="no"?>
<svg
   viewBox="0 0 24 24"
   version="1.1"
   id="svg1"
   sodipodi:docname="thoughts.svg"
   xml:space="preserve"
   inkscape:version="1.4.2 (ebf0e940, 2025-05-08)"
   xmlns:inkscape="http://www.inkscape.org/namespaces/inkscape"
   xmlns:sodipodi="http://sodipodi.sourceforge.net/DTD/sodipodi-0.dtd"
   xmlns="http://www.w3.org/2000/svg"
   xmlns:svg="http://www.w3.org/2000/svg"><defs
     id="defs1"><inkscape:path-effect
       effect="fillet_chamfer"
       id="path-effect1"
       is_visible="true"
       lpeversion="1"
       nodesatellites_param="F,0,0,1,0,0,0,1 @ F,0,0,1,0,0,0,1 @ F,0,0,1,0,1,0,1 @ F,0,0,1,0,0,0,1 @ F,0,0,1,0,0,0,1 @ F,0,0,1,0,1,0,1 @ F,0,0,1,0,0,0,1 @ F,0,0,1,0,0,0,1 @ F,0,0,1,0,1,0,1 @ F,0,0,1,0,0,0,1 @ F,0,0,1,0,0,0,1 @ F,0,0,1,0,1,0,1"
       radius="0"
       unit="px"
       method="auto"
       mode="F"
       chamfer_steps="1"
       flexible="false"
       use_knot_distance="true"
       apply_no_radius="true"
       apply_with_radius="true"
       only_selected="false"
       hide_knots="false" /></defs><sodipodi:namedview
     id="namedview1"
     pagecolor="#505050"
     bordercolor="#eeeeee"
     borderopacity="1"
     inkscape:showpageshadow="0"
     inkscape:pageopacity="0"
     inkscape:pagecheckerboard="0"
     inkscape:deskcolor="#505050"
     inkscape:zoom="9.9908967"
     inkscape:cx="5.1546925"
     inkscape:cy="14.813485"
     inkscape:window-width="1472"
     inkscape:window-height="895"
     inkscape:window-x="0"
     inkscape:window-y="61"
     inkscape:window-maximized="0"
     inkscape:current-layer="svg1" /><path
     id="path1"
     style="fill:none;stroke:#000000;stroke-width:0.999993;stroke-linecap:round;stroke-linejoin:round;stroke-miterlimit:83.9;paint-order:markers fill stroke"
     d="M 8.0628704,3.051178 C 5.2956971,3.0508115 3.0520275,5.2937716 3.0511779,8.0612854 3.0507127,9.5983112 3.7531818,11.027504 4.919619,11.966657 c 0.4839957,0.389687 0.6535795,1.019372 0.4197487,1.595285 -0.2589119,0.637688 -0.3941753,1.32255 -0.3944924,2.017807 3.028e-4,2.965132 2.4036458,5.368772 5.3684127,5.369073 1.491852,-0.0022 2.896923,-0.623694 3.898204,-1.685702 0.426383,-0.452243 1.045046,-0.523739 1.603129,-0.253443 0.480218,0.232585 1.01072,0.356976 1.553791,0.357935 1.976797,6.09e-4 3.579803,-1.601608 3.58041,-3.578648 2.32e-4,-0.974663 -0.395332,-1.889212 -1.068024,-2.551779 C 19.438994,12.802034 19.37111,12.271147 19.760993,11.78708 20.522359,10.84179 20.948424,9.6562172 20.948822,8.4202512 20.94852,5.4542591 18.543834,3.0502639 15.578207,3.051178 14.514806,3.051515 13.484483,3.3673321 12.611961,3.946183 12.094041,4.2897815 11.406176,4.2784126 10.893463,3.927389 10.066893,3.3614881 9.0817716,3.0512068 8.0628704,3.051178 Z" /><ellipse
     style="fill:#000000;stroke:none;stroke-width:0.999993;stroke-linecap:round;stroke-linejoin:round;stroke-miterlimit:83.9;paint-order:markers fill stroke"
     id="path1-9-1-0-8"
     cx="8.9631195"
     cy="11.995997"
     rx="1.2783238"
     ry="1.2779093" /><ellipse
     style="fill:#000000;stroke:none;stroke-width:0.999993;stroke-linecap:round;stroke-linejoin:round;stroke-miterlimit:83.9;paint-order:markers fill stroke"
     id="path1-9-1-0-8-9"
     cx="12.371983"
     cy="11.995997"
     rx="1.2783238"
     ry="1.2779093" /><ellipse
     style="fill:#000000;stroke:none;stroke-width:0.999993;stroke-linecap:round;stroke-linejoin:round;stroke-miterlimit:83.9;paint-order:markers fill stroke"
     id="path1-9-1-0-8-5"
     cx="15.780846"
     cy="11.995997"
     rx="1.2783238"
     ry="1.2779093" /></svg>
