<?xml version="1.0" encoding="UTF-8" standalone="no"?>
<svg
   viewBox="0 0 24 24"
   version="1.1"
   id="svg1"
   sodipodi:docname="thoughts.svg"
   xml:space="preserve"
   inkscape:version="1.4.2 (ebf0e940, 2025-05-08)"
   xmlns:inkscape="http://www.inkscape.org/namespaces/inkscape"
   xmlns:sodipodi="http://sodipodi.sourceforge.net/DTD/sodipodi-0.dtd"
   xmlns="http://www.w3.org/2000/svg"
   xmlns:svg="http://www.w3.org/2000/svg"><defs
     id="defs1"><inkscape:path-effect
       effect="fillet_chamfer"
       id="path-effect1"
       is_visible="true"
       lpeversion="1"
       nodesatellites_param="F,0,0,1,0,0,0,1 @ F,0,0,1,0,0,0,1 @ F,0,0,1,0,1,0,1 @ F,0,0,1,0,0,0,1 @ F,0,0,1,0,0,0,1 @ F,0,0,1,0,1,0,1 @ F,0,0,1,0,0,0,1 @ F,0,0,1,0,0,0,1 @ F,0,0,1,0,1,0,1 @ F,0,0,1,0,0,0,1 @ F,0,0,1,0,0,0,1 @ F,0,0,1,0,1,0,1"
       radius="0"
       unit="px"
       method="auto"
       mode="F"
       chamfer_steps="1"
       flexible="false"
       use_knot_distance="true"
       apply_no_radius="true"
       apply_with_radius="true"
       only_selected="false"
       hide_knots="false" /></defs><sodipodi:namedview
     id="namedview1"
     pagecolor="#505050"
     bordercolor="#eeeeee"
     borderopacity="1"
     inkscape:showpageshadow="0"
     inkscape:pageopacity="0"
     inkscape:pagecheckerboard="0"
     inkscape:deskcolor="#505050"
     inkscape:zoom="8.7880786"
     inkscape:cx="0"
     inkscape:cy="13.31349"
     inkscape:window-width="1472"
     inkscape:window-height="895"
     inkscape:window-x="0"
     inkscape:window-y="33"
     inkscape:window-maximized="0"
     inkscape:current-layer="svg1" /><g
     id="g1"
     transform="translate(-0.37198257,0.00400257)"><ellipse
       style="fill:#000000;stroke:none;stroke-width:0.999993;stroke-linecap:round;stroke-linejoin:round;stroke-miterlimit:83.9;paint-order:markers fill stroke"
       id="path1-9-1-0-8"
       cx="8.9631195"
       cy="11.995997"
       rx="1.2783238"
       ry="1.2779093" /><ellipse
       style="fill:#000000;stroke:none;stroke-width:0.999993;stroke-linecap:round;stroke-linejoin:round;stroke-miterlimit:83.9;paint-order:markers fill stroke"
       id="path1-9-1-0-8-9"
       cx="12.371983"
       cy="11.995997"
       rx="1.2783238"
       ry="1.2779093" /><ellipse
       style="fill:#000000;stroke:none;stroke-width:0.999993;stroke-linecap:round;stroke-linejoin:round;stroke-miterlimit:83.9;paint-order:markers fill stroke"
       id="path1-9-1-0-8-5"
       cx="15.780846"
       cy="11.995997"
       rx="1.2783238"
       ry="1.2779093" /></g><path
     id="path1"
     style="fill:none;stroke:#000000;stroke-width:0.999997;stroke-linecap:round;stroke-linejoin:round;stroke-miterlimit:83.9;paint-order:markers fill stroke"
     d="m 9.1648544,3.0511785 a 6.1145688,6.1139017 0 0 0 -6.113675,6.11301 6.1145688,6.1139017 0 0 0 1.666123,4.1970785 4.2246833,4.2242224 0 0 0 -1.666123,3.363132 4.2246833,4.2242224 0 0 0 4.222928,4.224422 4.2246833,4.2242224 0 0 0 3.3634986,-1.667895 6.1145688,6.1139017 0 0 0 4.197538,1.667895 6.1145688,6.1139017 0 0 0 6.113677,-6.114963 6.1145688,6.1139017 0 0 0 -1.668077,-4.195125 4.2246833,4.2242224 0 0 0 1.668077,-3.3631335 4.2246833,4.2242224 0 0 0 -4.224882,-4.224421 4.2246833,4.2242224 0 0 0 -3.361546,1.667896 6.1145688,6.1139017 0 0 0 -4.1975386,-1.667896 z" /></svg>
