<?xml version="1.0" encoding="UTF-8" standalone="no"?>
<!-- Created with Inkscape (http://www.inkscape.org/) -->

<svg
   width="6mm"
   height="6mm"
   viewBox="0 0 6 6"
   version="1.1"
   id="svg1"
   inkscape:version="1.4.2 (ebf0e940, 2025-05-08)"
   sodipodi:docname="essential.svg"
   xmlns:inkscape="http://www.inkscape.org/namespaces/inkscape"
   xmlns:sodipodi="http://sodipodi.sourceforge.net/DTD/sodipodi-0.dtd"
   xmlns="http://www.w3.org/2000/svg"
   xmlns:svg="http://www.w3.org/2000/svg">
  <sodipodi:namedview
     id="namedview1"
     pagecolor="#505050"
     bordercolor="#eeeeee"
     borderopacity="1"
     inkscape:showpageshadow="0"
     inkscape:pageopacity="0"
     inkscape:pagecheckerboard="0"
     inkscape:deskcolor="#505050"
     inkscape:document-units="mm"
     inkscape:zoom="23.40545"
     inkscape:cx="18.072714"
     inkscape:cy="6.6651142"
     inkscape:window-width="1472"
     inkscape:window-height="867"
     inkscape:window-x="0"
     inkscape:window-y="33"
     inkscape:window-maximized="0"
     inkscape:current-layer="svg1">
    <inkscape:page
       x="0"
       y="0"
       width="6"
       height="6"
       id="page1"
       margin="0"
       bleed="0" />
  </sodipodi:namedview>
  <defs
     id="defs1">
    <inkscape:path-effect
       effect="fillet_chamfer"
       id="path-effect3530-0"
       is_visible="true"
       lpeversion="1"
       nodesatellites_param="F,0,0,1,0,2,0,1 @ F,0,0,1,0,0,0,1 @ F,0,0,1,0,0.5,0,1 @ F,0,0,1,0,0,0,1 @ F,0,0,1,0,0,0,1 @ F,0,0,1,0,0,0,1 @ F,0,0,1,0,0.5,0,1 @ F,0,0,1,0,0,0,1"
       radius="0"
       unit="px"
       method="auto"
       mode="F"
       chamfer_steps="1"
       flexible="false"
       use_knot_distance="true"
       apply_no_radius="true"
       apply_with_radius="true"
       only_selected="false"
       hide_knots="false" />
  </defs>
  <path
     id="path9-60-1"
     style="fill:#000000;fill-opacity:1;fill-rule:nonzero;stroke:none;stroke-width:0.0352779;stroke-dasharray:none"
     d="m 3.0000325,0.50000011 c -0.06567,2e-8 -0.131353,0.0194184 -0.1886829,0.0583294 C 2.5766598,0.7176499 1.9324073,1.1139581 1.0216727,1.3522064 0.87420278,1.3907976 0.77117221,1.5244719 0.77117182,1.6773145 l -5e-7,0.9895999 c -2.6e-7,0.4533813 0.0932236,0.8747607 0.27717838,1.2523092 0.1520249,0.312158 0.3669382,0.59645 0.6385247,0.8450359 0.4767347,0.4362192 1.0003579,0.6469157 1.2033459,0.7172663 0.035379,0.012314 0.072624,0.018473 0.109812,0.018474 0.037188,5e-7 0.074376,-0.00616 0.1098125,-0.018474 C 3.3128346,5.4111765 3.8364508,5.2004791 4.313126,4.7642596 4.5847718,4.5156746 4.7995697,4.2313834 4.9516509,3.9192238 5.1356098,3.5416753 5.22883,3.1202965 5.2288292,2.6669145 l 6e-7,-0.9895999 C 5.2288295,1.5244731 5.1258049,1.3907906 4.978393,1.3521415 l -1.286e-4,2e-7 C 4.0676446,1.1139506 3.4233987,0.71765244 3.1886509,0.55832963 3.1313509,0.51941913 3.0657043,0.50000039 3.0000325,0.50000011 Z M 2.9999684,1.7499842 A 1.2499956,1.2499956 0 0 1 4.2500164,2.9999678 1.2499956,1.2499956 0 0 1 2.9999687,4.2499522 1.2499956,1.2499956 0 0 1 1.7499845,2.999968 1.2499956,1.2499956 0 0 1 2.9999684,1.7499842 Z" />
  <path
     id="rect3-0"
     style="fill:none;stroke:#000000;stroke-width:0.264584;stroke-linecap:round;stroke-linejoin:round;stroke-miterlimit:79.1;stroke-dasharray:none;paint-order:stroke fill markers"
     d="M 3.6677081,2.4211798 2.8249796,3.5074643 a 0.17676609,0.22785306 0 0 1 -0.2498845,0.00913 L 2.4536935,3.3601051 2.3322921,3.2036177"
     sodipodi:nodetypes="ccccc" />
</svg>
