<?xml version="1.0" encoding="UTF-8" standalone="no"?>
<!-- Created with Inkscape (http://www.inkscape.org/) -->

<svg
   width="7.3230357mm"
   height="7.8973675mm"
   viewBox="0 0 7.3230356 7.8973673"
   version="1.1"
   id="svg1"
   inkscape:version="1.4.2 (ebf0e940, 2025-05-08)"
   sodipodi:docname="account-icon.svg"
   xmlns:inkscape="http://www.inkscape.org/namespaces/inkscape"
   xmlns:sodipodi="http://sodipodi.sourceforge.net/DTD/sodipodi-0.dtd"
   xmlns="http://www.w3.org/2000/svg"
   xmlns:svg="http://www.w3.org/2000/svg">
  <sodipodi:namedview
     id="namedview1"
     pagecolor="#505050"
     bordercolor="#eeeeee"
     borderopacity="1"
     inkscape:showpageshadow="0"
     inkscape:pageopacity="0"
     inkscape:pagecheckerboard="0"
     inkscape:deskcolor="#505050"
     inkscape:document-units="mm"
     inkscape:zoom="2.0789577"
     inkscape:cx="-21.885967"
     inkscape:cy="24.531523"
     inkscape:window-width="1472"
     inkscape:window-height="867"
     inkscape:window-x="0"
     inkscape:window-y="33"
     inkscape:window-maximized="0"
     inkscape:current-layer="svg1">
    <inkscape:page
       x="0"
       y="6.646024e-07"
       width="7.3230357"
       height="7.8973675"
       id="page2"
       margin="0"
       bleed="0" />
  </sodipodi:namedview>
  <defs
     id="defs1" />
  <path
     id="path3529-1-3"
     style="baseline-shift:baseline;display:inline;overflow:visible;vector-effect:none;fill:#000000;stroke-width:1;stroke-linecap:round;stroke-linejoin:round;enable-background:accumulate;stop-color:#000000"
     d="m 3.6611635,1.448685 c -0.718368,0 -1.304373,0.586005 -1.304373,1.304376 0,0.718371 0.586005,1.304376 1.304373,1.304376 0.718372,0 1.304603,-0.586005 1.304603,-1.304376 0,-0.718371 -0.586231,-1.304376 -1.304603,-1.304376 z m 0,0.347384 c 0.530378,0 0.957218,0.426616 0.957218,0.956992 0,0.530376 -0.42684,0.956318 -0.957218,0.956318 -0.530374,0 -0.956092,-0.425942 -0.956092,-0.956318 0,-0.530376 0.425718,-0.956992 0.956092,-0.956992 z m -0.02135,2.478427 v 2.3e-4 c -1.069836,0.01591 -1.958961,0.853726 -2.149242,1.954204 -0.0026,0.01504 -0.0035,0.02981 -0.003,0.04404 0.0039,0.09961 0.08084,0.175597 0.179984,0.175714 h 2.31e-4 c 0.08297,-1.84e-4 0.159335,-0.09933 0.183575,-0.218856 0.18469,-0.910505 0.911676,-1.595859 1.80995,-1.600529 0.898274,0.0047 1.625486,0.690024 1.810171,1.600529 0.02426,0.119617 0.10076,0.218839 0.183806,0.218856 0.09924,-1.5e-5 0.176254,-0.07603 0.180206,-0.175714 4.24e-4,-0.01426 -4.5e-4,-0.02899 -0.003,-0.04404 C 5.6422155,5.128446 4.7533075,4.290661 3.6834715,4.27472 v -2.3e-4 c -0.0044,-2.6e-5 -0.0085,0 -0.01279,0 -0.003,-2.6e-5 -0.006,1.3e-5 -0.009,0 -0.003,1.3e-5 -0.0062,-2.6e-5 -0.0092,0 -0.0044,0 -0.0082,-2.6e-5 -0.01257,0 z" />
</svg>
