<?xml version="1.0" encoding="UTF-8" standalone="no"?>
<!-- Created with Inkscape (http://www.inkscape.org/) -->

<svg
   width="34.303703mm"
   height="33.350826mm"
   viewBox="0 0 34.303703 33.350826"
   version="1.1"
   id="svg1"
   inkscape:version="1.4.2 (ebf0e940, 2025-05-08)"
   sodipodi:docname="account-icon.svg"
   xmlns:inkscape="http://www.inkscape.org/namespaces/inkscape"
   xmlns:sodipodi="http://sodipodi.sourceforge.net/DTD/sodipodi-0.dtd"
   xmlns="http://www.w3.org/2000/svg"
   xmlns:svg="http://www.w3.org/2000/svg">
  <sodipodi:namedview
     id="namedview1"
     pagecolor="#505050"
     bordercolor="#eeeeee"
     borderopacity="1"
     inkscape:showpageshadow="0"
     inkscape:pageopacity="0"
     inkscape:pagecheckerboard="0"
     inkscape:deskcolor="#505050"
     inkscape:document-units="mm"
     inkscape:zoom="0.55533361"
     inkscape:cx="-101.74065"
     inkscape:cy="39.615827"
     inkscape:window-width="1472"
     inkscape:window-height="895"
     inkscape:window-x="0"
     inkscape:window-y="61"
     inkscape:window-maximized="0"
     inkscape:current-layer="svg1">
    <inkscape:page
       x="0"
       y="0"
       width="34.303703"
       height="33.350826"
       id="page2"
       margin="0"
       bleed="0" />
  </sodipodi:namedview>
  <defs
     id="defs1" />
  <g
     id="g1"
     inkscape:label="Account"
     transform="matrix(1.2473224,0,0,1.2473224,-966.12892,287.47337)"
     style="stroke-width:0.801717">
    <path
       id="path9-7"
       d="m 798.66024,-212.73244 c -0.56553,1.33697 -1.37525,2.53816 -2.40667,3.56935 -0.0795,0.0797 -0.16037,0.15737 -0.24189,0.23424 -0.0568,-1.70164 -0.74588,-3.29332 -1.95571,-4.50321 -1.26397,-1.26402 -2.94446,-1.96028 -4.732,-1.96028 h -2.02157 c -1.78754,0 -3.46803,0.69626 -4.73197,1.96028 -1.20986,1.20989 -1.89893,2.80157 -1.95574,4.50321 -0.0815,-0.0769 -0.16236,-0.15457 -0.24189,-0.23424 -1.03142,-1.03119 -1.84114,-2.23238 -2.40673,-3.56935 -0.58545,-1.38409 -0.8823,-2.85486 -0.8823,-4.3708 0,-1.51621 0.29685,-2.9867 0.8823,-4.37107 0.56559,-1.33697 1.37531,-2.53788 2.40673,-3.56935 1.03142,-1.03148 2.23239,-1.84134 3.56952,-2.40687 1.38417,-0.58545 2.85475,-0.88224 4.37088,-0.88224 1.51613,0 2.98671,0.29679 4.37085,0.88224 1.33713,0.56553 2.5381,1.37539 3.56952,2.40687 1.03142,1.03147 1.84114,2.23238 2.40667,3.56935 0.58545,1.38437 0.88224,2.85486 0.88224,4.37107 0,1.51594 -0.29679,2.98671 -0.88224,4.3708 z m -5.97619,5.97622 c -1.38414,0.58545 -2.85472,0.88224 -4.37085,0.88224 -1.51613,0 -2.98671,-0.29679 -4.37088,-0.88224 -0.91215,-0.386 -1.76078,-0.8856 -2.5356,-1.49153 v -0.45248 c 0,-3.25096 2.6448,-5.89571 5.89568,-5.89571 h 2.02157 c 3.2509,0 5.89568,2.64475 5.89568,5.89571 v 0.45248 c -0.7748,0.60593 -1.62343,1.10553 -2.5356,1.49153 z m 6.70976,-15.02807 c -0.60593,-1.43234 -1.47288,-2.71825 -2.57715,-3.82238 -1.1043,-1.10441 -2.39032,-1.9715 -3.82241,-2.57715 -1.48283,-0.62724 -3.05776,-0.94535 -4.68105,-0.94535 -1.62329,0 -3.19825,0.31811 -4.68108,0.94535 -1.43206,0.60565 -2.71811,1.47274 -3.82238,2.57715 -1.1043,1.10413 -1.97136,2.39004 -2.57706,3.82238 -0.62719,1.48283 -0.94519,3.05768 -0.94519,4.68105 0,1.6231 0.318,3.19822 0.94519,4.68106 0.6057,1.43206 1.47276,2.71797 2.57706,3.82238 0.30128,0.30128 0.61655,0.58404 0.94418,0.8497 10e-4,0.001 0.003,0.002 0.004,0.003 0.87217,0.70607 1.8345,1.2845 2.87431,1.72408 1.48283,0.62724 3.05779,0.94535 4.68108,0.94535 1.62329,0 3.19822,-0.31811 4.68105,-0.94535 1.03978,-0.43958 2.00211,-1.01801 2.87425,-1.72408 10e-4,-0.001 0.003,-0.002 0.004,-0.003 0.32762,-0.26566 0.6429,-0.54842 0.94418,-0.8497 1.10427,-1.10441 1.97122,-2.39032 2.57715,-3.82238 0.62696,-1.48284 0.94507,-3.05796 0.94507,-4.68106 0,-1.62337 -0.31811,-3.19822 -0.94507,-4.68105"
       style="fill:#000000;fill-opacity:1;fill-rule:nonzero;stroke:none;stroke-width:0.0282828"
       inkscape:label="Body and circle" />
    <path
       id="path10-48"
       d="m 788.3132,-217.09314 c -1.91012,0 -3.4641,-1.55408 -3.4641,-3.46415 0,-1.91007 1.55398,-3.46415 3.4641,-3.46415 1.91009,0 3.46407,1.55408 3.46407,3.46415 0,1.91007 -1.55398,3.46415 -3.46407,3.46415 z m 0,-7.7247 c -2.3492,0 -4.26041,1.91119 -4.26041,4.26055 0,2.34908 1.91121,4.26027 4.26041,4.26027 2.34919,0 4.26038,-1.91119 4.26038,-4.26027 0,-2.34936 -1.91119,-4.26055 -4.26038,-4.26055"
       style="fill:#000000;fill-opacity:1;fill-rule:nonzero;stroke:none;stroke-width:0.0282828"
       inkscape:label="Head" />
  </g>
</svg>
