<?xml version="1.0" encoding="UTF-8" standalone="no"?>
<svg
   width="24"
   height="24"
   viewBox="0 0 24 24"
   fill="none"
   version="1.1"
   id="svg1"
   sodipodi:docname="creativity.svg"
   inkscape:version="1.4.2 (ebf0e940, 2025-05-08)"
   xmlns:inkscape="http://www.inkscape.org/namespaces/inkscape"
   xmlns:sodipodi="http://sodipodi.sourceforge.net/DTD/sodipodi-0.dtd"
   xmlns="http://www.w3.org/2000/svg"
   xmlns:svg="http://www.w3.org/2000/svg">
  <defs
     id="defs1">
    <inkscape:path-effect
       effect="fillet_chamfer"
       id="path-effect1"
       is_visible="true"
       lpeversion="1"
       nodesatellites_param="F,0,0,1,0,1,0,1 @ F,0,0,1,0,1,0,1 @ F,0,0,1,0,1,0,1 @ F,0,0,1,0,1,0,1 @ F,0,0,1,0,1,0,1 @ F,0,0,1,0,1,0,1 @ F,0,0,1,0,1,0,1 @ F,0,0,1,0,1,0,1 @ F,0,0,1,0,1,0,1 @ F,0,0,1,0,1,0,1"
       radius="0"
       unit="px"
       method="auto"
       mode="F"
       chamfer_steps="1"
       flexible="false"
       use_knot_distance="true"
       apply_no_radius="true"
       apply_with_radius="true"
       only_selected="false"
       hide_knots="false" />
  </defs>
  <sodipodi:namedview
     id="namedview1"
     pagecolor="#505050"
     bordercolor="#eeeeee"
     borderopacity="1"
     inkscape:showpageshadow="0"
     inkscape:pageopacity="0"
     inkscape:pagecheckerboard="0"
     inkscape:deskcolor="#505050"
     inkscape:zoom="1.0833333"
     inkscape:cx="12"
     inkscape:cy="12"
     inkscape:window-width="1472"
     inkscape:window-height="923"
     inkscape:window-x="0"
     inkscape:window-y="33"
     inkscape:window-maximized="0"
     inkscape:current-layer="svg1" />
  <path
     id="path1"
     style="stroke:#000000;stroke-width:0.606399;stroke-linecap:round;stroke-miterlimit:83.9;paint-order:markers fill stroke"
     inkscape:transform-center-x="-0.0072484406"
     inkscape:transform-center-y="-0.97800917"
     d="M 7.9952071,-0.96590468 6.1509657,-1.8324047 A 2.2286314,2.2286314 1.000004 0 0 4.326518,-1.8642507 l -1.8733588,0.801609 A 0.57349247,0.57349247 37.000003 0 1 1.6585361,-1.6614333 L 1.9127245,-3.6831737 A 2.2286315,2.2286315 73.000004 0 0 1.3792265,-5.4281676 L 0.03795175,-6.9621264 A 0.57349262,0.57349262 109 0 1 0.36188427,-7.9028949 L 2.3632231,-8.2859001 a 2.2286324,2.2286324 145 0 0 1.4947278,-1.0466197 l 1.0444048,-1.7496472 a 0.57349261,0.57349261 1.0000029 0 1 0.9948246,0.01736 l 0.9827066,1.7850304 a 2.2286312,2.2286312 36.999995 0 0 1.4572907,1.0981472 l 1.9867524,0.4526168 a 0.5734925,0.5734925 72.999991 0 1 0.290903,0.9515003 L 9.2208407,-5.2912921 A 2.2286322,2.2286322 109 0 0 8.6267681,-3.56598 l 0.1834757,2.0293806 a 0.57349249,0.57349249 145 0 1 -0.8150367,0.57069472 z"
     inkscape:path-effect="#path-effect1"
     inkscape:original-d="M 8.9002862,-0.54066148 5.2458866,-2.2576479 1.5337906,-0.66924448 2.03747,-4.6753625 l -2.65776176,-3.039569 3.96569086,-0.758932 2.0695084,-3.4669595 1.9472522,3.5370725 3.9367883,0.896869 -2.7622223,2.9449636 z"
     transform="matrix(1.6476463,-0.02880125,0.02875977,1.6500234,3.4215637,22.315744)" />
</svg>
