<?xml version="1.0" encoding="UTF-8" standalone="no"?>
<svg
   width="24"
   height="24"
   viewBox="0 0 24 24"
   fill="none"
   version="1.1"
   id="svg1"
   sodipodi:docname="datasets.svg"
   inkscape:version="1.4.2 (ebf0e940, 2025-05-08)"
   xmlns:inkscape="http://www.inkscape.org/namespaces/inkscape"
   xmlns:sodipodi="http://sodipodi.sourceforge.net/DTD/sodipodi-0.dtd"
   xmlns="http://www.w3.org/2000/svg"
   xmlns:svg="http://www.w3.org/2000/svg">
  <defs
     id="defs1" />
  <sodipodi:namedview
     id="namedview1"
     pagecolor="#505050"
     bordercolor="#eeeeee"
     borderopacity="1"
     inkscape:showpageshadow="0"
     inkscape:pageopacity="0"
     inkscape:pagecheckerboard="0"
     inkscape:deskcolor="#505050"
     inkscape:zoom="7.834204"
     inkscape:cx="14.168638"
     inkscape:cy="-15.955673"
     inkscape:window-width="1472"
     inkscape:window-height="923"
     inkscape:window-x="0"
     inkscape:window-y="33"
     inkscape:window-maximized="0"
     inkscape:current-layer="svg1" />
  <g
     id="g2"
     transform="translate(7.503971,24.580426)">
    <path
       id="rect1"
       style="stroke:#000000;stroke-width:1;stroke-miterlimit:83.9;paint-order:markers fill stroke"
       d="m -4.45279,-6.1288227 v -9.0023713 m 12.228347,0 v 9.0023713"
       sodipodi:nodetypes="cccc" />
    <path
       id="path2"
       style="stroke:#000000;stroke-width:1;stroke-miterlimit:83.9;paint-order:markers fill stroke"
       d="m 7.775557,-15.134784 a 6.1141734,2.5869742 0 0 1 -6.114173,2.586975 6.1141734,2.5869742 0 0 1 -6.114174,-2.586975 6.1141734,2.5869742 0 0 1 6.114174,-2.586974 6.1141734,2.5869742 0 0 1 6.114173,2.586974 z" />
    <path
       id="path2-5"
       style="stroke:#000000;stroke-width:1;stroke-miterlimit:83.9;paint-order:markers fill stroke"
       d="m 7.775557,-6.1906215 c 0,1.4287464 -2.737409,2.5869739 -6.114173,2.5869739 -3.376765,0 -6.114174,-1.1582275 -6.114174,-2.5869739"
       sodipodi:nodetypes="csc" />
    <path
       id="path2-5-7"
       style="stroke:#000000;stroke-width:1;stroke-miterlimit:83.9;paint-order:markers fill stroke"
       d="m 7.775557,-10.662703 c 0,1.4287469 -2.737409,2.5869744 -6.114173,2.5869744 -3.376765,0 -6.114174,-1.1582275 -6.114174,-2.5869744"
       sodipodi:nodetypes="csc" />
  </g>
  <path
     id="rect1-7"
     style="stroke:#000000;stroke-width:1;stroke-miterlimit:83.9;paint-order:markers fill stroke"
     d="M 8.7204721,6.699611 V 5.613785 m 12.2283469,0 v 9.002371"
     sodipodi:nodetypes="cccc" />
  <path
     id="path2-4"
     style="stroke:#000000;stroke-width:1;stroke-miterlimit:83.9;paint-order:markers fill stroke"
     d="M 9.4584193,6.843301 C 9.3642953,6.769991 9.2783022,6.694538 9.2009537,6.617162 8.89156,6.30766 8.7204718,5.967382 8.7204721,5.610195 c 3e-7,-0.357187 0.1710885,-0.697466 0.4804826,-1.006967 0.3093941,-0.309501 0.7570941,-0.588225 1.3103183,-0.8223 0.553224,-0.234075 1.211971,-0.423502 1.943461,-0.55441 0.73149,-0.130908 1.535721,-0.203297 2.379912,-0.203297 0.844191,0 1.648423,0.07239 2.379912,0.203297 0.731489,0.130908 1.390237,0.320335 1.943461,0.55441 0.553224,0.234075 1.000923,0.512799 1.310318,0.8223 0.309394,0.309501 0.480482,0.64978 0.480482,1.006967 0,0.357187 -0.171088,0.697466 -0.480481,1.006967 -0.309394,0.309502 -0.757094,0.588225 -1.310318,0.8223 -0.553224,0.234076 -1.211972,0.423503 -1.943461,0.554411 -0.73149,0.130908 -1.535722,0.203297 -2.379913,0.203297 -0.105524,0 -0.210423,-0.0011 -0.314634,-0.0034"
     sodipodi:nodetypes="cssssssssssssssc" />
  <path
     id="path2-5-5"
     style="stroke:#000000;stroke-width:1;stroke-miterlimit:83.9;paint-order:markers fill stroke"
     d="m 20.948819,14.554357 c 0,1.428747 -2.737409,2.586974 -6.114173,2.586974"
     sodipodi:nodetypes="cc" />
  <path
     id="path2-5-7-9"
     style="stroke:#000000;stroke-width:1;stroke-miterlimit:83.9;paint-order:markers fill stroke"
     d="m 20.948819,10.082276 c 0,1.428747 -2.737409,2.586974 -6.114173,2.586974"
     sodipodi:nodetypes="cc" />
</svg>
