<?xml version="1.0" encoding="UTF-8" standalone="no"?>
<svg
   width="24"
   height="24"
   viewBox="0 0 24 24"
   fill="none"
   version="1.1"
   id="svg1"
   sodipodi:docname="directory.svg"
   inkscape:version="1.4.2 (ebf0e940, 2025-05-08)"
   xml:space="preserve"
   xmlns:inkscape="http://www.inkscape.org/namespaces/inkscape"
   xmlns:sodipodi="http://sodipodi.sourceforge.net/DTD/sodipodi-0.dtd"
   xmlns="http://www.w3.org/2000/svg"
   xmlns:svg="http://www.w3.org/2000/svg"><defs
     id="defs1"><inkscape:path-effect
       effect="fillet_chamfer"
       id="path-effect2"
       is_visible="true"
       lpeversion="1"
       nodesatellites_param="F,0,0,1,0,0,0,1 @ F,0,0,1,0,1,0,1 @ F,0,0,1,0,1,0,1 @ F,0,0,1,0,1,0,1 @ F,0,0,1,0,1,0,1 @ F,0,0,1,0,0,0,1"
       radius="0"
       unit="px"
       method="auto"
       mode="F"
       chamfer_steps="1"
       flexible="false"
       use_knot_distance="true"
       apply_no_radius="true"
       apply_with_radius="true"
       only_selected="false"
       hide_knots="false" /><inkscape:path-effect
       effect="fillet_chamfer"
       id="path-effect1"
       is_visible="true"
       lpeversion="1"
       nodesatellites_param="F,0,0,1,0,2,0,1 @ F,0,0,1,0,2,0,1 @ F,0,0,1,0,2,0,1 @ F,0,0,1,0,2,0,1"
       radius="0"
       unit="px"
       method="auto"
       mode="F"
       chamfer_steps="1"
       flexible="false"
       use_knot_distance="true"
       apply_no_radius="true"
       apply_with_radius="true"
       only_selected="false"
       hide_knots="false" /></defs><sodipodi:namedview
     id="namedview1"
     pagecolor="#505050"
     bordercolor="#eeeeee"
     borderopacity="1"
     inkscape:showpageshadow="0"
     inkscape:pageopacity="0"
     inkscape:pagecheckerboard="0"
     inkscape:deskcolor="#505050"
     inkscape:zoom="9.3202451"
     inkscape:cx="-3.9698527"
     inkscape:cy="4.1844393"
     inkscape:window-width="1472"
     inkscape:window-height="923"
     inkscape:window-x="0"
     inkscape:window-y="33"
     inkscape:window-maximized="0"
     inkscape:current-layer="svg1" /><path
     id="rect1-8"
     style="fill:none;stroke:#000000;stroke-width:0.973117;stroke-linecap:round;stroke-miterlimit:83.9;paint-order:markers fill stroke"
     d="M 17.16929,8.6271346 V 6.9145071 a 1,1 45 0 0 -1,-1 H 8.2878906 a 1,1 45 0 1 -1,-1 V 4.051181 a 1,1 45 0 0 -1,-1 H 4.5324171 a 1,1 135 0 0 -1,1 l 0,15.379214"
     sodipodi:nodetypes="cccccc"
     inkscape:path-effect="#path-effect2"
     inkscape:original-d="M 17.16929,8.6271346 V 5.9145071 H 7.2878906 V 3.051181 H 3.5324171 v 16.379214"
     transform="matrix(1.054474,0,0,1.0014623,-0.65368791,-0.0175476)" /><path
     id="rect1-4"
     style="stroke:#000000;stroke-width:0.973113;stroke-linecap:round;stroke-miterlimit:83.9;paint-order:markers fill stroke"
     d="m 8.406988,8.7204742 h 10.541831 a 1.5250871,1.5250871 52.672903 0 1 1.470712,1.9286928 L 18.1223,19.020129 a 2.6228011,2.6228011 142.6729 0 1 -2.529288,1.928692 l -10.5418312,0 A 1.525087,1.525087 52.672903 0 1 3.580469,19.020129 L 5.8776998,10.649167 A 2.6228011,2.6228011 142.6729 0 1 8.406988,8.7204742 Z"
     sodipodi:nodetypes="ccccc"
     inkscape:path-effect="#path-effect1"
     inkscape:original-d="M 6.406988,8.7204742 H 20.948819 L 17.593012,20.948821 H 3.0511808 Z"
     transform="matrix(1.054474,0,0,1.0014623,-0.65368791,-0.0175476)" /></svg>
