<?xml version="1.0" encoding="UTF-8" standalone="no"?>
<svg
   width="24"
   height="24"
   viewBox="0 0 24 24"
   fill="none"
   version="1.1"
   id="svg1"
   sodipodi:docname="emotion.svg"
   inkscape:version="1.4.2 (ebf0e940, 2025-05-08)"
   xmlns:inkscape="http://www.inkscape.org/namespaces/inkscape"
   xmlns:sodipodi="http://sodipodi.sourceforge.net/DTD/sodipodi-0.dtd"
   xmlns="http://www.w3.org/2000/svg"
   xmlns:svg="http://www.w3.org/2000/svg">
  <defs
     id="defs1">
    <inkscape:path-effect
       effect="fillet_chamfer"
       id="path-effect2"
       is_visible="true"
       lpeversion="1"
       nodesatellites_param="F,0,0,1,0,0,0,1 @ F,0,0,1,0,0,0,1 @ F,0,0,1,0,0,0,1 @ F,0,0,1,0,0,0,1 @ F,0,0,1,0,0,0,1 @ F,0,0,1,0,0,0,1 @ F,0,0,1,0,1,0,1 @ F,0,0,1,0,2,0,1 @ F,0,0,1,0,0,0,1 @ F,0,0,1,0,0,0,1 @ F,0,0,1,0,0,0,1"
       radius="0"
       unit="px"
       method="auto"
       mode="F"
       chamfer_steps="1"
       flexible="false"
       use_knot_distance="true"
       apply_no_radius="true"
       apply_with_radius="true"
       only_selected="false"
       hide_knots="false" />
  </defs>
  <sodipodi:namedview
     id="namedview1"
     pagecolor="#505050"
     bordercolor="#eeeeee"
     borderopacity="1"
     inkscape:showpageshadow="0"
     inkscape:pageopacity="0"
     inkscape:pagecheckerboard="0"
     inkscape:deskcolor="#505050"
     inkscape:zoom="1.0833333"
     inkscape:cx="12"
     inkscape:cy="12"
     inkscape:window-width="1472"
     inkscape:window-height="923"
     inkscape:window-x="0"
     inkscape:window-y="33"
     inkscape:window-maximized="0"
     inkscape:current-layer="svg1" />
  <path
     id="rect2-0"
     style="fill:none;stroke:#000000;stroke-width:1.02824;stroke-miterlimit:83.9;stroke-dasharray:none;paint-order:markers fill stroke"
     d="M 10.501953,1.0605469 C 6.1332912,1.0602245 2.5856829,4.5903742 2.5644531,8.9589844 c -2.89e-5,0.01237 -2.89e-5,0.024739 0,0.037109 0,0 0,0.00195 0,0.00195 0,0 0,0.00195 0,0.00195 v 5.4589836 4.5 a 0.50907711,0.50907711 26.979603 0 0 0.8085983,0.411639 l 2.5292832,-1.840385 c 0.893153,-0.649886 2.453331,-0.81165 3.5451983,-0.665167 0.3487874,0.04679 0.7010271,0.07043 1.0544201,0.07048 4.383873,2.72e-4 7.937772,-3.553627 7.9375,-7.9374997 2.72e-4,-4.3838728 -3.553627,-7.9377718 -7.9375,-7.9375 z"
     inkscape:path-effect="#path-effect2"
     inkscape:original-d="m 10.501953,1.0605469 a 7.9370079,7.9370079 0 0 0 -7.9374999,7.8984375 7.9370079,7.9370079 0 0 0 0,0.037109 7.9370079,7.9370079 0 0 1 0,0.00195 7.9370079,7.9370079 0 0 1 0,0.00195 v 5.4589836 5.5 l 4.9550781,-3.605468 a 7.9370079,7.9370079 0 0 0 2.9824218,0.582031 7.9370079,7.9370079 0 0 0 7.9375,-7.9374997 7.9370079,7.9370079 0 0 0 -7.9375,-7.9375 z"
     transform="matrix(0.97221125,0,0,0.97286259,1.7898937,2.0197221)" />
  <path
     id="path2-8-1"
     style="stroke:#000000;stroke-width:1;stroke-miterlimit:83.9;paint-order:markers fill stroke"
     d="M 9.6282421,7.5122297 A 0.88038963,0.87981166 0 0 0 8.7474512,8.3924422 0.88038963,0.87981166 0 0 0 9.6282421,9.2726548 0.88038963,0.87981166 0 0 0 10.507213,8.3924422 0.88038963,0.87981166 0 0 0 9.6282421,7.5122297 Z m 5.2811059,0 A 0.88038963,0.87981166 0 0 0 14.030376,8.3924422 0.88038963,0.87981166 0 0 0 14.909348,9.2726548 0.88038963,0.87981166 0 0 0 15.790139,8.3924422 0.88038963,0.87981166 0 0 0 14.909348,7.5122297 Z M 8.7474512,11.031261 c -1e-7,1.943629 1.5764408,3.519033 3.5213438,3.519033 1.944904,0 3.521344,-1.575404 3.521344,-3.519033 z" />
</svg>
