<?xml version="1.0" encoding="UTF-8" standalone="no"?>
<svg
   width="24"
   height="24"
   viewBox="0 0 24 24"
   fill="none"
   version="1.1"
   id="svg1"
   sodipodi:docname="expertise.svg"
   xml:space="preserve"
   inkscape:version="1.4.2 (ebf0e940, 2025-05-08)"
   xmlns:inkscape="http://www.inkscape.org/namespaces/inkscape"
   xmlns:sodipodi="http://sodipodi.sourceforge.net/DTD/sodipodi-0.dtd"
   xmlns="http://www.w3.org/2000/svg"
   xmlns:svg="http://www.w3.org/2000/svg"><defs
     id="defs1"><inkscape:path-effect
       effect="fillet_chamfer"
       id="path-effect4"
       is_visible="true"
       lpeversion="1"
       nodesatellites_param="F,0,0,1,0,0,0,1 @ F,0,0,1,0,1,0,1 @ F,0,0,1,0,1,0,1 @ F,0,0,1,0,1,0,1 @ F,0,0,1,0,0,0,1"
       radius="0"
       unit="px"
       method="auto"
       mode="F"
       chamfer_steps="1"
       flexible="false"
       use_knot_distance="true"
       apply_no_radius="true"
       apply_with_radius="true"
       only_selected="false"
       hide_knots="false" /><inkscape:path-effect
       effect="fillet_chamfer"
       id="path-effect3"
       is_visible="true"
       lpeversion="1"
       nodesatellites_param="F,0,0,1,0,0,0,1 @ F,0,0,1,0,1,0,1 @ F,0,0,1,0,0,0,1 @ F,0,0,1,0,1,0,1 @ F,0,0,1,0,0,0,1 @ F,0,0,1,0,1,0,1 @ F,0,0,1,0,0,0,1 @ F,0,0,1,0,1,0,1 @ F,0,0,1,0,0,0,1 @ F,0,0,1,0,1,0,1 @ F,0,0,1,0,0,0,1 @ F,0,0,1,0,1,0,1 @ F,0,0,1,0,0,0,1 @ F,0,0,1,0,1,0,1 @ F,0,0,1,0,0,0,1 @ F,0,0,1,0,1,0,1"
       radius="0"
       unit="px"
       method="auto"
       mode="F"
       chamfer_steps="1"
       flexible="false"
       use_knot_distance="true"
       apply_no_radius="true"
       apply_with_radius="true"
       only_selected="false"
       hide_knots="false" /><inkscape:path-effect
       effect="copy_rotate"
       starting_point="0,0"
       origin="-23.09,-19.451502"
       id="path-effect2"
       is_visible="true"
       lpeversion="1.2"
       lpesatellites=""
       method="normal"
       num_copies="8"
       starting_angle="0"
       rotation_angle="45"
       gap="-0.01"
       copies_to_360="true"
       mirror_copies="false"
       split_items="false"
       link_styles="false" /><inkscape:path-effect
       effect="fillet_chamfer"
       id="path-effect1"
       is_visible="true"
       lpeversion="1"
       nodesatellites_param="F,0,0,1,0,1,0,1 @ F,0,0,1,0,1,0,1 @ F,0,0,1,0,1,0,1 @ F,0,0,1,0,1,0,1 @ F,0,0,1,0,1,0,1 @ F,0,0,1,0,1,0,1 @ F,0,0,1,0,1,0,1 @ F,0,0,1,0,1,0,1 @ F,0,0,1,0,1,0,1 @ F,0,0,1,0,1,0,1"
       radius="0"
       unit="px"
       method="auto"
       mode="F"
       chamfer_steps="1"
       flexible="false"
       use_knot_distance="true"
       apply_no_radius="true"
       apply_with_radius="true"
       only_selected="false"
       hide_knots="false" /></defs><sodipodi:namedview
     id="namedview1"
     pagecolor="#505050"
     bordercolor="#eeeeee"
     borderopacity="1"
     inkscape:showpageshadow="0"
     inkscape:pageopacity="0"
     inkscape:pagecheckerboard="0"
     inkscape:deskcolor="#505050"
     inkscape:zoom="9.4381868"
     inkscape:cx="9.0589434"
     inkscape:cy="0.26488139"
     inkscape:window-width="1472"
     inkscape:window-height="896"
     inkscape:window-x="0"
     inkscape:window-y="32"
     inkscape:window-maximized="0"
     inkscape:current-layer="svg1" /><path
     id="circle1"
     style="fill:none;stroke:#000000;stroke-width:1"
     d="m 12.001061,3.051181 c -0.713486,0 -1.346357,0.344315 -1.741816,0.87583 -0.3540211,0.475823 -0.8112969,0.66524 -1.3980979,0.579482 -0.655706,-0.09583 -1.347017,0.108802 -1.851552,0.613338 -0.504384,0.504382 -0.709043,1.19453 -0.6134239,1.849433 0.08567,0.586831 -0.103582,1.044218 -0.5791471,1.398507 -0.53166,0.396074 -0.876079,1.029928 -0.876079,1.743525 0,0.715152 0.3467269,1.348155 0.880924,1.742616 0.4771281,0.352321 0.6658731,0.807581 0.5779861,1.394118 -0.09838,0.656598 0.1042661,1.349258 0.6097399,1.85473 0.504572,0.504574 1.1959451,0.708299 1.8516939,0.611793 0.586763,-0.08635 1.043933,0.10306 1.397928,0.578871 0.395459,0.531539 1.02834,0.875867 1.741844,0.875867 0.713484,0 1.346355,-0.344313 1.741814,-0.875833 0.354019,-0.47582 0.811172,-0.665274 1.39791,-0.578911 0.655761,0.09652 1.347157,-0.107207 1.85174,-0.611787 0.504571,-0.504571 0.708298,-1.195944 0.611793,-1.851693 -0.08636,-0.586765 0.103065,-1.043934 0.57887,-1.397931 0.53154,-0.395458 0.875867,-1.028339 0.875867,-1.74184 0,-0.713581 -0.344401,-1.347417 -0.876039,-1.743495 C 17.707433,8.013486 17.5181,7.556235 17.604393,6.96949 17.700713,6.314519 17.496969,5.624272 16.992525,5.119831 16.488001,4.615305 15.796711,4.410673 15.141017,4.506487 14.55419,4.592257 14.096897,4.402855 13.742901,3.927048 13.347443,3.39551 12.714562,3.051181 12.001061,3.051181 Z" /><path
     id="rect3-5"
     style="fill:none;stroke:#000000;stroke-width:0.854662;stroke-linecap:round;stroke-miterlimit:83.9;paint-order:markers fill stroke"
     d="m 7.0189116,-5.7134559 v 3.8738296 A 0.53751086,0.53751086 151.74149 0 1 6.1848618,-1.3913155 L 4.8293394,-2.2879371 a 1.511811,1.511811 3.0517544e-7 0 0 -1.6680996,0 L 1.8057173,-1.3913155 A 0.53751086,0.53751086 28.258513 0 1 0.97166753,-1.8396263 l 0,-3.8738296"
     sodipodi:nodetypes="ccccc"
     transform="matrix(1.1687798,0,0,1.1713219,7.3303863,22.482216)"
     inkscape:original-d="m 7.0189116,-5.7134559 v 4.87382959 L 3.9952896,-2.8396263 0.97166753,-0.83962631 V -5.7134559"
     inkscape:path-effect="#path-effect4" /></svg>
