<?xml version="1.0" encoding="UTF-8" standalone="no"?>
<svg
   width="24"
   height="24"
   viewBox="0 0 24 24"
   fill="none"
   version="1.1"
   id="svg1"
   sodipodi:docname="provenance.svg"
   xml:space="preserve"
   inkscape:version="1.4.2 (ebf0e940, 2025-05-08)"
   xmlns:inkscape="http://www.inkscape.org/namespaces/inkscape"
   xmlns:sodipodi="http://sodipodi.sourceforge.net/DTD/sodipodi-0.dtd"
   xmlns="http://www.w3.org/2000/svg"
   xmlns:svg="http://www.w3.org/2000/svg"><defs
     id="defs1"><inkscape:path-effect
       effect="fillet_chamfer"
       id="path-effect2"
       is_visible="true"
       lpeversion="1"
       nodesatellites_param="F,0,0,1,0,0,0,1 @ F,0,0,1,0,2,0,1 @ F,0,0,1,0,2,0,1 @ F,0,0,1,0,0,0,1"
       radius="0"
       unit="px"
       method="auto"
       mode="F"
       chamfer_steps="1"
       flexible="false"
       use_knot_distance="true"
       apply_no_radius="true"
       apply_with_radius="true"
       only_selected="false"
       hide_knots="false" /><inkscape:path-effect
       effect="fillet_chamfer"
       id="path-effect1"
       is_visible="true"
       lpeversion="1"
       nodesatellites_param="F,0,0,1,0,1,0,1 @ F,0,0,1,0,1,0,1 @ F,0,0,1,0,1,0,1 @ F,0,0,1,0,1,0,1"
       radius="0"
       unit="px"
       method="auto"
       mode="F"
       chamfer_steps="1"
       flexible="false"
       use_knot_distance="true"
       apply_no_radius="true"
       apply_with_radius="true"
       only_selected="false"
       hide_knots="false" /><inkscape:path-effect
       effect="fillet_chamfer"
       id="path-effect1-7"
       is_visible="true"
       lpeversion="1"
       nodesatellites_param="F,0,0,1,0,1,0,1 @ F,0,0,1,0,1,0,1 @ F,0,0,1,0,1,0,1 @ F,0,0,1,0,1,0,1"
       radius="0"
       unit="px"
       method="auto"
       mode="F"
       chamfer_steps="1"
       flexible="false"
       use_knot_distance="true"
       apply_no_radius="true"
       apply_with_radius="true"
       only_selected="false"
       hide_knots="false" /><inkscape:path-effect
       effect="fillet_chamfer"
       id="path-effect1-7-8"
       is_visible="true"
       lpeversion="1"
       nodesatellites_param="F,0,0,1,0,1,0,1 @ F,0,0,1,0,1,0,1 @ F,0,0,1,0,1,0,1 @ F,0,0,1,0,1,0,1"
       radius="0"
       unit="px"
       method="auto"
       mode="F"
       chamfer_steps="1"
       flexible="false"
       use_knot_distance="true"
       apply_no_radius="true"
       apply_with_radius="true"
       only_selected="false"
       hide_knots="false" /></defs><sodipodi:namedview
     id="namedview1"
     pagecolor="#505050"
     bordercolor="#eeeeee"
     borderopacity="1"
     inkscape:showpageshadow="0"
     inkscape:pageopacity="0"
     inkscape:pagecheckerboard="0"
     inkscape:deskcolor="#505050"
     inkscape:zoom="6.5144343"
     inkscape:cx="12.280422"
     inkscape:cy="23.639812"
     inkscape:window-width="1472"
     inkscape:window-height="923"
     inkscape:window-x="0"
     inkscape:window-y="33"
     inkscape:window-maximized="0"
     inkscape:current-layer="svg1" /><path
     id="rect1-8"
     style="stroke:#000000;stroke-width:0.999998;stroke-linecap:round;stroke-miterlimit:83.9;paint-order:markers fill stroke"
     d="m 3.3686633,4.3880181 10.2283467,0 a 1,1 45 0 1 1,1 v 1.5354331 a 1,1 135 0 1 -1,1 H 3.3686633 a 1,1 45 0 1 -1,-1 V 5.3880181 a 1,1 135 0 1 1,-1 z"
     inkscape:path-effect="#path-effect1"
     inkscape:original-d="M 2.3686633,4.3880181 H 14.59701 V 7.9234512 H 2.3686633 Z"
     transform="translate(0.6825167,-1.3368382)" /><path
     id="rect1-8-2"
     style="stroke:#000000;stroke-width:0.999998;stroke-linecap:round;stroke-miterlimit:83.9;paint-order:markers fill stroke"
     d="m 3.3686633,4.3880181 10.2283467,0 a 1,1 45 0 1 1,1 v 1.5354331 a 1,1 135 0 1 -1,1 H 3.3686633 a 1,1 45 0 1 -1,-1 V 5.3880181 a 1,1 135 0 1 1,-1 z"
     inkscape:path-effect="#path-effect1-7"
     inkscape:original-d="M 2.3686633,4.3880181 H 14.59701 V 7.9234512 H 2.3686633 Z"
     transform="translate(0.6825167,13.025369)" /><path
     id="rect1-8-2-5"
     style="stroke:#000000;stroke-width:0.999998;stroke-linecap:round;stroke-miterlimit:83.9;paint-order:markers fill stroke"
     d="m 3.3686633,4.3880181 10.2283467,0 a 1,1 45 0 1 1,1 v 1.5354331 a 1,1 135 0 1 -1,1 H 3.3686633 a 1,1 45 0 1 -1,-1 V 5.3880181 a 1,1 135 0 1 1,-1 z"
     inkscape:path-effect="#path-effect1-7-8"
     inkscape:original-d="M 2.3686633,4.3880181 H 14.59701 V 7.9234512 H 2.3686633 Z"
     transform="translate(0.6825167,5.8442653)" /><path
     id="rect2"
     style="stroke:#000000;stroke-width:0.999998;stroke-linecap:round;stroke-miterlimit:83.9;paint-order:markers fill stroke"
     d="m 12.902473,2.3897638 h 3.495166 a 2,2 45 0 1 2,2 V 14.507874 a 2,2 135 0 1 -2,2 h -3.495166"
     sodipodi:nodetypes="cccc"
     inkscape:path-effect="#path-effect2"
     inkscape:original-d="m 12.902473,2.3897638 h 5.495166 V 16.507874 h -5.495166"
     transform="translate(2.551181,2.5511809)" /><path
     style="fill:none;stroke:#000000;stroke-linecap:round;stroke-miterlimit:83.9;paint-order:markers fill stroke"
     d="m 15.496654,12 h 5.452165"
     id="path2"
     sodipodi:nodetypes="cc" /></svg>
