<?xml version="1.0" encoding="UTF-8" standalone="no"?>
<svg
   viewBox="0 0 24 24"
   aria-hidden="true"
   version="1.1"
   id="svg1"
   sodipodi:docname="clear-all-files.svg"
   inkscape:version="1.4.2 (ebf0e940, 2025-05-08)"
   xmlns:inkscape="http://www.inkscape.org/namespaces/inkscape"
   xmlns:sodipodi="http://sodipodi.sourceforge.net/DTD/sodipodi-0.dtd"
   xmlns="http://www.w3.org/2000/svg"
   xmlns:svg="http://www.w3.org/2000/svg">
  <defs
     id="defs1">
    <inkscape:path-effect
       effect="fillet_chamfer"
       id="path-effect3"
       is_visible="true"
       lpeversion="1"
       nodesatellites_param="F,0,0,1,0,0,0,1 @ F,0,0,1,0,2,0,1 @ F,0,0,1,0,0,0,1"
       radius="0"
       unit="px"
       method="auto"
       mode="F"
       chamfer_steps="1"
       flexible="false"
       use_knot_distance="true"
       apply_no_radius="true"
       apply_with_radius="true"
       only_selected="false"
       hide_knots="false" />
  </defs>
  <sodipodi:namedview
     id="namedview1"
     pagecolor="#505050"
     bordercolor="#eeeeee"
     borderopacity="1"
     inkscape:showpageshadow="0"
     inkscape:pageopacity="0"
     inkscape:pagecheckerboard="0"
     inkscape:deskcolor="#505050"
     inkscape:zoom="12.146051"
     inkscape:cx="9.8797542"
     inkscape:cy="6.6688341"
     inkscape:window-width="1472"
     inkscape:window-height="923"
     inkscape:window-x="0"
     inkscape:window-y="33"
     inkscape:window-maximized="0"
     inkscape:current-layer="svg1" />
  <path
     style="fill:none;stroke:#000000;stroke-width:0.99999;stroke-linecap:round;stroke-miterlimit:10;paint-order:fill markers stroke"
     d="m 7.586545,7.58661 6.559065,6.559064"
     id="path2" />
  <path
     style="fill:none;stroke:#000000;stroke-width:0.99999;stroke-linecap:round;stroke-miterlimit:10;paint-order:fill markers stroke"
     d="M 14.14561,7.586609 7.586546,14.145674"
     id="path2-5" />
  <path
     id="rect1"
     style="fill:none;stroke:#000000;stroke-width:0.999997;stroke-linecap:round;stroke-miterlimit:10;paint-order:fill markers stroke"
     d="m 7.479511,3.05118 h 6.773133 c 2.453296,0 4.428332,1.975036 4.428332,4.428331 v 6.773261 c 0,2.453296 -1.975036,4.428331 -4.428332,4.428331 H 7.479511 c -2.453296,0 -4.428332,-1.975035 -4.428332,-4.428331 V 7.479511 c 0,-2.453295 1.975036,-4.428331 4.428332,-4.428331 z" />
  <path
     id="rect1-7"
     style="fill:none;stroke:#000000;stroke-width:0.999997;stroke-linecap:round;stroke-miterlimit:10;paint-order:fill markers stroke"
     d="m 18.63466,5.851842 c 0.125513,0.06802 0.247331,0.141917 0.365088,0.221341 0.235515,0.15885 0.454786,0.339788 0.654892,0.539894 0.200105,0.200105 0.381044,0.419377 0.539893,0.654891 0.15885,0.235515 0.295609,0.487272 0.407355,0.752349 0.223492,0.530155 0.346932,1.113587 0.346932,1.726911 v 6.773262 c 0,2.453295 -1.975036,4.428331 -4.428332,4.428331 H 9.747355 c -0.613324,0 -1.196757,-0.12344 -1.726911,-0.346932 C 7.490289,20.378397 7.013413,20.054852 6.613203,19.654641 6.51315,19.554589 6.417889,19.449744 6.327785,19.340474 6.237685,19.231204 6.152734,19.117507 6.07331,18.99975 5.99388,18.881993 5.919983,18.760174 5.851969,18.634661"
     sodipodi:nodetypes="cssssssssssssc" />
</svg>
