<?xml version="1.0" encoding="UTF-8" standalone="no"?>
<svg
   viewBox="0 0 24 24"
   aria-hidden="true"
   version="1.1"
   id="svg1"
   sodipodi:docname="select-all-files.svg"
   xml:space="preserve"
   inkscape:version="1.4.2 (ebf0e940, 2025-05-08)"
   xmlns:inkscape="http://www.inkscape.org/namespaces/inkscape"
   xmlns:sodipodi="http://sodipodi.sourceforge.net/DTD/sodipodi-0.dtd"
   xmlns="http://www.w3.org/2000/svg"
   xmlns:svg="http://www.w3.org/2000/svg"><defs
     id="defs1"><inkscape:path-effect
       effect="fillet_chamfer"
       id="path-effect3"
       is_visible="true"
       lpeversion="1"
       nodesatellites_param="F,0,0,1,0,0,0,1 @ F,0,0,1,0,2,0,1 @ F,0,0,1,0,0,0,1"
       radius="0"
       unit="px"
       method="auto"
       mode="F"
       chamfer_steps="1"
       flexible="false"
       use_knot_distance="true"
       apply_no_radius="true"
       apply_with_radius="true"
       only_selected="false"
       hide_knots="false" /></defs><sodipodi:namedview
     id="namedview1"
     pagecolor="#505050"
     bordercolor="#eeeeee"
     borderopacity="1"
     inkscape:showpageshadow="0"
     inkscape:pageopacity="0"
     inkscape:pagecheckerboard="0"
     inkscape:deskcolor="#505050"
     inkscape:zoom="8.140493"
     inkscape:cx="12.652796"
     inkscape:cy="4.0538085"
     inkscape:window-width="1472"
     inkscape:window-height="923"
     inkscape:window-x="0"
     inkscape:window-y="33"
     inkscape:window-maximized="0"
     inkscape:current-layer="svg1" /><g
     id="g3"
     transform="translate(0.19884375,23.839829)"><path
       id="rect1"
       style="fill:none;stroke:#000000;stroke-width:0.999997;stroke-linecap:round;stroke-miterlimit:10;paint-order:fill markers stroke"
       d="m 7.2806675,-20.78865 h 6.7731335 c 2.453296,0 4.428332,1.975036 4.428332,4.428331 v 6.7732609 c 0,2.4532957 -1.975036,4.4283316 -4.428332,4.4283316 H 7.2806675 c -2.4532959,0 -4.428332,-1.9750359 -4.428332,-4.4283316 v -6.7732609 c 0,-2.453295 1.9750361,-4.428331 4.428332,-4.428331 z" /><path
       id="rect1-7"
       style="fill:none;stroke:#000000;stroke-width:0.999997;stroke-linecap:round;stroke-miterlimit:10;paint-order:fill markers stroke"
       d="m 18.435817,-17.987988 c 0.125513,0.06802 0.247331,0.141917 0.365088,0.221341 0.235515,0.15885 0.454786,0.339788 0.654892,0.539894 0.200105,0.200105 0.381044,0.419377 0.539893,0.654891 0.15885,0.235515 0.295609,0.487272 0.407355,0.752349 0.223492,0.530155 0.346932,1.113587 0.346932,1.726911 v 6.7732616 c 0,2.4532957 -1.975036,4.4283316 -4.428332,4.4283316 H 9.5485117 c -0.613324,0 -1.1967567,-0.1234397 -1.7269111,-0.3469321 C 7.2914462,-3.4614333 6.8145702,-3.7849782 6.4143597,-4.1851887 6.3143071,-4.2852413 6.219046,-4.3900855 6.128942,-4.4993559 6.038838,-4.6086263 5.953891,-4.7223228 5.8744665,-4.8400801 5.7950419,-4.9578374 5.7211398,-5.0796555 5.6531255,-5.2051688"
       sodipodi:nodetypes="cssssssssssssc" /><path
       id="rect3"
       style="fill:none;stroke:#000000;stroke-width:1.07504;stroke-linecap:round;stroke-miterlimit:10;paint-order:fill markers stroke"
       d="m 39.149402,-14.731404 -5.754353,8.3159892 a 1.3839249,1.3839249 2.2140349e-6 0 1 -2.276072,-1e-7 l -2.308158,-3.3356696"
       sodipodi:nodetypes="ccc"
       inkscape:path-effect="#path-effect3"
       inkscape:original-d="m 39.149402,-14.731404 -6.892389,9.9606392 -3.446194,-4.9803197"
       transform="matrix(0.9272416,0,0,0.93314255,-20.840538,-3.3804557)" /></g></svg>
