<?xml version="1.0" encoding="UTF-8" standalone="no"?>
<svg
   width="24"
   height="24"
   viewBox="0 0 24 24"
   fill="none"
   version="1.1"
   id="svg1"
   sodipodi:docname="capture.svg"
   inkscape:version="1.4.2 (ebf0e940, 2025-05-08)"
   xmlns:inkscape="http://www.inkscape.org/namespaces/inkscape"
   xmlns:sodipodi="http://sodipodi.sourceforge.net/DTD/sodipodi-0.dtd"
   xmlns="http://www.w3.org/2000/svg"
   xmlns:svg="http://www.w3.org/2000/svg">
  <defs
     id="defs1" />
  <sodipodi:namedview
     id="namedview1"
     pagecolor="#505050"
     bordercolor="#eeeeee"
     borderopacity="1"
     inkscape:showpageshadow="0"
     inkscape:pageopacity="0"
     inkscape:pagecheckerboard="0"
     inkscape:deskcolor="#505050"
     inkscape:zoom="4.5596335"
     inkscape:cx="0.76760555"
     inkscape:cy="10.856136"
     inkscape:window-width="1472"
     inkscape:window-height="868"
     inkscape:window-x="0"
     inkscape:window-y="32"
     inkscape:window-maximized="0"
     inkscape:current-layer="svg1" />
  <path
     id="path1-8-1-50-2-6"
     d="M 7.0422614,3.5589494 C 7.9852807,3.7252291 8.6149545,4.6244957 8.4486746,5.5675156 8.2823947,6.5105362 7.3831277,7.1402086 6.4401084,6.9739289 5.4970891,6.8076491 4.8674152,5.9083832 5.0336951,4.9653626 5.199975,4.0223427 6.0992421,3.3926696 7.0422614,3.5589494 Z m 6.6829696,-6e-7 c 0.943026,0.1662809 1.572693,1.0655456 1.406413,2.0085662 -0.16628,0.9430207 -1.06554,1.5726942 -2.008566,1.4064133 C 12.180059,6.8076485 11.550385,5.9083827 11.716665,4.965362 11.882945,4.0223414 12.782212,3.392669 13.725231,3.5589488 Z m 6.682977,6e-7 c 0.943019,0.1662797 1.572693,1.0655456 1.406413,2.0085662 -0.16628,0.9430207 -1.065547,1.572693 -2.008566,1.4064133 C 18.863036,6.8076491 18.233362,5.9083833 18.399642,4.9653626 18.565922,4.022342 19.465189,3.3926696 20.408208,3.5589494 Z M 3.591788,8.3750353 C 4.534812,8.2087562 5.4340737,8.8384283 5.6003528,9.7814489 5.766632,10.724469 5.1369646,11.623736 4.1939405,11.790015 3.2509231,11.956296 2.3516546,11.326622 2.1853755,10.383602 2.0190965,9.4405813 2.6487706,8.5413164 3.591788,8.3750353 Z m 6.682977,6e-7 C 11.217782,8.2087556 12.11705,8.8384289 12.28333,9.7814488 12.449609,10.724469 11.819934,11.623735 10.876917,11.790015 9.9338931,11.956294 9.0346312,11.326623 8.8683522,10.383602 8.7020663,9.4405807 9.3317405,8.5413151 10.274765,8.3750359 Z m 6.682969,-5e-7 c 0.943024,-0.1662792 1.842286,0.4633923 2.008565,1.4064128 0.166286,0.9430218 -0.463388,1.8422878 -1.406412,2.0085668 -0.943017,0.16628 -1.842286,-0.463393 -2.008565,-1.406413 -0.166279,-0.9430207 0.463395,-1.8422863 1.406412,-2.0085666 z M 7.0422578,13.191121 c 0.9430261,0.166281 1.5726931,1.065547 1.4064133,2.008566 -0.16628,0.943021 -1.0655402,1.572695 -2.0085663,1.406414 -0.9430192,-0.16628 -1.5726932,-1.065546 -1.4064132,-2.008567 0.1662798,-0.943019 1.065547,-1.572693 2.0085662,-1.406413 z m 6.6829762,10e-7 c 0.94302,0.16628 1.572694,1.065545 1.406414,2.008566 -0.16628,0.943021 -1.065547,1.572693 -2.008567,1.406413 -0.943019,-0.166279 -1.572693,-1.065545 -1.406413,-2.008566 0.16628,-0.943021 1.065547,-1.572693 2.008566,-1.406413 z m 6.682977,0 c 0.943019,0.16628 1.57269,1.065545 1.40641,2.008566 -0.16628,0.943021 -1.065544,1.572694 -2.008563,1.406414 -0.943026,-0.166281 -1.572693,-1.065546 -1.406413,-2.008566 0.16628,-0.943021 1.06554,-1.572695 2.008566,-1.406414 z M 3.5917912,18.007208 c 0.9430173,-0.16628 1.8422858,0.463393 2.0085649,1.406414 0.1662792,0.94302 -0.4633951,1.842285 -1.4064123,2.008566 -0.9430242,0.16628 -1.8422859,-0.463393 -2.008565,-1.406413 -0.1662859,-0.943022 0.4633882,-1.842287 1.4064124,-2.008567 z m 6.6829698,0 c 0.943024,-0.166279 1.842286,0.463393 2.008565,1.406413 0.166286,0.943021 -0.463388,1.842287 -1.406412,2.008566 -0.9430178,0.166281 -1.8422863,-0.463392 -2.0085654,-1.406413 -0.1662791,-0.94302 0.4633951,-1.842286 1.4064124,-2.008566 z m 6.682977,0 c 0.943017,-0.16628 1.842286,0.463393 2.008565,1.406413 0.166279,0.943021 -0.463396,1.842286 -1.406413,2.008567 -0.943024,0.166279 -1.842286,-0.463393 -2.008565,-1.406413 -0.166279,-0.943021 0.463389,-1.842287 1.406413,-2.008567 z"
     style="fill:#ffffff;stroke-width:7.55909;stroke-linecap:round;stroke-linejoin:round" />
  <path
     id="path1-8-1-5-3-9-0"
     d="m 4.9331667,3.9382459 c 0,0.7660549 -0.6210095,1.3870644 -1.3870644,1.3870644 -0.7660548,0 -1.3870644,-0.6210095 -1.3870644,-1.3870644 0,-0.7660548 0.6210096,-1.3870644 1.3870644,-1.3870644 0.7660549,0 1.3870644,0.6210096 1.3870644,1.3870644 z m 6.6829723,0 c 0,0.7660549 -0.62101,1.3870644 -1.387063,1.3870644 -0.7660552,0 -1.3870647,-0.6210095 -1.3870647,-1.3870644 0,-0.7660548 0.6210095,-1.3870644 1.3870647,-1.3870644 0.766053,0 1.387063,0.6210096 1.387063,1.3870644 z m 6.682974,0 c 0,0.7660549 -0.62101,1.3870644 -1.387065,1.3870644 -0.766054,0 -1.387064,-0.6210095 -1.387064,-1.3870644 0,-0.7660548 0.62101,-1.3870644 1.387064,-1.3870644 0.766055,0 1.387065,0.6210096 1.387065,1.3870644 z M 5.7008861,8.7543277 c 0,-0.7660549 0.6210095,-1.3870644 1.3870644,-1.3870644 0.7660548,0 1.3870644,0.6210095 1.3870644,1.3870644 0,0.7660549 -0.6210096,1.3870643 -1.3870644,1.3870643 -0.7660549,0 -1.3870644,-0.6210094 -1.3870644,-1.3870643 z m 6.6829749,0 c 0,-0.7660549 0.62101,-1.3870644 1.387064,-1.3870644 0.766055,0 1.387065,0.6210095 1.387065,1.3870644 0,0.7660549 -0.62101,1.3870643 -1.387065,1.3870643 -0.766054,0 -1.387064,-0.6210094 -1.387064,-1.3870643 z m 6.682974,0 c 0,-0.7660549 0.621009,-1.3870644 1.387064,-1.3870644 0.766054,0 1.387065,0.6210095 1.387065,1.3870644 0,0.7660549 -0.621011,1.3870643 -1.387065,1.3870643 -0.766055,0 -1.387064,-0.6210094 -1.387064,-1.3870643 z M 4.9331667,13.570415 c 0,0.766055 -0.6210095,1.387064 -1.3870644,1.387064 -0.7660548,0 -1.3870644,-0.621009 -1.3870644,-1.387064 0,-0.766054 0.6210096,-1.387063 1.3870644,-1.387063 0.7660549,0 1.3870644,0.621009 1.3870644,1.387063 z m 6.6829723,0 c 0,0.766055 -0.62101,1.387064 -1.387063,1.387064 -0.7660552,0 -1.3870647,-0.621009 -1.3870647,-1.387064 0,-0.766054 0.6210095,-1.387063 1.3870647,-1.387063 0.766053,0 1.387063,0.621009 1.387063,1.387063 z m 6.682974,0 c 0,0.766055 -0.62101,1.387064 -1.387065,1.387064 -0.766054,0 -1.387064,-0.621009 -1.387064,-1.387064 0,-0.766054 0.62101,-1.387063 1.387064,-1.387063 0.766055,0 1.387065,0.621009 1.387065,1.387063 z M 5.7008861,18.386502 c 0,-0.766055 0.6210095,-1.387065 1.3870644,-1.387065 0.7660548,0 1.3870644,0.62101 1.3870644,1.387065 0,0.766054 -0.6210096,1.387064 -1.3870644,1.387064 -0.7660549,0 -1.3870644,-0.62101 -1.3870644,-1.387064 z m 6.6829749,0 c 0,-0.766055 0.62101,-1.387065 1.387064,-1.387065 0.766055,0 1.387065,0.62101 1.387065,1.387065 0,0.766054 -0.62101,1.387064 -1.387065,1.387064 -0.766054,0 -1.387064,-0.62101 -1.387064,-1.387064 z m 6.682974,0 c 0,-0.766055 0.621009,-1.387065 1.387064,-1.387065 0.766054,0 1.387065,0.62101 1.387065,1.387065 0,0.766054 -0.621011,1.387064 -1.387065,1.387064 -0.766055,0 -1.387064,-0.62101 -1.387064,-1.387064 z"
     style="fill:#ffffff;stroke-width:7.55902;stroke-linecap:round;stroke-linejoin:round" />
</svg>
