<?xml version="1.0" encoding="UTF-8" standalone="no"?>
<svg
   viewBox="0 0 24 24"
   fill="none"
   version="1.1"
   id="svg1"
   sodipodi:docname="notification-account.svg"
   width="24"
   height="24"
   inkscape:version="1.4.2 (ebf0e940, 2025-05-08)"
   xmlns:inkscape="http://www.inkscape.org/namespaces/inkscape"
   xmlns:sodipodi="http://sodipodi.sourceforge.net/DTD/sodipodi-0.dtd"
   xmlns="http://www.w3.org/2000/svg"
   xmlns:svg="http://www.w3.org/2000/svg">
  <defs
     id="defs1">
    <inkscape:path-effect
       effect="fillet_chamfer"
       id="path-effect1"
       is_visible="true"
       lpeversion="1"
       nodesatellites_param="F,0,0,1,0,2,0,1 @ F,0,0,1,0,2,0,1 @ F,0,0,1,0,2,0,1 @ F,0,0,1,0,2,0,1 @ F,0,0,1,0,2,0,1 @ F,0,0,1,0,2,0,1 @ F,0,0,1,0,2,0,1 @ F,0,0,1,0,2,0,1"
       radius="0"
       unit="px"
       method="auto"
       mode="F"
       chamfer_steps="1"
       flexible="false"
       use_knot_distance="true"
       apply_no_radius="true"
       apply_with_radius="true"
       only_selected="false"
       hide_knots="false" />
    <inkscape:path-effect
       effect="fillet_chamfer"
       id="path-effect2"
       is_visible="true"
       lpeversion="1"
       nodesatellites_param="F,0,0,1,0,6,0,1 @ F,0,0,1,0,6,0,1 @ F,0,0,1,0,6,0,1 @ F,0,0,1,0,6,0,1"
       radius="0"
       unit="px"
       method="auto"
       mode="F"
       chamfer_steps="1"
       flexible="false"
       use_knot_distance="true"
       apply_no_radius="true"
       apply_with_radius="true"
       only_selected="false"
       hide_knots="false" />
  </defs>
  <sodipodi:namedview
     id="namedview1"
     pagecolor="#505050"
     bordercolor="#eeeeee"
     borderopacity="1"
     inkscape:showpageshadow="0"
     inkscape:pageopacity="0"
     inkscape:pagecheckerboard="0"
     inkscape:deskcolor="#505050"
     inkscape:zoom="14.384805"
     inkscape:cx="10.705741"
     inkscape:cy="7.9945471"
     inkscape:window-width="1472"
     inkscape:window-height="923"
     inkscape:window-x="0"
     inkscape:window-y="33"
     inkscape:window-maximized="0"
     inkscape:current-layer="svg1" />
  <path
     id="rect1"
     style="stroke:#000000;stroke-linecap:round;stroke-miterlimit:83.9;paint-order:markers fill stroke"
     d="m 9.5255903,3.0511808 h 4.9488187 a 4.8284275,4.8284275 22.499998 0 1 3.414214,1.4142135 l 1.645982,1.6459825 a 4.8284267,4.8284267 67.499998 0 1 1.414214,3.4142135 v 4.9488187 a 4.8284271,4.8284271 112.5 0 1 -1.414214,3.414214 l -1.645982,1.645982 a 4.8284271,4.8284271 157.5 0 1 -3.414214,1.414214 H 9.5255903 A 4.8284267,4.8284267 22.500002 0 1 6.1113768,19.534605 L 4.4653943,17.888623 A 4.8284275,4.8284275 67.500002 0 1 3.0511808,14.474409 V 9.5255903 A 4.8284271,4.8284271 112.5 0 1 4.4653944,6.1113767 L 6.1113767,4.4653944 A 4.8284271,4.8284271 157.5 0 1 9.5255903,3.0511808 Z"
     sodipodi:nodetypes="ccccccccc"
     inkscape:path-effect="#path-effect1"
     inkscape:original-d="m 7.5255903,3.0511808 h 8.9488187 l 4.47441,4.4744095 v 8.9488187 l -4.47441,4.47441 H 7.5255903 L 3.0511808,16.474409 V 7.5255903 Z" />
  <g
     id="g1"
     transform="translate(15.019301,18.151903)">
    <path
       id="path1"
       style="stroke:#000000;stroke-width:1;stroke-linecap:round;stroke-linejoin:round;stroke-miterlimit:79.1;paint-order:stroke fill markers"
       d="m -9.655453,0.33111135 c 0.287637,-0.426862 0.6151673,-0.824483 0.977229,-1.187484 0.7241225,-0.72600095 1.5863676,-1.31351995 2.5438233,-1.71953995 0.957457,-0.406021 2.010127,-0.630542 3.1151,-0.630542 1.104974,0 2.15764302,0.224521 3.11510002,0.630542 0.95745698,0.40602 1.81970098,0.99354 2.54382298,1.71953995 0.362061,0.363001 0.689592,0.760622 0.977229,1.187484"
       sodipodi:nodetypes="csssssc" />
    <ellipse
       style="fill:none;stroke:#000000;stroke-width:1;stroke-linecap:round;stroke-linejoin:round;stroke-miterlimit:79.1;paint-order:stroke fill markers"
       id="path1-2"
       cx="-3.0193009"
       cy="-8.907238"
       rx="3.7180357"
       ry="3.7276797" />
  </g>
</svg>
