<?xml version="1.0" encoding="UTF-8" standalone="no"?>
<svg
   viewBox="0 0 24 24"
   fill="none"
   version="1.1"
   id="svg1"
   sodipodi:docname="notification-cognitive.svg"
   xml:space="preserve"
   width="24"
   height="24"
   inkscape:version="1.4.2 (ebf0e940, 2025-05-08)"
   xmlns:inkscape="http://www.inkscape.org/namespaces/inkscape"
   xmlns:sodipodi="http://sodipodi.sourceforge.net/DTD/sodipodi-0.dtd"
   xmlns="http://www.w3.org/2000/svg"
   xmlns:svg="http://www.w3.org/2000/svg"><defs
     id="defs1"><inkscape:path-effect
       effect="fillet_chamfer"
       id="path-effect2-9"
       is_visible="true"
       lpeversion="1"
       nodesatellites_param="F,0,0,1,0,2,0,1 @ F,0,0,1,0,2,0,1 @ F,0,0,1,0,2,0,1 @ F,0,0,1,0,2,0,1 @ F,0,0,1,0,2,0,1 @ F,0,0,1,0,2,0,1"
       radius="0"
       unit="px"
       method="auto"
       mode="F"
       chamfer_steps="1"
       flexible="false"
       use_knot_distance="true"
       apply_no_radius="true"
       apply_with_radius="true"
       only_selected="false"
       hide_knots="false" /></defs><sodipodi:namedview
     id="namedview1"
     pagecolor="#505050"
     bordercolor="#eeeeee"
     borderopacity="1"
     inkscape:showpageshadow="0"
     inkscape:pageopacity="0"
     inkscape:pagecheckerboard="0"
     inkscape:deskcolor="#505050"
     inkscape:zoom="9.6533083"
     inkscape:cx="10.359143"
     inkscape:cy="18.957231"
     inkscape:window-width="1472"
     inkscape:window-height="923"
     inkscape:window-x="0"
     inkscape:window-y="33"
     inkscape:window-maximized="0"
     inkscape:current-layer="svg1" /><ellipse
     style="fill:none;stroke:#000000;stroke-width:0.999994;stroke-linecap:round;stroke-linejoin:round;stroke-miterlimit:83.9;paint-order:markers fill stroke"
     id="path1-6"
     cx="12"
     cy="12"
     rx="3.27953"
     ry="3.2795305" /><path
     id="rect1-7"
     style="stroke:#000000;stroke-width:1.20364;stroke-linecap:round;stroke-linejoin:round;stroke-miterlimit:83.9;paint-order:markers fill stroke"
     d="m 16.020503,-30.066305 5.37111,2.685555 a 3.236068,3.236068 58.282526 0 1 1.788854,2.894427 v 4.948818 a 3.236068,3.236068 121.71747 0 1 -1.788854,2.894427 l -5.37111,2.685555 a 4.0000002,4.0000002 180 0 1 -3.577708,0 l -5.3711103,-2.685555 a 3.2360679,3.2360679 58.282525 0 1 -1.7888544,-2.894427 l 0,-4.948818 a 3.2360679,3.2360679 121.71748 0 1 1.7888544,-2.894427 l 5.3711103,-2.685555 a 4.0000002,4.0000002 8.9636514e-7 0 1 3.577708,0 z"
     sodipodi:nodetypes="ccccccc"
     inkscape:path-effect="#path-effect2-9"
     inkscape:original-d="m 14.231649,-30.960732 8.948818,4.474409 v 8.948818 l -8.948818,4.474409 -8.9488187,-4.474409 v -8.948818 z"
     transform="matrix(0.83105114,0,0,0.83055772,0.17277217,30.282165)" /><path
     style="fill:none;stroke:#000000;stroke-width:0.999999;stroke-linecap:round;stroke-linejoin:round;stroke-miterlimit:83.9;paint-order:markers fill stroke"
     d="m 3.0511814,7.8056086 0.5592999,0.262149 0.5593015,0.262149 0.5593014,0.2621505 m 14.5418318,6.8158859 0.5593,0.262149 0.559302,0.26215 0.559301,0.262149"
     id="path2"
     sodipodi:nodetypes="cccccccc" /><path
     style="fill:none;stroke:#000000;stroke-width:0.999999;stroke-linecap:round;stroke-linejoin:round;stroke-miterlimit:83.9;paint-order:markers fill stroke"
     d="M 20.504047,6.9348281 19.972544,7.2514009 19.441041,7.5679753 18.909538,7.8845481 M 5.0904621,16.115452 4.5589592,16.432026 4.0274563,16.748599 3.4959534,17.065172"
     id="path2-4"
     sodipodi:nodetypes="cccccccc" /></svg>
