<?xml version="1.0" encoding="UTF-8" standalone="no"?>
<svg
   viewBox="0 0 24 24"
   width="24"
   height="24"
   fill="none"
   aria-hidden="true"
   version="1.1"
   id="svg1"
   sodipodi:docname="cognitive.svg"
   inkscape:version="1.4.2 (ebf0e940, 2025-05-08)"
   xml:space="preserve"
   xmlns:inkscape="http://www.inkscape.org/namespaces/inkscape"
   xmlns:sodipodi="http://sodipodi.sourceforge.net/DTD/sodipodi-0.dtd"
   xmlns="http://www.w3.org/2000/svg"
   xmlns:svg="http://www.w3.org/2000/svg"><defs
     id="defs1"><inkscape:path-effect
       effect="fillet_chamfer"
       id="path-effect1"
       is_visible="true"
       lpeversion="1"
       nodesatellites_param="F,0,0,1,0,0,0,1 @ F,0,0,1,0,3,0,1 @ F,0,0,1,0,0,0,1 @ F,0,0,1,0,0,0,1 @ F,0,0,1,0,0,0,1"
       radius="0"
       unit="px"
       method="auto"
       mode="F"
       chamfer_steps="1"
       flexible="false"
       use_knot_distance="true"
       apply_no_radius="true"
       apply_with_radius="true"
       only_selected="false"
       hide_knots="false" /><inkscape:path-effect
       effect="fillet_chamfer"
       id="path-effect2"
       is_visible="true"
       lpeversion="1"
       nodesatellites_param="F,0,0,1,0,0,0,1 @ F,0,0,1,0,0,0,1 @ F,0,0,1,0,0,0,1 @ F,0,0,1,0,0,0,1 @ F,0,0,1,0,0,0,1 @ F,0,0,1,0,0,0,1 @ F,0,0,1,0,0,0,1 @ F,0,0,1,0,1,0,1 @ F,0,0,1,0,0,0,1 @ F,0,0,1,0,0,0,1 @ F,0,0,1,0,0,0,1 @ F,0,0,1,0,0,0,1 @ F,0,0,1,0,0,0,1 @ F,0,0,1,0,0,0,1 @ F,0,0,1,0,0,0,1"
       radius="0"
       unit="px"
       method="auto"
       mode="F"
       chamfer_steps="1"
       flexible="false"
       use_knot_distance="true"
       apply_no_radius="true"
       apply_with_radius="true"
       only_selected="false"
       hide_knots="false" /></defs><sodipodi:namedview
     id="namedview1"
     pagecolor="#505050"
     bordercolor="#eeeeee"
     borderopacity="1"
     inkscape:showpageshadow="0"
     inkscape:pageopacity="0"
     inkscape:pagecheckerboard="0"
     inkscape:deskcolor="#505050"
     inkscape:zoom="8.7469988"
     inkscape:cx="11.661142"
     inkscape:cy="12.232767"
     inkscape:window-width="1472"
     inkscape:window-height="923"
     inkscape:window-x="0"
     inkscape:window-y="33"
     inkscape:window-maximized="0"
     inkscape:current-layer="svg1" /><path
     id="rect1-5"
     style="fill:none;stroke:#000000;stroke-width:1.00023;stroke-linecap:round;stroke-miterlimit:10;paint-order:fill markers stroke"
     d="M 11.217343,21.153775 V 18.4846 A 2.8353685,2.8353685 48.573535 0 0 8.5663172,15.4804 C 6.2993815,15.4762 4.831087,14.00787 4.8310871,12.196637 c 10e-8,-0.905617 0.3670737,-1.725498 0.9605515,-2.3189761"
     sodipodi:nodetypes="cccsc"
     inkscape:path-effect="#path-effect1"
     inkscape:original-d="M 11.217343,21.153775 V 15.4846 L 8.5663172,15.4804 C 6.2993815,15.4762 4.831087,14.00787 4.8310871,12.196637 c 10e-8,-0.905617 0.3670737,-1.725498 0.9605515,-2.3189761"
     transform="matrix(1.0000003,0,0,0.99953547,0.22009192,-0.1950719)" /><path
     id="path1"
     style="stroke:#000000;stroke-width:0.999995;stroke-linecap:round;stroke-miterlimit:10;paint-order:fill markers stroke"
     d="M 5.0541672,11.348716 C 4.66181,11.182839 4.3084698,10.942813 4.011731,10.646212 3.7149921,10.349611 3.4748542,9.9964354 3.308901,9.6042607 3.1429478,9.2120858 3.0511794,8.7809115 3.0511793,8.3283135 c -2e-7,-1.8103917 1.4682948,-3.2780043 3.2795283,-3.2780043 0.9056169,0 1.7254991,0.3669031 2.318977,0.9601052"
     sodipodi:nodetypes="cssssc" /><path
     id="path1-1"
     style="stroke:#000000;stroke-width:0.999995;stroke-linecap:round;stroke-miterlimit:10;paint-order:fill markers stroke"
     d="m 15.350316,6.0104143 c 0.296738,-0.296601 0.650078,-0.5366273 1.042436,-0.7025033 0.392357,-0.1658761 0.823733,-0.2576018 1.27654,-0.2576018 1.811234,2e-7 3.279529,1.4676124 3.279529,3.2780043 0,0.905196 -0.367074,1.7246965 -0.960552,2.3178985"
     sodipodi:nodetypes="csssc" /><path
     id="path1-1-9"
     style="stroke:#000000;stroke-width:0.999995;stroke-linecap:round;stroke-miterlimit:10;paint-order:fill markers stroke"
     d="m 20.6911,10.719952 c 0.165952,0.392175 0.257721,0.823349 0.257721,1.275947 0,1.810392 -1.468295,3.278005 -3.279529,3.278005 -1.811233,0 -3.279528,-1.467613 -3.279528,-3.278005"
     sodipodi:nodetypes="cssc" /><path
     id="path1-1-9-4"
     style="stroke:#000000;stroke-width:0.999995;stroke-linecap:round;stroke-miterlimit:10;paint-order:fill markers stroke"
     d="m 15.27953,9.9788644 c 0,0.8988176 -0.745382,1.6274526 -1.664858,1.6274526 -0.459739,0 -0.875954,-0.182158 -1.177234,-0.476669"
     sodipodi:nodetypes="csc" /><path
     id="path1-1-9-4-4"
     style="stroke:#000000;stroke-width:0.999995;stroke-linecap:round;stroke-miterlimit:10;paint-order:fill markers stroke"
     d="m 10.588116,7.7151517 c 0.635854,-0.6355598 1.678383,-0.623962 2.328552,0.025905 0.325083,0.3249322 0.490526,0.7479093 0.495216,1.169098"
     sodipodi:nodetypes="csc" /><path
     id="path1-4"
     style="stroke:#000000;stroke-width:0.999995;stroke-linecap:round;stroke-miterlimit:10;paint-order:fill markers stroke"
     d="m 8.7204718,6.3292426 c 0,-1.8103917 1.4682942,-3.2780041 3.2795282,-3.2780043 0.905617,-1e-7 1.725498,0.3669035 2.318977,0.9601051 0.148369,0.1483005 0.282588,0.3107448 0.40046,0.4851357 0.117871,0.174391 0.219394,0.3607287 0.30237,0.5568162 0.08298,0.1960875 0.147407,0.4019249 0.191093,0.615315 0.04369,0.2133902 0.06663,0.4343332 0.06663,0.6606323"
     sodipodi:nodetypes="csssssc" /></svg>
