<svg width="20" height="20" viewBox="0 0 20 20" fill="none" xmlns="http://www.w3.org/2000/svg">
  <path d="M4.5 5.5C4.5 4.94772 4.94772 4.5 5.5 4.5H14.5C15.0523 4.5 15.5 4.94772 15.5 5.5V14.5C15.5 15.0523 15.0523 15.5 14.5 15.5H5.5C4.94772 15.5 4.5 15.0523 4.5 14.5V5.5Z" stroke="currentColor" stroke-width="1.25"/>
  <path d="M7 11L8.75 9.25C9.16421 8.83579 9.83579 8.83579 10.25 9.25L12.5 11.5L13 11C13.4142 10.5858 14.0858 10.5858 14.5 11L15.5 12" stroke="currentColor" stroke-width="1.25" stroke-linecap="round" stroke-linejoin="round"/>
  <path d="M8 7.5C8.41421 7.5 8.75 7.16421 8.75 6.75C8.75 6.33579 8.41421 6 8 6C7.58579 6 7.25 6.33579 7.25 6.75C7.25 7.16421 7.58579 7.5 8 7.5Z" fill="currentColor"/>
  <path d="M15.5 4.5V7.5" stroke="currentColor" stroke-width="1.25" stroke-linecap="round"/>
  <path d="M14 6H17" stroke="currentColor" stroke-width="1.25" stroke-linecap="round"/>
</svg>
