<?xml version="1.0" encoding="UTF-8" standalone="no"?>
<svg
   width="24"
   height="24"
   viewBox="0 0 24 24"
   fill="none"
   version="1.1"
   id="svg1"
   sodipodi:docname="knowledge.svg"
   xml:space="preserve"
   inkscape:version="1.4.2 (ebf0e940, 2025-05-08)"
   xmlns:inkscape="http://www.inkscape.org/namespaces/inkscape"
   xmlns:sodipodi="http://sodipodi.sourceforge.net/DTD/sodipodi-0.dtd"
   xmlns="http://www.w3.org/2000/svg"
   xmlns:svg="http://www.w3.org/2000/svg"><defs
     id="defs1"><inkscape:path-effect
       effect="fillet_chamfer"
       id="path-effect2"
       is_visible="true"
       lpeversion="1"
       nodesatellites_param="F,0,0,1,0,0,0,1 @ F,0,0,1,0,0,0,1 @ F,0,0,1,0,0,0,1 @ F,0,0,1,0,0,0,1 @ F,0,0,1,0,0,0,1 @ F,0,0,1,0,0,0,1 @ F,0,0,1,0,0,0,1 @ F,0,0,1,0,1,0,1 @ F,0,0,1,0,0,0,1 @ F,0,0,1,0,0,0,1 @ F,0,0,1,0,0,0,1 @ F,0,0,1,0,0,0,1 @ F,0,0,1,0,0,0,1 @ F,0,0,1,0,0,0,1 @ F,0,0,1,0,0,0,1"
       radius="0"
       unit="px"
       method="auto"
       mode="F"
       chamfer_steps="1"
       flexible="false"
       use_knot_distance="true"
       apply_no_radius="true"
       apply_with_radius="true"
       only_selected="false"
       hide_knots="false" /></defs><sodipodi:namedview
     id="namedview1"
     pagecolor="#505050"
     bordercolor="#eeeeee"
     borderopacity="1"
     inkscape:showpageshadow="0"
     inkscape:pageopacity="0"
     inkscape:pagecheckerboard="0"
     inkscape:deskcolor="#505050"
     inkscape:zoom="8.9172739"
     inkscape:cx="-6.3920881"
     inkscape:cy="18.727697"
     inkscape:window-width="1472"
     inkscape:window-height="923"
     inkscape:window-x="0"
     inkscape:window-y="33"
     inkscape:window-maximized="0"
     inkscape:current-layer="svg1" /><path
     id="path1"
     style="stroke:#000000;stroke-width:1;stroke-linecap:round;stroke-linejoin:round;stroke-miterlimit:83.9;paint-order:markers fill stroke"
     d="m 8.2269137,14.033237 c 1.8081463,0 3.2739383,1.383677 3.2739383,3.090529 0,1.706851 -1.465791,3.090529 -3.2739383,3.090529 -1.8081464,0 -3.2739386,-1.383678 -3.2739384,-3.090529"
     sodipodi:nodetypes="cssc" /><path
     id="path1-7"
     style="stroke:#000000;stroke-width:1;stroke-linecap:round;stroke-linejoin:round;stroke-miterlimit:83.9;paint-order:markers fill stroke"
     d="m 10.18678,8.351191 c 0,1.70685 -1.4657962,3.090527 -3.2739423,3.090527"
     sodipodi:nodetypes="cc" /><path
     id="path1-5"
     style="stroke:#000000;stroke-width:1;stroke-linecap:round;stroke-linejoin:round;stroke-miterlimit:83.9;paint-order:markers fill stroke"
     d="m 15.773086,14.033237 c -1.808146,0 -3.273938,1.383676 -3.273938,3.090528 0,1.706852 1.465791,3.090529 3.273938,3.090529 1.808147,0 3.273938,-1.383677 3.273938,-3.090529"
     sodipodi:nodetypes="cssc" /><path
     id="path1-7-2"
     style="stroke:#000000;stroke-width:1;stroke-linecap:round;stroke-linejoin:round;stroke-miterlimit:83.9;paint-order:markers fill stroke"
     d="m 13.81322,8.3511903 c 0,1.7068497 1.465796,3.0905277 3.273942,3.0905277"
     sodipodi:nodetypes="cc" /><path
     id="path1-8-6-1"
     style="stroke:#000000;stroke-width:1.031;stroke-linecap:round;stroke-linejoin:round;stroke-miterlimit:83.9;paint-order:markers fill stroke"
     d="m 10.72441,25.867036 c -2.3330776,0 -4.22441,-1.891333 -4.22441,-4.22441 0,-1.166538 0.4728332,-2.222641 1.2628143,-3.014017 l 0.6269496,-0.537208 v -3.311873 c 0,-0.905617 0.3670736,-1.725499 0.9605514,-2.318977 C 9.9437931,11.867074 10.763675,11.5 11.669292,11.5 c 0.749662,0 1.440576,0.251534 2.821428,0.674809 0.527929,0.161827 1.388349,0.161804 1.916377,-5.4e-5 1.380732,-0.423242 2.071619,-0.674754 2.82125,-0.674754 0.905616,0 1.725498,0.367074 2.318976,0.960552 0.593478,0.593477 0.960551,1.413359 0.960551,2.318976 v 3.311873 l 0.62695,0.537208 c 0.789981,0.791376 1.262814,1.847479 1.262814,3.014017 0,2.333077 -1.891332,4.22441 -4.224409,4.22441"
     sodipodi:nodetypes="cscccsscsscccsc"
     inkscape:path-effect="#path-effect2"
     inkscape:original-d="m 10.72441,25.867036 c -2.3330776,0 -4.22441,-1.891333 -4.22441,-4.22441 0,-1.166538 0.4728332,-2.222641 1.2628143,-3.014017 l 0.6269496,-0.537208 v -3.311873 c 0,-0.905617 0.3670736,-1.725499 0.9605514,-2.318977 C 9.9437931,11.867074 10.763675,11.5 11.669292,11.5 c 0.905616,0 1.725498,0.367074 3.779527,0.960552 2.054029,-0.593477 2.873911,-0.960551 3.779528,-0.960551 0.905616,0 1.725498,0.367074 2.318976,0.960552 0.593478,0.593477 0.960551,1.413359 0.960551,2.318976 v 3.311873 l 0.62695,0.537208 c 0.789981,0.791376 1.262814,1.847479 1.262814,3.014017 0,2.333077 -1.891332,4.22441 -4.224409,4.22441"
     transform="matrix(-0.99829572,0,0,0.94237007,27.42249,-7.0451153)" /><path
     style="fill:none;stroke:#000000;stroke-width:1;stroke-linecap:round;stroke-linejoin:round;stroke-miterlimit:83.9;paint-order:markers fill stroke"
     d="M 12,4.8883321 V 16.821916"
     id="path2"
     sodipodi:nodetypes="cc" /></svg>
