<?xml version="1.0" encoding="UTF-8" standalone="no"?>
<svg
   viewBox="0 0 24 24"
   version="1.1"
   id="svg1"
   sodipodi:docname="response-behavior.svg"
   xml:space="preserve"
   inkscape:version="1.4.2 (ebf0e940, 2025-05-08)"
   xmlns:inkscape="http://www.inkscape.org/namespaces/inkscape"
   xmlns:sodipodi="http://sodipodi.sourceforge.net/DTD/sodipodi-0.dtd"
   xmlns="http://www.w3.org/2000/svg"
   xmlns:svg="http://www.w3.org/2000/svg"><defs
     id="defs1"><inkscape:path-effect
       effect="fillet_chamfer"
       id="path-effect2"
       is_visible="true"
       lpeversion="1"
       nodesatellites_param="F,0,0,1,0,0,0,1 @ F,0,0,1,0,2,0,1 @ F,0,0,1,0,0,0,1"
       radius="0"
       unit="px"
       method="auto"
       mode="F"
       chamfer_steps="1"
       flexible="false"
       use_knot_distance="true"
       apply_no_radius="true"
       apply_with_radius="true"
       only_selected="false"
       hide_knots="false" /><inkscape:path-effect
       effect="fillet_chamfer"
       id="path-effect2-3"
       is_visible="true"
       lpeversion="1"
       nodesatellites_param="F,0,0,1,0,0,0,1 @ F,0,0,1,0,2,0,1 @ F,0,0,1,0,0,0,1"
       radius="0"
       unit="px"
       method="auto"
       mode="F"
       chamfer_steps="1"
       flexible="false"
       use_knot_distance="true"
       apply_no_radius="true"
       apply_with_radius="true"
       only_selected="false"
       hide_knots="false" /></defs><sodipodi:namedview
     id="namedview1"
     pagecolor="#505050"
     bordercolor="#eeeeee"
     borderopacity="1"
     inkscape:showpageshadow="0"
     inkscape:pageopacity="0"
     inkscape:pagecheckerboard="0"
     inkscape:deskcolor="#505050"
     inkscape:zoom="12.826361"
     inkscape:cx="12.552275"
     inkscape:cy="14.111563"
     inkscape:window-width="1472"
     inkscape:window-height="923"
     inkscape:window-x="0"
     inkscape:window-y="33"
     inkscape:window-maximized="0"
     inkscape:current-layer="svg1" /><path
     id="path1"
     style="fill:none;stroke:#000000;stroke-width:0.999992;stroke-linecap:round;stroke-linejoin:round;stroke-miterlimit:83.9;paint-order:markers fill stroke"
     d="M 5.7929312,13.475004 C 5.6842607,13.274959 5.5849787,13.069075 5.4956768,12.857941 5.4063748,12.646808 5.3270529,12.430425 5.2583022,12.209385 5.1895516,11.988345 5.1313724,11.762647 5.0843559,11.532884 5.0373394,11.30312 5.0014857,11.06929 4.977386,10.831985 4.9532864,10.59468 4.9409409,10.3539 4.9409409,10.110237 4.9409408,6.2116264 8.1013894,3.051178 12,3.051178 c 3.89861,-1e-7 7.059059,3.1604483 7.059059,7.059059 0,0.243663 -0.01235,0.484443 -0.03645,0.721748 -0.0241,0.237305 -0.05995,0.471135 -0.10697,0.700899 -0.04702,0.229764 -0.105196,0.455461 -0.173946,0.676501 -0.06875,0.22104 -0.148073,0.437423 -0.237375,0.648556 -0.0893,0.211134 -0.188584,0.417019 -0.297254,0.617063"
     sodipodi:nodetypes="csssssssssssc" /><path
     style="fill:none;stroke:#000000;stroke-width:0.999995;stroke-linecap:round;stroke-linejoin:round;stroke-miterlimit:83.9;paint-order:markers fill stroke"
     d="m 12,13.633574 v 7.315248"
     id="path2" /><path
     style="fill:none;stroke:#000000;stroke-width:0.999991;stroke-linecap:round;stroke-linejoin:round;stroke-miterlimit:83.9;paint-order:markers fill stroke"
     d="m 11.965309,13.633572 v 2.670931 a 2,2 45 0 0 2,2 h 2.67093"
     id="path2-5"
     sodipodi:nodetypes="ccc"
     inkscape:path-effect="#path-effect2"
     inkscape:original-d="m 11.965309,13.633572 v 4.670931 h 4.67093"
     transform="translate(4.3125847)" /><path
     style="fill:none;stroke:#000000;stroke-width:0.999991;stroke-linecap:round;stroke-linejoin:round;stroke-miterlimit:83.9;paint-order:markers fill stroke"
     d="m 11.965309,13.633572 v 2.670931 a 2,2 45 0 0 2,2 h 2.67093"
     id="path2-5-6"
     sodipodi:nodetypes="ccc"
     inkscape:path-effect="#path-effect2-3"
     inkscape:original-d="m 11.965309,13.633572 v 4.670931 h 4.67093"
     transform="matrix(-1,0,0,1,19.687415,-7.4505806e-7)" /></svg>
