<?xml version="1.0" encoding="UTF-8" standalone="no"?>
<svg
   width="24"
   height="24"
   viewBox="0 0 24 24"
   fill="none"
   version="1.1"
   id="svg1"
   sodipodi:docname="waveform.svg"
   xml:space="preserve"
   inkscape:version="1.4.2 (ebf0e940, 2025-05-08)"
   xmlns:inkscape="http://www.inkscape.org/namespaces/inkscape"
   xmlns:sodipodi="http://sodipodi.sourceforge.net/DTD/sodipodi-0.dtd"
   xmlns="http://www.w3.org/2000/svg"
   xmlns:svg="http://www.w3.org/2000/svg"><defs
     id="defs1"><inkscape:path-effect
       effect="fillet_chamfer"
       id="path-effect1"
       is_visible="true"
       lpeversion="1"
       nodesatellites_param="F,0,0,1,0,0,0,1 @ F,0,0,1,0,1,0,1 @ F,0,0,1,0,1,0,1 @ F,0,0,1,0,1,0,1 @ F,0,0,1,0,1,0,1 @ F,0,0,1,0,1,0,1 @ F,0,0,1,0,1,0,1 @ F,0,0,1,0,1,0,1 @ F,0,0,1,0,1,0,1 @ F,0,0,1,0,1,0,1 @ F,0,0,1,0,1,0,1 @ F,0,0,1,0,1,0,1 @ F,0,0,1,0,1,0,1 @ F,0,0,1,0,1,0,1 @ F,0,0,1,0,1,0,1 @ F,0,0,1,0,1,0,1 @ F,0,0,1,0,0,0,1"
       radius="0"
       unit="px"
       method="auto"
       mode="F"
       chamfer_steps="1"
       flexible="false"
       use_knot_distance="true"
       apply_no_radius="true"
       apply_with_radius="true"
       only_selected="false"
       hide_knots="false" /></defs><sodipodi:namedview
     id="namedview1"
     pagecolor="#505050"
     bordercolor="#eeeeee"
     borderopacity="1"
     inkscape:showpageshadow="0"
     inkscape:pageopacity="0"
     inkscape:pagecheckerboard="0"
     inkscape:deskcolor="#505050"
     inkscape:zoom="15.692994"
     inkscape:cx="9.1760694"
     inkscape:cy="7.9016153"
     inkscape:window-width="1472"
     inkscape:window-height="923"
     inkscape:window-x="0"
     inkscape:window-y="33"
     inkscape:window-maximized="0"
     inkscape:current-layer="svg1" /><path
     style="fill:none;stroke:#000000;stroke-width:0.957069;stroke-linecap:round;stroke-miterlimit:10;paint-order:fill markers stroke"
     d="m -25.381426,-7.7949716 h 0.118619 a 2.2616597,2.2616597 156.14723 0 0 1.672941,-0.7396962 0.6469129,0.6469129 20.505363 0 1 0.968846,0.3623402 l 0.07229,0.1177519 a 0.45581278,0.45581278 172.95916 0 0 0.823261,-0.1016794 l 0.518432,-1.6479374 a 0.26779552,0.26779552 2.4714835 0 1 0.51688,0.02231 l 0.685048,3.084883 a 0.18117551,0.18117551 177.7489 0 0 0.356272,-0.014005 l 0.839647,-5.9607405 a 0.16566305,0.16566305 178.61173 0 1 0.326775,-0.0079 l 0.744042,3.9023876 a 46.17577,46.17577 77.964742 0 0 0.416929,1.9555804 l 0.65934,2.7944572 a 0.23594548,0.23594548 179.99999 0 0 0.45928,-1e-7 l 0.659339,-2.794457 a 25.651605,25.651605 105.50835 0 1 0.534352,-1.9257202 l 0.509196,-1.5916039 a 0.31992624,0.31992624 0 0 1 0.609424,0 l 0.509196,1.5916039 a 0.24696879,0.24696879 176.13183 0 0 0.478437,-0.03235 l 0.77117,-4.3715103 a 0.17621629,0.17621629 0.01064864 0 1 0.347084,6.5e-5 l 1.186739,6.741885 a 0.22209361,0.22209361 2.5385849 0 0 0.433196,0.019206 l 0.4211587,-1.5651885 a 0.49987645,0.49987645 168.50098 0 1 0.8763011,-0.1782698 1.4953146,1.4953146 14.984065 0 0 1.2651049,0.3386067 h 0.1186197"
     id="path1"
     sodipodi:nodetypes="ccccccccccccccccc"
     inkscape:path-effect="#path-effect1"
     inkscape:original-d="m -25.381426,-7.7949716 h 1.118619 l 1.11862,-1.2295861 1.11862,1.8222121 1.11862,-3.5557564 1.11862,5.0373216 1.118619,-7.9411886 1.11862,5.8669974 1.11862,4.7410084 1.118619,-4.7410084 1.11862,-3.4964934 1.11862,3.4964934 1.11862,-6.3410984 1.533457,8.7116026 0.9408324,-3.4964937 0.8815693,1.1259895 h 1.1186197"
     transform="matrix(1.0023211,0,0,1.0891988,28.47061,21.335716)" /></svg>
