<?xml version="1.0" encoding="UTF-8" standalone="no"?>
<!-- Created with Inkscape (http://www.inkscape.org/) -->

<svg
   width="320mm"
   height="20mm"
   viewBox="0 0 320 20"
   version="1.1"
   id="svg1"
   inkscape:version="1.4.2 (ebf0e940, 2025-05-08)"
   sodipodi:docname="logo-typo.svg"
   xmlns:inkscape="http://www.inkscape.org/namespaces/inkscape"
   xmlns:sodipodi="http://sodipodi.sourceforge.net/DTD/sodipodi-0.dtd"
   xmlns="http://www.w3.org/2000/svg"
   xmlns:svg="http://www.w3.org/2000/svg">
  <sodipodi:namedview
     id="namedview1"
     pagecolor="#505050"
     bordercolor="#eeeeee"
     borderopacity="1"
     inkscape:showpageshadow="0"
     inkscape:pageopacity="0"
     inkscape:pagecheckerboard="0"
     inkscape:deskcolor="#505050"
     inkscape:document-units="mm"
     inkscape:zoom="1.9656318"
     inkscape:cx="46.295547"
     inkscape:cy="53.926681"
     inkscape:window-width="1472"
     inkscape:window-height="895"
     inkscape:window-x="0"
     inkscape:window-y="32"
     inkscape:window-maximized="0"
     inkscape:current-layer="layer1">
    <inkscape:page
       x="0"
       y="0"
       width="320"
       height="20"
       id="page2"
       margin="0"
       bleed="0" />
  </sodipodi:namedview>
  <defs
     id="defs1">
    <inkscape:path-effect
       effect="fillet_chamfer"
       id="path-effect133-5-9-9-8"
       is_visible="true"
       lpeversion="1"
       nodesatellites_param="F,0,0,1,0,3,0,1 @ F,0,0,1,0,0,0,1 @ F,0,0,1,0,3,0,1 @ F,0,0,1,0,0,0,1 @ F,0,0,1,0,0,0,1 @ F,0,0,1,0,0,0,1 @ F,0,0,1,0,1,0,1 @ F,0,0,1,0,0,0,1 @ F,0,0,1,0,0,0,1 @ F,0,0,1,0,0,0,1 @ F,0,0,1,0,0,0,1 @ F,0,0,1,0,0,0,1 @ F,0,0,1,0,0,0,1 @ F,0,0,1,0,0,0,1 @ F,0,0,1,0,0,0,1 | F,0,0,1,0,0,0,1 @ F,0,0,1,0,0,0,1 @ F,0,0,1,0,0,0,1 @ F,0,0,1,0,0,0,1 @ F,0,0,1,0,0,0,1 @ F,0,0,1,0,0,0,1 @ F,0,0,1,0,0,0,1 @ F,0,0,1,0,0,0,1"
       radius="0"
       unit="px"
       method="auto"
       mode="F"
       chamfer_steps="1"
       flexible="false"
       use_knot_distance="true"
       apply_no_radius="true"
       apply_with_radius="true"
       only_selected="false"
       hide_knots="false" />
    <inkscape:path-effect
       effect="fillet_chamfer"
       id="path-effect133-5-9-0-7-0"
       is_visible="true"
       lpeversion="1"
       nodesatellites_param="F,0,0,1,0,3,0,1 @ F,0,0,1,0,0,0,1 @ F,0,0,1,0,3,0,1 @ F,0,0,1,0,0,0,1 @ F,0,0,1,0,0,0,1 @ F,0,0,1,0,0,0,1 @ F,0,0,1,0,1,0,1 @ F,0,0,1,0,0,0,1 @ F,0,0,1,0,0,0,1 @ F,0,0,1,0,0,0,1 @ F,0,0,1,0,0,0,1 @ F,0,0,1,0,0,0,1 @ F,0,0,1,0,0,0,1 @ F,0,0,1,0,0,0,1 @ F,0,0,1,0,0,0,1 | F,0,0,1,0,0,0,1 @ F,0,0,1,0,0,0,1 @ F,0,0,1,0,0,0,1 @ F,0,0,1,0,0,0,1 @ F,0,0,1,0,0,0,1 @ F,0,0,1,0,0,0,1 @ F,0,0,1,0,0,0,1 @ F,0,0,1,0,0,0,1"
       radius="0"
       unit="px"
       method="auto"
       mode="F"
       chamfer_steps="1"
       flexible="false"
       use_knot_distance="true"
       apply_no_radius="true"
       apply_with_radius="true"
       only_selected="false"
       hide_knots="false" />
    <inkscape:path-effect
       effect="fillet_chamfer"
       id="path-effect131-0-7-0-8"
       is_visible="true"
       lpeversion="1"
       nodesatellites_param="F,0,0,1,0,0,0,1 @ F,0,0,1,0,0,0,1 @ F,0,0,1,0,0,0,1 @ F,0,0,1,0,0,0,1 @ F,0,0,1,0,0,0,1 @ F,0,0,1,0,0,0,1 @ F,0,0,1,0,0,0,1 @ F,0,0,1,0,0,0,1 @ F,0,0,1,0,0,0,1 @ F,0,0,1,0,0,0,1 @ F,0,0,1,0,0,0,1 @ F,0,0,1,0,0,0,1"
       radius="0"
       unit="px"
       method="auto"
       mode="F"
       chamfer_steps="1"
       flexible="false"
       use_knot_distance="true"
       apply_no_radius="true"
       apply_with_radius="true"
       only_selected="false"
       hide_knots="false" />
    <inkscape:path-effect
       effect="fillet_chamfer"
       id="path-effect132-4-4-1-9"
       is_visible="true"
       lpeversion="1"
       nodesatellites_param="F,0,0,1,0,0,0,1 @ F,0,0,1,0,0,0,1 @ F,0,0,1,0,0,0,1 @ F,0,0,1,0,0,0,1 @ F,0,0,1,0,0,0,1 @ F,0,0,1,0,0,0,1 @ F,0,0,1,0,0,0,1 @ F,0,0,1,0,0,0,1"
       radius="0"
       unit="px"
       method="auto"
       mode="F"
       chamfer_steps="1"
       flexible="false"
       use_knot_distance="true"
       apply_no_radius="true"
       apply_with_radius="true"
       only_selected="false"
       hide_knots="false" />
    <inkscape:path-effect
       effect="fillet_chamfer"
       id="path-effect113-5-5-2-4-7"
       is_visible="true"
       lpeversion="1"
       nodesatellites_param="F,0,0,1,0,0,0,1 @ F,0,0,1,0,0,0,1 @ F,0,0,1,0,0,0,1 @ F,0,0,1,0,0,0,1 @ F,0,0,1,0,0,0,1 @ F,0,0,1,0,0,0,1 @ F,0,0,1,0,0,0,1 @ F,0,0,1,0,0,0,1 @ F,0,0,1,0,0,0,1 @ F,0,0,1,0,0,0,1 @ F,0,0,1,0,0,0,1 @ F,0,0,1,0,0,0,1"
       radius="0"
       unit="px"
       method="auto"
       mode="F"
       chamfer_steps="1"
       flexible="false"
       use_knot_distance="true"
       apply_no_radius="true"
       apply_with_radius="true"
       only_selected="false"
       hide_knots="false" />
    <inkscape:path-effect
       effect="fillet_chamfer"
       id="path-effect113-5-5-6-0-4-0"
       is_visible="true"
       lpeversion="1"
       nodesatellites_param="F,0,0,1,0,0,0,1 @ F,0,0,1,0,0,0,1 @ F,0,0,1,0,0,0,1 @ F,0,0,1,0,0,0,1 @ F,0,0,1,0,0,0,1 @ F,0,0,1,0,0,0,1 @ F,0,0,1,0,0,0,1 @ F,0,0,1,0,0,0,1 @ F,0,0,1,0,0,0,1 @ F,0,0,1,0,0,0,1 @ F,0,0,1,0,0,0,1 @ F,0,0,1,0,0,0,1"
       radius="0"
       unit="px"
       method="auto"
       mode="F"
       chamfer_steps="1"
       flexible="false"
       use_knot_distance="true"
       apply_no_radius="true"
       apply_with_radius="true"
       only_selected="false"
       hide_knots="false" />
    <inkscape:path-effect
       effect="fillet_chamfer"
       id="path-effect126-7-4-3-5-0-8"
       is_visible="true"
       lpeversion="1"
       nodesatellites_param="F,0,0,1,0,0,0,1 @ F,0,0,1,0,0,0,1 @ F,0,0,1,0,0,0,1 @ F,0,0,1,0,0,0,1 @ F,0,0,1,0,0,0,1 @ F,0,0,1,0,0,0,1 @ F,0,0,1,0,0,0,1 @ F,0,0,1,0,3,0,1 | F,0,0,1,0,0,0,1 @ F,0,0,1,0,0,0,1 @ F,0,0,1,0,0,0,1"
       radius="0"
       unit="px"
       method="auto"
       mode="F"
       chamfer_steps="1"
       flexible="false"
       use_knot_distance="true"
       apply_no_radius="true"
       apply_with_radius="true"
       only_selected="false"
       hide_knots="false" />
    <inkscape:path-effect
       effect="fillet_chamfer"
       id="path-effect126-7-4-3-5-5-5-8"
       is_visible="true"
       lpeversion="1"
       nodesatellites_param="F,0,0,1,0,0,0,1 @ F,0,0,1,0,0,0,1 @ F,0,0,1,0,0,0,1 @ F,0,0,1,0,0,0,1 @ F,0,0,1,0,0,0,1 @ F,0,0,1,0,0,0,1 @ F,0,0,1,0,0,0,1 @ F,0,0,1,0,3,0,1 | F,0,0,1,0,0,0,1 @ F,0,0,1,0,0,0,1 @ F,0,0,1,0,0,0,1"
       radius="0"
       unit="px"
       method="auto"
       mode="F"
       chamfer_steps="1"
       flexible="false"
       use_knot_distance="true"
       apply_no_radius="true"
       apply_with_radius="true"
       only_selected="false"
       hide_knots="false" />
    <inkscape:path-effect
       effect="fillet_chamfer"
       id="path-effect130-6-0-9-6"
       is_visible="true"
       lpeversion="1"
       nodesatellites_param="F,0,0,1,0,0,0,1 @ F,0,0,1,0,6,0,1 @ F,0,0,1,0,6,0,1 @ F,0,0,1,0,0,0,1 @ F,0,0,1,0,0,0,1 @ F,0,0,1,0,3,0,1 @ F,0,0,1,0,3,0,1 @ F,0,0,1,0,0,0,1"
       radius="0"
       unit="px"
       method="auto"
       mode="F"
       chamfer_steps="1"
       flexible="false"
       use_knot_distance="true"
       apply_no_radius="true"
       apply_with_radius="true"
       only_selected="false"
       hide_knots="false" />
    <inkscape:path-effect
       effect="fillet_chamfer"
       id="path-effect129-7-2-7-2"
       is_visible="true"
       lpeversion="1"
       nodesatellites_param="F,0,0,1,0,6,0,1 @ F,0,0,1,0,6,0,1 @ F,0,0,1,0,6,0,1 @ F,0,0,1,0,6,0,1 | F,0,0,1,0,3,0,1 @ F,0,0,1,0,3,0,1 @ F,0,0,1,0,3,0,1 @ F,0,0,1,0,3,0,1"
       radius="0"
       unit="px"
       method="auto"
       mode="F"
       chamfer_steps="1"
       flexible="false"
       use_knot_distance="true"
       apply_no_radius="true"
       apply_with_radius="true"
       only_selected="false"
       hide_knots="false" />
  </defs>
  <g
     inkscape:label="Layer 1"
     inkscape:groupmode="layer"
     id="layer1"
     transform="translate(979.70004,142.84556)">
    <path
       id="rect115-0-9-1-9-9-6-3-5-3-5-8-9-2-0-5-3-2-7-6-0-1-8-04-5-1"
       style="fill:#917c6f;stroke:none;stroke-width:0.264583;stroke-linecap:round;stroke-miterlimit:10;paint-order:fill markers stroke"
       d="m -946.36643,-142.84556 v 20 h 5.00408 14.99562 v -2.49826 h -14.99562 v -6.25442 h 12.49811 v -2.49827 h -12.49811 v -6.25071 h 14.99562 v -2.49827 z m -33.33307,0 v 20 h 5.0041 v -14.80687 l 5.317,11.40598 a 5.8863235,5.8863235 0 0 0 5.32912,3.40089 h 4.34569 v -20 h -4.99955 v 14.81518 l -5.32156,-11.41732 a 5.8859528,5.8859528 0 0 0 -5.3359,-3.39786 z m 106.50454,0 h -3.49984 a 3.0029239,3.0016331 0 0 0 -3.00396,2.99723 v 16.99899 h 3.50286 a 3.0004763,2.9991865 0 0 0 3.00094,-2.99648 v -3.49613 c 0,-0.34015 0.15118,-0.60472 0.43842,-0.7748 l 1.07338,-0.72567 5.40018,7.19553 a 2.0009578,2.0000976 0 0 0 1.59873,0.79755 h 5.00786 v -1.99944 c 0,-3.31388 -2.68723,-5.99364 -6.00565,-5.99364 1.5685,0 4.06298,-0.95244 5.28755,-3.12566 0.80125,-1.42488 0.7748,-4.31175 0,-5.74796 -1.02425,-1.86331 -3.00094,-3.12196 -5.27243,-3.12196 h -7.50159 z m 34.33162,0 a 7.5000656,7.5000656 0 0 0 -7.50158,7.49796 v 5.0003 a 7.5000656,7.5000656 0 0 0 7.50158,7.50174 h 4.99653 a 7.5000656,7.5000656 0 0 0 7.50158,-7.50174 v -5.0003 a 7.5000656,7.5000656 0 0 0 -7.50158,-7.49796 z m 31.56427,0 -5.73277,20 h 4.16125 l 0.57448,-2.00322 h 7.92867 l 0.57827,2.00322 h 6.75778 l -4.90582,-17.11615 a 3.9811979,3.9811979 0 0 0 -3.82865,-2.88378 z m 34.10561,0 h -3.49983 a 3.0029239,3.0016331 0 0 0 -3.00472,2.99723 v 16.99899 h 3.50361 a 3.0004763,2.9991865 0 0 0 3.00094,-2.99648 v -3.49613 c 0,-0.34015 0.15118,-0.60472 0.43843,-0.7748 l 1.07262,-0.72567 5.40093,7.19553 a 2.0009578,2.0000976 0 0 0 1.59874,0.79755 h 5.00711 v -1.99944 c 0,-3.31388 -2.68649,-5.99364 -6.0049,-5.99364 1.5685,0 4.06298,-0.95244 5.28679,-3.12566 0.80125,-1.42488 0.7748,-4.31175 0,-5.74796 -1.0235,-1.86331 -3.00018,-3.12196 -5.27167,-3.12196 h -7.50159 z m 26.82853,0 v 4.9966 h 7.50234 v 15.0034 h 4.99577 v -15.0034 h 7.5031 v -4.9966 h -7.5031 -4.99577 z m 39.06737,0 -5.73278,20 h 4.15672 l 0.57448,-2.00322 h 7.93246 l 0.57826,2.00322 h 6.75778 l -4.90581,-17.11615 a 3.9811979,3.9811979 0 0 0 -3.83546,-2.88378 z m 27.6003,0 v 20 h 5.00333 v -14.80687 l 5.31854,11.40598 a 5.8863235,5.8863235 0 0 0 5.32836,3.40089 h 4.34645 v -20 h -5.00031 v 14.81518 l -5.3208,-11.41732 a 5.8859528,5.8859528 0 0 0 -5.33744,-3.39786 z m -233.33533,0 v 12.49826 a 7.5000656,7.5000656 0 0 0 7.49856,7.49796 h 4.99954 a 7.5000656,7.5000656 0 0 0 7.50235,-7.49796 v -12.49826 h -5.00408 v 13.74936 a 3.7500328,3.7500328 0 0 1 -3.74551,3.7523 h -2.50884 a 3.7500328,3.7500328 0 0 1 -3.7455,-3.7523 v -13.74936 z m 40.33652,2.01078 h 3.49983 c 1.65921,0 3.00019,1.34173 3.00019,2.99716 v 1.99861 c 0,1.65928 -1.34098,3.00101 -3.00019,3.00101 h -3.49983 c -0.26456,0 -0.49134,-0.22677 -0.49134,-0.49134 v -6.99143 c 0,-0.26456 0.22678,-0.49133 0.49134,-0.49133 z m 100.00151,0 h 3.49908 c 1.6592,0 3.00093,1.34173 3.00093,2.99716 v 1.99861 c 0,1.65928 -1.34173,3.00101 -3.00093,3.00101 h -3.49908 c -0.26457,0 -0.49134,-0.22677 -0.49134,-0.49134 v -6.99143 c 0,-0.26456 0.22677,-0.49133 0.49134,-0.49133 z m -64.92154,0.49134 h 2.49449 a 3.7500328,3.7500328 0 0 1 3.7523,3.7523 v 7.5025 a 3.7500328,3.7500328 0 0 1 -3.7523,3.74852 h -2.49449 a 3.7500328,3.7500328 0 0 1 -3.75306,-3.74852 v -7.5025 a 3.7500328,3.7500328 0 0 1 3.75306,-3.7523 z m 33.26127,2.43023 a 0.28675923,0.28675923 0 0 1 0.26457,0.22677 l 3.1181,10.86551 h -6.78801 l 3.1181,-10.86551 a 0.28675923,0.28675923 0 0 1 0.26457,-0.22677 z m 100.00151,0 a 0.28675923,0.28675923 0 0 1 0.26457,0.22677 l 3.1181,10.86551 h -6.78802 l 3.11811,-10.86551 a 0.28675923,0.28675923 0 0 1 0.26456,-0.22677 z" />
  </g>
</svg>
