<?xml version="1.0" encoding="UTF-8" standalone="no"?>
<!-- Created with Inkscape (http://www.inkscape.org/) -->

<svg
   width="320mm"
   height="20mm"
   viewBox="0 0 320 20"
   version="1.1"
   id="svg1"
   inkscape:version="1.4.2 (ebf0e940, 2025-05-08)"
   sodipodi:docname="logo-typo.svg"
   xmlns:inkscape="http://www.inkscape.org/namespaces/inkscape"
   xmlns:sodipodi="http://sodipodi.sourceforge.net/DTD/sodipodi-0.dtd"
   xmlns="http://www.w3.org/2000/svg"
   xmlns:svg="http://www.w3.org/2000/svg">
  <sodipodi:namedview
     id="namedview1"
     pagecolor="#505050"
     bordercolor="#eeeeee"
     borderopacity="1"
     inkscape:showpageshadow="0"
     inkscape:pageopacity="0"
     inkscape:pagecheckerboard="0"
     inkscape:deskcolor="#505050"
     inkscape:document-units="mm"
     inkscape:zoom="0.43156566"
     inkscape:cx="532.94323"
     inkscape:cy="64.880046"
     inkscape:window-width="1472"
     inkscape:window-height="895"
     inkscape:window-x="0"
     inkscape:window-y="32"
     inkscape:window-maximized="0"
     inkscape:current-layer="layer1">
    <inkscape:page
       x="0"
       y="0"
       width="320"
       height="20"
       id="page2"
       margin="0"
       bleed="0" />
  </sodipodi:namedview>
  <defs
     id="defs1">
    <inkscape:path-effect
       effect="fillet_chamfer"
       id="path-effect133-5-9-9-8"
       is_visible="true"
       lpeversion="1"
       nodesatellites_param="F,0,0,1,0,3,0,1 @ F,0,0,1,0,0,0,1 @ F,0,0,1,0,3,0,1 @ F,0,0,1,0,0,0,1 @ F,0,0,1,0,0,0,1 @ F,0,0,1,0,0,0,1 @ F,0,0,1,0,1,0,1 @ F,0,0,1,0,0,0,1 @ F,0,0,1,0,0,0,1 @ F,0,0,1,0,0,0,1 @ F,0,0,1,0,0,0,1 @ F,0,0,1,0,0,0,1 @ F,0,0,1,0,0,0,1 @ F,0,0,1,0,0,0,1 @ F,0,0,1,0,0,0,1 | F,0,0,1,0,0,0,1 @ F,0,0,1,0,0,0,1 @ F,0,0,1,0,0,0,1 @ F,0,0,1,0,0,0,1 @ F,0,0,1,0,0,0,1 @ F,0,0,1,0,0,0,1 @ F,0,0,1,0,0,0,1 @ F,0,0,1,0,0,0,1"
       radius="0"
       unit="px"
       method="auto"
       mode="F"
       chamfer_steps="1"
       flexible="false"
       use_knot_distance="true"
       apply_no_radius="true"
       apply_with_radius="true"
       only_selected="false"
       hide_knots="false" />
    <inkscape:path-effect
       effect="fillet_chamfer"
       id="path-effect133-5-9-0-7-0"
       is_visible="true"
       lpeversion="1"
       nodesatellites_param="F,0,0,1,0,3,0,1 @ F,0,0,1,0,0,0,1 @ F,0,0,1,0,3,0,1 @ F,0,0,1,0,0,0,1 @ F,0,0,1,0,0,0,1 @ F,0,0,1,0,0,0,1 @ F,0,0,1,0,1,0,1 @ F,0,0,1,0,0,0,1 @ F,0,0,1,0,0,0,1 @ F,0,0,1,0,0,0,1 @ F,0,0,1,0,0,0,1 @ F,0,0,1,0,0,0,1 @ F,0,0,1,0,0,0,1 @ F,0,0,1,0,0,0,1 @ F,0,0,1,0,0,0,1 | F,0,0,1,0,0,0,1 @ F,0,0,1,0,0,0,1 @ F,0,0,1,0,0,0,1 @ F,0,0,1,0,0,0,1 @ F,0,0,1,0,0,0,1 @ F,0,0,1,0,0,0,1 @ F,0,0,1,0,0,0,1 @ F,0,0,1,0,0,0,1"
       radius="0"
       unit="px"
       method="auto"
       mode="F"
       chamfer_steps="1"
       flexible="false"
       use_knot_distance="true"
       apply_no_radius="true"
       apply_with_radius="true"
       only_selected="false"
       hide_knots="false" />
    <inkscape:path-effect
       effect="fillet_chamfer"
       id="path-effect131-0-7-0-8"
       is_visible="true"
       lpeversion="1"
       nodesatellites_param="F,0,0,1,0,0,0,1 @ F,0,0,1,0,0,0,1 @ F,0,0,1,0,0,0,1 @ F,0,0,1,0,0,0,1 @ F,0,0,1,0,0,0,1 @ F,0,0,1,0,0,0,1 @ F,0,0,1,0,0,0,1 @ F,0,0,1,0,0,0,1 @ F,0,0,1,0,0,0,1 @ F,0,0,1,0,0,0,1 @ F,0,0,1,0,0,0,1 @ F,0,0,1,0,0,0,1"
       radius="0"
       unit="px"
       method="auto"
       mode="F"
       chamfer_steps="1"
       flexible="false"
       use_knot_distance="true"
       apply_no_radius="true"
       apply_with_radius="true"
       only_selected="false"
       hide_knots="false" />
    <inkscape:path-effect
       effect="fillet_chamfer"
       id="path-effect132-4-4-1-9"
       is_visible="true"
       lpeversion="1"
       nodesatellites_param="F,0,0,1,0,0,0,1 @ F,0,0,1,0,0,0,1 @ F,0,0,1,0,0,0,1 @ F,0,0,1,0,0,0,1 @ F,0,0,1,0,0,0,1 @ F,0,0,1,0,0,0,1 @ F,0,0,1,0,0,0,1 @ F,0,0,1,0,0,0,1"
       radius="0"
       unit="px"
       method="auto"
       mode="F"
       chamfer_steps="1"
       flexible="false"
       use_knot_distance="true"
       apply_no_radius="true"
       apply_with_radius="true"
       only_selected="false"
       hide_knots="false" />
    <inkscape:path-effect
       effect="fillet_chamfer"
       id="path-effect113-5-5-2-4-7"
       is_visible="true"
       lpeversion="1"
       nodesatellites_param="F,0,0,1,0,0,0,1 @ F,0,0,1,0,0,0,1 @ F,0,0,1,0,0,0,1 @ F,0,0,1,0,0,0,1 @ F,0,0,1,0,0,0,1 @ F,0,0,1,0,0,0,1 @ F,0,0,1,0,0,0,1 @ F,0,0,1,0,0,0,1 @ F,0,0,1,0,0,0,1 @ F,0,0,1,0,0,0,1 @ F,0,0,1,0,0,0,1 @ F,0,0,1,0,0,0,1"
       radius="0"
       unit="px"
       method="auto"
       mode="F"
       chamfer_steps="1"
       flexible="false"
       use_knot_distance="true"
       apply_no_radius="true"
       apply_with_radius="true"
       only_selected="false"
       hide_knots="false" />
    <inkscape:path-effect
       effect="fillet_chamfer"
       id="path-effect113-5-5-6-0-4-0"
       is_visible="true"
       lpeversion="1"
       nodesatellites_param="F,0,0,1,0,0,0,1 @ F,0,0,1,0,0,0,1 @ F,0,0,1,0,0,0,1 @ F,0,0,1,0,0,0,1 @ F,0,0,1,0,0,0,1 @ F,0,0,1,0,0,0,1 @ F,0,0,1,0,0,0,1 @ F,0,0,1,0,0,0,1 @ F,0,0,1,0,0,0,1 @ F,0,0,1,0,0,0,1 @ F,0,0,1,0,0,0,1 @ F,0,0,1,0,0,0,1"
       radius="0"
       unit="px"
       method="auto"
       mode="F"
       chamfer_steps="1"
       flexible="false"
       use_knot_distance="true"
       apply_no_radius="true"
       apply_with_radius="true"
       only_selected="false"
       hide_knots="false" />
    <inkscape:path-effect
       effect="fillet_chamfer"
       id="path-effect126-7-4-3-5-0-8"
       is_visible="true"
       lpeversion="1"
       nodesatellites_param="F,0,0,1,0,0,0,1 @ F,0,0,1,0,0,0,1 @ F,0,0,1,0,0,0,1 @ F,0,0,1,0,0,0,1 @ F,0,0,1,0,0,0,1 @ F,0,0,1,0,0,0,1 @ F,0,0,1,0,0,0,1 @ F,0,0,1,0,3,0,1 | F,0,0,1,0,0,0,1 @ F,0,0,1,0,0,0,1 @ F,0,0,1,0,0,0,1"
       radius="0"
       unit="px"
       method="auto"
       mode="F"
       chamfer_steps="1"
       flexible="false"
       use_knot_distance="true"
       apply_no_radius="true"
       apply_with_radius="true"
       only_selected="false"
       hide_knots="false" />
    <inkscape:path-effect
       effect="fillet_chamfer"
       id="path-effect126-7-4-3-5-5-5-8"
       is_visible="true"
       lpeversion="1"
       nodesatellites_param="F,0,0,1,0,0,0,1 @ F,0,0,1,0,0,0,1 @ F,0,0,1,0,0,0,1 @ F,0,0,1,0,0,0,1 @ F,0,0,1,0,0,0,1 @ F,0,0,1,0,0,0,1 @ F,0,0,1,0,0,0,1 @ F,0,0,1,0,3,0,1 | F,0,0,1,0,0,0,1 @ F,0,0,1,0,0,0,1 @ F,0,0,1,0,0,0,1"
       radius="0"
       unit="px"
       method="auto"
       mode="F"
       chamfer_steps="1"
       flexible="false"
       use_knot_distance="true"
       apply_no_radius="true"
       apply_with_radius="true"
       only_selected="false"
       hide_knots="false" />
    <inkscape:path-effect
       effect="fillet_chamfer"
       id="path-effect130-6-0-9-6"
       is_visible="true"
       lpeversion="1"
       nodesatellites_param="F,0,0,1,0,0,0,1 @ F,0,0,1,0,6,0,1 @ F,0,0,1,0,6,0,1 @ F,0,0,1,0,0,0,1 @ F,0,0,1,0,0,0,1 @ F,0,0,1,0,3,0,1 @ F,0,0,1,0,3,0,1 @ F,0,0,1,0,0,0,1"
       radius="0"
       unit="px"
       method="auto"
       mode="F"
       chamfer_steps="1"
       flexible="false"
       use_knot_distance="true"
       apply_no_radius="true"
       apply_with_radius="true"
       only_selected="false"
       hide_knots="false" />
    <inkscape:path-effect
       effect="fillet_chamfer"
       id="path-effect129-7-2-7-2"
       is_visible="true"
       lpeversion="1"
       nodesatellites_param="F,0,0,1,0,6,0,1 @ F,0,0,1,0,6,0,1 @ F,0,0,1,0,6,0,1 @ F,0,0,1,0,6,0,1 | F,0,0,1,0,3,0,1 @ F,0,0,1,0,3,0,1 @ F,0,0,1,0,3,0,1 @ F,0,0,1,0,3,0,1"
       radius="0"
       unit="px"
       method="auto"
       mode="F"
       chamfer_steps="1"
       flexible="false"
       use_knot_distance="true"
       apply_no_radius="true"
       apply_with_radius="true"
       only_selected="false"
       hide_knots="false" />
  </defs>
  <g
     inkscape:label="Layer 1"
     inkscape:groupmode="layer"
     id="layer1"
     transform="translate(979.70004,142.84556)">
    <path
       id="rect115-0-9-6-7-2-3-8-3-2-03-1-7"
       style="fill:#917c6f;stroke:none;stroke-width:0.264581;stroke-linecap:round;stroke-miterlimit:10;paint-order:fill markers stroke"
       d="m -979.70886,-142.84556 v 19.99985 h 2.5002 v -16.8752 a 0.62503543,0.62499971 0 0 1 0.6251,-0.62464 0.93005657,0.93000336 0 0 1 0.8202,0.56531 l 6.3825,13.54191 a 5.9138077,5.9134698 0 0 0 5.3491,3.39262 h 4.3238 v -19.99985 h -2.4998 v 16.8752 a 0.62503543,0.62499971 0 0 1 -0.6251,0.62464 0.92902185,0.92896871 0 0 1 -0.8187,-0.56515 l -6.3817,-13.54252 a 5.9128296,5.9124917 0 0 0 -5.3492,-3.39217 z m 33.3351,0 v 19.99985 h 5.0007 15.0006 v -2.49925 h -15.0006 v -6.25059 h 12.5004 v -2.50001 h -12.5004 v -6.24999 h 15.0006 v -2.50001 z m 70.42025,0 a 3.7502127,3.7499983 0 0 0 -3.74968,3.74998 v 16.24987 h 4.99994 v -6.24983 c 0,-0.69041 0.4339,-0.897 0.96227,-0.45226 2.20914,1.86081 4.38842,3.89435 6.54804,5.863 0.51024,0.46446 1.48574,0.83909 2.17588,0.83909 h 5.31516 l -7.38597,-6.66271 a 0.48059599,0.48056851 0 0 1 0.32126,-0.83717 h 5.81255 a 1.2500709,1.2499995 0 0 0 1.25064,-1.24996 v -3.74998 a 7.5004252,7.4999966 0 0 0 -7.50086,-7.50003 z m 37.08628,0 a 7.5004252,7.4999966 0 0 0 -7.50048,7.50003 v 4.99994 a 7.5004252,7.4999966 0 0 0 7.50048,7.49988 h 4.99994 a 7.5004252,7.4999966 0 0 0 7.50048,-7.49988 v -4.99994 a 7.5004252,7.4999966 0 0 0 -7.50048,-7.50003 z m 33.05163,0 a 0.86409021,0.86404084 0 0 0 -0.82091,0.59365 l -6.39686,19.4062 h 3.40498 l 0.8262,-2.50001 h 10.142 l 0.52536,1.33678 a 1.8344536,1.8343488 0 0 0 1.70759,1.16323 h 3.39515 l -7.39579,-18.83636 a 1.8337757,1.8336708 0 0 0 -1.70608,-1.16349 z m 29.86775,0 a 3.7502127,3.7499983 0 0 0 -3.75005,3.74998 v 16.24987 h 5.00032 v -6.24983 c 0,-0.69041 0.43503,-0.897 0.96265,-0.45226 2.20876,1.86081 4.38804,3.89435 6.54804,5.863 0.51024,0.46446 1.48536,0.83909 2.17474,0.83909 h 5.31592 l -7.38559,-6.66271 a 0.48059599,0.48056851 0 0 1 0.32126,-0.83717 h 5.81254 a 1.2500709,1.2499995 0 0 0 1.25027,-1.24996 v -3.74998 a 7.5004252,7.4999966 0 0 0 -7.50048,-7.50003 z m 29.58581,0 v 3.74998 h 8.12561 v 16.24987 h 3.74892 v -16.24987 h 8.1241 v -3.74998 h -8.1241 -3.74892 z m 40.55098,0 a 0.86409021,0.86404084 0 0 0 -0.82016,0.59365 l -6.39535,19.4062 h 3.40385 l 0.82545,-2.50001 h 10.14426 l 0.5246,1.33678 a 1.8344536,1.8343488 0 0 0 1.70684,1.16323 h 3.39515 l -7.39541,-18.83636 a 1.8337757,1.8336708 0 0 0 -1.70797,-1.16349 z m 26.11883,0 v 19.99985 h 2.50054 v -16.8752 a 0.62503543,0.62499971 0 0 1 0.62476,-0.62464 0.93005657,0.93000336 0 0 1 0.82015,0.56531 l 6.38326,13.54191 a 5.9138077,5.9134698 0 0 0 5.34902,3.39262 h 4.32329 v -19.99985 h -2.49993 v 16.8752 a 0.62503543,0.62499971 0 0 1 -0.62517,0.62464 0.92902185,0.92896871 0 0 1 -0.81873,-0.56515 l -6.38159,-13.54252 a 5.9128296,5.9124917 0 0 0 -5.34841,-3.39217 z m -233.34683,0 v 12.49929 a 7.5004252,7.5002313 0 0 0 7.4997,7.50071 h 5.0007 a 7.5004252,7.5002313 0 0 0 7.50128,-7.50071 v -12.49929 h -5.00148 v 13.75002 a 3.7502127,3.7501157 0 0 1 -3.75,3.7499 h -2.4994 a 3.7502127,3.7501157 0 0 1 -3.7508,-3.7499 v -13.75002 z m 39.58608,2.49873 h 4.92738 a 3.7502127,3.7499983 0 0 1 3.75043,3.74997 3.7502127,3.7499983 0 0 1 -3.75043,3.75005 h -4.92738 a 1.2500709,1.2499995 0 0 1 -1.25027,-1.25004 v -5.00002 a 1.2500709,1.2499995 0 0 1 1.25027,-1.24996 z m 35.83602,0 h 2.50016 a 3.7502127,3.7499983 0 0 1 3.74854,3.74997 v 7.50064 a 3.7502127,3.7499983 0 0 1 -3.74854,3.74997 h -2.50016 a 3.7502127,3.7499983 0 0 1 -3.75157,-3.74997 v -7.50064 a 3.7502127,3.7499983 0 0 1 3.75157,-3.74997 z m 64.16927,0 h 4.92738 a 3.7502127,3.7499983 0 0 1 3.75005,3.74997 3.7502127,3.7499983 0 0 1 -3.75005,3.75005 h -4.92738 a 1.2500709,1.2499995 0 0 1 -1.24989,-1.25004 v -5.00002 a 1.2500709,1.2499995 0 0 1 1.24989,-1.24996 z m -30.71436,1.39918 a 0.22560391,0.22559099 0 0 1 0.21543,0.14287 l 4.30337,10.95799 h -8.33727 l 3.61059,-10.94575 a 0.22560391,0.22559099 0 0 1 0.20788,-0.15496 z m 100.00566,0 a 0.22560391,0.22559099 0 0 1 0.21544,0.14287 l 4.30526,10.95799 h -8.33991 l 3.61134,-10.94575 a 0.22560391,0.22559099 0 0 1 0.20787,-0.15496 z" />
  </g>
</svg>
