<?xml version="1.0" encoding="UTF-8" standalone="no"?>
<!-- Created with Inkscape (http://www.inkscape.org/) -->

<svg
   width="310mm"
   height="25mm"
   viewBox="0 0 310 25"
   version="1.1"
   id="svg1"
   inkscape:version="1.4.2 (ebf0e940, 2025-05-08)"
   sodipodi:docname="logo-typo.svg"
   xmlns:inkscape="http://www.inkscape.org/namespaces/inkscape"
   xmlns:sodipodi="http://sodipodi.sourceforge.net/DTD/sodipodi-0.dtd"
   xmlns="http://www.w3.org/2000/svg"
   xmlns:svg="http://www.w3.org/2000/svg">
  <sodipodi:namedview
     id="namedview1"
     pagecolor="#505050"
     bordercolor="#eeeeee"
     borderopacity="1"
     inkscape:showpageshadow="0"
     inkscape:pageopacity="0"
     inkscape:pagecheckerboard="0"
     inkscape:deskcolor="#505050"
     inkscape:document-units="mm"
     inkscape:zoom="0.29399447"
     inkscape:cx="374.1567"
     inkscape:cy="173.47265"
     inkscape:window-width="1472"
     inkscape:window-height="895"
     inkscape:window-x="0"
     inkscape:window-y="32"
     inkscape:window-maximized="0"
     inkscape:current-layer="layer1">
    <inkscape:page
       x="0"
       y="0"
       width="310"
       height="25"
       id="page2"
       margin="0"
       bleed="0" />
  </sodipodi:namedview>
  <defs
     id="defs1">
    <inkscape:path-effect
       effect="fillet_chamfer"
       id="path-effect133-5-9-9-8"
       is_visible="true"
       lpeversion="1"
       nodesatellites_param="F,0,0,1,0,3,0,1 @ F,0,0,1,0,0,0,1 @ F,0,0,1,0,3,0,1 @ F,0,0,1,0,0,0,1 @ F,0,0,1,0,0,0,1 @ F,0,0,1,0,0,0,1 @ F,0,0,1,0,1,0,1 @ F,0,0,1,0,0,0,1 @ F,0,0,1,0,0,0,1 @ F,0,0,1,0,0,0,1 @ F,0,0,1,0,0,0,1 @ F,0,0,1,0,0,0,1 @ F,0,0,1,0,0,0,1 @ F,0,0,1,0,0,0,1 @ F,0,0,1,0,0,0,1 | F,0,0,1,0,0,0,1 @ F,0,0,1,0,0,0,1 @ F,0,0,1,0,0,0,1 @ F,0,0,1,0,0,0,1 @ F,0,0,1,0,0,0,1 @ F,0,0,1,0,0,0,1 @ F,0,0,1,0,0,0,1 @ F,0,0,1,0,0,0,1"
       radius="0"
       unit="px"
       method="auto"
       mode="F"
       chamfer_steps="1"
       flexible="false"
       use_knot_distance="true"
       apply_no_radius="true"
       apply_with_radius="true"
       only_selected="false"
       hide_knots="false" />
    <inkscape:path-effect
       effect="fillet_chamfer"
       id="path-effect133-5-9-0-7-0"
       is_visible="true"
       lpeversion="1"
       nodesatellites_param="F,0,0,1,0,3,0,1 @ F,0,0,1,0,0,0,1 @ F,0,0,1,0,3,0,1 @ F,0,0,1,0,0,0,1 @ F,0,0,1,0,0,0,1 @ F,0,0,1,0,0,0,1 @ F,0,0,1,0,1,0,1 @ F,0,0,1,0,0,0,1 @ F,0,0,1,0,0,0,1 @ F,0,0,1,0,0,0,1 @ F,0,0,1,0,0,0,1 @ F,0,0,1,0,0,0,1 @ F,0,0,1,0,0,0,1 @ F,0,0,1,0,0,0,1 @ F,0,0,1,0,0,0,1 | F,0,0,1,0,0,0,1 @ F,0,0,1,0,0,0,1 @ F,0,0,1,0,0,0,1 @ F,0,0,1,0,0,0,1 @ F,0,0,1,0,0,0,1 @ F,0,0,1,0,0,0,1 @ F,0,0,1,0,0,0,1 @ F,0,0,1,0,0,0,1"
       radius="0"
       unit="px"
       method="auto"
       mode="F"
       chamfer_steps="1"
       flexible="false"
       use_knot_distance="true"
       apply_no_radius="true"
       apply_with_radius="true"
       only_selected="false"
       hide_knots="false" />
    <inkscape:path-effect
       effect="fillet_chamfer"
       id="path-effect131-0-7-0-8"
       is_visible="true"
       lpeversion="1"
       nodesatellites_param="F,0,0,1,0,0,0,1 @ F,0,0,1,0,0,0,1 @ F,0,0,1,0,0,0,1 @ F,0,0,1,0,0,0,1 @ F,0,0,1,0,0,0,1 @ F,0,0,1,0,0,0,1 @ F,0,0,1,0,0,0,1 @ F,0,0,1,0,0,0,1 @ F,0,0,1,0,0,0,1 @ F,0,0,1,0,0,0,1 @ F,0,0,1,0,0,0,1 @ F,0,0,1,0,0,0,1"
       radius="0"
       unit="px"
       method="auto"
       mode="F"
       chamfer_steps="1"
       flexible="false"
       use_knot_distance="true"
       apply_no_radius="true"
       apply_with_radius="true"
       only_selected="false"
       hide_knots="false" />
    <inkscape:path-effect
       effect="fillet_chamfer"
       id="path-effect132-4-4-1-9"
       is_visible="true"
       lpeversion="1"
       nodesatellites_param="F,0,0,1,0,0,0,1 @ F,0,0,1,0,0,0,1 @ F,0,0,1,0,0,0,1 @ F,0,0,1,0,0,0,1 @ F,0,0,1,0,0,0,1 @ F,0,0,1,0,0,0,1 @ F,0,0,1,0,0,0,1 @ F,0,0,1,0,0,0,1"
       radius="0"
       unit="px"
       method="auto"
       mode="F"
       chamfer_steps="1"
       flexible="false"
       use_knot_distance="true"
       apply_no_radius="true"
       apply_with_radius="true"
       only_selected="false"
       hide_knots="false" />
    <inkscape:path-effect
       effect="fillet_chamfer"
       id="path-effect113-5-5-2-4-7"
       is_visible="true"
       lpeversion="1"
       nodesatellites_param="F,0,0,1,0,0,0,1 @ F,0,0,1,0,0,0,1 @ F,0,0,1,0,0,0,1 @ F,0,0,1,0,0,0,1 @ F,0,0,1,0,0,0,1 @ F,0,0,1,0,0,0,1 @ F,0,0,1,0,0,0,1 @ F,0,0,1,0,0,0,1 @ F,0,0,1,0,0,0,1 @ F,0,0,1,0,0,0,1 @ F,0,0,1,0,0,0,1 @ F,0,0,1,0,0,0,1"
       radius="0"
       unit="px"
       method="auto"
       mode="F"
       chamfer_steps="1"
       flexible="false"
       use_knot_distance="true"
       apply_no_radius="true"
       apply_with_radius="true"
       only_selected="false"
       hide_knots="false" />
    <inkscape:path-effect
       effect="fillet_chamfer"
       id="path-effect113-5-5-6-0-4-0"
       is_visible="true"
       lpeversion="1"
       nodesatellites_param="F,0,0,1,0,0,0,1 @ F,0,0,1,0,0,0,1 @ F,0,0,1,0,0,0,1 @ F,0,0,1,0,0,0,1 @ F,0,0,1,0,0,0,1 @ F,0,0,1,0,0,0,1 @ F,0,0,1,0,0,0,1 @ F,0,0,1,0,0,0,1 @ F,0,0,1,0,0,0,1 @ F,0,0,1,0,0,0,1 @ F,0,0,1,0,0,0,1 @ F,0,0,1,0,0,0,1"
       radius="0"
       unit="px"
       method="auto"
       mode="F"
       chamfer_steps="1"
       flexible="false"
       use_knot_distance="true"
       apply_no_radius="true"
       apply_with_radius="true"
       only_selected="false"
       hide_knots="false" />
    <inkscape:path-effect
       effect="fillet_chamfer"
       id="path-effect126-7-4-3-5-0-8"
       is_visible="true"
       lpeversion="1"
       nodesatellites_param="F,0,0,1,0,0,0,1 @ F,0,0,1,0,0,0,1 @ F,0,0,1,0,0,0,1 @ F,0,0,1,0,0,0,1 @ F,0,0,1,0,0,0,1 @ F,0,0,1,0,0,0,1 @ F,0,0,1,0,0,0,1 @ F,0,0,1,0,3,0,1 | F,0,0,1,0,0,0,1 @ F,0,0,1,0,0,0,1 @ F,0,0,1,0,0,0,1"
       radius="0"
       unit="px"
       method="auto"
       mode="F"
       chamfer_steps="1"
       flexible="false"
       use_knot_distance="true"
       apply_no_radius="true"
       apply_with_radius="true"
       only_selected="false"
       hide_knots="false" />
    <inkscape:path-effect
       effect="fillet_chamfer"
       id="path-effect126-7-4-3-5-5-5-8"
       is_visible="true"
       lpeversion="1"
       nodesatellites_param="F,0,0,1,0,0,0,1 @ F,0,0,1,0,0,0,1 @ F,0,0,1,0,0,0,1 @ F,0,0,1,0,0,0,1 @ F,0,0,1,0,0,0,1 @ F,0,0,1,0,0,0,1 @ F,0,0,1,0,0,0,1 @ F,0,0,1,0,3,0,1 | F,0,0,1,0,0,0,1 @ F,0,0,1,0,0,0,1 @ F,0,0,1,0,0,0,1"
       radius="0"
       unit="px"
       method="auto"
       mode="F"
       chamfer_steps="1"
       flexible="false"
       use_knot_distance="true"
       apply_no_radius="true"
       apply_with_radius="true"
       only_selected="false"
       hide_knots="false" />
    <inkscape:path-effect
       effect="fillet_chamfer"
       id="path-effect130-6-0-9-6"
       is_visible="true"
       lpeversion="1"
       nodesatellites_param="F,0,0,1,0,0,0,1 @ F,0,0,1,0,6,0,1 @ F,0,0,1,0,6,0,1 @ F,0,0,1,0,0,0,1 @ F,0,0,1,0,0,0,1 @ F,0,0,1,0,3,0,1 @ F,0,0,1,0,3,0,1 @ F,0,0,1,0,0,0,1"
       radius="0"
       unit="px"
       method="auto"
       mode="F"
       chamfer_steps="1"
       flexible="false"
       use_knot_distance="true"
       apply_no_radius="true"
       apply_with_radius="true"
       only_selected="false"
       hide_knots="false" />
    <inkscape:path-effect
       effect="fillet_chamfer"
       id="path-effect129-7-2-7-2"
       is_visible="true"
       lpeversion="1"
       nodesatellites_param="F,0,0,1,0,6,0,1 @ F,0,0,1,0,6,0,1 @ F,0,0,1,0,6,0,1 @ F,0,0,1,0,6,0,1 | F,0,0,1,0,3,0,1 @ F,0,0,1,0,3,0,1 @ F,0,0,1,0,3,0,1 @ F,0,0,1,0,3,0,1"
       radius="0"
       unit="px"
       method="auto"
       mode="F"
       chamfer_steps="1"
       flexible="false"
       use_knot_distance="true"
       apply_no_radius="true"
       apply_with_radius="true"
       only_selected="false"
       hide_knots="false" />
  </defs>
  <g
     inkscape:label="Layer 1"
     inkscape:groupmode="layer"
     id="layer1"
     transform="translate(969.84062,142.84556)">
    <g
       id="g1"
       transform="matrix(1,0,0,0.99996,20.194383,92.449028)"
       style="stroke-width:1.00002">
      <path
         id="rect115-0-9-1-9-9-6-3-5-3"
         style="fill:#917c6f;stroke:none;stroke-width:0.264604;stroke-linecap:round;stroke-miterlimit:10;paint-order:fill markers stroke"
         d="m -16779.764,5631.7298 v 17.0003 h 3.5 a 3,3 135 0 0 3,-3 v -3.4947 c 0,-0.3122 0.156,-0.604 0.416,-0.7772 l 1.076,-0.7265 5.402,7.1986 a 2.0006402,2.0006402 26.557717 0 0 1.6,0.7998 l 5.003,0 v -1.9993 c 0,-3.3132 -2.688,-5.9993 -6.003,-5.9991 1.562,0 4.06,-0.946 5.284,-3.1218 0.802,-1.4283 0.774,-4.3152 -0.01,-5.7531 -1.02,-1.8607 -2.998,-3.1224 -5.269,-3.1223 h -7.499 v -0.01 l -3.5,0 a 3.0024472,3.0024472 134.97664 0 0 -3,3.0024 z m 7.003,-0.9918 h 3.501 c 1.657,0 3.001,1.3428 3.001,2.9993 v 1.9993 c 0,1.6567 -1.344,2.9998 -3.001,2.9998 h -3.501 c -0.276,0 -0.5,-0.224 -0.5,-0.5002 v -6.9985 c 0,-0.276 0.224,-0.4997 0.5,-0.4997 z"
         sodipodi:nodetypes="cccsccccscssccccsssssssss"
         transform="matrix(1.00015,0,0,0.99972008,15983.912,-5859.9525)"
         inkscape:original-d="m -16779.764,5628.7298 v 20.0003 h 6.5 v -6.4947 c 0,-0.3122 0.156,-0.604 0.416,-0.7772 l 1.076,-0.7265 6.002,7.9984 h 6.003 v -1.9993 c 0,-3.3132 -2.688,-5.9993 -6.003,-5.9991 1.562,0 4.06,-0.946 5.284,-3.1218 0.802,-1.4283 0.774,-4.3152 -0.01,-5.7531 -1.02,-1.8607 -2.998,-3.1224 -5.269,-3.1223 h -7.499 v -0.01 z m 7.003,2.0082 h 3.501 c 1.657,0 3.001,1.3428 3.001,2.9993 v 1.9993 c 0,1.6567 -1.344,2.9998 -3.001,2.9998 h -3.501 c -0.276,0 -0.5,-0.224 -0.5,-0.5002 v -6.9985 c 0,-0.276 0.224,-0.4997 0.5,-0.4997 z"
         inkscape:path-effect="#path-effect133-5-9-9-8" />
      <path
         id="rect115-0-9-1-9-9-6-3-7-4-1"
         style="fill:#917c6f;stroke:none;stroke-width:0.264604;stroke-linecap:round;stroke-miterlimit:10;paint-order:fill markers stroke"
         d="m -16779.764,5631.7298 v 17.0003 h 3.5 a 3,3 135 0 0 3,-3 v -3.4947 c 0,-0.3122 0.156,-0.604 0.416,-0.7772 l 1.076,-0.7265 5.402,7.1986 a 2.0006402,2.0006402 26.557717 0 0 1.6,0.7998 l 5.003,0 v -1.9993 c 0,-3.3132 -2.688,-5.9993 -6.003,-5.9991 1.562,0 4.06,-0.946 5.284,-3.1218 0.802,-1.4283 0.774,-4.3152 -0.01,-5.7531 -1.02,-1.8607 -2.998,-3.1224 -5.269,-3.1223 h -7.499 v -0.01 l -3.5,0 a 3.0024472,3.0024472 134.97664 0 0 -3,3.0024 z m 7.003,-0.9918 h 3.501 c 1.657,0 3.001,1.3428 3.001,2.9993 v 1.9993 c 0,1.6567 -1.344,2.9998 -3.001,2.9998 h -3.501 c -0.276,0 -0.5,-0.224 -0.5,-0.5002 v -6.9985 c 0,-0.276 0.224,-0.4997 0.5,-0.4997 z"
         sodipodi:nodetypes="cccsccccscssccccsssssssss"
         transform="matrix(1.00015,0,0,0.99972008,15890.579,-5859.9525)"
         inkscape:original-d="m -16779.764,5628.7298 v 20.0003 h 6.5 v -6.4947 c 0,-0.3122 0.156,-0.604 0.416,-0.7772 l 1.076,-0.7265 6.002,7.9984 h 6.003 v -1.9993 c 0,-3.3132 -2.688,-5.9993 -6.003,-5.9991 1.562,0 4.06,-0.946 5.284,-3.1218 0.802,-1.4283 0.774,-4.3152 -0.01,-5.7531 -1.02,-1.8607 -2.998,-3.1224 -5.269,-3.1223 h -7.499 v -0.01 z m 7.003,2.0082 h 3.501 c 1.657,0 3.001,1.3428 3.001,2.9993 v 1.9993 c 0,1.6567 -1.344,2.9998 -3.001,2.9998 h -3.501 c -0.276,0 -0.5,-0.224 -0.5,-0.5002 v -6.9985 c 0,-0.276 0.224,-0.4997 0.5,-0.4997 z"
         inkscape:path-effect="#path-effect133-5-9-0-7-0" />
      <path
         id="rect115-9-3-3-5-7-0-1"
         style="fill:#917c6f;stroke:none;stroke-width:0.264588;stroke-linecap:round;stroke-miterlimit:10;paint-order:fill markers stroke"
         d="m 5524.3403,16837.744 h 19.9998 v -20 h -3.9997 v 12 h -4.0003 v -10 h -3.9998 v 10 h -4.0002 v -12 h -3.9998 z"
         transform="rotate(90,10820.482,5063.338)"
         sodipodi:nodetypes="ccccccccccccc"
         inkscape:original-d="m 5524.3403,16837.744 h 19.9998 v -20 h -3.9997 v 12 h -4.0003 v -10 h -3.9998 v 10 h -4.0002 v -12 h -3.9998 z"
         inkscape:path-effect="#path-effect131-0-7-0-8" />
      <path
         id="rect115-6-1-87-3-9-7-8-1"
         style="fill:#917c6f;stroke:none;stroke-width:0.264587;stroke-linecap:round;stroke-miterlimit:10;paint-order:fill markers stroke"
         d="m -5554.6113,-16654.889 h -6.4999 v 8 h -13.5 v 4 h 13.5 v 8 h 6.4999 z"
         transform="rotate(-90,5050.1083,-10837.523)"
         sodipodi:nodetypes="ccccccccc"
         inkscape:original-d="m -5554.6113,-16654.889 h -6.4999 v 8 h -13.5 v 4 h 13.5 v 8 h 6.4999 z"
         inkscape:path-effect="#path-effect132-4-4-1-9" />
      <path
         id="path1-1-9-3-5-8-2-9-0-9-7-9-6-4-6-8-6-5-5-0-3-6-4-7-1-65-7-7"
         style="font-size:121.133px;font-family:Brooch;-inkscape-font-specification:Brooch;letter-spacing:12.8715px;word-spacing:3.2179px;baseline-shift:baseline;display:inline;overflow:visible;mix-blend-mode:normal;vector-effect:none;fill:#917c6f;stroke-width:0.517487;enable-background:accumulate;stop-color:#000000"
         inkscape:label="n"
         d="m -16953.531,5162.2353 v 19.9998 h 4 v -15.2523 l 5.295,11.7745 c 0.94,2.1022 3.233,3.4783 5.789,3.4783 1.837,7e-4 3.593,-5e-4 4.916,-5e-4 v -19.9998 h -4 v 15.2197 l -5.288,-11.7367 c -0.946,-2.102 -3.24,-3.4778 -5.795,-3.4778 z"
         sodipodi:nodetypes="cccccscccccsc"
         transform="matrix(1,0,0,0.99997404,15968.496,-5394.9049)"
         inkscape:original-d="m -16953.531,5162.2353 v 19.9998 h 4 v -15.2523 l 5.295,11.7745 c 0.94,2.1022 3.233,3.4783 5.789,3.4783 1.837,7e-4 3.593,-5e-4 4.916,-5e-4 v -19.9998 h -4 v 15.2197 l -5.288,-11.7367 c -0.946,-2.102 -3.24,-3.4778 -5.795,-3.4778 z"
         inkscape:path-effect="#path-effect113-5-5-2-4-7" />
      <path
         id="path1-1-9-3-5-8-2-9-0-9-7-9-6-4-6-8-6-5-5-0-3-6-4-7-1-6-1-3-8"
         style="font-size:121.133px;font-family:Brooch;-inkscape-font-specification:Brooch;letter-spacing:12.8715px;word-spacing:3.2179px;baseline-shift:baseline;display:inline;overflow:visible;mix-blend-mode:normal;vector-effect:none;fill:#917c6f;stroke-width:0.517487;enable-background:accumulate;stop-color:#000000"
         inkscape:label="n"
         d="m -16953.531,5162.2353 v 19.9998 h 4 v -15.2523 l 5.295,11.7745 c 0.94,2.1022 3.233,3.4783 5.789,3.4783 1.837,7e-4 3.593,-5e-4 4.916,-5e-4 v -19.9998 h -4 v 15.2197 l -5.288,-11.7367 c -0.946,-2.102 -3.24,-3.4778 -5.795,-3.4778 z"
         sodipodi:nodetypes="cccccscccccsc"
         transform="matrix(1,0,0,0.99997404,16248.496,-5394.9049)"
         inkscape:original-d="m -16953.531,5162.2353 v 19.9998 h 4 v -15.2523 l 5.295,11.7745 c 0.94,2.1022 3.233,3.4783 5.789,3.4783 1.837,7e-4 3.593,-5e-4 4.916,-5e-4 v -19.9998 h -4 v 15.2197 l -5.288,-11.7367 c -0.946,-2.102 -3.24,-3.4778 -5.795,-3.4778 z"
         inkscape:path-effect="#path-effect113-5-5-6-0-4-0" />
      <path
         id="rect115-5-5-6-9-7-3"
         style="fill:#917c6f;stroke:none;stroke-width:0.264588;stroke-linecap:round;stroke-miterlimit:10;paint-order:fill markers stroke"
         d="m -16808.558,5170.8508 -5.735,19.9998 h 4.161 l 0.574,-1.9999 h 7.929 l 0.574,1.9999 h 6.762 l -4.908,-17.116 a 3.9811631,3.9811631 36.999802 0 0 -3.827,-2.8838 z m 2.965,4.1729 3.391,11.8271 h -6.783 z"
         sodipodi:nodetypes="ccccccccccccc"
         transform="translate(16078.146,-5403.6542)"
         inkscape:original-d="m -16808.558,5170.8508 -5.735,19.9998 h 4.161 l 0.574,-1.9999 h 7.929 l 0.574,1.9999 h 6.762 l -5.735,-19.9998 z m 2.965,4.1729 3.391,11.8271 h -6.783 z"
         inkscape:path-effect="#path-effect126-7-4-3-5-0-8" />
      <path
         id="rect115-5-5-6-9-2-4-1"
         style="fill:#917c6f;stroke:none;stroke-width:0.264588;stroke-linecap:round;stroke-miterlimit:10;paint-order:fill markers stroke"
         d="m -16808.558,5170.8508 -5.735,19.9998 h 4.161 l 0.574,-1.9999 h 7.929 l 0.574,1.9999 h 6.762 l -4.908,-17.116 a 3.9811631,3.9811631 36.999802 0 0 -3.827,-2.8838 z m 2.965,4.1729 3.391,11.8271 h -6.783 z"
         sodipodi:nodetypes="ccccccccccccc"
         transform="translate(15984.813,-5403.6542)"
         inkscape:original-d="m -16808.558,5170.8508 -5.735,19.9998 h 4.161 l 0.574,-1.9999 h 7.929 l 0.574,1.9999 h 6.762 l -5.735,-19.9998 z m 2.965,4.1729 3.391,11.8271 h -6.783 z"
         inkscape:path-effect="#path-effect126-7-4-3-5-5-5-8" />
      <path
         id="rect115-6-4-0-3-3-4-7-8-2"
         style="fill:#917c6f;stroke:none;stroke-width:0.264595;stroke-linecap:round;stroke-miterlimit:10;paint-order:fill markers stroke"
         d="m -5521.3126,-16802.602 h -13.9998 a 6,6 135 0 0 -6,6 v 8.001 a 6,6 45 0 0 6,6 h 13.9998 v -6.5 h -14.9999 a 3,3 45 0 1 -3,-3 v -1 a 3,3 135 0 1 3,-3 h 14.9999 z"
         transform="matrix(0,-1,0.99995,0,15878.949,-5754.116)"
         sodipodi:nodetypes="ccccccccc"
         inkscape:original-d="m -5521.3126,-16802.602 h -19.9998 v 20.001 h 19.9998 v -6.5 h -17.9999 v -7 h 17.9999 z"
         inkscape:path-effect="#path-effect130-6-0-9-6" />
      <path
         id="rect115-6-4-0-3-7-3-9-7-7"
         style="fill:#917c6f;stroke:none;stroke-width:0.264588;stroke-linecap:round;stroke-miterlimit:10;paint-order:fill markers stroke"
         d="m -5530.6483,-16731.24 h -8.0003 a 6,6 135 0 0 -6,6 v 8 a 6,6 45 0 0 6,6 h 8.0003 a 6,6 135 0 0 6,-6 v -8 a 6,6 45 0 0 -6,-6 z m 4.0001,9.5 0,1 a 3,3 135 0 1 -3,3 h -10 a 3,3 45 0 1 -3,-3 v -1 a 3,3 135 0 1 3,-3 h 10 a 3,3 45 0 1 3,3 z"
         transform="rotate(-90,5056.5984,-10814.051)"
         sodipodi:nodetypes="cccccccccc"
         inkscape:original-d="m -5524.6483,-16731.24 h -20.0003 v 20 h 20.0003 z m -1.9999,6.5 v 7 h -16 v -7 z"
         inkscape:path-effect="#path-effect129-7-2-7-2" />
    </g>
  </g>
</svg>
