<?xml version="1.0" encoding="UTF-8" standalone="no"?>
<svg
   width="24"
   height="24"
   viewBox="0 0 24 24"
   fill="none"
   version="1.1"
   id="svg1"
   sodipodi:docname="communication.svg"
   inkscape:version="1.4.2 (ebf0e940, 2025-05-08)"
   xmlns:inkscape="http://www.inkscape.org/namespaces/inkscape"
   xmlns:sodipodi="http://sodipodi.sourceforge.net/DTD/sodipodi-0.dtd"
   xmlns="http://www.w3.org/2000/svg"
   xmlns:svg="http://www.w3.org/2000/svg">
  <defs
     id="defs1">
    <inkscape:path-effect
       effect="fillet_chamfer"
       id="path-effect1"
       is_visible="true"
       lpeversion="1"
       nodesatellites_param="F,0,0,1,0,4,0,1 @ F,0,0,1,0,4,0,1 @ F,0,0,1,0,1,0,1 @ F,0,0,1,0,1,0,1 @ F,0,0,1,0,1,0,1 @ F,0,0,1,0,4,0,1 @ F,0,0,1,0,4,0,1"
       radius="0"
       unit="px"
       method="auto"
       mode="F"
       chamfer_steps="1"
       flexible="false"
       use_knot_distance="true"
       apply_no_radius="true"
       apply_with_radius="true"
       only_selected="false"
       hide_knots="false" />
  </defs>
  <sodipodi:namedview
     id="namedview1"
     pagecolor="#505050"
     bordercolor="#eeeeee"
     borderopacity="1"
     inkscape:showpageshadow="0"
     inkscape:pageopacity="0"
     inkscape:pagecheckerboard="0"
     inkscape:deskcolor="#505050"
     inkscape:zoom="9.5192475"
     inkscape:cx="22.79592"
     inkscape:cy="1.0505032"
     inkscape:window-width="1472"
     inkscape:window-height="923"
     inkscape:window-x="0"
     inkscape:window-y="33"
     inkscape:window-maximized="0"
     inkscape:current-layer="svg1" />
  <path
     id="rect1-4"
     style="fill:none;stroke:#000000;stroke-width:1.0366;stroke-linecap:round;stroke-miterlimit:10;paint-order:fill markers stroke"
     d="m 1.8398438,4.640625 v 5.228516 a 4,4 45 0 0 4,4 h 0.4003906 a 1.9432672,1.9432672 27.230227 0 1 1.5812647,0.813715 l 2.8862979,4.040538 a 0.32048303,0.32048303 162.23023 0 0 0.581265,-0.186285 v -3.667968 a 1,1 135 0 1 1,-1 h 4.449219 a 4,4 135 0 0 4,-4 V 4.640625 a 4,4 45 0 0 -4,-4 H 5.8398438 a 4,4 135 0 0 -4,4 z"
     inkscape:path-effect="#path-effect1"
     inkscape:original-d="m 1.8398438,0.640625 v 13.228516 h 5.4003906 l 4.0488276,5.667968 v -5.667968 h 9.449219 V 0.640625 Z"
     sodipodi:nodetypes="cccccccc"
     transform="matrix(0.94801087,0,0,0.98165038,1.2978461,2.4313571)" />
  <path
     style="fill:none;stroke:#000000;stroke-width:0.999992;stroke-linecap:round;stroke-miterlimit:10;paint-order:fill markers stroke"
     d="M 6.9884601,7.1322239 H 16.902053"
     id="path1" />
  <path
     style="fill:none;stroke:#000000;stroke-width:0.999992;stroke-linecap:round;stroke-miterlimit:10;paint-order:fill markers stroke"
     d="M 7.0979474,11.204235 H 17.011539"
     id="path1-0" />
</svg>
