<?xml version="1.0" encoding="UTF-8" standalone="no"?>
<svg
   width="24"
   height="24"
   viewBox="0 0 24 24"
   fill="none"
   version="1.1"
   id="svg1"
   sodipodi:docname="cognitive-flexibility.svg"
   inkscape:version="1.4.2 (ebf0e940, 2025-05-08)"
   xmlns:inkscape="http://www.inkscape.org/namespaces/inkscape"
   xmlns:sodipodi="http://sodipodi.sourceforge.net/DTD/sodipodi-0.dtd"
   xmlns="http://www.w3.org/2000/svg"
   xmlns:svg="http://www.w3.org/2000/svg">
  <defs
     id="defs1">
    <inkscape:path-effect
       effect="fillet_chamfer"
       id="path-effect2"
       is_visible="true"
       lpeversion="1"
       nodesatellites_param="F,0,0,1,0,0,0,1 @ F,0,0,1,0,0,0,1 @ F,0,0,1,0,0,0,1 @ F,0,0,1,0,1,0,1 @ F,0,0,1,0,1,0,1 @ F,0,0,1,0,0,0,1 @ F,0,0,1,0,0,0,1 @ F,0,0,1,0,1,0,1 @ F,0,0,1,0,1,0,1 @ F,0,0,1,0,0,0,1 @ F,0,0,1,0,0,0,1 @ F,0,0,1,0,1,0,1 @ F,0,0,1,0,1,0,1 @ F,0,0,1,0,0,0,1 @ F,0,0,1,0,0,0,1 @ F,0,0,1,0,1,0,1 @ F,0,0,1,0,0,0,1 @ F,0,0,1,0,3,0,1 @ F,0,0,1,0,0,0,1 @ F,0,0,1,0,1,0,1"
       radius="0"
       unit="px"
       method="auto"
       mode="F"
       chamfer_steps="1"
       flexible="false"
       use_knot_distance="true"
       apply_no_radius="true"
       apply_with_radius="true"
       only_selected="false"
       hide_knots="false" />
    <inkscape:path-effect
       effect="fillet_chamfer"
       id="path-effect2-0"
       is_visible="true"
       lpeversion="1"
       nodesatellites_param="F,0,0,1,0,0,0,1 @ F,0,0,1,0,2,0,1 @ F,0,0,1,0,2,0,1 @ F,0,0,1,0,2,0,1 @ F,0,0,1,0,0,0,1"
       radius="0"
       unit="px"
       method="auto"
       mode="F"
       chamfer_steps="1"
       flexible="false"
       use_knot_distance="true"
       apply_no_radius="true"
       apply_with_radius="true"
       only_selected="false"
       hide_knots="false" />
    <inkscape:path-effect
       effect="fillet_chamfer"
       id="path-effect2-0-8"
       is_visible="true"
       lpeversion="1"
       nodesatellites_param="F,0,0,1,0,0,0,1 @ F,0,0,1,0,0,0,1 @ F,0,0,1,0,2,0,1 @ F,0,0,1,0,2,0,1 @ F,0,0,1,0,2,0,1 @ F,0,0,1,0,0,0,1 @ F,0,0,1,0,0,0,1"
       radius="0"
       unit="px"
       method="auto"
       mode="F"
       chamfer_steps="1"
       flexible="false"
       use_knot_distance="true"
       apply_no_radius="true"
       apply_with_radius="true"
       only_selected="false"
       hide_knots="false" />
    <inkscape:path-effect
       effect="fillet_chamfer"
       id="path-effect2-0-6"
       is_visible="true"
       lpeversion="1"
       nodesatellites_param="F,0,0,1,0,0,0,1 @ F,0,0,1,0,2,0,1 @ F,0,0,1,0,2,0,1 @ F,0,0,1,0,2,0,1 @ F,0,0,1,0,0,0,1"
       radius="0"
       unit="px"
       method="auto"
       mode="F"
       chamfer_steps="1"
       flexible="false"
       use_knot_distance="true"
       apply_no_radius="true"
       apply_with_radius="true"
       only_selected="false"
       hide_knots="false" />
    <inkscape:path-effect
       effect="fillet_chamfer"
       id="path-effect2-0-6-0"
       is_visible="true"
       lpeversion="1"
       nodesatellites_param="F,0,0,1,0,0,0,1 @ F,0,0,1,0,2,0,1 @ F,0,0,1,0,2,0,1 @ F,0,0,1,0,2,0,1 @ F,0,0,1,0,0,0,1"
       radius="0"
       unit="px"
       method="auto"
       mode="F"
       chamfer_steps="1"
       flexible="false"
       use_knot_distance="true"
       apply_no_radius="true"
       apply_with_radius="true"
       only_selected="false"
       hide_knots="false" />
    <inkscape:path-effect
       effect="fillet_chamfer"
       id="path-effect2-0-6-1"
       is_visible="true"
       lpeversion="1"
       nodesatellites_param="F,0,0,1,0,0,0,1 @ F,0,0,1,0,2,0,1 @ F,0,0,1,0,2,0,1 @ F,0,0,1,0,2,0,1 @ F,0,0,1,0,0,0,1"
       radius="0"
       unit="px"
       method="auto"
       mode="F"
       chamfer_steps="1"
       flexible="false"
       use_knot_distance="true"
       apply_no_radius="true"
       apply_with_radius="true"
       only_selected="false"
       hide_knots="false" />
  </defs>
  <sodipodi:namedview
     id="namedview1"
     pagecolor="#505050"
     bordercolor="#eeeeee"
     borderopacity="1"
     inkscape:showpageshadow="0"
     inkscape:pageopacity="0"
     inkscape:pagecheckerboard="0"
     inkscape:deskcolor="#505050"
     inkscape:zoom="16.40572"
     inkscape:cx="10.240331"
     inkscape:cy="12.129915"
     inkscape:window-width="1472"
     inkscape:window-height="923"
     inkscape:window-x="0"
     inkscape:window-y="33"
     inkscape:window-maximized="0"
     inkscape:current-layer="svg1" />
  <path
     id="path1-8-6-1"
     style="fill:none;stroke:#000000;stroke-width:1.03121;stroke-linecap:round;stroke-linejoin:round;stroke-miterlimit:83.9;paint-order:markers fill stroke"
     d="m 24.065663,23.286958 c 0.213767,-0.505402 0.331975,-1.061062 0.331975,-1.644331 0,-1.166538 -0.472833,-2.222641 -1.262814,-3.014017 a 1.9861446,1.9861446 67.811918 0 1 -0.62695,-1.537208 v -1.311873 c 0,-0.552285 0.01459,-1.459887 -0.150405,-1.98471 -0.16022,-0.509634 -0.441506,-0.965627 -0.810146,-1.334266 -0.593478,-0.593478 -1.41336,-0.960552 -2.318976,-0.960552 -0.749663,0 -1.440577,0.251534 -2.821428,0.674808 -0.52793,0.161827 -1.38835,0.161804 -1.916378,-5.5e-5 -0.789933,-0.242141 -1.354071,-0.428074 -1.832595,-0.542857 -0.535661,-0.128489 -1.448541,-0.146487 -1.973364,0.01851 -0.509634,0.16022 -0.9656269,0.441507 -1.3342667,0.810146 -0.5934778,0.593478 -0.9605514,1.41336 -0.9605514,2.318977 v 2.311873 A 1.9861451,1.9861451 112.18807 0 1 7.7628143,18.628609 C 6.7314631,20.064327 6.5,20.826446 6.5,21.642626 c 0,0.583269 0.1182083,1.13893 0.331975,1.644331 0.1392251,0.329165 0.3189845,0.637011 0.6231486,1.057787 0.3235345,0.447573 0.6606238,1.242216 0.8265623,1.76832 0.5515349,1.748627 1.8452271,2.813374 3.3876061,2.813374 0.817868,0 1.56581,-0.299385 2.186249,-0.794542 1.274236,-1.016936 1.912321,-1.016932 3.186562,5e-6 0.620438,0.495154 1.368378,0.794538 2.186243,0.794538 1.542379,0 2.836072,-1.064747 3.387607,-2.813374 0.165938,-0.526104 0.503016,-1.320734 0.826539,-1.768289 0.304178,-0.420792 0.483942,-0.728645 0.623171,-1.057818 z"
     sodipodi:nodetypes="sscccsscsscccsscscscs"
     inkscape:path-effect="#path-effect2"
     inkscape:original-d="m 24.065663,23.286958 c 0.213767,-0.505402 0.331975,-1.061062 0.331975,-1.644331 0,-1.166538 -0.472833,-2.222641 -1.262814,-3.014017 l -0.62695,-0.537208 v -3.311873 c 0,-0.905617 -0.367073,-1.725499 -0.960551,-2.318976 -0.593478,-0.593478 -1.41336,-0.960552 -2.318976,-0.960552 -0.905617,0 -1.725499,0.367074 -3.779528,0.960551 C 13.39479,11.867074 12.574908,11.5 11.669292,11.5 c -0.905617,0 -1.7254989,0.367074 -2.3189767,0.960551 -0.5934778,0.593478 -0.9605514,1.41336 -0.9605514,2.318977 v 3.311873 L 7.7628143,18.628609 C 6.9728332,19.419985 6.5,20.476088 6.5,21.642626 c 0,0.583269 0.1182083,1.13893 0.331975,1.644331 0.2137668,0.505401 0.523092,0.960544 1.2315577,1.851365 0.3262318,2.319821 1.7945252,3.788116 3.6057593,3.788116 1.811234,0 3.279527,-1.468295 3.779527,-3.279528 0.5,1.811233 1.968294,3.279529 3.779527,3.279529 1.811234,0 3.279529,-1.468296 3.60576,-3.788116 0.708465,-0.890821 1.01779,-1.345964 1.231557,-1.851365 z"
     transform="matrix(-0.99836963,0,0,0.94191637,27.423632,-7.0391628)" />
  <path
     style="fill:none;stroke:#000000;stroke-width:1.05587;stroke-linecap:round;stroke-miterlimit:10;paint-order:fill markers stroke"
     d="m 10.47716,-16.299256 2.700084,-1.24939 a 4.516661,4.516661 179.05295 0 1 3.656968,-0.06045 l 0.831448,0.351849 a 4.516661,4.516661 179.05295 0 0 3.656968,-0.06045 l 0.884984,-0.409502 a 4.516661,4.516661 179.05295 0 1 3.656968,-0.06045 l 2.673316,1.131285"
     id="path2"
     sodipodi:nodetypes="ccccc"
     inkscape:path-effect="#path-effect2-0"
     inkscape:original-d="m 10.47716,-16.299256 4.515184,-2.089278 4.515184,1.910721 4.515184,-2.089278 4.515184,1.910721"
     transform="matrix(0.94708331,0,0,0.94708331,-6.4752539,28.310641)" />
  <path
     style="fill:none;stroke:#000000;stroke-width:1.05587;stroke-linecap:round;stroke-miterlimit:10;paint-order:fill markers stroke"
     d="m 12.734752,-17.343895 1.128796,-0.52232 a 3.6822338,3.6822338 4.9467368 0 1 2.970664,0.257117 l 0.831448,0.351849 a 4.516661,4.516661 179.05295 0 0 3.656968,-0.06045 l 0.884984,-0.409502 a 3.6628747,3.6628747 172.98576 0 1 2.943896,-0.362208 l 1.128796,0.47768"
     id="path2-4"
     sodipodi:nodetypes="ccccccc"
     inkscape:path-effect="#path-effect2-0-8"
     inkscape:original-d="m 12.734752,-17.343895 1.128796,-0.52232 1.128796,-0.522319 4.515184,1.910721 4.515184,-2.089278 1.128796,0.47768 1.128796,0.47768"
     transform="matrix(-0.94708331,0,0,-0.94708331,30.475254,-7.9700885)" />
  <path
     style="fill:none;stroke:#000000;stroke-width:1.05587;stroke-linecap:round;stroke-miterlimit:10;paint-order:fill markers stroke"
     d="m 10.521193,-16.299256 2.659211,-1.242595 a 4.4939013,4.4939013 178.94561 0 1 3.653808,-0.06725 l 0.831448,0.351849 a 4.516661,4.516661 179.05295 0 0 3.656968,-0.06045 l 0.884984,-0.409502 a 4.4952175,4.4952175 179.15406 0 1 3.654206,-0.05396 l 2.632045,1.124789"
     id="path2-6"
     sodipodi:nodetypes="ccccc"
     inkscape:path-effect="#path-effect2-0-6"
     inkscape:original-d="m 10.521193,-16.299256 4.471151,-2.089278 4.515184,1.910721 4.515184,-2.089278 4.471151,1.910721"
     transform="matrix(-0.94708331,0,0,-0.94708331,30.475254,-0.65119436)" />
</svg>
