<?xml version="1.0" encoding="UTF-8" standalone="no"?>
<svg
   width="24"
   height="24"
   viewBox="0 0 24 24"
   fill="none"
   version="1.1"
   id="svg1"
   sodipodi:docname="visibility.svg"
   xml:space="preserve"
   inkscape:version="1.4.2 (ebf0e940, 2025-05-08)"
   xmlns:inkscape="http://www.inkscape.org/namespaces/inkscape"
   xmlns:sodipodi="http://sodipodi.sourceforge.net/DTD/sodipodi-0.dtd"
   xmlns="http://www.w3.org/2000/svg"
   xmlns:svg="http://www.w3.org/2000/svg"><defs
     id="defs1" /><sodipodi:namedview
     id="namedview1"
     pagecolor="#505050"
     bordercolor="#eeeeee"
     borderopacity="1"
     inkscape:showpageshadow="0"
     inkscape:pageopacity="0"
     inkscape:pagecheckerboard="0"
     inkscape:deskcolor="#505050"
     inkscape:zoom="5.8917907"
     inkscape:cx="1.0183661"
     inkscape:cy="11.456619"
     inkscape:window-width="1472"
     inkscape:window-height="868"
     inkscape:window-x="0"
     inkscape:window-y="32"
     inkscape:window-maximized="0"
     inkscape:current-layer="svg1" /><ellipse
     style="fill:none;stroke:#000000;stroke-width:0.999999;stroke-linecap:round;stroke-linejoin:round;stroke-miterlimit:83.9;paint-order:markers fill stroke"
     id="path1-9"
     cx="-12.000001"
     cy="-5.6614361"
     transform="scale(-1)"
     rx="2.6124246"
     ry="2.6102555" /><circle
     style="fill:none;stroke:#000000;stroke-width:0.999999;stroke-linecap:round;stroke-linejoin:round;stroke-miterlimit:83.9;paint-order:markers fill stroke"
     id="path1-9-6"
     cx="-0.75436532"
     cy="25.11595"
     r="2.6113403"
     transform="matrix(0.7074004,-0.70681304,0.7074004,0.70681304,0,0)" /><circle
     style="fill:none;stroke:#000000;stroke-width:0.999999;stroke-linecap:round;stroke-linejoin:round;stroke-miterlimit:83.9;paint-order:markers fill stroke"
     id="path1-9-6-5"
     cx="-17.717886"
     cy="8.1524305"
     r="2.6113403"
     transform="matrix(-0.7074004,-0.70681304,-0.7074004,0.70681304,0,0)" /><path
     id="path1"
     style="stroke:#000000;stroke-width:1;stroke-linecap:round;stroke-linejoin:round;stroke-miterlimit:83.9;paint-order:markers fill stroke"
     d="M 4.2615287,14.64702 C 4.1563075,14.133244 4.1010501,13.601283 4.1010501,13.056428 c 0,-0.544856 0.055257,-1.076817 0.1604786,-1.590593 C 4.3667498,10.95206 4.5219344,10.456469 4.7217888,9.9843526 4.9216431,9.5122362 5.166167,9.0635944 5.4500668,8.6437164 5.7339664,8.2238385 6.0572417,7.8327244 6.414599,7.475664 6.7719562,7.1186035 7.1633952,6.7955965 7.5836221,6.5119326 m 8.8327559,1e-7 c 0.420227,0.2836639 0.811666,0.606671 1.169023,0.9637314 0.357357,0.3570604 0.680633,0.7481744 0.964532,1.1680524 0.2839,0.419878 0.528424,0.8685199 0.728278,1.3406361 0.199854,0.4721164 0.355039,0.9677074 0.46026,1.4814824 0.105218,0.513776 0.160479,1.045737 0.160479,1.590593 0,0.544855 -0.05525,1.076816 -0.160479,1.590592 m -6.146557,6.141453 C 13.077711,20.893604 12.545309,20.948819 12,20.948819 c -0.545309,0 -1.077711,-0.05521 -1.591914,-0.160346"
     sodipodi:nodetypes="csssssccsssssccsc" /></svg>
