<?xml version="1.0" encoding="UTF-8" standalone="no"?>
<!-- Created with Inkscape (http://www.inkscape.org/) -->

<svg
   width="61.500011mm"
   height="61.500015mm"
   viewBox="0 0 61.500012 61.500015"
   version="1.1"
   id="svg1"
   inkscape:version="1.4.2 (ebf0e940, 2025-05-08)"
   sodipodi:docname="Globe.svg"
   xmlns:inkscape="http://www.inkscape.org/namespaces/inkscape"
   xmlns:sodipodi="http://sodipodi.sourceforge.net/DTD/sodipodi-0.dtd"
   xmlns="http://www.w3.org/2000/svg"
   xmlns:svg="http://www.w3.org/2000/svg">
  <sodipodi:namedview
     id="namedview1"
     pagecolor="#505050"
     bordercolor="#eeeeee"
     borderopacity="1"
     inkscape:showpageshadow="0"
     inkscape:pageopacity="0"
     inkscape:pagecheckerboard="0"
     inkscape:deskcolor="#505050"
     inkscape:document-units="mm"
     inkscape:zoom="1.0851887"
     inkscape:cx="36.399199"
     inkscape:cy="154.81178"
     inkscape:window-width="1472"
     inkscape:window-height="895"
     inkscape:window-x="0"
     inkscape:window-y="61"
     inkscape:window-maximized="0"
     inkscape:current-layer="svg1">
    <inkscape:page
       x="0"
       y="-8.7166534e-15"
       width="61.500011"
       height="61.500011"
       id="page1"
       margin="0"
       bleed="0" />
  </sodipodi:namedview>
  <defs
     id="defs1" />
  <circle
     style="stroke-width:0.645378;fill:none;stroke:#000000;stroke-linecap:round;stroke-linejoin:round;stroke-dasharray:none"
     id="path9"
     cx="276.10751"
     cy="-251.15356"
     r="9.6000004"
     inkscape:label="Globe Circle"
     transform="matrix(3.0989582,0,0,3.0989582,-824.89564,809.0644)" />
  <path
     id="path6-50"
     style="stroke-width:0.0113838;fill:#040606;fill-opacity:1;fill-rule:nonzero;stroke:none"
     d="m 272.72941,-260.27936 a 9.6000004,9.6000004 0 0 0 -6.21978,8.70128 c 0.36531,0.37182 0.77099,0.59301 1.39785,0.65991 0.9213,0.0992 1.92336,0.18021 2.60863,0.80357 0.13512,0.12308 0.25828,0.27486 0.28525,0.45527 0.0551,0.36875 -0.37054,0.67533 -0.34572,1.04748 0.0542,0.81265 1.31371,0.74141 1.5813,1.50998 0.16427,0.47187 -0.14225,0.9678 -0.26148,1.45314 -0.1727,0.70284 -0.006,1.45535 0.31626,2.10375 0.18611,0.37406 0.40238,0.82129 0.64079,1.24024 a 9.6000004,9.6000004 0 0 0 0.85886,0.27698 c 0.02,-0.078 0.0329,-0.14777 0.0362,-0.19585 0.0115,-0.1857 -0.0425,-0.36801 -0.0785,-0.55036 -0.14501,-0.72883 -0.38984,-1.79085 1.11362,-3.52795 0.45283,-0.52291 0.98707,-0.99681 1.27537,-1.62522 0.28856,-0.62817 0.22622,-1.49797 -0.36173,-1.8619 -0.46823,-0.28977 -1.10013,-0.16717 -1.58233,-0.43357 -0.3519,-0.19437 -0.57007,-0.56607 -0.89451,-0.80357 -0.41935,-0.30685 -0.96875,-0.35875 -1.48829,-0.37465 -0.51929,-0.0159 -1.05949,-0.0108 -1.53014,-0.231 -0.47088,-0.22062 -0.84628,-0.74839 -0.70176,-1.24746 0.098,-0.33793 0.39673,-0.57184 0.67902,-0.78187 0.32589,-0.24207 0.65184,-0.48402 0.97772,-0.72657 0.42753,-0.31794 0.88923,-0.69286 0.9586,-1.22059 0.0579,-0.44005 -0.16661,-0.94155 0.0899,-1.3038 0.24906,-0.35046 0.78367,-0.32446 1.13533,-0.57206 0.36635,-0.25796 0.46373,-0.77712 0.35968,-1.21285 -0.1043,-0.43572 -0.36937,-0.81182 -0.61289,-1.18804 -0.0828,-0.12776 -0.16434,-0.25921 -0.23719,-0.39429 z m 7.691,0.41135 c -0.42793,0.33758 -0.85594,0.67527 -1.28364,1.01285 -0.22087,0.17416 -0.46417,0.39787 -0.43718,0.678 0.0429,0.45136 0.73463,0.60628 0.79581,1.05523 0.0378,0.27819 -0.20431,0.52712 -0.46974,0.6196 -0.26472,0.093 -0.55335,0.0769 -0.83251,0.10852 -1.14649,0.13127 -2.11563,1.21153 -2.08721,2.36575 0.0284,1.15373 1.08051,2.19611 2.23449,2.18023 0.35382,-0.005 0.70216,-0.0965 1.05575,-0.10904 0.35335,-0.0125 0.73833,0.0718 0.96377,0.34468 0.22858,0.27628 0.23616,0.66738 0.23254,1.02578 -0.008,0.85578 -0.0172,2.83806 -0.0258,3.69383 -0.003,0.30446 0.003,0.63687 0.19844,0.87075 0.22546,0.27072 0.64168,0.31215 0.97358,0.19171 0.33119,-0.11971 0.59845,-0.36767 0.85473,-0.60926 0.75114,-0.70769 2.06338,-2.90544 3.09955,-4.36976 a 9.6000004,9.6000004 0 0 0 0.0124,-0.48369 9.6000004,9.6000004 0 0 0 -5.28495,-8.57518 z m -4.95008,0.0305 c -0.15731,5.4e-4 -0.31221,0.0613 -0.42737,0.17828 -5.1e-4,5.1e-4 -0.002,10e-4 -0.003,0.002 l -5.2e-4,5.2e-4 c -1.7e-4,2e-4 -8.7e-4,10e-4 -0.001,0.002 -0.2057,0.21148 -0.29616,0.5287 -0.23305,0.81701 0.0385,0.17583 0.12896,0.33653 0.16846,0.51211 0.041,0.18354 0.0243,0.37482 0.045,0.56173 0.0207,0.18715 0.0904,0.38518 0.25063,0.48369 0.23893,0.14717 0.56015,0.003 0.74466,-0.20774 0.1845,-0.21123 0.29168,-0.48153 0.47955,-0.68988 0.2411,-0.26736 0.59882,-0.41556 0.81391,-0.70435 h 5.2e-4 c 0.10501,-0.14067 0.16643,-0.34662 0.061,-0.4868 -0.10839,-0.14403 -0.32082,-0.13739 -0.50075,-0.13642 -0.38778,10e-4 -0.77475,-0.0922 -1.12086,-0.26665 -0.088,-0.0443 -0.18312,-0.0654 -0.2775,-0.0651 z"
     inkscape:label="Globe"
     transform="matrix(3.0989582,0,0,3.0989582,-824.89564,809.0644)" />
</svg>
