<?xml version="1.0" encoding="UTF-8" standalone="no"?>
<svg
   viewBox="0 0 24 24"
   fill="none"
   version="1.1"
   id="svg1"
   sodipodi:docname="notification-browser-permission.svg"
   width="24"
   height="24"
   inkscape:version="1.4.2 (ebf0e940, 2025-05-08)"
   xmlns:inkscape="http://www.inkscape.org/namespaces/inkscape"
   xmlns:sodipodi="http://sodipodi.sourceforge.net/DTD/sodipodi-0.dtd"
   xmlns="http://www.w3.org/2000/svg"
   xmlns:svg="http://www.w3.org/2000/svg">
  <defs
     id="defs1" />
  <sodipodi:namedview
     id="namedview1"
     pagecolor="#505050"
     bordercolor="#eeeeee"
     borderopacity="1"
     inkscape:showpageshadow="0"
     inkscape:pageopacity="0"
     inkscape:pagecheckerboard="0"
     inkscape:deskcolor="#505050"
     inkscape:zoom="11.373073"
     inkscape:cx="5.1876921"
     inkscape:cy="21.014549"
     inkscape:window-width="1472"
     inkscape:window-height="923"
     inkscape:window-x="0"
     inkscape:window-y="33"
     inkscape:window-maximized="0"
     inkscape:current-layer="svg1" />
  <path
     id="rect2"
     style="stroke:#000000;stroke-width:1;stroke-linecap:round;stroke-linejoin:round;stroke-miterlimit:83.9;paint-order:markers fill stroke"
     d="m 14.619633,18.663341 -1.016555,1.017656 -1.016555,1.017657 c -0.337419,0.337785 -0.884485,0.337785 -1.221905,0 L 7.2984007,16.628029 C 4.4256397,13.925245 4.2538623,10.312774 4.244156,6.694488 4.242876,6.216846 4.6315084,5.834921 5.1064417,5.790496 v -3e-6 c 2.07689,-0.194275 3.896445,-1.094425 5.5350383,-2.322046 0.763839,-0.572263 1.874899,-0.538227 2.636906,0.0357 1.633299,1.23016 3.51245,1.986906 5.56887,2.246531 0.473345,0.05976 0.882997,0.465628 0.896764,0.943116 0.02646,0.9176361 0.01059,1.8195007 -0.06912,2.700588 -0.07971,0.881087 -0.223264,1.741398 -0.45218,2.575925 -0.114458,0.417263 -0.250256,0.828081 -0.410085,1.231827"
     sodipodi:nodetypes="cccccsccccccssc" />
  <circle
     style="fill:none;stroke:#000000;stroke-width:0.999992;stroke-linecap:round;stroke-linejoin:round;stroke-miterlimit:83.9;paint-order:markers fill stroke"
     id="path1-3"
     cx="16.476067"
     cy="15.669209"
     r="3.279531" />
</svg>
