<?xml version="1.0" encoding="UTF-8" standalone="no"?>
<svg
   width="24"
   height="24"
   viewBox="0 0 24 24"
   fill="none"
   version="1.1"
   id="svg2"
   sodipodi:docname="platform-menue-settings-accessibility.svg"
   inkscape:version="1.4.2 (ebf0e940, 2025-05-08)"
   xmlns:inkscape="http://www.inkscape.org/namespaces/inkscape"
   xmlns:sodipodi="http://sodipodi.sourceforge.net/DTD/sodipodi-0.dtd"
   xmlns="http://www.w3.org/2000/svg"
   xmlns:svg="http://www.w3.org/2000/svg">
  <path
     d="M 2.5511966,17.576021 6.0312665,6.1867015 H 9.2424219 L 12.722492,17.576021 h -2.21459 L 7.4074759,7.531274 h 0.411281 L 4.7657865,17.576021 Z m 2.0880419,-2.372775 v -2.008949 h 6.0110295 v 2.008949 z M 16.65581,17.813299 q -0.917473,0 -1.558123,-0.348007 -0.63274,-0.355917 -0.964928,-0.941201 -0.324279,-0.593194 -0.324279,-1.305026 0,-0.593194 0.181912,-1.083567 0.181913,-0.490374 0.585285,-0.862109 0.411281,-0.379644 1.099386,-0.63274 0.474555,-0.174003 1.131022,-0.30846 0.656468,-0.134458 1.486939,-0.253096 0.830472,-0.126548 1.827037,-0.276824 l -0.775106,0.427099 q 0,-0.759288 -0.363826,-1.115204 -0.363825,-0.355916 -1.218024,-0.355916 -0.474555,0 -0.988657,0.229368 -0.514101,0.229368 -0.719741,0.814653 l -1.945676,-0.616922 q 0.324279,-1.059839 1.218025,-1.7242161 0.893745,-0.664377 2.436049,-0.664377 1.131022,0 2.008949,0.348007 0.877927,0.348007 1.328754,1.2022061 0.253096,0.474555 0.300552,0.94911 0.04745,0.474555 0.04745,1.059839 v 5.220105 h -1.882401 v -1.755853 l 0.268914,0.363825 q -0.624831,0.862108 -1.352482,1.249662 -0.719741,0.379644 -1.827036,0.379644 z m 0.458736,-1.69258 q 0.593194,0 0.996566,-0.20564 0.411281,-0.21355 0.648558,-0.482464 0.245187,-0.268915 0.332189,-0.450828 0.166094,-0.348007 0.189822,-0.806743 0.03164,-0.466646 0.03164,-0.775107 l 0.63274,0.158185 q -0.95702,0.158185 -1.550213,0.268915 -0.593194,0.10282 -0.95702,0.189822 -0.363825,0.087 -0.640649,0.189822 -0.31637,0.126548 -0.514101,0.276824 -0.189822,0.142366 -0.284733,0.31637 -0.087,0.174003 -0.087,0.387553 0,0.292642 0.142367,0.506192 0.150275,0.20564 0.41919,0.31637 0.268914,0.110729 0.640649,0.110729 z"
     id="text1"
     style="font-weight:800;font-size:15.8185px;font-family:Manrope;-inkscape-font-specification:'Manrope Ultra-Bold';letter-spacing:0.136869px;word-spacing:0px;fill:#000000;stroke-width:0.999998;stroke-linecap:round;stroke-linejoin:round;stroke-miterlimit:83.9;paint-order:markers fill stroke"
     aria-label="Aa" />
  <defs
     id="defs2">
    <inkscape:path-effect
       effect="fillet_chamfer"
       id="path-effect1"
       is_visible="true"
       lpeversion="1"
       nodesatellites_param="F,0,0,1,0,1,0,1 @ F,0,0,1,0,1,0,1 @ F,0,0,1,0,1,0,1 @ F,0,0,1,0,1,0,1 @ F,0,0,1,0,1,0,1 @ F,0,0,1,0,1,0,1 @ F,0,0,1,0,0,0,1 @ F,0,0,1,0,1,0,1 @ F,0,0,1,0,1,0,1 @ F,0,0,1,0,1,0,1 @ F,0,0,1,0,1,0,1 @ F,0,0,1,0,1,0,1 @ F,0,0,1,0,1,0,1 @ F,0,0,1,0,1,0,1 @ F,0,0,1,0,1,0,1 @ F,0,0,1,0,1,0,1 @ F,0,0,1,0,1,0,1 @ F,0,0,1,0,1,0,1 @ F,0,0,1,0,1,0,1 @ F,0,0,1,0,0,0,1 @ F,0,0,1,0,1,0,1 @ F,0,0,1,0,1,0,1 @ F,0,0,1,0,1,0,1 @ F,0,0,1,0,1,0,1 @ F,0,0,1,0,1,0,1 @ F,0,0,1,0,1,0,1"
       radius="0"
       unit="px"
       method="auto"
       mode="F"
       chamfer_steps="1"
       flexible="false"
       use_knot_distance="true"
       apply_no_radius="true"
       apply_with_radius="true"
       only_selected="false"
       hide_knots="false" />
  </defs>
  <sodipodi:namedview
     id="namedview2"
     pagecolor="#505050"
     bordercolor="#eeeeee"
     borderopacity="1"
     inkscape:showpageshadow="0"
     inkscape:pageopacity="0"
     inkscape:pagecheckerboard="0"
     inkscape:deskcolor="#505050"
     inkscape:zoom="9.7428541"
     inkscape:cx="2.7712619"
     inkscape:cy="7.2360727"
     inkscape:window-width="1472"
     inkscape:window-height="840"
     inkscape:window-x="0"
     inkscape:window-y="32"
     inkscape:window-maximized="0"
     inkscape:current-layer="svg2" />
</svg>
