<?xml version="1.0" encoding="UTF-8" standalone="no"?>
<svg
   width="24"
   height="24"
   viewBox="0 0 24 24"
   fill="none"
   version="1.1"
   id="svg1"
   sodipodi:docname="visibility-on.svg"
   xml:space="preserve"
   inkscape:version="1.4.2 (ebf0e940, 2025-05-08)"
   xmlns:inkscape="http://www.inkscape.org/namespaces/inkscape"
   xmlns:sodipodi="http://sodipodi.sourceforge.net/DTD/sodipodi-0.dtd"
   xmlns="http://www.w3.org/2000/svg"
   xmlns:svg="http://www.w3.org/2000/svg"><defs
     id="defs1"><inkscape:path-effect
       effect="fillet_chamfer"
       id="path-effect1"
       is_visible="true"
       lpeversion="1"
       nodesatellites_param="F,0,0,1,0,0.5,0,1 @ F,0,0,1,0,0,0,1 @ F,0,0,1,0,0,0,1 @ F,0,0,1,0,0,0,1 @ F,0,0,1,0,0,0,1 @ F,0,0,1,0,0,0,1 @ F,0,0,1,0,0,0,1 @ F,0,0,1,0,0,0,1 @ F,0,0,1,0,0,0,1 @ F,0,0,1,0,0,0,1 @ F,0,0,1,0,0,0,1 @ F,0,0,1,0,0,0,1 @ F,0,0,1,0,0.5,0,1"
       radius="0"
       unit="px"
       method="auto"
       mode="F"
       chamfer_steps="1"
       flexible="false"
       use_knot_distance="true"
       apply_no_radius="true"
       apply_with_radius="true"
       only_selected="false"
       hide_knots="false" /></defs><sodipodi:namedview
     id="namedview1"
     pagecolor="#505050"
     bordercolor="#eeeeee"
     borderopacity="1"
     inkscape:showpageshadow="0"
     inkscape:pageopacity="0"
     inkscape:pagecheckerboard="0"
     inkscape:deskcolor="#505050"
     inkscape:zoom="7.5436822"
     inkscape:cx="12.261916"
     inkscape:cy="19.420224"
     inkscape:window-width="1472"
     inkscape:window-height="868"
     inkscape:window-x="0"
     inkscape:window-y="32"
     inkscape:window-maximized="0"
     inkscape:current-layer="svg1" /><path
     id="path1"
     style="stroke:#000000;stroke-linecap:round;stroke-linejoin:round;stroke-miterlimit:83.9;paint-order:markers fill stroke"
     d="m 18.327771,5.6722294 a 8.9488192,8.9488192 0 0 1 0,12.6555416 8.9488192,8.9488192 0 0 1 -12.6555417,0 8.9488192,8.9488192 0 0 1 0,-12.6555417 8.9488192,8.9488192 0 0 1 12.6555417,1e-7 z" /><path
     id="path1-7"
     style="fill:#000000;stroke:none;stroke-linecap:round;stroke-linejoin:round;stroke-miterlimit:83.9;paint-order:markers fill stroke"
     d="M 9.168105,17.420218 C 8.9656331,17.314215 8.7698355,17.1972 8.5815076,17.069968 8.2562315,16.850216 7.9532386,16.599985 7.6766267,16.323373 7.4000147,16.046761 7.1497838,15.743768 6.9300315,15.418492 6.7102793,15.093216 6.5210058,14.745657 6.3663088,14.379912 6.2116118,14.014167 6.0914912,13.630237 6.0100449,13.232219 5.9285987,12.834201 5.8858266,12.422096 5.8858266,12 c 0,-0.422096 0.042772,-0.834201 0.1242182,-1.232219 C 6.0914911,10.369763 6.2116116,9.9858326 6.3663086,9.6200878 6.5210056,9.254343 6.7102791,8.9067836 6.9300313,8.5815075 7.1497835,8.2562314 7.4000145,7.9532385 7.6766264,7.6766265 7.9532384,7.4000146 8.2562313,7.1497836 8.5815075,6.9300314 8.7698357,6.8027994 8.9656336,6.6857844 9.1681059,6.5797817 9.4126791,6.4517374 9.6200878,6.5901663 9.6200878,6.8663087 l 10e-8,10.2673823 c 0,0.276142 -0.2074091,0.414571 -0.4519829,0.286527 z"
     sodipodi:nodetypes="cssssssssssscc"
     inkscape:path-effect="#path-effect1"
     inkscape:original-d="M 9.6200879,17.633691 C 9.2543431,17.478994 8.9067838,17.289721 8.5815076,17.069968 8.2562315,16.850216 7.9532386,16.599985 7.6766267,16.323373 7.4000147,16.046761 7.1497838,15.743768 6.9300315,15.418492 6.7102793,15.093216 6.5210058,14.745657 6.3663088,14.379912 6.2116118,14.014167 6.0914912,13.630237 6.0100449,13.232219 5.9285987,12.834201 5.8858266,12.422096 5.8858266,12 c 0,-0.422096 0.042772,-0.834201 0.1242182,-1.232219 C 6.0914911,10.369763 6.2116116,9.9858326 6.3663086,9.6200878 6.5210056,9.254343 6.7102791,8.9067836 6.9300313,8.5815075 7.1497835,8.2562314 7.4000145,7.9532385 7.6766264,7.6766265 7.9532384,7.4000146 8.2562313,7.1497836 8.5815075,6.9300314 8.9067836,6.7102792 9.2543429,6.5210057 9.6200878,6.3663087 Z"
     transform="rotate(-45,12,12)" /></svg>
