<?xml version="1.0" encoding="UTF-8" standalone="no"?>
<svg
   width="24"
   height="24"
   viewBox="0 0 24 24"
   fill="none"
   version="1.1"
   id="svg1"
   sodipodi:docname="inbox.svg"
   inkscape:version="1.4.2 (ebf0e940, 2025-05-08)"
   xmlns:inkscape="http://www.inkscape.org/namespaces/inkscape"
   xmlns:sodipodi="http://sodipodi.sourceforge.net/DTD/sodipodi-0.dtd"
   xmlns="http://www.w3.org/2000/svg"
   xmlns:svg="http://www.w3.org/2000/svg">
  <defs
     id="defs1">
    <inkscape:path-effect
       effect="fillet_chamfer"
       id="path-effect3"
       is_visible="true"
       lpeversion="1"
       nodesatellites_param="F,0,0,1,0,0,0,1 @ F,0,0,1,0,3,0,1 @ F,0,0,1,0,3,0,1 @ F,0,0,1,0,3,0,1 @ F,0,0,1,0,3,0,1 @ F,0,0,1,0,0,0,1"
       radius="0"
       unit="px"
       method="auto"
       mode="F"
       chamfer_steps="1"
       flexible="false"
       use_knot_distance="true"
       apply_no_radius="true"
       apply_with_radius="true"
       only_selected="false"
       hide_knots="false" />
    <inkscape:path-effect
       effect="fillet_chamfer"
       id="path-effect2"
       is_visible="true"
       lpeversion="1"
       nodesatellites_param="F,0,0,1,0,5,0,1 @ F,0,0,1,0,1,0,1 @ F,0,0,1,0,5,0,1 @ F,0,0,1,0,5,0,1 @ F,0,0,1,0,1,0,1 @ F,0,0,1,0,5,0,1"
       radius="0"
       unit="px"
       method="auto"
       mode="F"
       chamfer_steps="1"
       flexible="false"
       use_knot_distance="true"
       apply_no_radius="true"
       apply_with_radius="true"
       only_selected="false"
       hide_knots="false" />
  </defs>
  <sodipodi:namedview
     id="namedview1"
     pagecolor="#505050"
     bordercolor="#eeeeee"
     borderopacity="1"
     inkscape:showpageshadow="0"
     inkscape:pageopacity="0"
     inkscape:pagecheckerboard="0"
     inkscape:deskcolor="#505050"
     inkscape:zoom="9.4989335"
     inkscape:cx="7.2113359"
     inkscape:cy="-1.9475871"
     inkscape:window-width="1472"
     inkscape:window-height="840"
     inkscape:window-x="0"
     inkscape:window-y="32"
     inkscape:window-maximized="0"
     inkscape:current-layer="svg1" />
  <path
     id="rect1-9-7-9"
     style="stroke-width:2.37665;fill:none;stroke:#000000;stroke-linecap:round;stroke-linejoin:round"
     d="M -56.410988,0.15309622 -60.524625,13.324359 a 6.5562335,6.5562335 98.672291 0 0 -0.298118,1.954529 v 12.898438 a 5,5 45 0 0 5,5 h 27.794921 a 5,5 135 0 0 5,-5 V 15.278888 A 6.5562335,6.5562335 81.327709 0 0 -23.32594,13.324359 L -27.439577,0.15309622 a 6.7997804,6.7997804 36.327709 0 0 -6.490588,-4.77264562 l -15.990235,0 a 6.7997804,6.7997804 143.67229 0 0 -6.490588,4.77264562 z"
     sodipodi:nodetypes="ccccccc"
     inkscape:path-effect="#path-effect2"
     inkscape:original-d="m -54.9204,-4.6195494 -5.902343,18.8984374 v 18.898438 h 37.794921 V 14.278888 l -5.902343,-18.8984374 z"
     transform="matrix(0.47042316,0,0,0.3763394,31.722623,6.6262918)" />
  <path
     style="stroke-width:2.34416;fill:none;stroke:#000000;stroke-linecap:round;stroke-linejoin:round"
     d="m -59.763542,11.159196 h 5.948821 A 8.1008045,8.1008045 20.321284 0 1 -48.538358,13.11321 7.961624,7.961624 19.949905 0 0 -43.34031,15 l 2.948821,0 a 8.1008031,8.1008031 159.67871 0 0 5.276363,-1.954015 7.9616216,7.9616216 160.05009 0 1 5.198047,-1.886789 h 5.948821"
     id="path8-7-1"
     sodipodi:nodetypes="cccccc"
     inkscape:path-effect="#path-effect3"
     inkscape:original-d="m -59.763542,11.159196 h 8.948821 L -46.34031,15 h 8.948821 l 4.47441,-3.840804 h 8.948821"
     transform="matrix(0.48356509,0,0,0.3763394,32.244887,7.8003549)" />
</svg>
