<?xml version="1.0" encoding="UTF-8" standalone="no"?>
<svg
   width="24"
   height="24"
   viewBox="0 0 24 24"
   fill="none"
   stroke="currentColor"
   stroke-width="1.5"
   stroke-linecap="round"
   stroke-linejoin="round"
   version="1.1"
   id="svg5"
   sodipodi:docname="two-factor-auth.svg"
   inkscape:version="1.4.2 (ebf0e940, 2025-05-08)"
   xmlns:inkscape="http://www.inkscape.org/namespaces/inkscape"
   xmlns:sodipodi="http://sodipodi.sourceforge.net/DTD/sodipodi-0.dtd"
   xmlns="http://www.w3.org/2000/svg"
   xmlns:svg="http://www.w3.org/2000/svg">
  <defs
     id="defs5">
    <inkscape:path-effect
       effect="fillet_chamfer"
       id="path-effect6"
       is_visible="true"
       lpeversion="1"
       nodesatellites_param="F,0,0,1,0,3,0,1 @ F,0,0,1,0,3,0,1 @ F,0,0,1,0,4,0,1 @ F,0,0,1,0,3,0,1 @ F,0,0,1,0,3,0,1"
       radius="0"
       unit="px"
       method="auto"
       mode="F"
       chamfer_steps="1"
       flexible="false"
       use_knot_distance="true"
       apply_no_radius="true"
       apply_with_radius="true"
       only_selected="false"
       hide_knots="false" />
    <inkscape:path-effect
       effect="fillet_chamfer"
       id="path-effect3"
       is_visible="true"
       lpeversion="1"
       nodesatellites_param="F,0,0,1,0,2,0,1 @ F,0,0,1,0,0,0,1 @ F,0,0,1,0,0,0,1 @ F,0,0,1,0,0,0,1 @ F,0,0,1,0,2,0,1"
       radius="0"
       unit="px"
       method="auto"
       mode="F"
       chamfer_steps="1"
       flexible="false"
       use_knot_distance="true"
       apply_no_radius="true"
       apply_with_radius="true"
       only_selected="false"
       hide_knots="false" />
  </defs>
  <sodipodi:namedview
     id="namedview5"
     pagecolor="#505050"
     bordercolor="#eeeeee"
     borderopacity="1"
     inkscape:showpageshadow="0"
     inkscape:pageopacity="0"
     inkscape:pagecheckerboard="0"
     inkscape:deskcolor="#505050"
     inkscape:zoom="11.062067"
     inkscape:cx="10.260289"
     inkscape:cy="20.204181"
     inkscape:window-width="1472"
     inkscape:window-height="868"
     inkscape:window-x="0"
     inkscape:window-y="32"
     inkscape:window-maximized="0"
     inkscape:current-layer="svg5" />
  <path
     id="rect2-9"
     style="stroke:#000000;stroke-width:0.999998;stroke-miterlimit:83.9;stroke-dasharray:none;paint-order:markers fill stroke"
     d="M 5.7041021,10.60001 V 9.9813935 c 0,-4.4556518 3.3944443,-6.9393218 6.2958979,-6.9393218 2.901393,0 6.295898,2.4836119 6.295898,6.9393218 V 10.60001"
     sodipodi:nodetypes="cscsc" />
  <path
     id="rect5"
     style="stroke-width:1.07767;stroke-miterlimit:83.9;paint-order:markers fill stroke"
     d="M 5.5509996,14.485585 H 18.449 a 3,3 45 0 1 3,3 V 20 a 4.9956799,4.9956799 128.68397 0 1 -3.903178,4.874757 l -2.618438,0.586829 a 13.38604,13.38604 180 0 1 -5.8547676,0 L 5.4783832,24.656068 A 3.7467599,3.7467599 51.31603 0 1 2.5509996,21 v -3.514415 a 3,3 135 0 1 3,-3 z"
     sodipodi:nodetypes="cccccc"
     inkscape:path-effect="#path-effect6"
     inkscape:original-d="M 2.5509996,14.485585 H 21.449 V 24 L 12,26.117654 2.5509996,24 Z"
     transform="matrix(0.94597552,0,0,0.91021899,0.64829391,-2.5119326)" />
  <path
     d="m 4.8493253,17.878043 v -0.925592 l 2.4619472,-2.102193 q 0.2771729,-0.23532 0.3913028,-0.443186 0.11413,-0.207866 0.11413,-0.388278 0,-0.258852 -0.1100539,-0.458874 -0.1100539,-0.203945 -0.3097815,-0.317683 -0.1997274,-0.11766 -0.4687481,-0.11766 -0.281249,0 -0.4972807,0.125504 -0.2119558,0.121583 -0.3301618,0.325526 -0.1182061,0.200023 -0.110054,0.435342 h -1.1413 q 0,-0.580455 0.2649447,-1.004032 0.2649447,-0.423576 0.7377689,-0.654974 0.4728242,-0.231398 1.1005393,-0.231398 0.5747261,0 1.0271699,0.243164 0.45652,0.239242 0.7173887,0.670663 0.2608685,0.431419 0.2608685,1.000109 0,0.419655 -0.1222822,0.698117 -0.1222821,0.27454 -0.3627704,0.509861 -0.240488,0.231398 -0.5910302,0.525547 l -1.5896679,1.341325 -0.089674,-0.23532 h 2.7554242 v 1.004032 z m 5.1574747,0.0078 V 12.23816 h 3.586943 v 1.066784 h -2.478251 v 1.223665 h 1.989122 v 1.066785 h -1.989122 v 2.290449 z m 3.902047,0 1.793471,-5.647683 h 1.654885 l 1.793471,5.647683 H 18.009375 L 16.411556,12.904907 H 16.62351 L 15.050147,17.88585 Z M 14.98493,16.709249 V 15.71306 h 3.097814 v 0.996189 z"
     id="text5"
     style="font-weight:800;font-size:8.61771px;font-family:Manrope;-inkscape-font-specification:'Manrope Ultra-Bold';letter-spacing:0.0745649px;word-spacing:0px;fill:#000000;stroke:none;stroke-width:1.49999;stroke-miterlimit:83.9;paint-order:markers fill stroke"
     aria-label="2FA" />
</svg>
