<?xml version="1.0" encoding="UTF-8" standalone="no"?>
<!-- Created with Inkscape (http://www.inkscape.org/) -->

<svg
   width="90mm"
   height="90mm"
   viewBox="0 0 90 90"
   version="1.1"
   id="svg1"
   inkscape:version="1.4.2 (ebf0e940, 2025-05-08)"
   sodipodi:docname="logo-plain.svg"
   xmlns:inkscape="http://www.inkscape.org/namespaces/inkscape"
   xmlns:sodipodi="http://sodipodi.sourceforge.net/DTD/sodipodi-0.dtd"
   xmlns="http://www.w3.org/2000/svg"
   xmlns:svg="http://www.w3.org/2000/svg">
  <sodipodi:namedview
     id="namedview1"
     pagecolor="#505050"
     bordercolor="#eeeeee"
     borderopacity="1"
     inkscape:showpageshadow="0"
     inkscape:pageopacity="0"
     inkscape:pagecheckerboard="0"
     inkscape:deskcolor="#505050"
     inkscape:document-units="mm"
     inkscape:zoom="0.20060184"
     inkscape:cx="-727.80986"
     inkscape:cy="343.96493"
     inkscape:window-width="1472"
     inkscape:window-height="895"
     inkscape:window-x="0"
     inkscape:window-y="61"
     inkscape:window-maximized="0"
     inkscape:current-layer="svg1">
    <inkscape:page
       x="0"
       y="0"
       width="90"
       height="90"
       id="page2"
       margin="0"
       bleed="0" />
  </sodipodi:namedview>
  <defs
     id="defs1" />
  <path
     id="path112-0-37-6-4-1-34-2-2"
     style="display:inline;fill:#917c6f;fill-opacity:1;stroke:none;stroke-width:6.61457;stroke-linecap:round;stroke-linejoin:round;stroke-dasharray:none"
     inkscape:label="1"
     d="m 44.911054,-8.4382677e-5 v 1.7e-4 1.99999997e-4 C 42.852074,0.00828562 40.796164,0.15754562 38.758274,0.44606562 c -0.55922,0.0792 -1.18715,0.57680998 -1.43921,1.08105998 -2.8478,5.69876 -8.90363,10.0930304 -10.62857,16.2829804 -0.18436,0.71097 -0.3854,1.69661 -0.53609,2.82287 -0.0204,0.14967 -0.034,0.33247 -0.0459,0.52701 -0.0344,0.56207 0.31703,0.76508 0.78883,0.45526 2.9029,-1.90644 5.53539,-3.55907 7.79506,-4.72309 3.59206,-1.85066 6.86846,-2.8793 10.21868,-2.77188 v 0.007 c 0.0306,0 0.0599,-0.003 0.0898,-0.004 0.0306,0 0.0602,0.003 0.0901,0.004 v -0.007 c 3.35022,-0.10742 6.62662,0.92122 10.21869,2.77188 2.25933,1.16402 4.89215,2.81665 7.79506,4.72309 0.47145,0.30982 0.82318,0.10681 0.78916,-0.45526 -0.0136,-0.19454 -0.0272,-0.37734 -0.0463,-0.52701 -0.15069,-1.12626 -0.35172,-2.1119 -0.53609,-2.82287 -1.72528,-6.18995 -7.78077,-10.5842204 -10.62857,-16.2829804 -0.2524,-0.50425 -0.88067,-1.00189998 -1.43955,-1.08105998 -2.03755,-0.28849 -4.0938,-0.43754 -6.15244,-0.44578000268 v -1.99999997e-4 -1.7e-4 c -0.0306,0 -0.0592,1e-4 -0.0888,1.7e-4 -0.0306,-7e-5 -0.0592,-1.7e-4 -0.0888,-1.7e-4 z M 26.096924,4.2415156 c -0.085,0.004 -0.19866,0.0373 -0.33812,0.10337 C 10.126164,11.746246 0.09048373,27.450046 3.7284342e-6,44.764796 v 0.4718 C 0.00700373,46.497427 0.06570373,47.757236 0.17892373,49.012895 c 0.0503,0.561328 0.30547,0.605719 0.55038,0.0979 C 3.4427437,43.485636 5.6119337,37.941266 10.653754,34.051426 c 1.85386,-1.4256 4.14346,-2.96945 6.68274,-4.52233 0.48166,-0.29448 0.87999,-0.98588 0.89325,-1.54932 0.0731,-3.08462 0.27587,-5.93167 0.5963,-8.32343 0.76638,-6.08284 3.99005,-10.0182604 7.29299,-14.8904404 0.21736,-0.32087 0.20681,-0.51368 0.0136,-0.52439 h -0.035 z m 37.77011,0 c -0.19321,0.0109 -0.20376,0.20352 0.0136,0.52439 3.30293,4.87218 6.52661,8.8076004 7.29298,14.8904404 0.32043,2.39176 0.52316,5.23881 0.5963,8.32343 0.0136,0.56344 0.41193,1.25484 0.89359,1.54932 2.53928,1.55288 4.82888,3.09673 6.6824,4.52233 5.04183,3.88984 7.21135,9.43421 9.92479,15.059366 0.24458,0.507822 0.50003,0.463431 0.55038,-0.0979 0.11327,-1.255659 0.17212,-2.515468 0.17892,-3.776296 v -0.4718 c -0.0905,-17.31475 -10.12616,-33.01855 -25.7588,-40.4199104 -0.15953,-0.0755 -0.28539,-0.10813 -0.37349,-0.10337 z M 43.354154,21.563576 c -0.0565,0 -0.14729,0.006 -0.20308,0.0143 -1.35825,0.20151 -2.91549,0.75855 -5.07175,1.86961 -2.94305,1.51629 -6.82119,4.04472 -12.10248,7.62559 -0.46704,0.31669 -1.27049,0.82944 -1.50758,1.33189 -0.20239,0.42925 -0.24355,0.87982 -0.25104,1.09864 -0.51534,6.88198 -0.80515,11.8142 -0.64153,15.290883 0.16531,3.482775 0.7048,5.31888 1.70317,6.83578 1.95046,2.959578 7.59232,5.806665 19.14578,12.51196 l 0.007,0.0041 c 0.12688,0.07286 0.24933,0.142934 0.37111,0.212497 0.049,0.02789 0.13436,0.05065 0.19083,0.05065 h 0.0102 c 0.0565,0 0.14151,-0.02279 0.19049,-0.05065 0.12178,-0.06956 0.24491,-0.139669 0.37145,-0.212497 l 0.007,-0.0041 c 11.55312,-6.705295 17.19498,-9.552382 19.14578,-12.51196 0.99837,-1.5169 1.53752,-3.353005 1.70284,-6.83578 0.16361,-3.476683 -0.1262,-8.408903 -0.6412,-15.290883 -0.007,-0.21882 -0.049,-0.66939 -0.25138,-1.09864 -0.23709,-0.50245 -1.04054,-1.0152 -1.50758,-1.33189 -5.28129,-3.58087 -9.15977,-6.1093 -12.10248,-7.62559 -2.15728,-1.11157 -3.71486,-1.66841 -5.07379,-1.86961 -0.0558,-0.008 -0.14661,-0.0143 -0.20308,-0.0143 z m -26.90071,17.45721 c 0,0 -0.19967,0.12685 -0.44833,0.28897 -0.47214,0.30811 -1.20756,0.85345 -1.6416,1.21361 -0.5514,0.45724 -1.02116,0.88329 -1.38172,1.2375 -0.0204,0.0187 -0.0384,0.0377 -0.0571,0.0568 -0.39492,0.40125 -0.86876,1.18198 -1.12116,1.6861 -1.57799,3.150572 -6.7834303,13.548825 -8.3583603,16.695354 -0.25206,0.502549 -0.29696,1.338759 -0.085,1.861174 1.39533,3.442296 3.28116,6.650087 5.46021,9.654294 0.33098,0.456525 1.06402,0.846721 1.6276603,0.877675 3.67779,0.201918 16.22689,0.883424 19.92135,0.988771 0.56398,0.01599 1.46336,-0.119463 1.99877,-0.297944 0.24967,-0.0831 0.51363,-0.17576 0.78916,-0.277569 0.52963,-0.195625 1.3705,-0.557621 1.87393,-0.812808 0.45003,-0.228109 0.41908,-0.62606 -0.0745,-0.899479 -7.73655,-4.283847 -12.78484,-6.954971 -15.85476,-11.61425 -1.91781,-2.911683 -2.71242,-6.357925 -2.91141,-10.540711 -0.13096,-2.781267 0.0272,-6.244147 0.26294,-10.117457 z m 57.09278,0 c 0.23573,3.87331 0.39425,7.33619 0.26294,10.117457 -0.19865,4.182786 -0.9936,7.629028 -2.91107,10.540711 -3.06992,4.659279 -8.11855,7.330403 -15.85544,11.61425 -0.49323,0.273419 -0.52418,0.67137 -0.0741,0.899479 0.50343,0.255187 1.3443,0.617183 1.87393,0.812808 0.27553,0.101809 0.53949,0.194468 0.78916,0.277569 0.53541,0.178481 1.43479,0.313931 1.99877,0.297944 3.69446,-0.105347 16.24356,-0.786853 19.92203,-0.988771 0.56364,-0.03095 1.296,-0.42115 1.62698,-0.877675 2.17905,-3.004207 4.06488,-6.211998 5.46021,-9.654294 0.21226,-0.522415 0.16702,-1.358625 -0.0847,-1.861174 -1.57493,-3.146529 -6.78037,-13.544782 -8.35836,-16.695354 -0.25274,-0.50412 -0.72658,-1.28485 -1.1215,-1.6861 -0.017,-0.0191 -0.0364,-0.0381 -0.0568,-0.0568 -0.36056,-0.35421 -0.83032,-0.78026 -1.38172,-1.2375 -0.43438,-0.36016 -1.16946,-0.9055 -1.64194,-1.21361 -0.24865,-0.16212 -0.44833,-0.28897 -0.44833,-0.28897 z m -28.55898,36.530379 c -0.0425,0 -0.11701,0.02211 -0.16633,0.04922 -2.84542,1.563536 -5.55342,2.892533 -7.88963,3.852425 -3.83596,1.577312 -4.70812,1.724771 -6.80928,1.724771 l -11.84906,-0.715285 c -0.56398,-0.03402 -0.66126,0.221375 -0.20953,0.559186 7.74505,5.787889 17.1579,8.940438 26.84764,8.97857 0.0306,0 0.0592,6.8e-5 0.0888,0 0.0306,6.8e-5 0.0592,0 0.0888,0 9.68974,-0.03813 19.10259,-3.190681 26.84764,-8.97857 0.45173,-0.337811 0.35445,-0.593201 -0.20919,-0.559186 l -11.8494,0.715285 c -2.10116,0 -2.97332,-0.147459 -6.80928,-1.724771 -2.33553,-0.959892 -5.04421,-2.288889 -7.88963,-3.852425 -0.0497,-0.02721 -0.13504,-0.04922 -0.19151,-0.04922 z" />
</svg>
