<?xml version="1.0" encoding="UTF-8" standalone="no"?>
<svg
   width="24"
   height="24"
   viewBox="0 0 24 24"
   fill="none"
   version="1.1"
   id="svg3"
   sodipodi:docname="edit.svg"
   xml:space="preserve"
   inkscape:version="1.4.2 (ebf0e940, 2025-05-08)"
   xmlns:inkscape="http://www.inkscape.org/namespaces/inkscape"
   xmlns:sodipodi="http://sodipodi.sourceforge.net/DTD/sodipodi-0.dtd"
   xmlns="http://www.w3.org/2000/svg"
   xmlns:svg="http://www.w3.org/2000/svg"><defs
     id="defs3"><inkscape:path-effect
       effect="fillet_chamfer"
       id="path-effect4"
       is_visible="true"
       lpeversion="1"
       nodesatellites_param="F,0,0,1,0,3,0,1 @ F,0,0,1,0,3,0,1 @ F,0,0,1,0,3,0,1 @ F,0,0,1,0,3,0,1 @ F,0,0,1,0,3,0,1"
       radius="0"
       unit="px"
       method="auto"
       mode="F"
       chamfer_steps="1"
       flexible="false"
       use_knot_distance="true"
       apply_no_radius="true"
       apply_with_radius="true"
       only_selected="false"
       hide_knots="false" /><inkscape:path-effect
       effect="fillet_chamfer"
       id="path-effect3"
       is_visible="true"
       lpeversion="1"
       nodesatellites_param="F,0,0,1,0,0,0,1 @ F,0,0,1,0,0,0,1 @ F,0,0,1,0,5,0,1 @ F,0,0,1,0,5,0,1 @ F,0,0,1,0,5,0,1 @ F,0,0,1,0,0,0,1 @ F,0,0,1,0,0,0,1"
       radius="0"
       unit="px"
       method="auto"
       mode="F"
       chamfer_steps="1"
       flexible="false"
       use_knot_distance="true"
       apply_no_radius="true"
       apply_with_radius="true"
       only_selected="false"
       hide_knots="false" /></defs><sodipodi:namedview
     id="namedview3"
     pagecolor="#505050"
     bordercolor="#eeeeee"
     borderopacity="1"
     inkscape:showpageshadow="0"
     inkscape:pageopacity="0"
     inkscape:pagecheckerboard="0"
     inkscape:deskcolor="#505050"
     inkscape:zoom="10.985315"
     inkscape:cx="7.4189953"
     inkscape:cy="10.058883"
     inkscape:window-width="1472"
     inkscape:window-height="868"
     inkscape:window-x="0"
     inkscape:window-y="32"
     inkscape:window-maximized="0"
     inkscape:current-layer="svg3" /><path
     id="rect3"
     style="stroke:#000000;stroke-width:1;stroke-linecap:round;stroke-linejoin:round;stroke-miterlimit:79.1;paint-order:stroke fill markers"
     d="M 20.949484,12 V 16.474742 18.5816 A 2.3678842,2.3678842 0 0 1 18.5816,20.949484 H 5.4184001 A 2.3678842,2.3678842 0 0 1 3.0505159,18.5816 V 5.4184006 A 2.3678842,2.3678842 0 0 1 5.4184001,3.0505164 H 7.5252577 12"
     sodipodi:nodetypes="ccccccc" /><path
     id="rect4"
     style="stroke:#000000;stroke-width:1;stroke-linecap:round;stroke-linejoin:round;stroke-miterlimit:79.1;paint-order:stroke fill markers"
     d="m 19.226578,3.4240269 1.349395,1.3493948 a 1.3195547,1.3760193 45 0 1 -0.03993,1.9060587 l -7.750259,7.7502636 a 3.961755,4.1312812 45 0 1 -2.31115,1.192169 L 9.3055896,15.813391 A 0.98870119,1.0310084 45 0 1 8.1866095,14.694411 L 8.3780873,13.525366 A 3.9617544,4.1312805 45 0 1 9.570257,11.214216 L 17.32052,3.4639534 a 1.3195547,1.3760193 45 0 1 1.906058,-0.039926 z"
     sodipodi:nodetypes="cccccc" /></svg>
