<?xml version="1.0" encoding="UTF-8" standalone="no"?>
<svg
   width="20"
   height="20"
   viewBox="0 0 20 20"
   fill="none"
   version="1.1"
   id="svg1"
   sodipodi:docname="profile.svg"
   inkscape:version="1.4.2 (ebf0e940, 2025-05-08)"
   xmlns:inkscape="http://www.inkscape.org/namespaces/inkscape"
   xmlns:sodipodi="http://sodipodi.sourceforge.net/DTD/sodipodi-0.dtd"
   xmlns="http://www.w3.org/2000/svg"
   xmlns:svg="http://www.w3.org/2000/svg">
  <defs
     id="defs1" />
  <sodipodi:namedview
     id="namedview1"
     pagecolor="#505050"
     bordercolor="#eeeeee"
     borderopacity="1"
     inkscape:showpageshadow="0"
     inkscape:pageopacity="0"
     inkscape:pagecheckerboard="0"
     inkscape:deskcolor="#505050"
     inkscape:zoom="8.3091435"
     inkscape:cx="-4.6936245"
     inkscape:cy="8.9058517"
     inkscape:window-width="1472"
     inkscape:window-height="867"
     inkscape:window-x="0"
     inkscape:window-y="33"
     inkscape:window-maximized="0"
     inkscape:current-layer="svg1" />
  <path
     id="path3529-1-3"
     style="baseline-shift:baseline;display:inline;overflow:visible;vector-effect:none;fill:#000000;stroke-width:3.77953;stroke-linecap:round;stroke-linejoin:round;enable-background:accumulate;stop-color:#000000"
     d="m 9.9987653,0.55118115 c -2.715091,0 -4.929913,2.21482215 -4.929913,4.92992405 0,2.7151021 2.214822,4.9299238 4.929913,4.9299238 2.7151077,0 4.9307837,-2.2148217 4.9307837,-4.9299238 0,-2.7151019 -2.215676,-4.92992405 -4.9307837,-4.92992405 z m 0,1.31294795 c 2.0045797,0 3.6178317,1.6124049 3.6178317,3.6169761 0,2.0045709 -1.613252,3.6144283 -3.6178317,3.6144283 -2.004563,0 -3.613575,-1.6098574 -3.613575,-3.6144283 0,-2.0045712 1.609012,-3.6169761 3.613575,-3.6169761 z m -0.08069,9.3672799 v 8.7e-4 c -4.043475,0.06015 -7.40395,3.226682 -8.123121,7.385969 -0.0099,0.05686 -0.01315,0.112683 -0.0115,0.166454 0.01479,0.376474 0.305526,0.663675 0.680255,0.664117 h 8.7e-4 c 0.313579,-6.96e-4 0.602211,-0.375434 0.69383,-0.827174 0.698038,-3.44128 3.445702,-6.031591 6.840754,-6.049242 3.3950507,0.01758 6.1435697,2.607962 6.8415897,6.049242 0.0917,0.452096 0.380827,0.827108 0.694702,0.827174 0.375076,-5.8e-5 0.666156,-0.287371 0.681094,-0.664117 0.0016,-0.0539 -0.0017,-0.109562 -0.0115,-0.166454 -0.719168,-4.159308 -4.07882,-7.325742 -8.122295,-7.38599 v -8.69e-4 c -0.0166,-9.9e-5 -0.03221,0 -0.04832,0 -0.0115,-9.9e-5 -0.02251,4.9e-5 -0.03402,0 -0.01151,4.9e-5 -0.02334,-9.9e-5 -0.03485,0 -0.0166,0 -0.0309,-9.9e-5 -0.04749,0 z" />
</svg>
