<?xml version="1.0" encoding="UTF-8" standalone="no"?>
<svg
   width="24"
   height="24"
   viewBox="0 0 24 24"
   fill="none"
   version="1.1"
   id="svg1"
   sodipodi:docname="analytics.svg"
   inkscape:version="1.4.2 (ebf0e940, 2025-05-08)"
   xmlns:inkscape="http://www.inkscape.org/namespaces/inkscape"
   xmlns:sodipodi="http://sodipodi.sourceforge.net/DTD/sodipodi-0.dtd"
   xmlns="http://www.w3.org/2000/svg"
   xmlns:svg="http://www.w3.org/2000/svg">
  <defs
     id="defs1" />
  <sodipodi:namedview
     id="namedview1"
     pagecolor="#505050"
     bordercolor="#eeeeee"
     borderopacity="1"
     inkscape:showpageshadow="0"
     inkscape:pageopacity="0"
     inkscape:pagecheckerboard="0"
     inkscape:deskcolor="#505050"
     inkscape:zoom="2.610849"
     inkscape:cx="14.554653"
     inkscape:cy="-22.98103"
     inkscape:window-width="1472"
     inkscape:window-height="923"
     inkscape:window-x="0"
     inkscape:window-y="33"
     inkscape:window-maximized="0"
     inkscape:current-layer="svg1" />
  <path
     id="path20-99"
     d="m 4.0336542,13.932297 c 0.154128,0 0.2960194,0 0.521326,0.07119 L 6.9376879,10.215456 C 6.5700374,9.8423721 6.345183,9.3976481 6.345183,8.8758611 c 0,-0.966049 0.8182699,-1.784306 1.7902059,-1.784306 0.960162,0 1.707254,0.818257 1.707254,1.784306 0,0.296483 -0.07158,0.598851 -0.154587,0.81827 l 3.0472881,2.3056439 c 0.224854,-0.225305 0.604286,-0.373546 0.900319,-0.373546 0.367647,0 0.735293,0.148241 0.961062,0.444711 l 3.283928,-2.003726 C 17.654884,9.6941311 17.571934,9.3976481 17.571934,9.0300001 c 0,-1.120188 0.900771,-2.009161 1.944334,-2.009161 1.030878,0 1.932547,0.888973 1.932547,2.009161 0,1.1147409 -0.901669,2.0037259 -1.932547,2.0037259 -0.450609,0 -0.90077,-0.225304 -1.268417,-0.521787 l -3.272595,2.080789 c 0.07158,0.148241 0.07158,0.373096 0.07158,0.521325 0,0.741206 -0.59295,1.410773 -1.41121,1.410773 -0.746191,0 -1.339593,-0.669567 -1.339593,-1.410773 0,-0.225305 0,-0.373084 0.07158,-0.598389 L 9.249595,10.215456 c -0.296482,0.225305 -0.675913,0.444724 -1.11429,0.444724 -0.2370871,0 -0.4506091,0 -0.675913,-0.148241 l -2.382707,3.793468 c 0.2964818,0.36766 0.4506098,0.741206 0.4506098,1.185917 0,0.817808 -0.6641321,1.487837 -1.4937209,1.487837 -0.8182601,0 -1.4823888,-0.670029 -1.4823888,-1.487837 0,-0.895333 0.6641287,-1.559001 1.4823888,-1.559001 v 0"
     style="fill:#000000;fill-opacity:1;fill-rule:evenodd;stroke:none;stroke-width:0.133333" />
</svg>
