<?xml version="1.0" encoding="UTF-8" standalone="no"?>
<svg
   width="24"
   height="24"
   viewBox="0 0 24 24"
   fill="none"
   version="1.1"
   id="svg1"
   sodipodi:docname="recipe-workspace.svg"
   xml:space="preserve"
   inkscape:version="1.4.2 (ebf0e940, 2025-05-08)"
   xmlns:inkscape="http://www.inkscape.org/namespaces/inkscape"
   xmlns:sodipodi="http://sodipodi.sourceforge.net/DTD/sodipodi-0.dtd"
   xmlns="http://www.w3.org/2000/svg"
   xmlns:svg="http://www.w3.org/2000/svg"><defs
     id="defs1"><inkscape:path-effect
       effect="fillet_chamfer"
       id="path-effect1"
       is_visible="true"
       lpeversion="1"
       nodesatellites_param="F,0,0,1,0,0,0,1 @ F,0,0,1,0,0,0,1 @ F,0,0,1,0,1,0,1 @ F,0,0,1,0,0,0,1 @ F,0,0,1,0,0,0,1 @ F,0,0,1,0,1,0,1 @ F,0,0,1,0,1,0,1 @ F,0,0,1,0,1,0,1 @ F,0,0,1,0,1,0,1 @ F,0,0,1,0,0,0,1 @ F,0,0,1,0,0,0,1 @ F,0,0,1,0,1,0,1 @ F,0,0,1,0,0,0,1"
       radius="0"
       unit="px"
       method="auto"
       mode="F"
       chamfer_steps="1"
       flexible="false"
       use_knot_distance="true"
       apply_no_radius="true"
       apply_with_radius="true"
       only_selected="false"
       hide_knots="false" /></defs><sodipodi:namedview
     id="namedview1"
     pagecolor="#505050"
     bordercolor="#eeeeee"
     borderopacity="1"
     inkscape:showpageshadow="0"
     inkscape:pageopacity="0"
     inkscape:pagecheckerboard="0"
     inkscape:deskcolor="#505050"
     inkscape:zoom="11.157896"
     inkscape:cx="5.10849"
     inkscape:cy="3.2264148"
     inkscape:window-width="1472"
     inkscape:window-height="923"
     inkscape:window-x="0"
     inkscape:window-y="33"
     inkscape:window-maximized="0"
     inkscape:current-layer="svg1" /><path
     id="path1"
     style="fill:none;stroke:#000000;stroke-width:1;stroke-linecap:round;stroke-miterlimit:10;paint-order:fill markers stroke"
     d="m 11.810547,0.5 c -2.2284919,1.5291e-4 -4.0350034,1.8066643 -4.0351564,4.0351562 5.857e-4,0.3136387 -0.2843592,0.4998603 -0.6894531,0.5 -2.2284919,1.53e-4 -4.0350033,1.8066644 -4.0351563,4.0351563 1.58e-5,1.4526705 0.7766015,2.7642485 1.9868198,3.4770995 0.4746672,0.279592 0.915524,0.843662 0.915524,1.395947 v 3.455079 a 1,1 45 0 0 1,1 l 10.09375,0 a 1,1 135 0 0 1,-1 v -3.455079 c 0,-0.552285 0.440841,-1.116351 0.915495,-1.39593 1.210235,-0.712847 1.986833,-2.024434 1.986849,-3.4771165 -1.53e-4,-2.2284922 -1.806665,-4.0350037 -4.035157,-4.0351563 -0.04534,-2.53e-5 -0.09066,7.137e-4 -0.135926,0.00221 C 16.227567,5.0556183 15.846427,4.8998387 15.845699,4.5351562 15.84555,2.3066644 14.039039,0.50015313 11.810547,0.5 Z"
     sodipodi:nodetypes="cccccccccccccc"
     inkscape:original-d="m 11.810547,0.5 c -2.2284919,1.5291e-4 -4.0350034,1.8066643 -4.0351564,4.0351562 3.538e-4,0.189531 0.01406,0.3788017 0.041016,0.5664063 C 7.5754373,5.0572987 7.3309381,5.0350715 7.0859375,5.0351562 4.8574456,5.0353092 3.0509342,6.8418206 3.0507812,9.0703125 3.0508007,10.8626 4.2329403,12.440111 5.953125,12.943359 v 5.455079 h 12.09375 V 12.943359 C 19.76706,12.440112 20.949199,10.8626 20.949219,9.0703125 20.949066,6.8418203 19.142554,5.0353088 16.914062,5.0351562 c -0.379275,-2.113e-4 -0.756687,0.053047 -1.121093,0.1582032 0.03553,-0.2175921 0.05317,-0.43773 0.05273,-0.6582032 C 15.84555,2.3066644 14.039039,0.50015313 11.810547,0.5 Z"
     inkscape:path-effect="#path-effect1"
     transform="translate(0,2.550781)" /><path
     style="fill:none;stroke:#000000;stroke-width:0.999997;stroke-linecap:round;stroke-miterlimit:10;paint-order:fill markers stroke"
     d="m 7.505472,18.16889 h 8.827115"
     id="path2" /></svg>
