<?xml version="1.0" encoding="UTF-8" standalone="no"?>
<!-- Created with Inkscape (http://www.inkscape.org/) -->

<svg
   width="338.21887mm"
   height="314.24548mm"
   viewBox="0 0 338.21887 314.24549"
   version="1.1"
   id="svg1"
   inkscape:version="1.4.2 (ebf0e940, 2025-05-08)"
   sodipodi:docname="continuity.svg"
   xmlns:inkscape="http://www.inkscape.org/namespaces/inkscape"
   xmlns:sodipodi="http://sodipodi.sourceforge.net/DTD/sodipodi-0.dtd"
   xmlns="http://www.w3.org/2000/svg"
   xmlns:svg="http://www.w3.org/2000/svg">
  <sodipodi:namedview
     id="namedview1"
     pagecolor="#505050"
     bordercolor="#eeeeee"
     borderopacity="1"
     inkscape:showpageshadow="0"
     inkscape:pageopacity="0"
     inkscape:pagecheckerboard="0"
     inkscape:deskcolor="#505050"
     inkscape:document-units="mm"
     inkscape:zoom="0.20430528"
     inkscape:cx="780.69444"
     inkscape:cy="773.35249"
     inkscape:window-width="1472"
     inkscape:window-height="867"
     inkscape:window-x="0"
     inkscape:window-y="33"
     inkscape:window-maximized="0"
     inkscape:current-layer="svg1">
    <inkscape:page
       x="0"
       y="0"
       width="338.21887"
       height="314.24548"
       id="page2"
       margin="0"
       bleed="0" />
  </sodipodi:namedview>
  <defs
     id="defs1" />
  <g
     id="g10-3-0"
     transform="matrix(1.0010814,0,0,1.0010814,1142.4566,1149.4863)"
     style="fill:#ffffff;stroke-width:0.99892"
     inkscape:export-filename="../../Neuroartan/website/docs/assets/icons/layers/website/sections/home/featured-functions/continuity.svg"
     inkscape:export-xdpi="96"
     inkscape:export-ydpi="96">
    <path
       id="path1-8-1-50-2-6-7-5"
       transform="rotate(-80)"
       d="m 925.18787,-1231.0786 c 0,13.8071 -11.19289,25 -25,25 -13.80712,0 -25,-11.1929 -25,-25 0,-13.8071 11.19288,-25 25,-25 13.80711,0 25,11.1929 25,25 z m -16.4448,108.8075 c -4.72231,-12.9744 1.96737,-27.3205 14.94182,-32.0428 12.97444,-4.7223 27.3205,1.9674 32.04281,14.9418 4.72232,12.9745 -1.96736,27.3205 -14.94181,32.0428 -12.97445,4.7224 -27.3205,-1.9673 -32.04282,-14.9418 z m 52.66742,96.6212 c 0,13.8071 -11.19288,25 -25,25 -13.80711,0 -25,-11.1929 -25,-25 0,-13.8071 11.19289,-25 25,-25 13.80712,0 25,11.1929 25,25 z m -155.62288,-234.8949 c 0,-13.8071 11.19288,-25 25,-25 13.80712,0 25,11.1929 25,25 0,13.8071 -11.19288,25 -25,25 -13.80712,0 -25,-11.1929 -25,-25 z m 52.66742,96.6212 c 4.72231,12.9745 -1.96736,27.3205 -14.94181,32.0428 -12.97445,4.7223 -27.32051,-1.9673 -32.04282,-14.9418 -4.72231,-12.9744 1.96736,-27.3205 14.94181,-32.0428 12.97445,-4.7223 27.32051,1.9674 32.04282,14.9418 z m -16.44479,108.8076 c 0,-13.8072 11.19288,-25 25,-25 13.80712,0 25,11.1928 25,25 0,13.8071 -11.19288,25 -25,25 -13.80712,0 -25,-11.1929 -25,-25 z m -69.23194,-149.0887 c 0,13.8071 -11.19288,25 -25,25 -13.80712,0 -25,-11.1929 -25,-25 0,-13.8071 11.19288,-25 25,-25 13.80712,0 25,11.1929 25,25 z m -16.44479,108.8075 c -4.72231,-12.9744 1.96736,-27.3205 14.94181,-32.0428 12.97445,-4.7223 27.32051,1.9674 32.04282,14.9418 4.72231,12.9745 -1.96736,27.3205 -14.94181,32.0429 -12.97445,4.7223 -27.32051,-1.9674 -32.04282,-14.9419 z m 52.66742,96.62124 c 0,13.80712 -11.19288,25 -25,25 -13.80712,0 -25,-11.19288 -25,-25 0,-13.80714 11.19288,-25.00004 25,-25.00004 13.80712,0 25,11.1929 25,25.00004 z M 653.37804,-1233.6709 c 0,-13.8071 11.19289,-25 25,-25 13.80712,0 25,11.1929 25,25 0,13.8072 -11.19288,25 -25,25 -13.80711,0 -25,-11.1928 -25,-25 z m 52.66743,96.6212 c 4.72231,12.9745 -1.96737,27.3205 -14.94182,32.0429 -12.97444,4.7223 -27.3205,-1.9674 -32.04281,-14.9419 -4.72232,-12.9744 1.96736,-27.3205 14.94181,-32.0428 12.97445,-4.7223 27.3205,1.9674 32.04282,14.9418 z m -16.4448,108.8076 c 0,-13.8071 11.19288,-25 25,-25 13.80712,0 25,11.1929 25,25 0,13.8071 -11.19288,25 -25,25 -13.80712,0 -25,-11.1929 -25,-25 z"
       style="fill:#ffffff;stroke-width:1.99784;stroke-linecap:round;stroke-linejoin:round" />
    <path
       id="path1-8-1-5-3-9-0-9-5"
       d="m -1082.1295,-1119.4377 c 0,11.0457 -8.9543,20 -20,20 -11.0457,0 -20,-8.9543 -20,-20 0,-11.0457 8.9543,-20 20,-20 11.0457,0 20,8.9543 20,20 z m 104.29889,24.1512 c 0,11.0456 -8.95431,20 -20,20 -11.04569,0 -19.99999,-8.9544 -19.99999,-20 0,-11.0457 8.9543,-20 19.99999,-20 11.04569,0 20,8.9543 20,20 z m 104.2989,-24.1512 c 0,11.0457 -8.95431,20 -20,20 -11.0457,0 -20,-8.9543 -20,-20 0,-11.0457 8.9543,-20 20,-20 11.04569,0 20,8.9543 20,20 z m -197.52809,101.5315 c 0,-11.0457 8.9543,-20 20,-20 11.0457,0 20,8.9543 20,20 0,11.0457 -8.9543,20.00002 -20,20.00002 -11.0457,0 -20,-8.95432 -20,-20.00002 z m 104.29892,-24.1512 c 0,-11.0457 8.95431,-20 20,-20 11.0457,0 20,8.9543 20,20 0,11.0457 -8.9543,20 -20,20 -11.04569,0 -20,-8.9543 -20,-20 z m 104.29891,24.1512 c 0,-11.0457 8.9543,-20 20,-20 11.04569,0 20,8.9543 20,20 0,11.0457 -8.95431,20.00002 -20,20.00002 -11.0457,0 -20,-8.95432 -20,-20.00002 z m -219.66753,53.22918 c 0,11.0457 -8.9543,20 -20,20 -11.0457,0 -20,-8.9543 -20,-20 0,-11.04569 8.9543,-20 20,-20 11.0457,0 20,8.95431 20,20 z m 104.29889,24.1512 c 0,11.04569 -8.95431,20 -20,20 -11.04569,0 -19.99999,-8.95431 -19.99999,-20 0,-11.0457 8.9543,-20 19.99999,-20 11.04569,0 20,8.9543 20,20 z m 104.2989,-24.1512 c 0,11.0457 -8.95431,20 -20,20 -11.0457,0 -20,-8.9543 -20,-20 0,-11.04569 8.9543,-20 20,-20 11.04569,0 20,8.95431 20,20 z m -197.52809,101.53156 c 0,-11.04569 8.9543,-20 20,-20 11.0457,0 20,8.95431 20,20 0,11.0457 -8.9543,20 -20,20 -11.0457,0 -20,-8.9543 -20,-20 z m 104.29892,-24.15119 c 0,-11.0457 8.95431,-20 20,-20 11.0457,0 20,8.9543 20,20 0,11.04569 -8.9543,20 -20,20 -11.04569,0 -20,-8.95431 -20,-20 z m 104.29891,24.15119 c 0,-11.04569 8.9543,-20 20,-20 11.04569,0 20,8.95431 20,20 0,11.0457 -8.95431,20 -20,20 -11.0457,0 -20,-8.9543 -20,-20 z"
       style="fill:#ffffff;stroke-width:1.99783;stroke-linecap:round;stroke-linejoin:round" />
  </g>
</svg>
