<?xml version="1.0" encoding="UTF-8" standalone="no"?>
<!-- Created with Inkscape (http://www.inkscape.org/) -->

<svg
   width="314.92239mm"
   height="307.77383mm"
   viewBox="0 0 314.92239 307.77383"
   version="1.1"
   id="svg1"
   inkscape:version="1.4.2 (ebf0e940, 2025-05-08)"
   sodipodi:docname="structure.svg"
   xmlns:inkscape="http://www.inkscape.org/namespaces/inkscape"
   xmlns:sodipodi="http://sodipodi.sourceforge.net/DTD/sodipodi-0.dtd"
   xmlns="http://www.w3.org/2000/svg"
   xmlns:svg="http://www.w3.org/2000/svg">
  <sodipodi:namedview
     id="namedview1"
     pagecolor="#505050"
     bordercolor="#eeeeee"
     borderopacity="1"
     inkscape:showpageshadow="0"
     inkscape:pageopacity="0"
     inkscape:pagecheckerboard="0"
     inkscape:deskcolor="#505050"
     inkscape:document-units="mm"
     inkscape:zoom="0.17017649"
     inkscape:cx="902.00472"
     inkscape:cy="352.57514"
     inkscape:window-width="1472"
     inkscape:window-height="867"
     inkscape:window-x="0"
     inkscape:window-y="33"
     inkscape:window-maximized="0"
     inkscape:current-layer="svg1">
    <inkscape:page
       x="0"
       y="0"
       width="314.92239"
       height="307.7738"
       id="page2"
       margin="0"
       bleed="0" />
  </sodipodi:namedview>
  <defs
     id="defs1" />
  <g
     id="g10"
     transform="matrix(1.0570791,0,0,1.0570791,1193.6453,1214.3442)"
     style="fill:#ffffff;stroke-width:0.946003"
     inkscape:export-filename="../../Neuroartan/website/docs/assets/icons/layers/website/sections/home/featured-functions/reflection.svg"
     inkscape:export-xdpi="96"
     inkscape:export-ydpi="96">
    <path
       id="path1-8-1-50-2-6"
       transform="rotate(-80)"
       d="m 925.18787,-1231.0786 c 0,13.8071 -11.19289,25 -25,25 -13.80712,0 -25,-11.1929 -25,-25 0,-13.8071 11.19288,-25 25,-25 13.80711,0 25,11.1929 25,25 z m 16.73298,94.8974 c 0,13.8072 -11.19288,25 -25,25 -13.80712,0 -25,-11.1928 -25,-25 0,-13.8071 11.19288,-25 25,-25 13.80712,0 25,11.1929 25,25 z m 16.73298,94.8975 c 0,13.8071 -11.19288,25 -25,25 -13.80712,0 -25,-11.1929 -25,-25 0,-13.8071 11.19288,-25 25,-25 13.80712,0 25,11.1929 25,25 z m -110.4932,-226.7326 c 4.72231,12.9745 -1.96737,27.3205 -14.94182,32.0428 -12.97444,4.7223 -27.3205,-1.9673 -32.04281,-14.9418 -4.72232,-12.9744 1.96736,-27.3205 14.94181,-32.0428 12.97445,-4.7223 27.3205,1.9674 32.04282,14.9418 z m 16.73298,94.8975 c 4.72231,12.9744 -1.96737,27.3205 -14.94181,32.0428 -12.97445,4.7223 -27.32051,-1.9674 -32.04282,-14.9418 -4.72231,-12.9745 1.96736,-27.3205 14.94181,-32.0428 12.97445,-4.7224 27.32051,1.9673 32.04282,14.9418 z m 16.73298,94.8974 c 4.72231,12.9745 -1.96736,27.3205 -14.94181,32.0428 -12.97445,4.7224 -27.32051,-1.9673 -32.04282,-14.9418 -4.72231,-12.9744 1.96736,-27.3205 14.94181,-32.0428 12.97445,-4.7223 27.32051,1.9674 32.04282,14.9418 z m -93.21446,-128.74 c 0,13.8072 -11.19289,25 -25,25 -13.80712,0 -25,-11.1928 -25,-25 0,-13.8071 11.19288,-25 25,-25 13.80711,0 25,11.1929 25,25 z m 16.73298,94.8975 c 0,13.8071 -11.19288,25 -25,25 -13.80712,0 -25,-11.1929 -25,-25 0,-13.8071 11.19288,-25 25,-25 13.80712,0 25,11.1929 25,25 z m 16.73298,94.8975 c 0,13.8071 -11.19288,24.99995 -25,24.99995 -13.80712,0 -25,-11.19285 -25,-24.99995 0,-13.8072 11.19288,-25 25,-25 13.80712,0 25,11.1928 25,25 z m -110.4932,-226.7326 c 4.72231,12.9744 -1.96737,27.3205 -14.94182,32.0428 -12.97444,4.7223 -27.3205,-1.9674 -32.04281,-14.9418 -4.72232,-12.9745 1.96736,-27.3205 14.94181,-32.0428 12.97445,-4.7224 27.3205,1.9673 32.04282,14.9418 z m 16.73298,94.8974 c 4.72231,12.9745 -1.96737,27.3205 -14.94181,32.0428 -12.97445,4.7224 -27.32051,-1.9673 -32.04282,-14.9418 -4.72232,-12.9744 1.96736,-27.3205 14.94181,-32.0428 12.97445,-4.7223 27.32051,1.9674 32.04282,14.9418 z m 16.73298,94.8975 c 4.72231,12.9744 -1.96736,27.3205 -14.94181,32.0428 -12.97445,4.7223 -27.32051,-1.9674 -32.04282,-14.9418 -4.72231,-12.9745 1.96736,-27.3205 14.94181,-32.0428 12.97445,-4.7223 27.32051,1.9673 32.04282,14.9418 z"
       style="fill:#ffffff;stroke-width:1.89201;stroke-linecap:round;stroke-linejoin:round" />
    <path
       id="path1-8-1-5-3-9-0"
       d="m -1082.1295,-1119.4377 c 0,11.0457 -8.9543,20 -20,20 -11.0457,0 -20,-8.9543 -20,-20 0,-11.0457 8.9543,-20 20,-20 11.0457,0 20,8.9543 20,20 z m 96.36139,0 c 0,11.0457 -8.95431,20 -19.99999,20 -11.0457,0 -20,-8.9543 -20,-20 0,-11.0457 8.9543,-20 20,-20 11.04568,0 19.99999,8.9543 19.99999,20 z m 96.3614,0 c 0,11.0457 -8.95431,20 -20,20 -11.0457,0 -20,-8.9543 -20,-20 0,-11.0457 8.9543,-20 20,-20 11.04569,0 20,8.9543 20,20 z m -181.65309,69.4428 c 0,-11.0457 8.9543,-20 20,-20 11.0457,0 20,8.9543 20,20 0,11.0457 -8.9543,20 -20,20 -11.0457,0 -20,-8.9543 -20,-20 z m 96.36142,0 c 0,-11.0457 8.95431,-20 20,-20 11.0457,0 20,8.9543 20,20 0,11.0457 -8.9543,20 -20,20 -11.04569,0 -20,-8.9543 -20,-20 z m 96.36141,0 c 0,-11.0457 8.9543,-20 20,-20 11.04569,0 20,8.9543 20,20 0,11.0457 -8.95431,20 -20,20 -11.0457,0 -20,-8.9543 -20,-20 z m -203.79253,69.44288 c 0,11.0457 -8.9543,20 -20,20 -11.0457,0 -20,-8.9543 -20,-20 0,-11.04569 8.9543,-19.99998 20,-19.99998 11.0457,0 20,8.95429 20,19.99998 z m 96.36139,0 c 0,11.0457 -8.95431,20 -19.99999,20 -11.0457,0 -20,-8.9543 -20,-20 0,-11.04569 8.9543,-19.99998 20,-19.99998 11.04568,0 19.99999,8.95429 19.99999,19.99998 z m 96.3614,0 c 0,11.0457 -8.95431,20 -20,20 -11.0457,0 -20,-8.9543 -20,-20 0,-11.04569 8.9543,-19.99998 20,-19.99998 11.04569,0 20,8.95429 20,19.99998 z m -181.65309,69.44287 c 0,-11.0457 8.9543,-20 20,-20 11.0457,0 20,8.9543 20,20 0,11.04569 -8.9543,20 -20,20 -11.0457,0 -20,-8.95431 -20,-20 z m 96.36142,0 c 0,-11.0457 8.95431,-20 20,-20 11.0457,0 20,8.9543 20,20 0,11.04569 -8.9543,20 -20,20 -11.04569,0 -20,-8.95431 -20,-20 z m 96.36141,0 c 0,-11.0457 8.9543,-20 20,-20 11.04569,0 20,8.9543 20,20 0,11.04569 -8.95431,20 -20,20 -11.0457,0 -20,-8.95431 -20,-20 z"
       style="fill:#ffffff;stroke-width:1.892;stroke-linecap:round;stroke-linejoin:round" />
  </g>
</svg>
