<?xml version="1.0" encoding="UTF-8" standalone="no"?>
<svg
   viewBox="0 0 24 24"
   version="1.1"
   id="svg1"
   sodipodi:docname="404.svg"
   inkscape:version="1.4.2 (ebf0e940, 2025-05-08)"
   xmlns:inkscape="http://www.inkscape.org/namespaces/inkscape"
   xmlns:sodipodi="http://sodipodi.sourceforge.net/DTD/sodipodi-0.dtd"
   xmlns="http://www.w3.org/2000/svg"
   xmlns:svg="http://www.w3.org/2000/svg">
  <defs
     id="defs1">
    <inkscape:path-effect
       effect="fillet_chamfer"
       id="path-effect1"
       is_visible="true"
       lpeversion="1"
       nodesatellites_param="F,0,0,1,0,0,0,1 @ F,0,0,1,0,2,0,1 @ F,0,0,1,0,2,0,1 @ F,0,0,1,0,0,0,1 @ F,0,0,1,0,0,0,1 @ F,0,0,1,0,0,0,1 @ F,0,0,1,0,0,0,1 @ F,0,0,1,0,0,0,1 @ F,0,0,1,0,0,0,1 @ F,0,0,1,0,0,0,1 @ F,0,0,1,0,0,0,1 @ F,0,0,1,0,0,0,1 @ F,0,0,1,0,0,0,1 @ F,0,0,1,0,2,0,1 @ F,0,0,1,0,2,0,1 @ F,0,0,1,0,0,0,1 @ F,0,0,1,0,0,0,1 @ F,0,0,1,0,0,0,1 @ F,0,0,1,0,0,0,1 @ F,0,0,1,0,0,0,1 @ F,0,0,1,0,0,0,1 @ F,0,0,1,0,0,0,1"
       radius="0"
       unit="px"
       method="auto"
       mode="F"
       chamfer_steps="1"
       flexible="false"
       use_knot_distance="true"
       apply_no_radius="true"
       apply_with_radius="true"
       only_selected="false"
       hide_knots="false" />
  </defs>
  <sodipodi:namedview
     id="namedview1"
     pagecolor="#505050"
     bordercolor="#eeeeee"
     borderopacity="1"
     inkscape:showpageshadow="0"
     inkscape:pageopacity="0"
     inkscape:pagecheckerboard="0"
     inkscape:deskcolor="#505050"
     inkscape:zoom="13.597559"
     inkscape:cx="13.605383"
     inkscape:cy="19.562335"
     inkscape:window-width="1472"
     inkscape:window-height="923"
     inkscape:window-x="0"
     inkscape:window-y="33"
     inkscape:window-maximized="0"
     inkscape:current-layer="svg1" />
  <circle
     style="fill:none;stroke:#000000;stroke-width:0.999997;stroke-linecap:round;stroke-linejoin:round;stroke-miterlimit:83.9;paint-order:markers fill stroke"
     id="path1"
     cx="12"
     cy="12"
     r="8.9488201" />
  <g
     id="g2"
     transform="matrix(0.87500001,0,0,0.87500001,1.4999998,1.4999998)"
     style="stroke-width:1.14286">
    <path
       id="text1"
       style="font-size:85.649px;font-family:Monaco;-inkscape-font-specification:Monaco;letter-spacing:0.741073px;word-spacing:0px;stroke-width:6.34496;stroke-linecap:round;stroke-linejoin:round;stroke-miterlimit:83.9;paint-order:markers fill stroke"
       d="m 40.544246,-62.768798 c -4.973044,0 -9.760482,0.978102 -14.363769,2.93458 -1.016456,0.432012 -1.819825,1.724523 -1.819825,2.829092 v 3.529297 c 0,1.104569 0.778674,1.557255 1.758783,1.047989 2.647258,-1.375519 5.002414,-2.327414 7.065436,-2.85463 2.537128,-0.669133 5.017752,-1.003906 7.443359,-1.003906 3.763872,0 6.483418,0.752263 8.15625,2.257812 1.672833,1.505549 2.507813,3.235863 2.507813,5.1875 0,2.118921 -1.169754,4.627769 -3.511719,7.527344 l -2.759766,3.470703 c -0.947938,1.198863 -1.673932,2.064019 -2.175781,2.59375 l -2.591797,2.759766 c -2.202562,2.341964 -3.863293,4.348652 -4.978515,6.021484 -1.087341,1.644951 -1.824517,3.249237 -2.214844,4.810547 -0.435354,1.7148 -0.547423,3.4736 -0.576141,5.2346 -0.01801,1.104312 0.885634,1.999775 1.990203,1.999775 l 3.779297,0 c 1.104569,0 1.964239,-0.895553 1.987873,-1.999755 0.04825,-2.254362 0.344016,-4.473779 1.266033,-6.574464 0.836416,-1.58919 1.797425,-2.995913 2.884766,-4.222656 l 2.970703,-3.052734 3.261719,-3.388672 2.759765,-2.84375 c 4.237842,-4.321484 6.357422,-8.48911 6.357422,-12.503907 0,-4.070558 -1.645643,-7.37498 -4.935546,-9.912109 -3.262023,-2.565009 -8.016479,-3.847656 -14.261719,-3.847656 z"
       inkscape:path-effect="#path-effect1"
       inkscape:original-d="m 40.544246,-62.768798 c -5.631868,0 -11.025695,1.254424 -16.183594,3.763672 v 7.529297 c 3.373545,-1.895877 6.314971,-3.165389 8.824219,-3.806641 2.537128,-0.669133 5.017752,-1.003906 7.443359,-1.003906 3.763872,0 6.483418,0.752263 8.15625,2.257812 1.672833,1.505549 2.507813,3.235863 2.507813,5.1875 0,2.118921 -1.169754,4.627769 -3.511719,7.527344 l -2.759766,3.470703 c -0.947938,1.198863 -1.673932,2.064019 -2.175781,2.59375 l -2.591797,2.759766 c -2.202562,2.341964 -3.863293,4.348652 -4.978515,6.021484 -1.087341,1.644951 -1.824517,3.249237 -2.214844,4.810547 -0.600258,2.364334 -0.585938,4.812312 -0.585938,7.234375 h 7.779297 c -0.0838,-2.93587 0.06021,-5.85455 1.253906,-8.574219 0.836416,-1.58919 1.797425,-2.995913 2.884766,-4.222656 l 2.970703,-3.052734 3.261719,-3.388672 2.759765,-2.84375 c 4.237842,-4.321484 6.357422,-8.48911 6.357422,-12.503907 0,-4.070558 -1.645643,-7.37498 -4.935546,-9.912109 -3.262023,-2.565009 -8.016479,-3.847656 -14.261719,-3.847656 z"
       sodipodi:nodetypes="scccsssccccccccsccccscs"
       transform="matrix(0.18012008,0,0,0.18012008,4.4257559,17.258677)" />
    <circle
       style="fill:#000000;stroke:none;stroke-width:1.14286;stroke-linecap:round;stroke-linejoin:round;stroke-miterlimit:83.9;paint-order:markers fill stroke"
       id="path2"
       cx="10.888988"
       cy="16.837795"
       r="1.2094489" />
  </g>
</svg>
