<?xml version="1.0" encoding="UTF-8" standalone="no"?>
<svg
   viewBox="0 0 24 24"
   role="img"
   aria-label="Apple Books"
   version="1.1"
   id="svg2"
   sodipodi:docname="apple-books.svg"
   inkscape:version="1.4.2 (ebf0e940, 2025-05-08)"
   xmlns:inkscape="http://www.inkscape.org/namespaces/inkscape"
   xmlns:sodipodi="http://sodipodi.sourceforge.net/DTD/sodipodi-0.dtd"
   xmlns="http://www.w3.org/2000/svg"
   xmlns:svg="http://www.w3.org/2000/svg">
  <defs
     id="defs2">
    <linearGradient
       id="SVGID_1_"
       gradientUnits="userSpaceOnUse"
       x1="-206.1042"
       y1="354.63461"
       x2="-206.1042"
       y2="-242.6956"
       gradientTransform="matrix(31.596542,0,0,-31.596542,-585.10515,2694.1638)">
				<stop
   offset="0"
   style="stop-color:#FFA80B"
   id="stop1" />

				<stop
   offset="1"
   style="stop-color:#F27218"
   id="stop2" />

			</linearGradient>
  </defs>
  <sodipodi:namedview
     id="namedview2"
     pagecolor="#505050"
     bordercolor="#eeeeee"
     borderopacity="1"
     inkscape:showpageshadow="0"
     inkscape:pageopacity="0"
     inkscape:pagecheckerboard="0"
     inkscape:deskcolor="#505050"
     inkscape:zoom="11.984886"
     inkscape:cx="14.852039"
     inkscape:cy="7.1757043"
     inkscape:window-width="1472"
     inkscape:window-height="923"
     inkscape:window-x="0"
     inkscape:window-y="33"
     inkscape:window-maximized="0"
     inkscape:current-layer="svg2" />
  <g
     id="g3"
     transform="matrix(0.03164903,0,0,0.03164903,18.518118,10.732456)"
     style="stroke-width:31.5965">
	<g
   id="RGB_x5F_Icon_78_"
   style="stroke-width:31.5965">
		<g
   id="_x38_x_x5F_iOS11-iBooks-Icon_x5F_US-EN_x5F_00-0013-932_x5F_v1_x5F_w_x5F_RGB_x5F_R3_1_"
   style="stroke-width:31.5965">
			
				<linearGradient
   id="linearGradient4"
   gradientUnits="userSpaceOnUse"
   x1="-206.1042"
   y1="354.63461"
   x2="-206.1042"
   y2="-242.6956"
   gradientTransform="matrix(1,0,0,-1,-404.92308,613)">
				<stop
   offset="0"
   style="stop-color:#FFA80B"
   id="stop3" />

				<stop
   offset="1"
   style="stop-color:#F27218"
   id="stop4" />

			</linearGradient>

			<path
   class="st0"
   d="m 92.6,-72 c 0,-6.6 0,-14.4 0,-21 0,-5.5 0,-12.1 0,-17.7 0,-13.2 -1.1,-26.5 -3.3,-39.7 -2.2,-13.2 -6.6,-25.4 -12.1,-37.5 C 71.7,-200 64,-210 54,-219.9 c -9.9,-8.8 -21,-16.6 -32,-23.2 -12.1,-6.6 -24.3,-9.9 -37.5,-12.1 -13.2,-2.2 -26.5,-3.3 -39.7,-3.3 -5.5,0 -12.1,0 -17.7,0 -6.6,0 -14.4,0 -21,0 H -318 c -6.6,0 -14.4,0 -21,0 -5.5,0 -12.1,0 -17.7,0 -13.2,0 -26.5,1.1 -39.7,3.3 -13.2,2.2 -25.4,6.6 -37.5,12.1 -12.1,5.5 -22.1,13.2 -32,23.2 -8.8,8.8 -16.6,19.9 -23.2,32 -6.6,12.1 -9.9,24.3 -12.1,37.5 -2.2,13.2 -3.3,26.5 -3.3,39.7 0,5.5 0,12.1 0,17.7 0,6.6 0,14.4 0,21 v 224.1 c 0,6.6 0,14.4 0,21 0,5.5 0,12.1 0,17.7 0,13.2 1.1,26.5 3.3,39.7 2.2,13.2 6.6,25.4 12.1,37.5 5.5,12.1 13.2,22.1 23.2,32 8.8,8.8 19.9,17.7 32,23.2 12.1,6.6 24.3,9.9 37.5,12.1 13.2,2.2 26.5,3.3 39.7,3.3 5.5,0 12.1,0 17.7,0 6.6,0 14.4,0 21,0 h 224 c 6.6,0 14.4,0 21,0 5.5,0 12.1,0 17.7,0 13.2,0 26.5,-1.1 39.7,-3.3 13.2,-2.2 25.4,-6.6 37.5,-12.1 C 34,317.7 44,310 53.9,300 c 8.8,-8.8 16.6,-19.9 23.2,-32 6.6,-12.1 9.9,-24.3 12.1,-37.5 2.2,-13.2 3.3,-26.5 3.3,-39.7 0,-5.5 0,-12.1 0,-17.7 0,-6.6 0,-14.4 0,-21 V -72 Z"
   id="path2"
   style="fill:url(#SVGID_1_);stroke-width:31.5965" />

			<path
   class="st1"
   d="m -228.7,-90.8 c 9.9,15.5 15.5,19.9 15.5,62.9 0,54.1 0,188.8 0,241.8 0,9.9 0,-24.3 -34.2,-49.7 -35.3,-27.6 -96.1,-29.8 -145.7,6.6 -8.8,6.6 -15.5,5.5 -15.5,-4.4 0,-54.1 0,-181.1 0,-235.2 0,-9.9 1.1,-21 15.5,-32 49.5,-34.2 125.7,-35.3 164.4,10 z m 225.2,23.2 c 0,-9.9 -1.1,-21 -15.5,-32 -49.7,-36.4 -125.9,-36.4 -164.5,8.8 -9.9,15.5 -15.5,19.9 -15.5,62.9 0,54.1 0,188.8 0,241.8 0,9.9 0,-24.3 34.2,-49.7 35.3,-27.6 96.1,-29.8 145.7,6.6 8.8,6.6 15.5,5.5 15.5,-4.4 0.1,-52.9 0.1,-179.9 0.1,-234 z"
   id="path3"
   style="fill:#ffffff;stroke-width:31.5965" />

		</g>

	</g>

</g>
</svg>
