<?xml version="1.0" encoding="UTF-8" standalone="no"?>
<!-- Created with Inkscape (http://www.inkscape.org/) -->

<svg
   width="56.570316mm"
   height="54.65366mm"
   viewBox="0 0 56.570315 54.653661"
   version="1.1"
   id="svg1"
   inkscape:version="1.4.2 (ebf0e940, 2025-05-08)"
   sodipodi:docname="signin-phone.svg"
   xmlns:inkscape="http://www.inkscape.org/namespaces/inkscape"
   xmlns:sodipodi="http://sodipodi.sourceforge.net/DTD/sodipodi-0.dtd"
   xmlns="http://www.w3.org/2000/svg"
   xmlns:svg="http://www.w3.org/2000/svg">
  <sodipodi:namedview
     id="namedview1"
     pagecolor="#505050"
     bordercolor="#eeeeee"
     borderopacity="1"
     inkscape:showpageshadow="0"
     inkscape:pageopacity="0"
     inkscape:pagecheckerboard="0"
     inkscape:deskcolor="#505050"
     inkscape:document-units="mm"
     inkscape:zoom="1.0543392"
     inkscape:cx="104.80498"
     inkscape:cy="191.5892"
     inkscape:window-width="1472"
     inkscape:window-height="895"
     inkscape:window-x="0"
     inkscape:window-y="61"
     inkscape:window-maximized="0"
     inkscape:current-layer="layer1">
    <inkscape:page
       x="0"
       y="0"
       width="56.570316"
       height="54.65366"
       id="page2"
       margin="0"
       bleed="0" />
  </sodipodi:namedview>
  <defs
     id="defs1" />
  <g
     inkscape:label="Layer 1"
     inkscape:groupmode="layer"
     id="layer1"
     transform="translate(538.27352,-143.80703)">
    <path
       id="path9-1"
       d="m -483.60842,185.35788 c 0.20879,0.82905 0,1.6902 -0.62012,2.28836 l -7.4925,7.491 c -0.41468,0.1986 -0.8359,0.62823 -1.45087,0.82891 -0.42147,0.19666 -1.04319,0.42973 -1.45776,0.62823 0,0 -0.21559,0 -0.42147,0 -0.20734,0 -0.40788,0 -0.62352,0 -0.82735,0 -1.87224,-0.1986 -3.53724,-0.43119 -1.45091,-0.19665 -3.53899,-0.82711 -5.8258,-1.65611 -2.28682,-1.02644 -4.78087,-2.4859 -7.6912,-4.37542 -2.91718,-1.85685 -6.03309,-4.5428 -9.3631,-7.88975 -2.70304,-2.4857 -4.78257,-4.97087 -6.44927,-7.25939 -1.665,-2.28836 -3.11416,-4.57343 -4.1591,-6.43028 -1.04489,-2.09036 -1.87399,-3.97784 -2.28851,-5.636 -0.62867,-1.42518 -0.82736,-2.8826 -1.25048,-4.14385 0,-1.02591 -0.20734,-2.08774 -0.20734,-2.68591 0.20734,-0.62832 0.20734,-1.05998 0.20734,-1.05998 0,-0.63022 0.20734,-1.0278 0.42293,-1.6566 0.40593,-0.62832 0.62181,-1.0278 1.03464,-1.22785 17.68635,-17.66771 18.72094,6.23343 16.64142,8.28713 l -2.70989,2.71984 c 0,0 0,0.19763 -0.1986,0.39768 0,0.1986 0,0.1986 0,0.43021 0.1986,0.59768 0.41467,1.65815 1.03464,2.68595 0.41613,0.82905 1.03634,1.88957 2.08128,3.11621 0.83765,1.25853 2.08807,2.91528 3.95352,4.57484 1.665,1.6566 3.12446,2.91732 4.36634,3.94512 1.45946,1.06047 2.4958,1.65471 3.3317,2.08637 0.8291,0.39962 1.45087,0.63022 2.07958,0.83095 l 0.62176,0.19665 c 0,0 0.21559,-0.19665 0.41467,-0.19665 0,0 0.21559,0 0.21559,-0.20054 7.69125,-7.69086 18.721,1.22649 19.34111,4.3427 v 0"
       style="fill:#000000;fill-opacity:1;fill-rule:evenodd;stroke:none;stroke-width:0.0352777" />
  </g>
</svg>
