<?xml version="1.0" encoding="UTF-8" standalone="no"?>
<!-- Uploaded to: SVG Repo, www.svgrepo.com, Generator: SVG Repo Mixer Tools -->

<svg
   width="666.66663"
   height="666.66663"
   viewBox="0 0 19.999999 19.999999"
   fill="none"
   version="1.1"
   id="svg1"
   sodipodi:docname="email-svgrepo-com.svg"
   xmlns:inkscape="http://www.inkscape.org/namespaces/inkscape"
   xmlns:sodipodi="http://sodipodi.sourceforge.net/DTD/sodipodi-0.dtd"
   xmlns="http://www.w3.org/2000/svg"
   xmlns:svg="http://www.w3.org/2000/svg">
  <defs
     id="defs1" />
  <sodipodi:namedview
     id="namedview1"
     pagecolor="#505050"
     bordercolor="#eeeeee"
     borderopacity="1"
     inkscape:showpageshadow="0"
     inkscape:pageopacity="0"
     inkscape:pagecheckerboard="0"
     inkscape:deskcolor="#505050">
    <inkscape:page
       x="0"
       y="0"
       width="19.999998"
       height="19.999998"
       id="page2"
       margin="0"
       bleed="0" />
  </sodipodi:namedview>
  <path
     d="m 14,10 c 0,2.2091 -1.7909,4 -4,4 -2.2091399,0 -3.9999999,-1.7909 -3.9999999,-4 0,-2.2091399 1.79086,-3.9999999 3.9999999,-3.9999999 2.2091,0 4,1.79086 4,3.9999999 z m 0,0 v 1.5 c 0,1.3807 1.1193,2.5 2.5,2.5 v 0 C 17.8807,14 19,12.8807 19,11.5 V 10 c 0,-4.9705599 -4.0294,-8.9999999 -9,-8.9999999 -4.9705599,0 -8.9999999,4.02944 -8.9999999,8.9999999 0,4.9706 4.02944,9 8.9999999,9 h 4"
     stroke="#000000"
     stroke-width="2"
     stroke-linecap="round"
     stroke-linejoin="round"
     id="path1" />
</svg>
