<?xml version="1.0" encoding="UTF-8" standalone="no"?>
<svg
   width="20"
   height="20"
   viewBox="0 0 20 20"
   fill="none"
   version="1.1"
   id="svg2"
   sodipodi:docname="settings.svg"
   inkscape:version="1.4.2 (ebf0e940, 2025-05-08)"
   xmlns:inkscape="http://www.inkscape.org/namespaces/inkscape"
   xmlns:sodipodi="http://sodipodi.sourceforge.net/DTD/sodipodi-0.dtd"
   xmlns="http://www.w3.org/2000/svg"
   xmlns:svg="http://www.w3.org/2000/svg">
  <defs
     id="defs2">
    <inkscape:path-effect
       effect="fillet_chamfer"
       id="path-effect1"
       is_visible="true"
       lpeversion="1"
       nodesatellites_param="F,0,0,1,0,1,0,1 @ F,0,0,1,0,1,0,1 @ F,0,0,1,0,1,0,1 @ F,0,0,1,0,1,0,1 @ F,0,0,1,0,1,0,1 @ F,0,0,1,0,1,0,1 @ F,0,0,1,0,0,0,1 @ F,0,0,1,0,1,0,1 @ F,0,0,1,0,1,0,1 @ F,0,0,1,0,1,0,1 @ F,0,0,1,0,1,0,1 @ F,0,0,1,0,1,0,1 @ F,0,0,1,0,1,0,1 @ F,0,0,1,0,1,0,1 @ F,0,0,1,0,1,0,1 @ F,0,0,1,0,1,0,1 @ F,0,0,1,0,1,0,1 @ F,0,0,1,0,1,0,1 @ F,0,0,1,0,1,0,1 @ F,0,0,1,0,0,0,1 @ F,0,0,1,0,1,0,1 @ F,0,0,1,0,1,0,1 @ F,0,0,1,0,1,0,1 @ F,0,0,1,0,1,0,1 @ F,0,0,1,0,1,0,1 @ F,0,0,1,0,1,0,1"
       radius="0"
       unit="px"
       method="auto"
       mode="F"
       chamfer_steps="1"
       flexible="false"
       use_knot_distance="true"
       apply_no_radius="true"
       apply_with_radius="true"
       only_selected="false"
       hide_knots="false" />
  </defs>
  <sodipodi:namedview
     id="namedview2"
     pagecolor="#505050"
     bordercolor="#eeeeee"
     borderopacity="1"
     inkscape:showpageshadow="0"
     inkscape:pageopacity="0"
     inkscape:pagecheckerboard="0"
     inkscape:deskcolor="#505050"
     inkscape:zoom="12.033361"
     inkscape:cx="10.304686"
     inkscape:cy="5.5263033"
     inkscape:window-width="1472"
     inkscape:window-height="896"
     inkscape:window-x="0"
     inkscape:window-y="32"
     inkscape:window-maximized="0"
     inkscape:current-layer="svg2" />
  <g
     id="g1"
     transform="translate(30.72903,0.12951898)">
    <path
       id="path3530-5-1-8-8-2"
       style="fill:none;stroke:#000000;stroke-width:0.999997;stroke-linecap:round;stroke-linejoin:round"
       d="m -22.581614,1.59843 v 0.089941 c 0,0.5522847 -0.437515,1.1060097 -0.948351,1.3148189 -0.623166,0.2547249 -1.208811,0.5932783 -1.740665,1.0062565 -0.435889,0.3384621 -1.133748,0.4405694 -1.611884,0.1641559 l -0.07705,-0.044545 a 0.99896359,0.99896359 165.00278 0 0 -1.365335,0.3657694 l -0.85339,1.4797208 a 1.0005757,1.0005757 74.989558 0 0 0.36638,1.3663517 l 0.07659,0.044231 c 0.478264,0.2761929 0.738867,0.9319368 0.663878,1.4786856 -0.04572,0.3333727 -0.06878,0.6698557 -0.06886,1.0071281 -2.9e-5,0.3368585 0.02287,0.6729365 0.06837,1.0059225 0.07472,0.546782 -0.186021,1.202705 -0.6642,1.479045 l -0.07594,0.04388 a 1.0008838,1.0008838 105.00162 0 0 -0.366226,1.366618 l 0.85339,1.479721 a 0.99934754,0.99934754 15.008228 0 0 1.365527,0.366102 l 0.07667,-0.04428 c 0.478242,-0.27623 1.176202,-0.173988 1.612108,0.164454 0.531848,0.412934 1.117478,0.751447 1.740622,1.006139 0.510844,0.208791 0.948362,0.762501 0.948362,1.314786 v 0.0892 a 1,1 45 0 0 1,1 h 1.705133 a 1,1 135 0 0 1,-1 v -0.0892 c 0,-0.552285 0.437519,-1.105995 0.948362,-1.314787 0.623145,-0.254691 1.208775,-0.593205 1.740624,-1.006138 0.435905,-0.338442 1.133865,-0.440684 1.612107,-0.164454 l 0.07667,0.04428 a 0.99934754,0.99934754 164.99177 0 0 1.365527,-0.366102 l 0.85339,-1.479721 a 1.0006526,1.0006526 74.991765 0 0 -0.366341,-1.366418 l -0.07667,-0.04428 c -0.478242,-0.27623 -0.739038,-0.932065 -0.664314,-1.47885 0.04551,-0.332985 0.0684,-0.669061 0.06837,-1.0059175 7.9e-5,-0.3372303 -0.02282,-0.6736823 -0.06837,-1.0070357 -0.07472,-0.546782 0.18609,-1.2025851 0.664354,-1.478778 l 0.07659,-0.044231 a 1.0007256,1.0007256 105.01474 0 0 0.36651,-1.3664266 l -0.85365,-1.4806836 A 0.99903998,0.99903998 15.007999 0 0 -14.49864,4.1277489 l -0.07777,0.044937 c -0.478198,0.2763053 -1.17618,0.1741783 -1.612143,-0.1641881 -0.531569,-0.4125683 -1.116835,-0.7508069 -1.739567,-1.0053339 -0.510841,-0.208795 -0.948359,-0.7625079 -0.948359,-1.3147926 V 1.59843 a 1,1 45 0 0 -1,-0.99999997 h -1.705133 a 1,1 135 0 0 -1,0.99999997 z"
       inkscape:path-effect="#path-effect1"
       inkscape:original-d="M -22.581614,0.59843003 V 2.6883712 a 7.4107462,7.4177146 0 0 0 -3.435158,1.9857222 l -1.808537,-1.0455269 -1.852576,3.2122414 1.808538,1.0444143 a 7.4107462,7.4177146 0 0 0 -0.270956,1.9857223 7.4107462,7.4177146 0 0 0 0.269992,1.9846095 l -1.807574,1.0446 1.852576,3.212241 1.808537,-1.0446 a 7.4107462,7.4177146 0 0 0 3.435158,1.985537 v 2.0892 h 3.705133 v -2.0892 a 7.4107462,7.4177146 0 0 0 3.435159,-1.985537 l 1.808537,1.0446 1.852576,-3.212241 -1.808538,-1.0446 a 7.4107462,7.4177146 0 0 0 0.269992,-1.9846095 7.4107462,7.4177146 0 0 0 -0.269992,-1.9857223 l 1.808538,-1.0444143 -1.852576,-3.213354 -1.809482,1.0455269 A 7.4107462,7.4177146 0 0 0 -18.876481,2.6883712 V 0.59843003 Z" />
    <ellipse
       style="fill:none;stroke:#000000;stroke-width:0.999997;stroke-linecap:round;stroke-linejoin:round"
       id="path3530-5-1-5-7"
       cx="-20.729048"
       cy="9.8704815"
       rx="2.7790298"
       ry="2.7816432" />
  </g>
</svg>
