<?xml version="1.0" encoding="UTF-8" standalone="no"?>
<svg
   viewBox="0 0 24 24"
   version="1.1"
   id="svg1"
   sodipodi:docname="edit-identity.svg"
   inkscape:version="1.4.2 (ebf0e940, 2025-05-08)"
   xmlns:inkscape="http://www.inkscape.org/namespaces/inkscape"
   xmlns:sodipodi="http://sodipodi.sourceforge.net/DTD/sodipodi-0.dtd"
   xmlns="http://www.w3.org/2000/svg"
   xmlns:svg="http://www.w3.org/2000/svg">
  <defs
     id="defs1">
    <inkscape:path-effect
       effect="fillet_chamfer"
       id="path-effect3"
       is_visible="true"
       lpeversion="1"
       nodesatellites_param="F,0,0,1,0,0,0,1 @ F,0,0,1,0,5,0,1 @ F,0,0,1,0,5,0,1 @ F,0,0,1,0,5,0,1 @ F,0,0,1,0,0,0,1"
       radius="0"
       unit="px"
       method="auto"
       mode="F"
       chamfer_steps="1"
       flexible="false"
       use_knot_distance="true"
       apply_no_radius="true"
       apply_with_radius="true"
       only_selected="false"
       hide_knots="false" />
  </defs>
  <sodipodi:namedview
     id="namedview1"
     pagecolor="#505050"
     bordercolor="#eeeeee"
     borderopacity="1"
     inkscape:showpageshadow="0"
     inkscape:pageopacity="0"
     inkscape:pagecheckerboard="0"
     inkscape:deskcolor="#505050"
     inkscape:zoom="13.443821"
     inkscape:cx="12.97994"
     inkscape:cy="19.600082"
     inkscape:window-width="1472"
     inkscape:window-height="868"
     inkscape:window-x="0"
     inkscape:window-y="32"
     inkscape:window-maximized="0"
     inkscape:current-layer="svg1" />
  <path
     id="path1"
     style="fill:none;stroke:#1a1a1a;stroke-width:1;stroke-linecap:round;stroke-linejoin:round;stroke-miterlimit:79.1;paint-order:stroke fill markers"
     d="M 4.9098485,16.218635 C 5.15225,15.653397 5.5030115,15.144368 5.9364492,14.71688 6.369886,14.289392 6.8860001,13.943444 7.4591029,13.704369 8.0322067,13.465294 8.6623022,13.33309 9.3237059,13.33309 c 0.6614016,0 1.2914971,0.132204 1.8646011,0.371279 0.573105,0.239075 1.089217,0.585024 1.522654,1.012511 0.433437,0.427488 0.784199,0.936517 1.026601,1.501755"
     sodipodi:nodetypes="csssssc" />
  <ellipse
     style="fill:none;stroke:#1a1a1a;stroke-width:1;stroke-linecap:round;stroke-linejoin:round;stroke-miterlimit:79.1;paint-order:stroke fill markers"
     id="path1-2"
     cx="9.3237066"
     cy="9.9763203"
     rx="2.2255008"
     ry="2.1949551" />
  <path
     id="rect4"
     style="fill:none;stroke:#1a1a1a;stroke-width:1;stroke-linecap:round;stroke-linejoin:round;stroke-miterlimit:79.1;paint-order:stroke fill markers"
     d="m 20.033149,4.1919233 0.720267,0.710062 a 0.69850527,0.73011899 54.408487 0 1 -0.02131,1.002982 l -4.136857,4.0782492 a 2.0971519,2.1920672 54.40848 0 1 -1.233622,0.6273275 l -0.624002,0.100758 a 0.52336821,0.54705541 54.408477 0 1 -0.597281,-0.588817 l 0.102205,-0.6151595 a 2.0971516,2.1920668 54.408485 0 1 0.636346,-1.216145 l 4.136858,-4.0782482 a 0.69850527,0.73011899 54.408487 0 1 1.017397,-0.02101 z"
     sodipodi:nodetypes="cccccc" />
  <path
     id="rect2"
     style="fill:none;stroke:#1a1a1a;stroke-width:1.70442;stroke-linecap:round;stroke-linejoin:round;stroke-miterlimit:83.9;paint-order:markers fill stroke"
     d="m -18.408979,-24.353635 v 14.317287 a 5,5 135 0 1 -5,5.0000004 h -21.12599 a 5,5 45 0 1 -5,-5.0000004 v -16.737564 a 5,5 135 0 1 5,-5 h 18.344493"
     sodipodi:nodetypes="ccccc"
     inkscape:path-effect="#path-effect3"
     inkscape:original-d="m -18.408979,-24.353635 v 19.3172874 h -31.12599 V -31.773912 h 23.344493"
     transform="matrix(0.57563382,0,0,0.59798701,31.555417,23.006028)" />
</svg>
