<?xml version="1.0" encoding="UTF-8" standalone="no"?>
<svg
   viewBox="0 0 24 24"
   version="1.1"
   id="svg1"
   sodipodi:docname="identity-account-state-route-readiness.svg"
   xml:space="preserve"
   inkscape:version="1.4.2 (ebf0e940, 2025-05-08)"
   xmlns:inkscape="http://www.inkscape.org/namespaces/inkscape"
   xmlns:sodipodi="http://sodipodi.sourceforge.net/DTD/sodipodi-0.dtd"
   xmlns="http://www.w3.org/2000/svg"
   xmlns:svg="http://www.w3.org/2000/svg"><defs
     id="defs1"><inkscape:path-effect
       effect="fillet_chamfer"
       id="path-effect3"
       is_visible="true"
       lpeversion="1"
       nodesatellites_param="F,0,0,1,0,5,0,1 @ F,0,0,1,0,1,0,1 @ F,0,0,1,0,5,0,1 @ F,0,0,1,0,5,0,1 @ F,0,0,1,0,1,0,1 @ F,0,0,1,0,5,0,1"
       radius="0"
       unit="px"
       method="auto"
       mode="F"
       chamfer_steps="1"
       flexible="false"
       use_knot_distance="true"
       apply_no_radius="true"
       apply_with_radius="true"
       only_selected="false"
       hide_knots="false" /><inkscape:path-effect
       effect="fillet_chamfer"
       id="path-effect2"
       is_visible="true"
       lpeversion="1"
       nodesatellites_param="F,0,0,1,0,5,0,1 @ F,0,0,1,0,5,0,1 @ F,0,0,1,0,5,0,1 @ F,0,0,1,0,5,0,1"
       radius="0"
       unit="px"
       method="auto"
       mode="F"
       chamfer_steps="1"
       flexible="false"
       use_knot_distance="true"
       apply_no_radius="true"
       apply_with_radius="true"
       only_selected="false"
       hide_knots="false" /></defs><sodipodi:namedview
     id="namedview1"
     pagecolor="#505050"
     bordercolor="#eeeeee"
     borderopacity="1"
     inkscape:showpageshadow="0"
     inkscape:pageopacity="0"
     inkscape:pagecheckerboard="0"
     inkscape:deskcolor="#505050"
     inkscape:zoom="8.7089784"
     inkscape:cx="9.0136863"
     inkscape:cy="11.424991"
     inkscape:window-width="1472"
     inkscape:window-height="868"
     inkscape:window-x="0"
     inkscape:window-y="32"
     inkscape:window-maximized="0"
     inkscape:current-layer="svg1" /><path
     id="path1"
     style="fill:none;stroke:#000000;stroke-width:0.999999;stroke-linecap:round;stroke-linejoin:round;stroke-miterlimit:79.1;paint-order:stroke fill markers"
     d="m 7.23391,16.637618 c 0.2617461,-0.621373 0.640499,-1.180956 1.1085251,-1.650902 0.4680263,-0.469943 1.0253258,-0.850248 1.6441637,-1.113066 0.6188392,-0.26282 1.2992172,-0.408153 2.0134002,-0.408153 0.714184,0 1.394562,0.145333 2.0134,0.408153 0.618839,0.262818 1.176137,0.643124 1.644163,1.113066 0.468027,0.469946 0.84678,1.029529 1.108527,1.650904"
     sodipodi:nodetypes="csssssc" /><ellipse
     style="fill:none;stroke:#000000;stroke-width:0.999999;stroke-linecap:round;stroke-linejoin:round;stroke-miterlimit:79.1;paint-order:stroke fill markers"
     id="path1-2"
     cx="11.999999"
     cy="9.7753477"
     rx="2.4030988"
     ry="2.4129469" /><path
     id="rect2"
     style="fill:none;stroke:#000000;stroke-width:1.31985;stroke-linecap:round;stroke-linejoin:round;stroke-miterlimit:83.9;paint-order:markers fill stroke"
     d="m -25.746189,-0.15303674 3.093277,-0.69132628 a 4.4744093,4.4744093 6.8143265e-7 0 1 1.951848,3e-8 l 3.093276,0.69132614 a 6.2408175,6.2408175 51.299092 0 1 4.879618,6.09056155 v 7.8976383 a 7.711694,7.711694 122.958 0 1 -4.564741,7.040377 l -3.471129,1.551548 a 2.2372046,2.2372046 180 0 1 -1.825896,0 l -3.47113,-1.551548 a 7.7116936,7.7116936 57.041996 0 1 -4.564741,-7.040377 V 5.9375247 a 6.2408173,6.2408173 128.70091 0 1 4.879618,-6.09056144 z"
     sodipodi:nodetypes="ccccccc"
     inkscape:path-effect="#path-effect3"
     inkscape:original-d="m -30.625807,0.93752468 8.948819,-1.99999998 8.948818,1.99999998 V 18.835163 l -8.948818,4 -8.948819,-4 z"
     transform="matrix(0.75610831,0,0,0.75921671,28.390151,3.7740223)" /></svg>
