<?xml version="1.0" encoding="UTF-8" standalone="no"?>
<svg
   width="24"
   height="24"
   viewBox="0 0 24 24"
   fill="none"
   version="1.1"
   id="svg2"
   sodipodi:docname="platform-menue-settings-connectors-notion.svg"
   inkscape:version="1.4.2 (ebf0e940, 2025-05-08)"
   xml:space="preserve"
   xmlns:inkscape="http://www.inkscape.org/namespaces/inkscape"
   xmlns:sodipodi="http://sodipodi.sourceforge.net/DTD/sodipodi-0.dtd"
   xmlns="http://www.w3.org/2000/svg"
   xmlns:svg="http://www.w3.org/2000/svg"><defs
     id="defs2"><inkscape:path-effect
       effect="fillet_chamfer"
       id="path-effect1"
       is_visible="true"
       lpeversion="1"
       nodesatellites_param="F,0,0,1,0,1,0,1 @ F,0,0,1,0,1,0,1 @ F,0,0,1,0,1,0,1 @ F,0,0,1,0,1,0,1 @ F,0,0,1,0,1,0,1 @ F,0,0,1,0,1,0,1 @ F,0,0,1,0,0,0,1 @ F,0,0,1,0,1,0,1 @ F,0,0,1,0,1,0,1 @ F,0,0,1,0,1,0,1 @ F,0,0,1,0,1,0,1 @ F,0,0,1,0,1,0,1 @ F,0,0,1,0,1,0,1 @ F,0,0,1,0,1,0,1 @ F,0,0,1,0,1,0,1 @ F,0,0,1,0,1,0,1 @ F,0,0,1,0,1,0,1 @ F,0,0,1,0,1,0,1 @ F,0,0,1,0,1,0,1 @ F,0,0,1,0,0,0,1 @ F,0,0,1,0,1,0,1 @ F,0,0,1,0,1,0,1 @ F,0,0,1,0,1,0,1 @ F,0,0,1,0,1,0,1 @ F,0,0,1,0,1,0,1 @ F,0,0,1,0,1,0,1"
       radius="0"
       unit="px"
       method="auto"
       mode="F"
       chamfer_steps="1"
       flexible="false"
       use_knot_distance="true"
       apply_no_radius="true"
       apply_with_radius="true"
       only_selected="false"
       hide_knots="false" /></defs><sodipodi:namedview
     id="namedview2"
     pagecolor="#505050"
     bordercolor="#eeeeee"
     borderopacity="1"
     inkscape:showpageshadow="0"
     inkscape:pageopacity="0"
     inkscape:pagecheckerboard="0"
     inkscape:deskcolor="#505050"
     inkscape:zoom="13.389526"
     inkscape:cx="8.8502013"
     inkscape:cy="10.269221"
     inkscape:window-width="1472"
     inkscape:window-height="812"
     inkscape:window-x="0"
     inkscape:window-y="32"
     inkscape:window-maximized="0"
     inkscape:current-layer="svg2" /><path
     d="m 6.061925,5.8643382 c 0.58779,0.47751 0.80829,0.44107 1.91199,0.36744 l 10.40545,-0.6248 c 0.22061,0 0.0371,-0.22016 -0.0364,-0.25675 l -1.72822,-1.24929 c -0.33106,-0.25706 -0.77228,-0.55147 -1.61773,-0.47783 l -10.07557,0.73488 c -0.36744,0.0364 -0.44085,0.22015 -0.2945,0.36743 z m 0.62473,2.42495 V 19.237618 c 0,0.58835 0.29403,0.80854 0.95584,0.77214 l 11.43552,-0.66169 c 0.66212,-0.0364 0.73589,-0.44123 0.73589,-0.91912 V 7.5541082 c 0,-0.47722 -0.18352,-0.73457 -0.5889,-0.69784 l -11.95026,0.69784 c -0.441,0.0371 -0.58809,0.25765 -0.58809,0.73518 z m 11.28914,0.5873 c 0.0734,0.331 0,0.66169 -0.33161,0.69889 l -0.55097,0.10977 v 8.0826998 c -0.47846,0.25715 -0.91955,0.40413 -1.28714,0.40413 -0.58855,0 -0.73596,-0.1838 -1.1768,-0.73463 l -3.60408,-5.65795 v 5.47429 l 1.14045,0.25729 c 0,0 0,0.661 -0.92011,0.661 l -2.53657,0.14712 c -0.0737,-0.14712 0,-0.51416 0.25729,-0.58779 l 0.66193,-0.18337 v -7.23798 l -0.91907,-0.0736 c -0.0737,-0.3309998 0.10988,-0.8082198 0.62502,-0.8452698 l 2.72119,-0.18342 3.75075,5.7315998 V 9.8689982 l -0.9563,-0.10976 c -0.0734,-0.40463 0.22034,-0.69845 0.58809,-0.73489 z m -13.90031,-5.51054 10.48023,-0.77177 c 1.28704,-0.11038 1.61809,-0.0364 2.42705,0.55116 l 3.34529,2.35131 c 0.55209,0.40434 0.73603,0.51442 0.73603,0.95519 V 19.348068 c 0,0.80812 -0.29438,1.28615 -1.32381,1.35923 l -12.17058,0.73504 c -0.77272,0.0368 -1.14048,-0.0734 -1.54514,-0.58806 l -2.46362,-3.19636 c -0.44144,-0.58834 -0.62502,-1.02859 -0.62502,-1.54358 V 4.6514882 c 0,-0.66094 0.2945,-1.21224 1.13957,-1.28544 z"
     fill="#000000"
     id="path1"
     style="stroke-width:53.3332" /></svg>
