<?xml version="1.0" encoding="UTF-8" standalone="no"?>
<svg
   width="24"
   height="24"
   viewBox="0 0 24 24"
   fill="none"
   version="1.1"
   id="svg2"
   sodipodi:docname="platform-menue-settings-connectors-slack.svg"
   inkscape:version="1.4.2 (ebf0e940, 2025-05-08)"
   xml:space="preserve"
   xmlns:inkscape="http://www.inkscape.org/namespaces/inkscape"
   xmlns:sodipodi="http://sodipodi.sourceforge.net/DTD/sodipodi-0.dtd"
   xmlns="http://www.w3.org/2000/svg"
   xmlns:svg="http://www.w3.org/2000/svg"><defs
     id="defs2"><inkscape:path-effect
       effect="fillet_chamfer"
       id="path-effect1"
       is_visible="true"
       lpeversion="1"
       nodesatellites_param="F,0,0,1,0,1,0,1 @ F,0,0,1,0,1,0,1 @ F,0,0,1,0,1,0,1 @ F,0,0,1,0,1,0,1 @ F,0,0,1,0,1,0,1 @ F,0,0,1,0,1,0,1 @ F,0,0,1,0,0,0,1 @ F,0,0,1,0,1,0,1 @ F,0,0,1,0,1,0,1 @ F,0,0,1,0,1,0,1 @ F,0,0,1,0,1,0,1 @ F,0,0,1,0,1,0,1 @ F,0,0,1,0,1,0,1 @ F,0,0,1,0,1,0,1 @ F,0,0,1,0,1,0,1 @ F,0,0,1,0,1,0,1 @ F,0,0,1,0,1,0,1 @ F,0,0,1,0,1,0,1 @ F,0,0,1,0,1,0,1 @ F,0,0,1,0,0,0,1 @ F,0,0,1,0,1,0,1 @ F,0,0,1,0,1,0,1 @ F,0,0,1,0,1,0,1 @ F,0,0,1,0,1,0,1 @ F,0,0,1,0,1,0,1 @ F,0,0,1,0,1,0,1"
       radius="0"
       unit="px"
       method="auto"
       mode="F"
       chamfer_steps="1"
       flexible="false"
       use_knot_distance="true"
       apply_no_radius="true"
       apply_with_radius="true"
       only_selected="false"
       hide_knots="false" /></defs><sodipodi:namedview
     id="namedview2"
     pagecolor="#505050"
     bordercolor="#eeeeee"
     borderopacity="1"
     inkscape:showpageshadow="0"
     inkscape:pageopacity="0"
     inkscape:pagecheckerboard="0"
     inkscape:deskcolor="#505050"
     inkscape:zoom="8.6899744"
     inkscape:cx="7.9977221"
     inkscape:cy="11.104751"
     inkscape:window-width="1472"
     inkscape:window-height="812"
     inkscape:window-x="0"
     inkscape:window-y="32"
     inkscape:window-maximized="0"
     inkscape:current-layer="svg2" /><path
     fill="#e01e5a"
     d="M 4.5367827,16.47874 A 1.9896513,1.9896513 0 0 0 6.5210348,14.493138 V 12.508886 H 4.5367827 a 1.9896513,1.9896513 0 0 0 -1.9856018,1.982903 c 0.00135,1.094713 0.8895388,1.982902 1.984252,1.984252 z m 4.9700789,-3.971203 a 1.9896513,1.9896513 0 0 0 -1.984252,1.985601 v 4.971429 c 0.0027,1.094713 0.8908886,1.981552 1.984252,1.984252 A 1.9896513,1.9896513 0 0 0 11.491114,19.464567 V 14.491789 A 1.9896513,1.9896513 0 0 0 9.5068616,12.507537 Z"
     id="path1"
     style="clip-rule:evenodd;fill-rule:evenodd;stroke-width:50" /><path
     fill="#36c5f0"
     d="m 7.5226096,4.5367827 c 0.00135,1.0947132 0.8895388,1.9829022 1.984252,1.9842521 H 11.491114 V 4.5367827 A 1.9896513,1.9896513 0 0 0 9.5082114,2.5511809 1.9896513,1.9896513 0 0 0 7.5239594,4.5354329 Z M 11.491114,9.5068616 A 1.9896513,1.9896513 0 0 0 9.5068616,7.5226096 H 4.5354329 a 1.9896513,1.9896513 0 0 0 -1.984252,1.984252 c 0.0027,1.0960634 0.8908887,1.9829024 1.984252,1.9842524 H 9.5082114 A 1.9896513,1.9896513 0 0 0 11.492463,9.5068616 Z"
     id="path2"
     style="clip-rule:evenodd;fill-rule:evenodd;stroke-width:50" /><path
     fill="#2eb67d"
     d="M 14.493138,11.492463 A 1.9896513,1.9896513 0 0 0 16.47739,9.5082114 V 4.5354329 a 1.9896513,1.9896513 0 0 0 -1.982902,-1.984252 1.9896513,1.9896513 0 0 0 -1.984252,1.984252 v 4.9727785 c 0.0027,1.0933636 0.889539,1.9815526 1.984252,1.9842516 z m 4.970079,-3.9698534 a 1.9896513,1.9896513 0 0 0 -1.984252,1.984252 v 1.9842524 h 1.984252 a 1.9896513,1.9896513 0 0 0 1.985602,-1.9829026 1.9896513,1.9896513 0 0 0 -1.984252,-1.984252 z"
     id="path3"
     style="clip-rule:evenodd;fill-rule:evenodd;stroke-width:50" /><path
     fill="#ecb22e"
     d="m 12.508886,14.493138 c 0.0027,1.094714 0.889539,1.982903 1.984252,1.984252 h 4.971429 a 1.9896513,1.9896513 0 0 0 1.984252,-1.982902 1.9896513,1.9896513 0 0 0 -1.984252,-1.984252 h -4.971429 a 1.9896513,1.9896513 0 0 0 -1.984252,1.984252 z m 3.968504,4.970079 a 1.9896513,1.9896513 0 0 0 -1.984252,-1.984252 h -1.984252 v 1.984252 c 0.0027,1.096063 0.889539,1.982902 1.984252,1.984252 a 1.9896513,1.9896513 0 0 0 1.984252,-1.984252 z"
     id="path4"
     style="clip-rule:evenodd;fill-rule:evenodd;stroke-width:50" /></svg>
