<?xml version="1.0" encoding="UTF-8" standalone="no"?>
<svg
   width="24"
   height="24"
   viewBox="0 0 24 24"
   fill="none"
   version="1.1"
   id="svg2"
   xml:space="preserve"
   sodipodi:docname="platform-menue-settings-connectors-icloud-drive.svg"
   inkscape:version="1.4.2 (ebf0e940, 2025-05-08)"
   xmlns:inkscape="http://www.inkscape.org/namespaces/inkscape"
   xmlns:sodipodi="http://sodipodi.sourceforge.net/DTD/sodipodi-0.dtd"
   xmlns="http://www.w3.org/2000/svg"
   xmlns:svg="http://www.w3.org/2000/svg"><defs
   id="defs1" /><sodipodi:namedview
   id="namedview1"
   pagecolor="#505050"
   bordercolor="#eeeeee"
   borderopacity="1"
   inkscape:showpageshadow="0"
   inkscape:pageopacity="0"
   inkscape:pagecheckerboard="0"
   inkscape:deskcolor="#505050"
   inkscape:zoom="10.177688"
   inkscape:cx="5.1092154"
   inkscape:cy="18.471779"
   inkscape:window-width="1472"
   inkscape:window-height="923"
   inkscape:window-x="0"
   inkscape:window-y="33"
   inkscape:window-maximized="0"
   inkscape:current-layer="svg2" />
  
  
  
<path
   d="m 13.399265,5.93738 c -1.90539,0.004 -3.5663,1.04784 -4.44465,2.59471 l -0.0132,0.0252 C 8.584155,8.38023 8.163885,8.2769 7.719045,8.2769 c -1.39061,0 -2.5443,1.01255 -2.76483,2.34015 l -0.003,0.0164 c -1.42022,0.5904 -2.40001,1.96651 -2.40001,3.57198 0,2.13033 1.72707,3.85741 3.8574,3.85741 0.18462,0 0.36546,-0.0126 0.54314,-0.0378 l -0.0202,0.003 h 11.33845 c 1.80143,-0.23187 3.1788,-1.75543 3.1788,-3.60096 0,-0.003 0,-0.005 0,-0.008 v 6.3e-4 -0.007 c -0.001,-1.75291 -1.25072,-3.21346 -2.90786,-3.5411 l -0.0227,-0.004 c -0.1046,-2.74467 -2.35464,-4.93045 -5.11507,-4.93045 -10e-4,0 -0.003,0 -0.004,0 z"
   id="path1-5"
   style="fill:#000000;stroke-width:25" /></svg>
