<?xml version="1.0" encoding="UTF-8" standalone="no"?>
<svg
   width="24"
   height="24"
   viewBox="0 0 24 24"
   fill="none"
   version="1.1"
   id="svg2"
   xml:space="preserve"
   sodipodi:docname="platform-menue-settings-connectors-android-device.svg"
   inkscape:version="1.4.2 (ebf0e940, 2025-05-08)"
   xmlns:inkscape="http://www.inkscape.org/namespaces/inkscape"
   xmlns:sodipodi="http://sodipodi.sourceforge.net/DTD/sodipodi-0.dtd"
   xmlns="http://www.w3.org/2000/svg"
   xmlns:svg="http://www.w3.org/2000/svg"><defs
   id="defs1" /><sodipodi:namedview
   id="namedview1"
   pagecolor="#505050"
   bordercolor="#eeeeee"
   borderopacity="1"
   inkscape:showpageshadow="0"
   inkscape:pageopacity="0"
   inkscape:pagecheckerboard="0"
   inkscape:deskcolor="#505050"
   inkscape:zoom="4.2548077"
   inkscape:cx="-30.553672"
   inkscape:cy="15.981921"
   inkscape:window-width="1472"
   inkscape:window-height="923"
   inkscape:window-x="0"
   inkscape:window-y="33"
   inkscape:window-maximized="0"
   inkscape:current-layer="svg2" />
  
<path
   d="m 19.120435,8.8999563 c -0.292925,0 -0.573865,0.1163592 -0.781015,0.3234981 -0.207151,0.2071271 -0.323475,0.4880435 -0.323475,0.7809686 v 5.005454 c 0,0.292925 0.116324,0.573865 0.323475,0.781016 0.20715,0.20715 0.48809,0.323474 0.781015,0.323474 0.292925,0 0.573865,-0.116324 0.781016,-0.323474 0.20715,-0.207151 0.323474,-0.488091 0.323474,-0.781016 v -5.005454 c 0,-0.2929251 -0.116324,-0.5738415 -0.323474,-0.7809686 C 19.6943,9.0163155 19.41336,8.8999563 19.120435,8.8999563 Z"
   fill="#000000"
   id="path1"
   style="stroke-width:33.3333" /><path
   d="m 4.8795647,8.8999563 c -0.2929249,0 -0.5738648,0.1163592 -0.780992,0.3234981 C 3.8914456,9.4305815 3.7750748,9.7114979 3.7750748,10.004423 v 5.005454 c 0,0.292925 0.1163708,0.573865 0.3234979,0.781016 0.2071272,0.20715 0.4880671,0.323474 0.780992,0.323474 0.2929248,0 0.5738647,-0.116324 0.7809919,-0.323474 0.2071271,-0.207151 0.3234979,-0.488091 0.3234979,-0.781016 v -5.005454 c 0,-0.2929251 -0.1163708,-0.5738415 -0.3234979,-0.7809686 C 5.4534294,9.0163155 5.1724895,8.8999563 4.8795647,8.8999563 Z"
   fill="#000000"
   id="path2"
   style="stroke-width:33.3333" /><path
   d="m 6.7830474,8.8999563 v 7.5199087 c 0,0.165085 0.032512,0.328644 0.095703,0.481158 0.063179,0.152513 0.1557799,0.291162 0.2725269,0.407838 0.1167469,0.116794 0.2553486,0.209384 0.4078856,0.272598 0.1525254,0.0631 0.3160134,0.09564 0.4811229,0.09564 h 0.7989929 v 2.667226 c 0,0.292925 0.1163592,0.573865 0.323498,0.781015 0.2071272,0.207151 0.4880671,0.323475 0.780992,0.323475 0.2929243,0 0.5738643,-0.116324 0.7810153,-0.323475 0.207151,-0.20715 0.323475,-0.48809 0.323475,-0.781015 v -2.667226 h 1.903482 v 2.667226 c 0,0.292925 0.116324,0.573865 0.323475,0.781015 0.20715,0.207151 0.48809,0.323475 0.781015,0.323475 0.292925,0 0.573865,-0.116324 0.781016,-0.323475 0.20715,-0.20715 0.323474,-0.48809 0.323474,-0.781015 v -2.667226 h 0.798993 c 0.333462,0 0.653177,-0.132421 0.888997,-0.368242 0.23582,-0.235703 0.368241,-0.555534 0.368241,-0.888996 V 8.8999563 Z"
   fill="#000000"
   id="path3"
   style="stroke-width:33.3333" /><path
   d="m 17.075954,7.3372205 c -0.3458,-1.1601727 -1.112715,-2.1492083 -2.150231,-2.772975 l -0.176248,-0.105749 -0.187998,-0.093999 0.211498,-0.3642469 0.622744,-1.1749893 c 0.01175,-0.033475 0.01246,-0.069876 0.0019,-0.103763 -0.01057,-0.033875 -0.03184,-0.063426 -0.06063,-0.084235 h -0.08225 c -0.02996,0.00135 -0.05934,0.00944 -0.08577,0.023676 -0.02644,0.014241 -0.04935,0.034263 -0.06697,0.058573 L 14.467504,3.8122524 14.267756,4.176499 14.079758,4.09425 13.88001,4.023751 c -1.217642,-0.4225965 -2.542325,-0.4225965 -3.759966,0 L 9.9320185,4.0942499 9.7322703,4.1764991 9.5325222,3.8122525 8.8980279,2.6372633 c -0.01081,-0.019282 -0.025298,-0.03626 -0.042664,-0.049937 -0.017355,-0.013688 -0.037235,-0.023829 -0.058514,-0.029821 -0.021279,-0.006 -0.043533,-0.00775 -0.065482,-0.00516 -0.021949,0.0026 -0.043181,0.00949 -0.062462,0.020292 -0.019294,0.01081 -0.03626,0.025297 -0.049949,0.042664 -0.013689,0.017355 -0.023817,0.037247 -0.029821,0.058514 -0.00599,0.021279 -0.00775,0.043533 -0.00515,0.065482 0.0026,0.021949 0.00948,0.043181 0.020292,0.062462 L 9.2270249,3.9767511 9.438523,4.3409977 9.2505247,4.4349969 9.0742763,4.540746 C 8.0317906,5.1670739 7.2671076,6.1670605 6.9357959,7.3372205 6.8440878,7.6425532 6.792741,7.9585666 6.7830474,8.277212 H 17.216952 C 17.205438,7.9595888 17.158085,7.644257 17.075954,7.3372205 Z M 9.6500212,6.714476 c -0.092953,0 -0.183827,-0.027565 -0.2611179,-0.079206 C 9.3116126,6.5836292 9.2513709,6.5102277 9.2158039,6.4243479 9.1802252,6.3384677 9.1709193,6.2439633 9.1890494,6.152796 9.2071912,6.0616167 9.2519466,5.9778754 9.3176755,5.9121464 9.3834162,5.8464174 9.4671576,5.8016503 9.5583251,5.7835203 c 0.091167,-0.01813 0.1856953,-0.00882 0.271587,0.026743 0.085892,0.035579 0.1592111,0.09582 0.2109109,0.1731112 0.05158,0.077291 0.07919,0.1681526 0.07919,0.261106 0,0.1246545 -0.04947,0.2441982 -0.1377088,0.3323456 -0.088124,0.088136 -0.2076206,0.13765 -0.332287,0.13765 z m 4.6999578,0 c -0.09294,0 -0.183886,-0.027565 -0.261083,-0.079206 -0.07731,-0.051641 -0.137591,-0.1250423 -0.173194,-0.2109221 -0.03548,-0.08588 -0.04488,-0.1803846 -0.02667,-0.2715519 0.0181,-0.091179 0.06286,-0.1749206 0.128662,-0.2406496 0.06568,-0.065729 0.149458,-0.1104961 0.240637,-0.1286261 0.09118,-0.01813 0.185649,-0.00882 0.27154,0.026743 0.08589,0.035579 0.159211,0.09582 0.210911,0.1731112 0.05158,0.077291 0.07919,0.1681526 0.07919,0.261106 0,0.1246545 -0.04947,0.2441982 -0.137708,0.3323456 -0.08812,0.088136 -0.207621,0.13765 -0.332287,0.13765 z"
   fill="#000000"
   id="path4"
   style="stroke-width:33.3333" /></svg>
