<?xml version="1.0" encoding="UTF-8" standalone="no"?>
<svg
   width="24"
   height="24"
   viewBox="0 0 24 24"
   fill="none"
   version="1.1"
   id="svg2"
   xml:space="preserve"
   sodipodi:docname="platform-menue-settings-connectors-dropbox.svg"
   inkscape:version="1.4.2 (ebf0e940, 2025-05-08)"
   xmlns:inkscape="http://www.inkscape.org/namespaces/inkscape"
   xmlns:sodipodi="http://sodipodi.sourceforge.net/DTD/sodipodi-0.dtd"
   xmlns="http://www.w3.org/2000/svg"
   xmlns:svg="http://www.w3.org/2000/svg"><defs
   id="defs1" /><sodipodi:namedview
   id="namedview1"
   pagecolor="#505050"
   bordercolor="#eeeeee"
   borderopacity="1"
   inkscape:showpageshadow="0"
   inkscape:pageopacity="0"
   inkscape:pagecheckerboard="0"
   inkscape:deskcolor="#505050"
   inkscape:zoom="2.6878695"
   inkscape:cx="5.2085861"
   inkscape:cy="1.4881675"
   inkscape:window-width="1472"
   inkscape:window-height="923"
   inkscape:window-x="0"
   inkscape:window-y="33"
   inkscape:window-maximized="0"
   inkscape:current-layer="1adf468c34277fe2a9aa3ee4b9003fb8" />
  
<g
   id="1adf468c34277fe2a9aa3ee4b9003fb8"
   transform="matrix(0.03698168,0,0,0.03698168,2.5326899,2.4032355)"
   style="fill:#000000;stroke-width:42.2507">

<path
   display="inline"
   d="M 412.522,205.267 511.5,122.788 360.69,26.433001 257.014,113.373 155.67,26.433001 0.50000054,127.507 107.358,208.797 0.50000054,290.099 106.82,353.074 v 0 l 48.851,28.931 101.344,-77.759 101.311,77.759 49.522,-29.716 v 0 L 511.5,290.099 Z M 257.329,117.878 403.7,201.971 255.995,299.85 109.208,207.373 Z m 105.379,278.424 45.14,-27.082 v 24.627 L 255.648,492.568 106.82,393.174 V 369.96 l 44.513,26.375 4.955,2.926 4.573,-3.497 96.153,-73.78 96.12,73.78 4.607,3.52 z"
   id="path1"
   style="fill:#000000;stroke-width:42.2507">

</path>

</g></svg>
