<?xml version="1.0" encoding="UTF-8" standalone="no"?>
<svg
   width="24"
   height="24"
   viewBox="0 0 24 24"
   fill="none"
   stroke="currentColor"
   stroke-width="1.5"
   stroke-linecap="round"
   stroke-linejoin="round"
   version="1.1"
   id="svg3"
   sodipodi:docname="icloud-link.svg"
   inkscape:version="1.4.2 (ebf0e940, 2025-05-08)"
   xmlns:inkscape="http://www.inkscape.org/namespaces/inkscape"
   xmlns:sodipodi="http://sodipodi.sourceforge.net/DTD/sodipodi-0.dtd"
   xmlns="http://www.w3.org/2000/svg"
   xmlns:svg="http://www.w3.org/2000/svg">
  <defs
     id="defs3">
    <clipPath
       id="clip0_710_6227">
      <rect
         width="20"
         height="20"
         fill="#ffffff"
         transform="translate(10,10)"
         id="rect4"
         x="0"
         y="0" />
    </clipPath>
  </defs>
  <sodipodi:namedview
     id="namedview3"
     pagecolor="#505050"
     bordercolor="#eeeeee"
     borderopacity="1"
     inkscape:showpageshadow="0"
     inkscape:pageopacity="0"
     inkscape:pagecheckerboard="0"
     inkscape:deskcolor="#505050"
     inkscape:zoom="4.4341454"
     inkscape:cx="23.679873"
     inkscape:cy="33.715629"
     inkscape:window-width="1472"
     inkscape:window-height="896"
     inkscape:window-x="0"
     inkscape:window-y="32"
     inkscape:window-maximized="0"
     inkscape:current-layer="svg3" />
  <path
     style="display:inline;fill:#000000;stroke:none;stroke-width:1.5625"
     d="m 11.682802,6.2864162 c -0.23497,-1.28091 0.37069,-2.59911 1.10009,-3.48746 0.80385,-0.98019 2.18336,-1.73188 3.36226,-1.81448002 0.19914,1.34294002 -0.34892,2.65140002 -1.07034,3.57692002 -0.77389,0.99428 -2.10446,1.76533 -3.39201,1.72502 z m 6.915,4.6413898 c 0.36478,-1.0177398 1.08745,-1.9334298 2.20858,-2.5512398 -1.13294,-1.41379 -2.72362,-2.23458 -4.2247,-2.23458 -1.98603,0 -2.82576,0.94621 -4.20522,0.94621 -1.42103,0 -2.4990809,-0.94621 -4.2193609,-0.94621 -1.68691,0 -3.48255,1.02817 -4.62135,2.78414 -0.41872,0.64908 -0.70236,1.4554298 -0.85706,2.3535798 -0.42923,2.51951 0.21195,5.80124 2.1246,8.71516 0.92996,1.41395 2.16952,3.00661 3.78887,3.0205 1.4425409,0.0141 1.8517709,-0.92229 3.8046009,-0.93195 1.95573,-0.0111 2.32637,0.94165 3.76693,0.92789 1.61982,-0.0137 2.92767,-1.77624 3.85763,-3.19002 0.66219,-1.01455 0.91259,-1.527 1.4275,-2.67403 -2.61817,-0.98735 -3.69497,-3.87234 -2.85102,-6.21945 z"
     id="path1" />
</svg>
