<?xml version="1.0" encoding="UTF-8" standalone="no"?>
<svg
   viewBox="0 0 24 24"
   version="1.1"
   id="svg1"
   sodipodi:docname="cookies.svg"
   inkscape:version="1.4.2 (ebf0e940, 2025-05-08)"
   xmlns:inkscape="http://www.inkscape.org/namespaces/inkscape"
   xmlns:sodipodi="http://sodipodi.sourceforge.net/DTD/sodipodi-0.dtd"
   xmlns="http://www.w3.org/2000/svg"
   xmlns:svg="http://www.w3.org/2000/svg">
  <defs
     id="defs1" />
  <sodipodi:namedview
     id="namedview1"
     pagecolor="#505050"
     bordercolor="#eeeeee"
     borderopacity="1"
     inkscape:showpageshadow="0"
     inkscape:pageopacity="0"
     inkscape:pagecheckerboard="0"
     inkscape:deskcolor="#505050"
     inkscape:zoom="4.8944525"
     inkscape:cx="-8.7854565"
     inkscape:cy="-10.215647"
     inkscape:window-width="1472"
     inkscape:window-height="923"
     inkscape:window-x="0"
     inkscape:window-y="33"
     inkscape:window-maximized="0"
     inkscape:current-layer="svg1" />
  <path
     id="path3528-5-5"
     style="fill:none;stroke:#000000;stroke-width:1;stroke-linecap:round;stroke-linejoin:bevel;stroke-dasharray:none"
     d="m 15.469354,5.8111281 c -0.195248,-0.1125 -0.516789,-0.0064 -1.181175,0.192051 C 13.421481,6.26254 12.453885,6.1782396 11.608479,5.6909871 10.993442,5.3353571 10.510718,4.7992881 10.21973,4.1633031 10.072365,3.8412051 9.7278469,3.6223371 9.3897356,3.7308991 7.3921634,4.3722541 5.6940958,5.7313891 4.6339628,7.5566028 2.2841418,11.619666 3.6786408,16.8151 7.7486582,19.160907 c 4.0700178,2.345819 9.2743448,0.953703 11.6241668,-3.10936 1.0537,-1.828924 1.38341,-3.976735 0.94094,-6.024436 C 20.238895,9.6805371 19.876776,9.4921328 19.523652,9.5257423 18.826485,9.5921383 18.120173,9.4426513 17.504016,9.0889591 16.658661,8.6017194 16.101708,7.8072649 15.893325,6.9283334 15.73357,6.254514 15.664603,5.9236701 15.469354,5.8111281 Z M 8.8976465,7.6598436 A 2.0422774,2.0387878 0 0 1 9.6451779,10.444886 2.0422774,2.0387878 0 0 1 6.8553692,11.191126 2.0422774,2.0387878 0 0 1 6.1078508,8.4060977 2.0422774,2.0387878 0 0 1 8.8976465,7.6598436 Z m 8.2537725,4.7571754 a 2.0422774,2.0387878 0 0 1 0.747531,2.785045 2.0422774,2.0387878 0 0 1 -2.789808,0.746239 2.0422774,2.0387878 0 0 1 -0.747519,-2.785027 2.0422774,2.0387878 0 0 1 2.789796,-0.746257 z m -6.509532,1.741237 a 2.0422774,2.0387878 0 0 1 0.747518,2.78504 2.0422774,2.0387878 0 0 1 -2.7897958,0.746242 2.0422774,2.0387878 0 0 1 -0.7475315,-2.785028 2.0422774,2.0387878 0 0 1 2.7898093,-0.746254 z" />
</svg>
