<?xml version="1.0" encoding="UTF-8" standalone="no"?>
<svg
   width="24"
   height="24"
   viewBox="0 0 24 24"
   fill="none"
   version="1.1"
   id="svg1"
   sodipodi:docname="invoice.svg"
   inkscape:version="1.4.2 (ebf0e940, 2025-05-08)"
   xmlns:inkscape="http://www.inkscape.org/namespaces/inkscape"
   xmlns:sodipodi="http://sodipodi.sourceforge.net/DTD/sodipodi-0.dtd"
   xmlns="http://www.w3.org/2000/svg"
   xmlns:svg="http://www.w3.org/2000/svg">
  <defs
     id="defs1">
    <inkscape:path-effect
       effect="fillet_chamfer"
       id="path-effect1"
       is_visible="true"
       lpeversion="1"
       nodesatellites_param="F,0,0,1,0,4,0,1 @ F,0,0,1,0,4,0,1 @ F,0,0,1,0,1,0,1 @ F,0,0,1,0,1,0,1 @ F,0,0,1,0,1,0,1 @ F,0,0,1,0,1,0,1 @ F,0,0,1,0,1,0,1"
       radius="0"
       unit="px"
       method="auto"
       mode="F"
       chamfer_steps="1"
       flexible="false"
       use_knot_distance="true"
       apply_no_radius="true"
       apply_with_radius="true"
       only_selected="false"
       hide_knots="false" />
  </defs>
  <sodipodi:namedview
     id="namedview1"
     pagecolor="#505050"
     bordercolor="#eeeeee"
     borderopacity="1"
     inkscape:showpageshadow="0"
     inkscape:pageopacity="0"
     inkscape:pagecheckerboard="0"
     inkscape:deskcolor="#505050"
     inkscape:zoom="10.183401"
     inkscape:cx="2.8477715"
     inkscape:cy="11.292887"
     inkscape:window-width="1472"
     inkscape:window-height="923"
     inkscape:window-x="0"
     inkscape:window-y="33"
     inkscape:window-maximized="0"
     inkscape:current-layer="svg1" />
  <path
     id="rect1"
     style="stroke:#000000;stroke-width:0.983879;stroke-linecap:round;stroke-linejoin:round;stroke-miterlimit:83.9;paint-order:markers fill stroke"
     d="m 6.5186305,3.2594042 h 4.2283465 a 4,4 45 0 1 4,4 l 0,12.8976388 a 0.55642814,0.55642814 150.90721 0 1 -0.84976,0.47283 L 12.53965,19.787674 a 1.6119292,1.6119292 180 0 0 -1.69952,0 l -1.3575662,0.842199 a 1.6119291,1.6119291 180 0 1 -1.6995202,0 L 6.4254772,19.787674 a 1.6119292,1.6119292 0 0 0 -1.6995202,0 L 3.3683906,20.629873 A 0.5564281,0.5564281 29.092792 0 1 2.5186305,20.157043 V 7.2594042 a 4,4 135 0 1 4,-4 z"
     sodipodi:nodetypes="cccccccc"
     inkscape:path-effect="#path-effect1"
     inkscape:original-d="M 2.5186305,3.2594042 H 14.746977 V 21.157043 L 11.68989,19.260504 8.6328037,21.157043 5.5757171,19.260504 2.5186305,21.157043 Z"
     transform="matrix(1.0165336,0,0,1.0162375,3.2244649,-0.26143216)" />
  <g
     id="g2"
     transform="matrix(-0.610903,0.610903,-0.610903,-0.610903,22.845865,33.752883)"
     style="stroke-width:1.15748">
    <path
       style="fill:none;stroke:#000000;stroke-width:1.15748;stroke-linecap:round;stroke-linejoin:round;stroke-miterlimit:83.9;paint-order:markers fill stroke"
       d="m -15.041034,26.680789 h 12.22814"
       id="path1" />
    <circle
       style="fill:none;stroke:#000000;stroke-width:1.15748;stroke-linecap:round;stroke-linejoin:round;stroke-miterlimit:83.9;paint-order:markers fill stroke"
       id="path2"
       cx="-8.9269638"
       cy="22.512457"
       r="1.9458405" />
    <circle
       style="fill:none;stroke:#000000;stroke-width:1.15748;stroke-linecap:round;stroke-linejoin:round;stroke-miterlimit:83.9;paint-order:markers fill stroke"
       id="path2-9"
       cx="-8.9269638"
       cy="30.849121"
       r="1.9458405" />
  </g>
</svg>
