<?xml version="1.0" encoding="UTF-8" standalone="no"?>
<svg
   width="24"
   height="24"
   viewBox="0 0 24 24"
   fill="none"
   version="1.1"
   id="svg2"
   sodipodi:docname="platform-menue-workspace-current-interaction.svg"
   inkscape:version="1.4.2 (ebf0e940, 2025-05-08)"
   xml:space="preserve"
   xmlns:inkscape="http://www.inkscape.org/namespaces/inkscape"
   xmlns:sodipodi="http://sodipodi.sourceforge.net/DTD/sodipodi-0.dtd"
   xmlns="http://www.w3.org/2000/svg"
   xmlns:svg="http://www.w3.org/2000/svg"><defs
     id="defs2"><inkscape:path-effect
       effect="fillet_chamfer"
       id="path-effect2"
       is_visible="true"
       lpeversion="1"
       nodesatellites_param="F,0,0,1,0,0,0,1 @ F,0,0,1,0,0.5,0,1 @ F,0,0,1,0,0,0,1"
       radius="0"
       unit="px"
       method="auto"
       mode="F"
       chamfer_steps="1"
       flexible="false"
       use_knot_distance="true"
       apply_no_radius="true"
       apply_with_radius="true"
       only_selected="false"
       hide_knots="false" /><inkscape:path-effect
       effect="fillet_chamfer"
       id="path-effect1"
       is_visible="true"
       lpeversion="1"
       nodesatellites_param="F,0,0,1,0,1,0,1 @ F,0,0,1,0,1,0,1 @ F,0,0,1,0,1,0,1 @ F,0,0,1,0,1,0,1 @ F,0,0,1,0,1,0,1 @ F,0,0,1,0,1,0,1 @ F,0,0,1,0,0,0,1 @ F,0,0,1,0,1,0,1 @ F,0,0,1,0,1,0,1 @ F,0,0,1,0,1,0,1 @ F,0,0,1,0,1,0,1 @ F,0,0,1,0,1,0,1 @ F,0,0,1,0,1,0,1 @ F,0,0,1,0,1,0,1 @ F,0,0,1,0,1,0,1 @ F,0,0,1,0,1,0,1 @ F,0,0,1,0,1,0,1 @ F,0,0,1,0,1,0,1 @ F,0,0,1,0,1,0,1 @ F,0,0,1,0,0,0,1 @ F,0,0,1,0,1,0,1 @ F,0,0,1,0,1,0,1 @ F,0,0,1,0,1,0,1 @ F,0,0,1,0,1,0,1 @ F,0,0,1,0,1,0,1 @ F,0,0,1,0,1,0,1"
       radius="0"
       unit="px"
       method="auto"
       mode="F"
       chamfer_steps="1"
       flexible="false"
       use_knot_distance="true"
       apply_no_radius="true"
       apply_with_radius="true"
       only_selected="false"
       hide_knots="false" /><inkscape:path-effect
       effect="fillet_chamfer"
       id="path-effect2-5"
       is_visible="true"
       lpeversion="1"
       nodesatellites_param="F,0,0,1,0,0,0,1 @ F,0,0,1,0,0.5,0,1 @ F,0,0,1,0,0,0,1"
       radius="0"
       unit="px"
       method="auto"
       mode="F"
       chamfer_steps="1"
       flexible="false"
       use_knot_distance="true"
       apply_no_radius="true"
       apply_with_radius="true"
       only_selected="false"
       hide_knots="false" /></defs><sodipodi:namedview
     id="namedview2"
     pagecolor="#505050"
     bordercolor="#eeeeee"
     borderopacity="1"
     inkscape:showpageshadow="0"
     inkscape:pageopacity="0"
     inkscape:pagecheckerboard="0"
     inkscape:deskcolor="#505050"
     inkscape:zoom="9.6474775"
     inkscape:cx="-2.0730808"
     inkscape:cy="8.9660743"
     inkscape:window-width="1472"
     inkscape:window-height="868"
     inkscape:window-x="0"
     inkscape:window-y="32"
     inkscape:window-maximized="0"
     inkscape:current-layer="svg2"
     showguides="false" /><g
     id="g2"
     transform="matrix(0.61570224,0.61528387,-0.61905947,0.61863881,11.544132,-3.30289)"
     style="stroke-width:1.14573"><path
       id="path1"
       style="stroke:#000000;stroke-width:1.14572;stroke-linecap:round;stroke-linejoin:round;stroke-miterlimit:83.9;paint-order:markers fill stroke"
       d="m 19.133607,5.6722279 c 0.809708,0.8097091 1.464971,1.7738649 1.917805,2.8444871 0.452835,1.0706222 0.703243,2.247711 0.703243,3.483285 0,1.235574 -0.250408,2.412663 -0.703243,3.483285 -0.452834,1.070622 -1.108097,2.034778 -1.917805,2.844487 m -12.6555421,0 C 5.668356,17.518063 5.0130939,16.553907 4.560259,15.483285 4.1074241,14.412663 3.8570164,13.235574 3.8570164,12 c 0,-1.235574 0.2504077,-2.4126629 0.7032425,-3.483285 C 5.0130938,7.4460928 5.668356,6.481937 6.4780648,5.6722279"
       sodipodi:nodetypes="csssccsssc" /><path
       id="rect1"
       style="stroke:#000000;stroke-width:1.14573;stroke-linecap:round;stroke-linejoin:round;stroke-miterlimit:83.9;paint-order:markers fill stroke"
       d="m 12.805836,-0.2796129 c 1.607472,0 2.901574,1.2941023 2.901574,2.901575 0,1.6074727 -1.294102,2.9015747 -2.901574,2.9015747 -1.607473,0 -2.9015751,-1.294102 -2.9015751,-2.9015747 0,-1.6074727 1.2941021,-2.901575 2.9015751,-2.901575 z" /><path
       id="rect1-1"
       style="stroke:#000000;stroke-width:1.14573;stroke-linecap:round;stroke-linejoin:round;stroke-miterlimit:83.9;paint-order:markers fill stroke"
       d="m 12.805836,24.279613 c -1.607472,0 -2.9015742,-1.294102 -2.9015742,-2.901575 0,-1.607473 1.2941022,-2.901575 2.9015742,-2.901575 1.607473,0 2.901575,1.294102 2.901575,2.901575 0,1.607473 -1.294102,2.901575 -2.901575,2.901575 z" /><path
       style="fill:none;stroke:#000000;stroke-width:1.14572;stroke-linecap:round;stroke-linejoin:round;stroke-miterlimit:83.9;paint-order:markers fill stroke"
       d="m 3.4448146,-2.4204637 1.026174,-0.9651711 a 0.53160215,0.53160215 180 0 1 0.7284266,0 l 1.0261741,0.9651711"
       id="path2"
       sodipodi:nodetypes="ccc"
       inkscape:path-effect="#path-effect2"
       inkscape:original-d="m 3.4448146,-2.4204637 1.3903873,-1.307733 1.3903874,1.307733"
       transform="rotate(35,-7.704802,4.0690682)" /><path
       style="fill:none;stroke:#000000;stroke-width:1.14572;stroke-linecap:round;stroke-linejoin:round;stroke-miterlimit:83.9;paint-order:markers fill stroke"
       d="m 3.4448146,-2.4204637 1.026174,-0.9651711 a 0.53160215,0.53160215 180 0 1 0.7284266,0 l 1.0261741,0.9651711"
       id="path2-5"
       sodipodi:nodetypes="ccc"
       inkscape:path-effect="#path-effect2-5"
       inkscape:original-d="m 3.4448146,-2.4204637 1.3903873,-1.307733 1.3903874,1.307733"
       transform="rotate(-145,15.306449,5.5330208)" /></g></svg>
