<?xml version="1.0" encoding="UTF-8" standalone="no"?>
<!-- Created with Inkscape (http://www.inkscape.org/) -->

<svg
   width="6mm"
   height="6mm"
   viewBox="0 0 6 5.9999999"
   version="1.1"
   id="svg1"
   inkscape:version="1.4.2 (ebf0e940, 2025-05-08)"
   sodipodi:docname="experience.svg"
   xmlns:inkscape="http://www.inkscape.org/namespaces/inkscape"
   xmlns:sodipodi="http://sodipodi.sourceforge.net/DTD/sodipodi-0.dtd"
   xmlns="http://www.w3.org/2000/svg"
   xmlns:svg="http://www.w3.org/2000/svg">
  <sodipodi:namedview
     id="namedview1"
     pagecolor="#505050"
     bordercolor="#eeeeee"
     borderopacity="1"
     inkscape:showpageshadow="0"
     inkscape:pageopacity="0"
     inkscape:pagecheckerboard="0"
     inkscape:deskcolor="#505050"
     inkscape:document-units="mm"
     inkscape:zoom="6.3278461"
     inkscape:cx="28.60373"
     inkscape:cy="10.588121"
     inkscape:window-width="1472"
     inkscape:window-height="867"
     inkscape:window-x="0"
     inkscape:window-y="33"
     inkscape:window-maximized="0"
     inkscape:current-layer="svg1">
    <inkscape:page
       x="0"
       y="0"
       width="6"
       height="5.9999995"
       id="page1"
       margin="0"
       bleed="0" />
  </sodipodi:namedview>
  <defs
     id="defs1">
    <inkscape:path-effect
       effect="fillet_chamfer"
       id="path-effect3530-0"
       is_visible="true"
       lpeversion="1"
       nodesatellites_param="F,0,0,1,0,2,0,1 @ F,0,0,1,0,0,0,1 @ F,0,0,1,0,0.5,0,1 @ F,0,0,1,0,0,0,1 @ F,0,0,1,0,0,0,1 @ F,0,0,1,0,0,0,1 @ F,0,0,1,0,0.5,0,1 @ F,0,0,1,0,0,0,1"
       radius="0"
       unit="px"
       method="auto"
       mode="F"
       chamfer_steps="1"
       flexible="false"
       use_knot_distance="true"
       apply_no_radius="true"
       apply_with_radius="true"
       only_selected="false"
       hide_knots="false" />
  </defs>
  <path
     id="path4-0"
     style="fill:none;stroke:#000000;stroke-width:0.264583;stroke-dasharray:none"
     d="M 2.8633063,0.73089825 C 2.6655693,1.1029283 2.4712543,1.4765583 2.2771113,1.8502583 c -0.07212,0.138804 -0.262001,0.269493 -0.424068,0.291893 -0.382898,0.05294 -0.88938701,0.123061 -1.34402901,0.186193 -0.162035,0.02241 -0.19837205,0.128184 -0.08122,0.236195 0.96725301,0.891823 -0.16158505,-0.143099 0.96700201,0.892386 0.117447,0.107772 0.190385,0.318608 0.162775,0.47099 -0.0764,0.421663 -0.15336,0.843215 -0.230054,1.264835 -0.02771,0.152358 0.06723,0.217304 0.211992,0.144967 0.399499,-0.199614 0.798886,-0.399523 1.198277,-0.599289 0.144713,-0.07239 0.378908,-0.07143 0.523372,0.0014 0.463068,0.233501 0.854548,0.424867 1.19996,0.596842 0.144845,0.07212 0.240315,0.0077 0.213022,-0.14478 -0.08658,-0.48406 -0.01349,-0.03938 -0.232513,-1.265005 -0.02721,-0.152412 0.04586,-0.363443 0.163093,-0.47142 0.322424,-0.297009 0.644701,-0.594108 0.967319,-0.890926 0.117288,-0.107905 0.08111,-0.213676 -0.08093,-0.236196 -0.539584,-0.07503 -1.02407,-0.143446 -1.346486,-0.188487 -0.161321,-0.02268 -0.349696,-0.153586 -0.421291,-0.292624 -0.333707,-0.648092 -0.009,0.0099 -0.59616,-1.11575305 -0.109407,-0.209699 -0.248804,-0.02892 -0.263905,-5.15e-4 z"
     sodipodi:nodetypes="cccccccccsccscsccccsc"
     inkscape:label="experience" />
</svg>
