<?xml version="1.0" encoding="UTF-8" standalone="no"?>
<svg
   width="24"
   height="24"
   viewBox="0 0 24 24"
   fill="none"
   version="1.1"
   id="svg1"
   sodipodi:docname="route.svg"
   xml:space="preserve"
   inkscape:version="1.4.2 (ebf0e940, 2025-05-08)"
   xmlns:inkscape="http://www.inkscape.org/namespaces/inkscape"
   xmlns:sodipodi="http://sodipodi.sourceforge.net/DTD/sodipodi-0.dtd"
   xmlns="http://www.w3.org/2000/svg"
   xmlns:svg="http://www.w3.org/2000/svg"><defs
     id="defs1"><inkscape:path-effect
       effect="fillet_chamfer"
       id="path-effect2"
       is_visible="true"
       lpeversion="1"
       nodesatellites_param="F,0,0,1,0,0,0,1 @ F,0,0,1,0,5,0,1 @ F,0,0,1,0,0,0,1"
       radius="0"
       unit="px"
       method="auto"
       mode="F"
       chamfer_steps="1"
       flexible="false"
       use_knot_distance="true"
       apply_no_radius="true"
       apply_with_radius="true"
       only_selected="false"
       hide_knots="false" /></defs><sodipodi:namedview
     id="namedview1"
     pagecolor="#505050"
     bordercolor="#eeeeee"
     borderopacity="1"
     inkscape:showpageshadow="0"
     inkscape:pageopacity="0"
     inkscape:pagecheckerboard="0"
     inkscape:deskcolor="#505050"
     inkscape:zoom="9.2219047"
     inkscape:cx="-1.843437"
     inkscape:cy="3.5242177"
     inkscape:window-width="1472"
     inkscape:window-height="868"
     inkscape:window-x="0"
     inkscape:window-y="32"
     inkscape:window-maximized="0"
     inkscape:current-layer="svg1" /><path
     id="path1"
     style="stroke:#000000;stroke-width:0.999996;stroke-linecap:round;stroke-linejoin:round;stroke-miterlimit:83.9;paint-order:markers fill stroke"
     d="m 4.7307497,17.113552 c 0.7059985,1.008322 1.5829199,1.825826 2.5641953,2.440775 0.9812739,0.614949 2.0669017,1.027342 3.190314,1.225439 1.123412,0.198098 2.284609,0.181901 3.417019,-0.06033 1.132411,-0.24223 2.236036,-0.710493 3.244307,-1.416528 1.00827,-0.706034 1.825733,-1.583 2.440651,-2.564326 0.614917,-0.981325 1.027289,-2.067008 1.225376,-3.190478 0.198088,-1.12347 0.181893,-2.284725 -0.06033,-3.417194 C 20.51007,8.9984429 20.041831,7.8947612 19.335832,6.8864393 M 16.771637,4.4456639 C 16.281,4.1381895 15.764274,3.8813541 15.229781,3.6766254 14.695288,3.4718966 14.143029,3.3192744 13.581322,3.2202248 13.019616,3.1211763 12.448464,3.0757005 11.876187,3.0852669 11.30391,3.0948321 10.730508,3.1594384 10.164303,3.2805533 9.5980979,3.4016691 9.0390885,3.5792924 8.4955974,3.8148908 7.9521075,4.0504931 7.4241317,4.3440642 6.9199965,4.6970815 6.4158613,5.0500988 5.9594268,5.4458468 5.5521636,5.8760109 5.1448978,6.306169 4.7868048,6.7707453 4.4793461,7.2614081 4.1718868,7.7520699 3.9150648,8.2688223 3.7103467,8.8033428 c -0.204718,0.5345205 -0.357333,1.086808 -0.4563778,1.6485432 -0.099043,0.561735 -0.1445168,1.132916 -0.1349511,1.705221 0.00956,0.572307 0.074168,1.145738 0.1952773,1.711972"
     sodipodi:nodetypes="csssssssccsssssssssssc" /><path
     style="fill:none;stroke:#000000;stroke-width:0.999999;stroke-linecap:round;stroke-linejoin:round;stroke-miterlimit:83.9;paint-order:markers fill stroke"
     d="M 20.002348,5.3415926 17.141494,8.600294 A 25.866943,25.868267 0.0214359 0 1 7.0916707,15.637616 l -4.0404909,1.57392"
     id="path2"
     sodipodi:nodetypes="ccc" /></svg>
