<?xml version="1.0" encoding="UTF-8" standalone="no"?>
<!-- Created with Inkscape (http://www.inkscape.org/) -->

<svg
   width="111.00016mm"
   height="142.71449mm"
   viewBox="0 0 111.00016 142.71449"
   version="1.1"
   id="svg1"
   inkscape:version="1.4.2 (ebf0e940, 2025-05-08)"
   sodipodi:docname="mic.svg"
   xmlns:inkscape="http://www.inkscape.org/namespaces/inkscape"
   xmlns:sodipodi="http://sodipodi.sourceforge.net/DTD/sodipodi-0.dtd"
   xmlns="http://www.w3.org/2000/svg"
   xmlns:svg="http://www.w3.org/2000/svg">
  <sodipodi:namedview
     id="namedview1"
     pagecolor="#505050"
     bordercolor="#eeeeee"
     borderopacity="1"
     inkscape:showpageshadow="0"
     inkscape:pageopacity="0"
     inkscape:pagecheckerboard="0"
     inkscape:deskcolor="#505050"
     inkscape:document-units="mm"
     inkscape:zoom="0.14142656"
     inkscape:cx="-243.94287"
     inkscape:cy="982.84228"
     inkscape:window-width="1472"
     inkscape:window-height="895"
     inkscape:window-x="0"
     inkscape:window-y="61"
     inkscape:window-maximized="0"
     inkscape:current-layer="svg1">
    <inkscape:page
       x="0"
       y="0"
       width="111.00016"
       height="142.71449"
       id="page2"
       margin="0"
       bleed="0" />
  </sodipodi:namedview>
  <defs
     id="defs1" />
  <path
     id="path6-37"
     d="m 1162.5667,479.9845 v 0 c 133.3274,0 241.3562,-108.12161 241.3562,-241.44893 v -353.31274 c 0,-133.32731 -108.0288,-241.35615 -241.3562,-241.35615 v 0 c -133.389,0 -241.41791,108.02884 -241.41791,241.35615 v 353.31274 c 0,133.32732 108.02891,241.44893 241.41791,241.44893"
     style="stroke-width:0.418483;fill:#000000;fill-opacity:1;fill-rule:nonzero;stroke:none"
     transform="matrix(0.08429926,0,0,0.08429926,-42.499529,49.693719)" />
  <path
     id="path7-90"
     d="m 1554.8479,252.88581 c 0,-24.43252 -19.7935,-44.2878 -44.2569,-44.2878 -24.4325,0 -44.2878,19.79342 -44.2878,44.2878 0,167.50191 -136.3273,303.82916 -303.7365,303.82916 -167.50181,0 -303.82907,-136.32725 -303.82907,-303.82916 0,-24.43252 -19.79343,-44.2878 -44.25688,-44.2878 -24.43251,0 -44.2878,19.79342 -44.2878,44.2878 0,201.39816 152.5022,367.75576 348.02425,389.83781 v 138.83236 h -101.5341 c -24.43259,0 -44.28788,19.79343 -44.28788,44.28781 0,24.43251 19.79343,44.25687 44.28788,44.25687 h 291.7056 c 24.4325,0 44.3496,-19.79344 44.3496,-44.25687 0,-24.43252 -19.7934,-44.28781 -44.3496,-44.28781 H 1206.8546 V 642.72362 c 195.491,-21.95834 347.9933,-188.43965 347.9933,-389.83781"
     style="stroke-width:0.418483;fill:#000000;fill-opacity:1;fill-rule:nonzero;stroke:none"
     transform="matrix(0.08429926,0,0,0.08429926,-42.499529,49.693719)" />
</svg>
