<?xml version="1.0" encoding="UTF-8" standalone="no"?>
<!-- Created with Inkscape (http://www.inkscape.org/) -->

<svg
   width="79.564995mm"
   height="84.111565mm"
   viewBox="0 0 79.564995 84.111565"
   version="1.1"
   id="svg1"
   inkscape:version="1.4.2 (ebf0e940, 2025-05-08)"
   sodipodi:docname="search.svg"
   xmlns:inkscape="http://www.inkscape.org/namespaces/inkscape"
   xmlns:sodipodi="http://sodipodi.sourceforge.net/DTD/sodipodi-0.dtd"
   xmlns="http://www.w3.org/2000/svg"
   xmlns:svg="http://www.w3.org/2000/svg">
  <sodipodi:namedview
     id="namedview1"
     pagecolor="#505050"
     bordercolor="#eeeeee"
     borderopacity="1"
     inkscape:showpageshadow="0"
     inkscape:pageopacity="0"
     inkscape:pagecheckerboard="0"
     inkscape:deskcolor="#505050"
     inkscape:document-units="mm"
     inkscape:zoom="0.39228989"
     inkscape:cx="225.59847"
     inkscape:cy="400.21424"
     inkscape:window-width="1472"
     inkscape:window-height="895"
     inkscape:window-x="0"
     inkscape:window-y="61"
     inkscape:window-maximized="0"
     inkscape:current-layer="svg1">
    <inkscape:page
       x="0"
       y="0"
       width="79.564995"
       height="84.111565"
       id="page2"
       margin="0"
       bleed="0" />
  </sodipodi:namedview>
  <defs
     id="defs1" />
  <path
     id="path5-27"
     d="m 42.911078,-83.431691 c 0,-11.18393 9.097786,-20.282559 20.280211,-20.282559 11.18243,0 20.280216,9.098629 20.280216,20.282559 0,11.182262 -9.097786,20.275878 -20.280216,20.275878 -11.182425,0 -20.280211,-9.093616 -20.280211,-20.275878 z m 58.523612,33.538443 -17.009449,-17.009449 c 3.564211,-4.567661 5.69523,-10.29976 5.69523,-16.528994 0,-14.852405 -12.08078,-26.930519 -26.929182,-26.930519 -14.848898,0 -26.92901,12.078114 -26.92901,26.930519 0,14.845731 12.080112,26.928847 26.92901,26.928847 6.228234,0 11.965338,-2.13202 16.532331,-5.697064 l 17.009282,17.011116 c 0.648948,0.650617 1.499753,0.967583 2.350561,0.967583 0.850805,0 1.702117,-0.316966 2.351227,-0.967583 1.2979,-1.301232 1.2979,-3.403224 0,-4.704456"
     style="fill:#000000;fill-opacity:1;fill-rule:nonzero;stroke:none;stroke-width:0.0352776"
     inkscape:label="search-icon"
     transform="translate(-29.552699,119.34749)" />
</svg>
