<?xml version="1.0" encoding="UTF-8" standalone="no"?>
<svg
   width="24"
   height="24"
   viewBox="0 0 24 24"
   fill="none"
   version="1.1"
   id="svg3"
   sodipodi:docname="reflection.svg"
   inkscape:version="1.4.2 (ebf0e940, 2025-05-08)"
   xmlns:inkscape="http://www.inkscape.org/namespaces/inkscape"
   xmlns:sodipodi="http://sodipodi.sourceforge.net/DTD/sodipodi-0.dtd"
   xmlns="http://www.w3.org/2000/svg"
   xmlns:svg="http://www.w3.org/2000/svg">
  <defs
     id="defs3" />
  <sodipodi:namedview
     id="namedview3"
     pagecolor="#505050"
     bordercolor="#eeeeee"
     borderopacity="1"
     inkscape:showpageshadow="0"
     inkscape:pageopacity="0"
     inkscape:pagecheckerboard="0"
     inkscape:deskcolor="#505050"
     inkscape:zoom="4.1624952"
     inkscape:cx="-3.723728"
     inkscape:cy="40.720767"
     inkscape:window-width="1472"
     inkscape:window-height="868"
     inkscape:window-x="0"
     inkscape:window-y="32"
     inkscape:window-maximized="0"
     inkscape:current-layer="svg3" />
  <path
     id="path1-8-1-50-1-1"
     d="M 4.1087849,4.7341234 C 3.5552378,4.2696422 2.7299622,4.341844 2.2654807,4.8953915 1.8009991,5.448939 1.8732017,6.2742145 2.4267488,6.7386957 2.9802962,7.2031772 3.8055714,7.1309751 4.2700529,6.5774276 4.7345345,6.0238801 4.6623323,5.198605 4.1087849,4.7341234 Z m 8.5758251,9e-7 c -0.553547,0.4644813 -0.62575,1.2897565 -0.161269,1.8433042 0.464482,0.5535472 1.289757,0.6257494 1.843305,0.1612684 0.553547,-0.4644814 0.625749,-1.289757 0.161268,-1.8433042 C 14.063433,4.3418455 13.238157,4.2696429 12.68461,4.7341243 Z m 5.837391,2e-7 C 17.968454,4.2696433 17.143178,4.3418455 16.678697,4.8953925 16.214215,5.44894 16.286418,6.2742155 16.839965,6.7386967 17.393512,7.2031783 18.218787,7.1309761 18.683269,6.5774286 19.14775,6.0238816 19.075548,5.198606 18.522001,4.7341245 Z M 5.4780016,9.5354546 C 4.924454,9.9999356 4.8522517,10.825211 5.3167332,11.378759 5.7812146,11.932306 6.6064897,12.004508 7.160037,11.540027 7.713585,11.075545 7.7857872,10.25027 7.3213054,9.6967226 6.8568244,9.143175 6.0315489,9.0709732 5.4780016,9.5354546 Z m 5.8373914,2e-7 C 10.761845,9.0709732 9.93657,9.1431754 9.4720885,9.6967228 9.0076069,10.25027 9.0798091,11.075545 9.6333565,11.540027 10.186904,12.004509 11.012179,11.932306 11.476661,11.378759 11.941142,10.825211 11.86894,9.9999363 11.315393,9.5354548 Z m 8.575823,-3e-7 c -0.553546,0.4644821 -0.625748,1.2897585 -0.161268,1.8433045 0.464481,0.553547 1.28976,0.625752 1.843306,0.16127 0.553547,-0.464482 0.625749,-1.289758 0.161268,-1.8433046 C 21.270042,9.143178 20.444763,9.0709724 19.891216,9.5354545 Z M 4.1087844,14.336785 c -0.5535475,-0.464482 -1.3788226,-0.392279 -1.8433041,0.161268 -0.4644816,0.553548 -0.3922795,1.378823 0.161268,1.843304 0.5535471,0.464481 1.3788226,0.39228 1.8433042,-0.161268 0.4644816,-0.553547 0.392279,-1.378823 -0.1612681,-1.843304 z m 8.5758246,10e-7 c -0.553547,0.464481 -0.625749,1.289756 -0.161268,1.843304 0.464481,0.553547 1.289758,0.625751 1.843304,0.161269 0.553547,-0.464483 0.62575,-1.289758 0.161268,-1.843305 -0.464481,-0.553547 -1.289757,-0.62575 -1.843304,-0.161268 z m 5.837392,10e-7 c -0.553547,-0.464481 -1.378822,-0.39228 -1.843304,0.161268 -0.464481,0.553547 -0.392279,1.378823 0.161268,1.843304 0.553547,0.464481 1.378823,0.39228 1.843304,-0.161268 0.464482,-0.553547 0.392279,-1.378823 -0.161268,-1.843304 z M 5.4780008,19.138116 C 4.9244536,19.602597 4.8522513,20.427872 5.3167323,20.98142 5.7812137,21.534967 6.6064889,21.607169 7.1600365,21.142688 7.7135841,20.678207 7.7857864,19.852931 7.321305,19.299384 6.856824,18.745837 6.031548,18.673634 5.4780008,19.138116 Z m 5.8373912,0 c -0.553547,-0.464481 -1.3788228,-0.392279 -1.8433044,0.161268 -0.4644816,0.553548 -0.392279,1.378823 0.1612681,1.843304 0.5535473,0.464482 1.3788233,0.39228 1.8433043,-0.161267 0.464482,-0.553548 0.392279,-1.378823 -0.161268,-1.843305 z m 8.575826,2e-6 c -0.553547,0.464482 -0.625753,1.289754 -0.161268,1.843304 0.46448,0.553547 1.289755,0.625749 1.843301,0.161266 0.553547,-0.464482 0.625753,-1.289754 0.161268,-1.843304 -0.46448,-0.553547 -1.289755,-0.625749 -1.843301,-0.161266 z"
     style="fill:#ffffff;stroke-width:7.55907;stroke-linecap:round;stroke-linejoin:round" />
  <path
     id="path1-8-1-5-2-7"
     d="M 5.9354889,5.8564886 C 5.7707254,6.3091728 6.0041313,6.8097132 6.4568154,6.9744767 6.9094996,7.1392403 7.41004,6.9058344 7.5748035,6.4531502 7.7395671,6.0004661 7.5061612,5.4999257 7.053477,5.3351621 6.6007929,5.1703986 6.1002525,5.4038045 5.9354889,5.8564886 Z m 4.9224081,-10e-8 C 10.693134,5.4038042 10.192594,5.1703985 9.7399094,5.3351617 9.2872252,5.4999255 9.0538195,6.0004656 9.2185827,6.4531497 9.3833465,6.905834 9.8838866,7.1392397 10.336571,6.9744764 10.789254,6.8097123 11.022662,6.3091729 10.857897,5.8564885 Z m 9.490808,-9e-7 c -0.164764,0.4526847 0.06864,0.953224 0.521326,1.1179881 0.452686,0.1647642 0.953224,-0.068642 1.117988,-0.5213265 C 22.152783,6.0004651 21.919378,5.4999253 21.466693,5.3351611 21.014007,5.170397 20.513468,5.4038035 20.348705,5.8564876 Z M 3.6512904,10.657819 C 3.4865266,10.205135 2.9859865,9.9717292 2.5333024,10.136492 c -0.4526842,0.164764 -0.6860901,0.665305 -0.5213269,1.117989 0.1647638,0.452684 0.6653041,0.686089 1.1179882,0.521326 0.4526842,-0.164764 0.68609,-0.665304 0.5213267,-1.117988 z m 9.4908086,0 c -0.164764,0.452684 0.06864,0.953224 0.521326,1.117988 0.45268,0.164762 0.953225,-0.06864 1.117988,-0.521327 0.164764,-0.452684 -0.06865,-0.953226 -0.521326,-1.117988 -0.452686,-0.1647639 -0.953225,0.06864 -1.117988,0.521327 z m 4.922405,-10e-7 c -0.164762,-0.452684 -0.665306,-0.6860912 -1.117989,-0.521327 -0.452683,0.164764 -0.686086,0.665305 -0.521323,1.117989 0.164762,0.452684 0.6653,0.686089 1.117989,0.521327 0.452683,-0.164764 0.686086,-0.665306 0.521323,-1.117989 z M 5.9354899,15.459149 c -0.1647636,0.452684 0.068642,0.953224 0.5213265,1.117988 0.4526842,0.164764 0.9532218,-0.06864 1.1179854,-0.521327 0.1647636,-0.452685 -0.06864,-0.953224 -0.5213239,-1.117987 -0.4526847,-0.164764 -0.9532244,0.06864 -1.117988,0.521326 z m 4.9224081,0 c -0.164762,-0.452684 -0.665306,-0.686091 -1.1179888,-0.521327 -0.4526832,0.164764 -0.6860911,0.665304 -0.5213235,1.117989 0.1647622,0.452684 0.6653007,0.686089 1.1179843,0.521325 0.452688,-0.164762 0.686091,-0.665304 0.521328,-1.117987 z m 9.490805,-10e-7 c -0.164763,0.452684 0.06864,0.953224 0.521327,1.117988 0.452686,0.164764 0.953224,-0.06864 1.117988,-0.521327 0.164763,-0.452684 -0.06864,-0.953224 -0.521327,-1.117988 -0.452685,-0.164764 -0.953224,0.06864 -1.117988,0.521327 z M 3.6512908,20.260479 C 3.486527,19.807795 2.9859869,19.574389 2.5333027,19.739153 c -0.4526842,0.164764 -0.68609,0.665304 -0.5213262,1.117988 0.1647632,0.452684 0.6653039,0.68609 1.1179881,0.521327 0.4526842,-0.164764 0.68609,-0.665304 0.5213262,-1.117989 z m 9.4908062,0 c -0.164763,0.452684 0.06864,0.953224 0.521327,1.117988 0.452686,0.164764 0.953224,-0.06864 1.117988,-0.521327 0.164763,-0.452684 -0.06864,-0.953224 -0.521327,-1.117988 -0.452685,-0.164764 -0.953224,0.06864 -1.117988,0.521327 z m 4.922406,-1e-6 c -0.164762,-0.452684 -0.665301,-0.686089 -1.117984,-0.521325 -0.452688,0.164762 -0.686091,0.665303 -0.521329,1.117987 0.164762,0.452684 0.665306,0.686091 1.11799,0.521327 0.452683,-0.164764 0.686091,-0.665304 0.521323,-1.117989 z"
     style="fill:#ffffff;stroke-width:7.55901;stroke-linecap:round;stroke-linejoin:round" />
  <path
     id="path1-8-1-5-3-6-3"
     d="m 3.6795958,3.7141957 c 0,0.6423153 0.5206992,1.1630148 1.1630148,1.1630148 0.6423151,0 1.1630148,-0.5206995 1.1630148,-1.1630148 0,-0.6423153 -0.5206997,-1.1630148 -1.1630148,-1.1630148 -0.6423156,0 -1.1630148,0.5206995 -1.1630148,1.1630148 z m 9.4341992,0 c 0,-0.6423153 -0.520699,-1.1630148 -1.163015,-1.1630148 -0.642315,0 -1.163014,0.5206995 -1.163014,1.1630148 0,0.6423153 0.520699,1.1630148 1.163014,1.1630148 0.642316,0 1.163015,-0.5206995 1.163015,-1.1630148 z m 4.979018,0 c 0,0.6423153 0.520699,1.1630148 1.163014,1.1630148 0.642316,0 1.163015,-0.5206995 1.163015,-1.1630148 0,-0.6423153 -0.520699,-1.1630148 -1.163015,-1.1630148 -0.642315,0 -1.163014,0.5206995 -1.163014,1.1630148 z M 5.9071879,8.5155262 c 0,-0.6423151 -0.5206998,-1.1630148 -1.1630148,-1.1630148 -0.6423157,0 -1.1630148,0.5206997 -1.1630148,1.1630148 0,0.6423156 0.5206991,1.1630148 1.1630148,1.1630148 0.642315,0 1.1630148,-0.5206992 1.1630148,-1.1630148 z m 4.9790151,0 c 0,0.6423156 0.520699,1.1630148 1.163015,1.1630148 0.642316,0 1.163015,-0.5206992 1.163015,-1.1630148 0,-0.6423151 -0.520699,-1.1630148 -1.163015,-1.1630148 -0.642316,0 -1.163015,0.5206997 -1.163015,1.1630148 z m 9.434202,0 c 0,-0.6423151 -0.520699,-1.1630148 -1.163015,-1.1630148 -0.642316,0 -1.163015,0.5206997 -1.163015,1.1630148 0,0.6423156 0.520699,1.1630148 1.163015,1.1630148 0.642316,0 1.163015,-0.5206992 1.163015,-1.1630148 z M 3.6795958,13.316857 c 0,0.642315 0.5206992,1.163014 1.1630148,1.163014 0.6423151,0 1.1630148,-0.520699 1.1630148,-1.163014 0,-0.642315 -0.5206997,-1.163015 -1.1630148,-1.163015 -0.6423156,0 -1.1630148,0.5207 -1.1630148,1.163015 z m 9.4341992,0 c 0,-0.642315 -0.520699,-1.163015 -1.163015,-1.163015 -0.642315,0 -1.163014,0.5207 -1.163014,1.163015 0,0.642315 0.520699,1.163014 1.163014,1.163014 0.642316,0 1.163015,-0.520699 1.163015,-1.163014 z m 4.979018,0 c 0,0.642315 0.520699,1.163014 1.163014,1.163014 0.642316,0 1.163015,-0.520699 1.163015,-1.163014 0,-0.642315 -0.520699,-1.163015 -1.163015,-1.163015 -0.642315,0 -1.163014,0.5207 -1.163014,1.163015 z m -12.1856251,4.80133 c 0,-0.642315 -0.5206998,-1.163015 -1.1630148,-1.163015 -0.6423157,0 -1.1630148,0.5207 -1.1630148,1.163015 0,0.642316 0.5206991,1.163015 1.1630148,1.163015 0.642315,0 1.1630148,-0.520699 1.1630148,-1.163015 z m 4.9790151,0 c 0,0.642316 0.520699,1.163015 1.163015,1.163015 0.642316,0 1.163015,-0.520699 1.163015,-1.163015 0,-0.642315 -0.520699,-1.163015 -1.163015,-1.163015 -0.642316,0 -1.163015,0.5207 -1.163015,1.163015 z m 9.434202,0 c 0,-0.642315 -0.520699,-1.163015 -1.163015,-1.163015 -0.642316,0 -1.163015,0.5207 -1.163015,1.163015 0,0.642316 0.520699,1.163015 1.163015,1.163015 0.642316,0 1.163015,-0.520699 1.163015,-1.163015 z"
     style="fill:#ffffff;stroke-width:7.55901;stroke-linecap:round;stroke-linejoin:round" />
</svg>
