<?xml version="1.0" encoding="UTF-8" standalone="no"?>
<svg
   width="24"
   height="24"
   viewBox="0 0 24 24"
   fill="none"
   version="1.1"
   id="svg1"
   sodipodi:docname="mic-off.svg"
   inkscape:version="1.4.2 (ebf0e940, 2025-05-08)"
   xmlns:inkscape="http://www.inkscape.org/namespaces/inkscape"
   xmlns:sodipodi="http://sodipodi.sourceforge.net/DTD/sodipodi-0.dtd"
   xmlns="http://www.w3.org/2000/svg"
   xmlns:svg="http://www.w3.org/2000/svg">
  <defs
     id="defs1" />
  <sodipodi:namedview
     id="namedview1"
     pagecolor="#505050"
     bordercolor="#eeeeee"
     borderopacity="1"
     inkscape:showpageshadow="0"
     inkscape:pageopacity="0"
     inkscape:pagecheckerboard="0"
     inkscape:deskcolor="#505050"
     inkscape:zoom="10.372543"
     inkscape:cx="12.533089"
     inkscape:cy="10.219288"
     inkscape:window-width="1472"
     inkscape:window-height="923"
     inkscape:window-x="0"
     inkscape:window-y="33"
     inkscape:window-maximized="0"
     inkscape:current-layer="svg1" />
  <g
     id="g3533"
     transform="matrix(1.5118783,0,0,1.5118783,-1310.5315,-932.69412)"
     style="stroke-width:2.49989">
    <rect
       style="fill:#000000;stroke:none;stroke-width:1.9999;stroke-linecap:round;stroke-linejoin:round;stroke-dasharray:none"
       id="rect3529-3-9"
       width="10"
       height="5"
       x="617.34833"
       y="-877.26062"
       transform="rotate(90)"
       ry="3" />
    <path
       id="rect3529-4-43-1"
       style="fill:#000000;stroke:none;stroke-width:1.99991;stroke-linecap:round;stroke-linejoin:round;stroke-dasharray:none"
       d="m 870.17533,624.34835 c -0.22827,0 -0.40536,0.17465 -0.41445,0.40392 -0.001,0.0328 10e-4,0.0666 0.007,0.10122 0.4376,2.53089 2.48217,4.45765 4.94259,4.49431 v 5.2e-4 c 0.0101,6e-5 0.0194,0 0.0292,0 0.007,6e-5 0.0139,-3e-5 0.0209,0 0.007,-3e-5 0.0139,6e-5 0.0209,0 0.0101,0 0.0191,6e-5 0.0292,0 v -5.2e-4 c 2.46042,-0.0366 4.50499,-1.96342 4.9426,-4.49431 0.006,-0.0346 0.008,-0.0685 0.007,-0.10122 -0.009,-0.22908 -0.18592,-0.40365 -0.41394,-0.40392 h -5.2e-4 c -0.19081,4.2e-4 -0.36653,0.22818 -0.42228,0.50306 -0.42475,2.09399 -2.0969,3.67044 -4.16276,3.68118 -2.06586,-0.0107 -3.73802,-1.58719 -4.16276,-3.68118 -0.0558,-0.27512 -0.2318,-0.50306 -0.4228,-0.50306 z" />
    <path
       style="baseline-shift:baseline;display:inline;overflow:visible;opacity:1;vector-effect:none;fill:#000000;stroke-width:2.49989;stroke-linecap:round;stroke-linejoin:round;enable-background:accumulate;stop-color:#000000;stop-opacity:1"
       d="m 874.75977,629.04492 a 0.499998,0.499998 0 0 0 -0.5,0.5 v 2.30274 a 0.499998,0.499998 0 0 0 0.5,0.5 0.499998,0.499998 0 0 0 0.5,-0.5 v -2.30274 a 0.499998,0.499998 0 0 0 -0.5,-0.5 z"
       id="path3532-9" />
    <path
       style="baseline-shift:baseline;display:inline;overflow:visible;opacity:1;vector-effect:none;fill:#000000;stroke-width:2.49989;stroke-linecap:round;stroke-linejoin:round;enable-background:accumulate;stop-color:#000000;stop-opacity:1"
       d="m 872.25977,631.34766 a 0.49999949,0.49999949 0 0 0 -0.5,0.5 0.49999949,0.49999949 0 0 0 0.5,0.5 h 5 a 0.49999949,0.49999949 0 0 0 0.5,-0.5 0.49999949,0.49999949 0 0 0 -0.5,-0.5 z"
       id="path3532-6-0" />
  </g>
</svg>
