<?xml version="1.0" encoding="UTF-8" standalone="no"?>
<svg
   viewBox="0 0 24 24"
   version="1.1"
   id="svg1"
   sodipodi:docname="patterning.svg"
   inkscape:version="1.4.2 (ebf0e940, 2025-05-08)"
   xmlns:inkscape="http://www.inkscape.org/namespaces/inkscape"
   xmlns:sodipodi="http://sodipodi.sourceforge.net/DTD/sodipodi-0.dtd"
   xmlns="http://www.w3.org/2000/svg"
   xmlns:svg="http://www.w3.org/2000/svg">
  <defs
     id="defs1" />
  <sodipodi:namedview
     id="namedview1"
     pagecolor="#505050"
     bordercolor="#eeeeee"
     borderopacity="1"
     inkscape:showpageshadow="0"
     inkscape:pageopacity="0"
     inkscape:pagecheckerboard="0"
     inkscape:deskcolor="#505050"
     inkscape:zoom="4.2309854"
     inkscape:cx="22.335223"
     inkscape:cy="6.9723711"
     inkscape:window-width="1472"
     inkscape:window-height="868"
     inkscape:window-x="0"
     inkscape:window-y="32"
     inkscape:window-maximized="0"
     inkscape:current-layer="svg1" />
  <path
     id="path1-3-1"
     style="fill:#ffffff;stroke-width:7.55902;stroke-linecap:round;stroke-linejoin:round"
     d="m 12.434735,2.5512287 c -0.2767,0 -0.55338,0.10554 -0.7645,0.31665 -0.42223,0.42223 -0.42223,1.10683 0,1.52906 0.42223,0.42223 1.10678,0.42223 1.52901,0 0.42223,-0.42223 0.42223,-1.10683 0,-1.52906 -0.21112,-0.21111 -0.4878,-0.31665 -0.76451,-0.31665 z m -3.47346,0.5758 c -0.35375,0.01 -0.66386,0.26649 -0.7277,0.62857 -0.073,0.41382 0.20333,0.80842 0.61715,0.88139 0.41381,0.073 0.80847,-0.20334 0.88144,-0.61715 0.073,-0.41381 -0.20339,-0.80842 -0.6172,-0.88139 -0.0517,-0.009 -0.10315,-0.0128 -0.15369,-0.0114 z m 6.62819,0.24251 c -0.14652,0.002 -0.29394,0.0472 -0.42302,0.13754 -0.34421,0.24101 -0.42785,0.71543 -0.18684,1.05963 0.24102,0.34421 0.71544,0.42786 1.05965,0.18684 0.3442,-0.24102 0.42784,-0.71544 0.18683,-1.05964 -0.15064,-0.21513 -0.39242,-0.32845 -0.63662,-0.32437 z m -9.19886,1.32511 c -0.59712,0 -1.0812,0.48408 -1.0812,1.0812 0,0.59713 0.48408,1.08121 1.0812,1.08121 0.59712,0 1.08115,-0.4840799 1.08115,-1.08121 0,-0.59712 -0.48403,-1.0812 -1.08115,-1.0812 z m 11.83363,0.61479 c -0.59712,0 -1.0812,0.48408 -1.0812,1.08121 0,0.59712 0.48408,1.08119 1.0812,1.08119 0.59712,0 1.08115,-0.48407 1.08115,-1.08119 0,-0.59713 -0.48403,-1.08121 -1.08115,-1.08121 z m -7.8326,0.0611 c -0.0365,-6.3e-4 -0.0734,8.8e-4 -0.11061,0.004 -0.59485,0.0521 -1.03492,0.57647 -0.98288,1.17132 0.052,0.5948601 0.57647,1.03487 1.17132,0.9828301 0.59485,-0.052 1.03487,-0.57642 0.98283,-1.1712701 -0.0488,-0.55767 -0.51271,-0.97931 -1.06066,-0.98695 z m 4.39218,0.47617 c -0.31154,-0.003 -0.62176,0.12892 -0.83767,0.38623 -0.38382,0.45742 -0.32412,1.13938 0.13331,1.52321 0.45742,0.38382 1.13933,0.32412 1.52315,-0.1333 0.38382,-0.45743 0.32418,-1.13939 -0.13324,-1.52322 -0.20013,-0.16791 -0.44324,-0.25094 -0.68555,-0.25292 z m -10.66692,1.78971 c -0.14652,0.002 -0.29394,0.0471 -0.42302,0.13753 -0.3442,0.24102 -0.42785,0.71544 -0.18684,1.05965 0.24102,0.3442 0.71544,0.4278901 1.05965,0.18688 0.3442,-0.24101 0.42784,-0.71543 0.18683,-1.05964 -0.15063,-0.21513 -0.39242,-0.32851 -0.63662,-0.32442 z m 7.41248,0.2363401 c -0.43853,0.012 -0.82295,0.3303499 -0.90209,0.7791999 -0.0905,0.51299 0.25206,1.00218 0.76503,1.09263 0.51299,0.0905 1.00218,-0.25206 1.09263,-0.76504 0.0905,-0.51298 -0.25211,-1.00218 -0.76509,-1.09263 -0.0641,-0.0113 -0.12783,-0.0159 -0.19048,-0.0142 z m -4.59211,0.27175 c -0.31154,-0.003 -0.62176,0.12887 -0.83766,0.3861699 -0.38383,0.45742 -0.32413,1.1393901 0.13329,1.5232103 0.45742,0.38382 1.13939,0.32417 1.52321,-0.1332403 0.38383,-0.45743 0.32413,-1.13939 -0.1333,-1.52322 -0.20012,-0.16792 -0.44323,-0.25094 -0.68554,-0.2529199 z m 13.15349,0.0777 c -0.35375,0.01 -0.66386,0.26649 -0.7277,0.62857 -0.073,0.41382 0.20333,0.8084199 0.61714,0.88139 0.41382,0.073 0.80843,-0.2033301 0.88139,-0.6171501 0.073,-0.41381 -0.20333,-0.80847 -0.61715,-0.88144 -0.0517,-0.009 -0.10315,-0.0128 -0.15368,-0.0114 z m -5.59956,0.85886 c -0.0927,0.004 -0.18624,0.0226 -0.27802,0.056 -0.48948,0.17816 -0.74188,0.71939 -0.56372,1.2088702 0.17816,0.48948 0.71939,0.74188 1.20887,0.56372 0.48948,-0.17815 0.74183,-0.71939 0.56367,-1.2088702 -0.14475,-0.3977 -0.52917,-0.63887 -0.9308,-0.61977 z m 3.07352,0.21306 c -0.0365,-6.3e-4 -0.0734,7.6e-4 -0.11061,0.004 -0.59485,0.0521 -1.03487,0.57648 -0.98282,1.1713202 0.052,0.59485 0.57646,1.03487 1.17132,0.98283 0.59485,-0.0521 1.03486,-0.57642 0.98282,-1.17127 -0.0488,-0.5576702 -0.51277,-0.9792602 -1.06071,-0.9869002 z m -8.53612,0.55503 c -0.27177,-0.002 -0.54242,0.11248 -0.73076,0.3369202 -0.33482,0.39903 -0.28273,0.99394 0.11629,1.32877 0.39903,0.33482 0.99394,0.28273 1.32877,-0.1163 0.33482,-0.39903 0.28273,-0.99388 -0.1163,-1.32871 -0.17458,-0.1464802 -0.38662,-0.2189502 -0.598,-0.2206802 z m -5.3962,0.6349602 c -0.2767,0 -0.55343,0.10553 -0.76455,0.31665 -0.42223,0.42223 -0.42223,1.10683 0,1.52906 0.42223,0.42222 1.10683,0.42222 1.52906,0 0.42223,-0.42223 0.42223,-1.10683 0,-1.52906 -0.21112,-0.21112 -0.48781,-0.31665 -0.76451,-0.31665 z m 8.36763,0.47789 a 1.0380307,1.0380307 0 0 0 -1.03807,1.03803 1.0380307,1.0380307 0 0 0 1.03807,1.03801 1.0380307,1.0380307 0 0 0 1.03803,-1.03801 1.0380307,1.0380307 0 0 0 -1.03803,-1.03803 z m 8.36763,0.39153 c -0.2767,0 -0.55339,0.10559 -0.7645,0.31671 -0.42223,0.42222 -0.42223,1.10677 0,1.529 0.42223,0.42222 1.10677,0.42222 1.529,0 0.42223,-0.42223 0.42223,-1.10677 0,-1.529 -0.21112,-0.21112 -0.4878,-0.31671 -0.7645,-0.31671 z m -5.37978,0.91106 c -0.27178,-0.002 -0.54237,0.11241 -0.73071,0.33687 -0.33482,0.39902 -0.28279,0.99393 0.11624,1.32875 0.39903,0.33483 0.99393,0.28279 1.32876,-0.11623 0.33482,-0.39904 0.28279,-0.99394 -0.11624,-1.32877 -0.17457,-0.14648 -0.38668,-0.2189 -0.59805,-0.22062 z m -8.51981,0.27904 c -0.0365,-6.3e-4 -0.0734,8.8e-4 -0.11061,0.004 -0.59485,0.052 -1.03492,0.57646 -0.98288,1.17132 0.052,0.59484 0.57647,1.03486 1.17133,0.98282 0.59484,-0.0521 1.03486,-0.57647 0.98282,-1.17132 -0.0488,-0.55767 -0.51271,-0.97926 -1.06066,-0.9869 z m 2.95169,0.49061 c -0.0927,0.004 -0.18625,0.0227 -0.27803,0.0561 -0.48948,0.17815 -0.74188,0.71939 -0.56372,1.20887 0.17816,0.48948 0.71939,0.74182 1.20887,0.56366 0.48948,-0.17815 0.74183,-0.71939 0.56367,-1.20887 -0.14475,-0.3977 -0.52917,-0.63887 -0.93079,-0.61977 z m 7.66186,0.65899 c -0.31154,-0.003 -0.62177,0.12892 -0.83767,0.38622 -0.38382,0.45742 -0.32418,1.13938 0.13325,1.52321 0.45742,0.38382 1.13939,0.32412 1.52321,-0.1333 0.38382,-0.45742 0.32418,-1.13939 -0.13325,-1.52321 -0.20012,-0.16793 -0.44323,-0.25095 -0.68554,-0.25292 z m -4.66441,0.54811 c -0.43853,0.012 -0.82295,0.33034 -0.9021,0.77919 -0.0905,0.51299 0.25206,1.00218 0.76504,1.09263 0.51298,0.0904 1.00218,-0.25211 1.09263,-0.76509 0.0905,-0.51298 -0.25206,-1.00212 -0.76504,-1.09257 -0.0641,-0.0113 -0.12789,-0.0159 -0.19053,-0.0142 z m -8.55109,0.0151 c -0.35375,0.01 -0.66386,0.26649 -0.7277,0.62858 -0.073,0.41381 0.20333,0.80842 0.61715,0.88138 0.41381,0.073 0.80842,-0.20333 0.88138,-0.61714 0.073,-0.41382 -0.20333,-0.80843 -0.61714,-0.88139 -0.0517,-0.009 -0.10315,-0.0128 -0.15369,-0.0114 z m 15.99023,0.58561 c -0.14653,0.002 -0.29395,0.0472 -0.42303,0.13754 -0.3442,0.24101 -0.42784,0.71543 -0.18682,1.05964 0.241,0.3442 0.71542,0.42785 1.05963,0.18683 0.34421,-0.24102 0.42785,-0.71544 0.18684,-1.05964 -0.15064,-0.21513 -0.39242,-0.32845 -0.63662,-0.32437 z m -10.62128,1.14895 c -0.31154,-0.003 -0.62177,0.12887 -0.83767,0.38617 -0.38382,0.45742 -0.32417,1.13939 0.13324,1.52321 0.45743,0.38382 1.13939,0.32417 1.52322,-0.13324 0.38382,-0.45743 0.32417,-1.13939 -0.13325,-1.52322 -0.20012,-0.16792 -0.44323,-0.25094 -0.68554,-0.25292 z m 4.40608,0.47618 c -0.0365,-6.3e-4 -0.0734,8.8e-4 -0.11061,0.004 -0.59485,0.0521 -1.03487,0.57648 -0.98283,1.17132 0.0521,0.59485 0.57648,1.03487 1.17132,0.98283 0.59486,-0.0521 1.03487,-0.57642 0.98283,-1.17127 -0.0488,-0.55767 -0.51277,-0.97931 -1.06071,-0.98695 z m -7.86533,0.061 c -0.59712,0 -1.0812,0.48409 -1.0812,1.08121 0,0.59712 0.48408,1.08115 1.0812,1.08115 0.59712,0 1.0812,-0.48403 1.0812,-1.08115 0,-0.59713 -0.48408,-1.08121 -1.0812,-1.08121 z m 11.83364,0.61479 c -0.59713,0 -1.08121,0.48408 -1.08121,1.0812 0,0.59713 0.48408,1.08115 1.08121,1.08115 0.59712,0 1.08114,-0.48402 1.08114,-1.08115 0,-0.59712 -0.48402,-1.0812 -1.08114,-1.0812 z m -9.22568,1.96592 c -0.14653,0.002 -0.29395,0.0471 -0.42303,0.13753 -0.3442,0.24102 -0.42784,0.71544 -0.18683,1.05965 0.24102,0.3442 0.71543,0.42784 1.05964,0.18683 0.34421,-0.24102 0.42785,-0.71543 0.18684,-1.05964 -0.15064,-0.21513 -0.39242,-0.32846 -0.63662,-0.32437 z m 3.18154,0.1775 c -0.2767,0 -0.55344,0.10558 -0.76456,0.3167 -0.42223,0.42223 -0.42223,1.10677 0,1.529 0.42223,0.42223 1.10683,0.42223 1.52906,0 0.42223,-0.42223 0.42223,-1.10677 0,-1.529 -0.21112,-0.21112 -0.4878,-0.3167 -0.7645,-0.3167 z m 3.43028,0.0652 c -0.35375,0.01 -0.66385,0.26643 -0.7277,0.62852 -0.073,0.41381 0.20333,0.80847 0.61714,0.88143 0.41382,0.073 0.80843,-0.20338 0.88139,-0.61719 0.073,-0.41382 -0.20333,-0.80843 -0.61715,-0.88139 -0.0517,-0.009 -0.10314,-0.0128 -0.15368,-0.0114 z"
     inkscape:label="Patterning"
     inkscape:export-filename="../../Neuroartan/website/docs/assets/icons/layers/website/sections/home/featured-functions/patterning.svg"
     inkscape:export-xdpi="96"
     inkscape:export-ydpi="96" />
</svg>
