<?xml version="1.0" encoding="UTF-8" standalone="no"?>
<svg
   viewBox="0 0 24 24"
   width="24"
   height="24"
   aria-hidden="true"
   version="1.1"
   id="svg1"
   sodipodi:docname="behance.svg"
   inkscape:version="1.4.2 (ebf0e940, 2025-05-08)"
   xmlns:inkscape="http://www.inkscape.org/namespaces/inkscape"
   xmlns:sodipodi="http://sodipodi.sourceforge.net/DTD/sodipodi-0.dtd"
   xmlns="http://www.w3.org/2000/svg"
   xmlns:svg="http://www.w3.org/2000/svg">
  <defs
     id="defs1" />
  <sodipodi:namedview
     id="namedview1"
     pagecolor="#505050"
     bordercolor="#eeeeee"
     borderopacity="1"
     inkscape:showpageshadow="0"
     inkscape:pageopacity="0"
     inkscape:pagecheckerboard="0"
     inkscape:deskcolor="#505050"
     inkscape:zoom="7.6139172"
     inkscape:cx="0.78803064"
     inkscape:cy="18.124705"
     inkscape:window-width="1472"
     inkscape:window-height="923"
     inkscape:window-x="0"
     inkscape:window-y="33"
     inkscape:window-maximized="0"
     inkscape:current-layer="svg1" />
  <g
     id="g1"
     transform="matrix(0.02361911,0,0,0.02361911,8.8811019,8.0083704)"
     style="stroke-width:42.3387">
    <g
       id="Page-1"
       stroke="none"
       stroke-width="42.3387"
       fill="none"
       fill-rule="evenodd"
       transform="matrix(40,0,0,40,-268,-91)">
      <g
         id="Dribbble-Light-Preview"
         transform="translate(-100,-7482)"
         fill="#000000"
         style="stroke-width:42.3387">
        <g
           id="icons"
           transform="translate(56,160)"
           style="stroke-width:42.3387">
          <path
             d="m 56.981,7324.1173 h 5.088 v -1.4573 h -5.088 z m 2.508,2.9259 c -1.135,0 -1.997,0.7034 -2.08,2.0026 h 4.072 c -0.276,-1.542 -0.961,-2.0026 -1.992,-2.0026 z m 0.159,6.0265 c 1.048,0 1.817,-0.6621 1.974,-1.2198 h 2.204 c -0.63,2.0171 -1.931,3.1501 -4.267,3.1501 -2.981,0 -4.654,-2.1204 -4.654,-4.9337 0,-6.6255 9.56,-6.8631 9.08,0.6186 h -6.576 c 0.064,1.5193 0.691,2.3848 2.239,2.3848 z m -9.918,-0.2913 c 1.203,0 2.045,-0.4627 2.045,-1.7114 0,-1.2951 -0.744,-1.8569 -1.993,-1.8569 h -3.014 v 3.5683 z m -0.159,-5.5162 c 1.001,0 1.692,-0.4658 1.692,-1.5482 0,-1.1402 -0.804,-1.4924 -1.903,-1.4924 h -2.592 v 3.0406 z M 49.924,7322 c 2.371,0 4.019,0.7839 4.019,3.2224 0,1.2073 -0.485,2.1069 -1.71,2.7132 1.568,0.4658 2.31,1.6886 2.31,3.2957 0,2.551 -2.023,3.7687 -4.443,3.7687 H 44 v -13 z"
             id="behance-[#163]"
             style="stroke-width:42.3387" />
        </g>
      </g>
    </g>
  </g>
</svg>
