<?xml version="1.0" encoding="UTF-8" standalone="no"?>
<svg
   width="24"
   height="24"
   viewBox="0 0 24 24"
   fill="none"
   version="1.1"
   id="svg1"
   sodipodi:docname="discord.svg"
   inkscape:version="1.4.2 (ebf0e940, 2025-05-08)"
   xmlns:inkscape="http://www.inkscape.org/namespaces/inkscape"
   xmlns:sodipodi="http://sodipodi.sourceforge.net/DTD/sodipodi-0.dtd"
   xmlns="http://www.w3.org/2000/svg"
   xmlns:svg="http://www.w3.org/2000/svg">
  <defs
     id="defs1" />
  <sodipodi:namedview
     id="namedview1"
     pagecolor="#505050"
     bordercolor="#eeeeee"
     borderopacity="1"
     inkscape:showpageshadow="0"
     inkscape:pageopacity="0"
     inkscape:pagecheckerboard="0"
     inkscape:deskcolor="#505050"
     inkscape:zoom="10.91443"
     inkscape:cx="8.2459641"
     inkscape:cy="21.989238"
     inkscape:window-width="1472"
     inkscape:window-height="923"
     inkscape:window-x="0"
     inkscape:window-y="33"
     inkscape:window-maximized="0"
     inkscape:current-layer="svg1" />
  <path
     d="m 15.143655,14.627387 c -0.951654,-0.06237 -1.699869,-0.849614 -1.699869,-1.81197 0,-0.03214 6.33e-4,-0.06428 0.0023,-0.09636 v 0.0046 c -0.0015,-0.03023 -0.0031,-0.0655 -0.0031,-0.101406 0,-0.960462 0.749476,-1.745205 1.695457,-1.802519 h 0.0053 c 0.950386,0.0516 1.701121,0.834499 1.701121,1.793076 0,0.03909 -0.0015,0.07747 -0.0038,0.115887 v -0.0053 c 0.0015,0.03145 0.0031,0.06863 0.0031,0.105803 0,0.95921 -0.750109,1.743327 -1.69609,1.797488 h -0.0053 z m -6.2767138,0 c -0.9516534,-0.06237 -1.699869,-0.849614 -1.699869,-1.81197 0,-0.03214 6.336e-4,-0.06428 0.00229,-0.09636 v 0.0046 c -0.00153,-0.03023 -0.00305,-0.0655 -0.00305,-0.101406 0,-0.960462 0.7494752,-1.745205 1.6954491,-1.802519 h 0.00534 c 0.9503861,0.0516 1.7011207,0.834499 1.7011207,1.793076 0,0.03909 -0.0015,0.07747 -0.0038,0.115887 v -0.0053 c 0.0015,0.03023 0.003,0.0655 0.003,0.101398 0,0.960463 -0.749475,1.745213 -1.6954489,1.802519 z M 18.545271,6.0002157 C 17.434913,5.476209 16.145057,5.0617915 14.794734,4.8218342 l -0.09384,-0.013893 c -0.0031,-6.336e-4 -0.0069,-0.00153 -0.01069,-0.00153 -0.02206,0 -0.04092,0.011985 -0.05099,0.029619 v 0 c -0.147376,0.2588506 -0.307355,0.5819463 -0.451578,0.9132254 l -0.0271,0.069924 c -0.648704,-0.1039141 -1.396927,-0.163121 -2.158998,-0.163121 -0.76207,0 -1.510294,0.059237 -2.2402419,0.1732007 l 0.081245,-0.010687 C 9.6724934,5.4217884 9.5100028,5.0993263 9.3305043,4.786933 l 0.025802,0.048474 C 9.3456193,4.817162 9.3260773,4.805788 9.3040153,4.805788 c -0.00305,0 -0.00687,0 -0.010076,6.336e-4 h 6.259e-4 C 7.8504015,5.0602342 6.5599194,5.4740257 5.3544536,6.0389642 l 0.095108,-0.040306 c -0.010687,0.00458 -0.019542,0.011985 -0.025191,0.021374 v 0 C 3.6268896,8.5651033 2.551166,11.731808 2.551166,15.149798 c 0,0.571244 0.030229,1.134923 0.088803,1.690418 l -0.00534,-0.06924 c 0.00153,0.01824 0.011374,0.03336 0.024581,0.04405 v 0 c 1.3478038,1.008325 2.914778,1.820786 4.6058224,2.354235 l 0.1108488,0.03023 c 0.00534,0.0015 0.011374,0.0023 0.017634,0.0023 0.020153,0 0.037787,-0.0095 0.048474,-0.02397 v 0 c 0.3369457,-0.453474 0.6575223,-0.967396 0.9352663,-1.506518 l 0.029619,-0.06298 c 0.00382,-0.0076 0.00611,-0.01702 0.00611,-0.0271 0,-0.0258 -0.016412,-0.04725 -0.039084,-0.05603 H 8.3732631 C 7.7988741,17.303497 7.3132878,17.067319 6.8510071,16.796498 l 0.048474,0.02641 c -0.018245,-0.01069 -0.030229,-0.03023 -0.030229,-0.05229 0,-0.01954 0.00947,-0.03718 0.02397,-0.04786 v 0 c 0.098879,-0.07435 0.1983918,-0.151155 0.2928587,-0.229247 0.010076,-0.0082 0.023283,-0.01321 0.037176,-0.01321 0.00878,0 0.017023,0.0015 0.023893,0.0053 h -6.259e-4 c 1.3906208,0.66823 3.0230991,1.058716 4.7462661,1.058716 1.723167,0 3.356272,-0.390486 4.813657,-1.087686 l -0.0674,0.02901 c 0.0076,-0.0038 0.01572,-0.0053 0.02519,-0.0053 0.01382,0 0.0271,0.0053 0.03718,0.01321 v 0 c 0.09447,0.0781 0.193353,0.156193 0.293492,0.229881 0.0145,0.01137 0.02397,0.02901 0.02397,0.04847 0,0.02206 -0.01198,0.04092 -0.02901,0.05168 v 0 c -0.416303,0.248781 -0.90189,0.484326 -1.407629,0.67894 l -0.06611,0.02267 c -0.02267,0.0088 -0.03901,0.03084 -0.03901,0.05603 0,0.01008 0.0023,0.01954 0.0069,0.02771 v -6.26e-4 c 0.315538,0.604619 0.635481,1.117915 0.98944,1.604761 l -0.02519,-0.03588 c 0.01069,0.01511 0.02901,0.02519 0.04847,0.02519 0.0061,0 0.0126,-0.0015 0.01825,-0.0023 h -6.34e-4 c 1.80442,-0.561794 3.37454,-1.374254 4.765168,-2.413443 l -0.04092,0.02962 c 0.01382,-0.01008 0.02267,-0.0258 0.02458,-0.04344 v 0 c 0.05481,-0.493777 0.08565,-1.066907 0.08565,-1.646968 0,-3.410433 -1.078235,-6.568946 -2.911625,-9.1536965 l 0.03275,0.049085 c -0.0053,-0.010076 -0.01382,-0.018244 -0.02389,-0.022672 v 0 z"
     id="path1"
     style="fill:#000000;stroke-width:25" />
</svg>
