<?xml version="1.0" encoding="UTF-8" standalone="no"?>
<svg
   width="24"
   height="24"
   viewBox="0 0 24 24"
   fill="none"
   version="1.1"
   id="svg1"
   sodipodi:docname="instagram.svg"
   inkscape:version="1.4.2 (ebf0e940, 2025-05-08)"
   xmlns:inkscape="http://www.inkscape.org/namespaces/inkscape"
   xmlns:sodipodi="http://sodipodi.sourceforge.net/DTD/sodipodi-0.dtd"
   xmlns="http://www.w3.org/2000/svg"
   xmlns:svg="http://www.w3.org/2000/svg">
  <defs
     id="defs1" />
  <sodipodi:namedview
     id="namedview1"
     pagecolor="#505050"
     bordercolor="#eeeeee"
     borderopacity="1"
     inkscape:showpageshadow="0"
     inkscape:pageopacity="0"
     inkscape:pagecheckerboard="0"
     inkscape:deskcolor="#505050"
     inkscape:zoom="4.4428507"
     inkscape:cx="14.742787"
     inkscape:cy="13.279762"
     inkscape:window-width="1472"
     inkscape:window-height="895"
     inkscape:window-x="0"
     inkscape:window-y="33"
     inkscape:window-maximized="0"
     inkscape:current-layer="svg1" />
  <g
     id="g1">
    <path
       id="path26-74"
       d="m 19.819533,16.560918 c 0,1.798812 -1.45973,3.258601 -3.257646,3.258601 H 7.4390194 c -1.7988122,0 -3.2585425,-1.459789 -3.2585425,-3.258601 V 7.4389759 c 0,-1.7988125 1.4597303,-3.2585043 3.2585425,-3.2585043 h 9.1228676 c 1.797916,0 3.257646,1.4596918 3.257646,3.2585043 z M 16.88739,2.5511809 H 7.1126294 c -2.5177975,0 -4.5614239,2.042711 -4.5614239,4.5613953 v 9.7748378 c 0,2.518588 2.0436264,4.561405 4.5614239,4.561405 H 16.88739 c 2.518723,0 4.561405,-2.042817 4.561405,-4.561405 V 7.1125762 c 0,-2.5186843 -2.042682,-4.5613953 -4.561405,-4.5613953"
       style="fill:#000000;fill-opacity:1;fill-rule:nonzero;stroke:none;stroke-width:0.133333" />
    <path
       id="path27-75"
       d="m 12.009541,15.258017 c -1.795199,0 -3.258572,-1.462486 -3.258572,-3.258504 0,-1.79515 1.463373,-3.2576367 3.258572,-3.2576367 1.795188,0 3.258542,1.4624867 3.258542,3.2576367 0,1.796018 -1.463354,3.258504 -3.258542,3.258504 z m 0,-8.1454408 c -2.6982476,0 -4.886947,2.1895858 -4.886947,4.8869368 0,2.698219 2.1886994,4.887901 4.886947,4.887901 2.697312,0 4.886918,-2.189682 4.886918,-4.887901 0,-2.697351 -2.189606,-4.8869368 -4.886918,-4.8869368"
       style="fill:#000000;fill-opacity:1;fill-rule:nonzero;stroke:none;stroke-width:0.133333" />
    <path
       id="path28-86"
       d="m 17.222849,7.7645082 c -0.53948,0 -0.977388,-0.4388617 -0.977388,-0.9774646 0,-0.5394701 0.437908,-0.9772718 0.977388,-0.9772718 0.538564,0 0.977377,0.4378017 0.977377,0.9772718 0,0.5386029 -0.438813,0.9774646 -0.977377,0.9774646"
       style="fill:#000000;fill-opacity:1;fill-rule:nonzero;stroke:none;stroke-width:0.133333" />
  </g>
</svg>
