<?xml version="1.0" encoding="UTF-8" standalone="no"?>
<svg
   viewBox="0 0 24 24"
   width="24"
   height="24"
   aria-hidden="true"
   version="1.1"
   id="svg1"
   sodipodi:docname="orcid.svg"
   inkscape:version="1.4.2 (ebf0e940, 2025-05-08)"
   xmlns:inkscape="http://www.inkscape.org/namespaces/inkscape"
   xmlns:sodipodi="http://sodipodi.sourceforge.net/DTD/sodipodi-0.dtd"
   xmlns="http://www.w3.org/2000/svg"
   xmlns:svg="http://www.w3.org/2000/svg">
  <defs
     id="defs1" />
  <sodipodi:namedview
     id="namedview1"
     pagecolor="#505050"
     bordercolor="#eeeeee"
     borderopacity="1"
     inkscape:showpageshadow="0"
     inkscape:pageopacity="0"
     inkscape:pagecheckerboard="0"
     inkscape:deskcolor="#505050"
     inkscape:zoom="5.3162656"
     inkscape:cx="24.077051"
     inkscape:cy="3.1977334"
     inkscape:window-width="1472"
     inkscape:window-height="895"
     inkscape:window-x="0"
     inkscape:window-y="61"
     inkscape:window-maximized="0"
     inkscape:current-layer="svg1" />
  <path
     d="m 12,2.55118 c -5.21989,0 -9.44882,4.22894 -9.44882,9.44882 0,5.21989 4.22893,9.44882 9.44882,9.44882 5.21988,0 9.44882,-4.22893 9.44882,-9.44882 C 21.44882,6.78012 17.21988,2.55118 12,2.55118 Z M 8.35216,5.99941 c 0.41575,0 0.74705,0.33839 0.74705,0.7441 0,0.4063 -0.3313,0.74704 -0.74705,0.74704 C 7.9435,7.48855 7.60807,7.15571 7.60807,6.74351 c 0,-0.41162 0.33248,-0.7441 0.74409,-0.7441 z M 7.78582,8.38878 h 1.13563 v 7.90807 H 7.78582 Z m 2.80571,0 h 3.0691 c 2.92204,0 4.20767,2.09114 4.20767,3.95847 0,2.0309 -1.58681,3.9561 -4.19232,3.9561 h -3.08504 z m 1.13445,1.02756 v 5.8624 h 1.80886 c 2.57776,0 3.16831,-1.9559 3.16831,-2.93149 0,-1.58681 -1.01162,-2.93091 -3.22677,-2.93091 z"
     id="path1"
     style="stroke-width:24.9999" />
</svg>
