<?xml version="1.0" encoding="UTF-8" standalone="no"?>
<svg
   width="24"
   height="24"
   viewBox="0 0 24 24"
   fill="none"
   version="1.1"
   id="svg1"
   sodipodi:docname="discovery.svg"
   inkscape:version="1.4.2 (ebf0e940, 2025-05-08)"
   xmlns:inkscape="http://www.inkscape.org/namespaces/inkscape"
   xmlns:sodipodi="http://sodipodi.sourceforge.net/DTD/sodipodi-0.dtd"
   xmlns="http://www.w3.org/2000/svg"
   xmlns:svg="http://www.w3.org/2000/svg">
  <defs
     id="defs1" />
  <sodipodi:namedview
     id="namedview1"
     pagecolor="#505050"
     bordercolor="#eeeeee"
     borderopacity="1"
     inkscape:showpageshadow="0"
     inkscape:pageopacity="0"
     inkscape:pagecheckerboard="0"
     inkscape:deskcolor="#505050"
     inkscape:zoom="1.0833333"
     inkscape:cx="12"
     inkscape:cy="12"
     inkscape:window-width="1472"
     inkscape:window-height="923"
     inkscape:window-x="0"
     inkscape:window-y="33"
     inkscape:window-maximized="0"
     inkscape:current-layer="svg1" />
  <g
     id="g3"
     transform="matrix(1.1071314,0,0,1.1110619,-1.2855675,-1.3355272)"
     style="stroke-width:1.35245">
    <ellipse
       style="fill:none;stroke:#000000;stroke-width:0.901635;stroke-linecap:square;stroke-miterlimit:83.9;stroke-dasharray:none;paint-order:markers fill stroke"
       id="path1"
       cx="12.408557"
       cy="9.5989485"
       transform="matrix(0.90605568,0.42315849,-0.42207841,0.90655933,0,0)"
       rx="3.2763073"
       ry="3.2795851" />
    <ellipse
       style="fill:none;stroke:#000000;stroke-width:0.901635;stroke-linecap:square;stroke-miterlimit:83.9;stroke-dasharray:none;paint-order:markers fill stroke"
       id="path1-2"
       cx="21.127228"
       cy="5.529295"
       transform="matrix(0.90605568,0.42315849,-0.42207841,0.90655933,0,0)"
       rx="3.2763073"
       ry="3.2795851" />
    <g
       id="g2"
       transform="matrix(0.85689901,0,0,0.97371569,1.7131771,0.3062453)"
       style="stroke-width:1.48061">
      <path
         id="path1-4-8-6-9"
         style="stroke:#000000;stroke-width:0.987075;stroke-linecap:round;stroke-miterlimit:83.9;paint-order:markers fill stroke"
         d="M 13.872234,12.87758 13.746478,9.8534283 13.620722,8.5337459 c -0.05935,-0.6228243 0.279248,-1.2156087 0.845392,-1.480022 l 0.527968,-0.2465835 c 0.521576,-0.2435986 1.270552,-0.1069625 1.675669,0.3024272 1.061906,1.0731052 2.134255,2.9529374 3.160092,4.0596994 m -6.290408,1.978624 c -1.05347,0.06561 -2.269685,0.0505 -3.078875,0 M 4.1908114,11.187946 C 5.0202781,10.324309 6.3889842,8.086578 7.3342372,7.1122466 7.734948,6.6992094 8.4843418,6.5635418 9.0059177,6.8071394 L 9.5338874,7.053725 C 10.10003,7.3181379 10.438631,7.9109218 10.37928,8.5337459 L 10.253523,9.8534283 10.127766,12.87758"
         sodipodi:nodetypes="cccssscccccccccc" />
      <path
         style="fill:none;stroke:#000000;stroke-width:0.987075;stroke-linecap:round;stroke-miterlimit:83.9;stroke-dasharray:none;paint-order:markers fill stroke"
         d="m 10.57127,9.2456326 h 2.85746"
         id="path4" />
    </g>
  </g>
</svg>
