<?xml version="1.0" encoding="UTF-8" standalone="no"?>
<svg
   width="24"
   height="24"
   viewBox="0 0 24 24"
   fill="none"
   version="1.1"
   id="svg1"
   sodipodi:docname="training.svg"
   inkscape:version="1.4.2 (ebf0e940, 2025-05-08)"
   xmlns:inkscape="http://www.inkscape.org/namespaces/inkscape"
   xmlns:sodipodi="http://sodipodi.sourceforge.net/DTD/sodipodi-0.dtd"
   xmlns="http://www.w3.org/2000/svg"
   xmlns:svg="http://www.w3.org/2000/svg">
  <defs
     id="defs1">
    <inkscape:path-effect
       effect="fillet_chamfer"
       id="path-effect5"
       is_visible="true"
       lpeversion="1"
       nodesatellites_param="F,0,0,1,0,1.5,0,1 @ F,0,0,1,0,1.5,0,1 @ F,0,0,1,0,1.5,0,1 @ F,0,0,1,0,1.5,0,1"
       radius="0"
       unit="px"
       method="auto"
       mode="F"
       chamfer_steps="1"
       flexible="false"
       use_knot_distance="true"
       apply_no_radius="true"
       apply_with_radius="true"
       only_selected="false"
       hide_knots="false" />
    <inkscape:path-effect
       effect="fillet_chamfer"
       id="path-effect5-0"
       is_visible="true"
       lpeversion="1"
       nodesatellites_param="F,0,0,1,0,1.5,0,1 @ F,0,0,1,0,1.5,0,1 @ F,0,0,1,0,1.5,0,1 @ F,0,0,1,0,1.5,0,1"
       radius="0"
       unit="px"
       method="auto"
       mode="F"
       chamfer_steps="1"
       flexible="false"
       use_knot_distance="true"
       apply_no_radius="true"
       apply_with_radius="true"
       only_selected="false"
       hide_knots="false" />
  </defs>
  <sodipodi:namedview
     id="namedview1"
     pagecolor="#505050"
     bordercolor="#eeeeee"
     borderopacity="1"
     inkscape:showpageshadow="0"
     inkscape:pageopacity="0"
     inkscape:pagecheckerboard="0"
     inkscape:deskcolor="#505050"
     inkscape:zoom="13.081425"
     inkscape:cx="11.351974"
     inkscape:cy="15.556409"
     inkscape:window-width="1472"
     inkscape:window-height="896"
     inkscape:window-x="0"
     inkscape:window-y="32"
     inkscape:window-maximized="0"
     inkscape:current-layer="svg1" />
  <ellipse
     style="fill:none;stroke:#000000;stroke-width:0.999998;stroke-linecap:round;stroke-miterlimit:83.9;paint-order:markers fill stroke"
     id="path1"
     cx="12.000001"
     cy="5.1260643"
     rx="2.0729704"
     ry="2.0750232" />
  <path
     id="rect4"
     style="fill:none;stroke:#000000;stroke-width:0.955873;stroke-linecap:round;stroke-miterlimit:83.9;paint-order:markers fill stroke"
     d="M 7.3415766,16.064335 H 22.239215 a 1.5,1.5 45 0 1 1.5,1.5 v 0.535433 a 1.5,1.5 135 0 1 -1.5,1.5 l -14.8976384,0 a 1.5,1.5 45 0 1 -1.5,-1.5 l 0,-0.535433 a 1.5,1.5 135 0 1 1.5,-1.5 z"
     inkscape:path-effect="#path-effect5"
     inkscape:original-d="M 5.8415766,16.064335 H 23.739215 v 3.535433 H 5.8415766 Z"
     transform="matrix(0.93237,0,0,1.1738438,-1.7901213,-2.1191313)" />
  <path
     id="rect4-6"
     style="fill:none;stroke:#000000;stroke-width:0.955873;stroke-linecap:round;stroke-miterlimit:83.9;paint-order:markers fill stroke"
     d="M 7.3415766,16.064335 H 22.239215 a 1.5,1.5 45 0 1 1.5,1.5 v 0.535433 a 1.5,1.5 135 0 1 -1.5,1.5 l -14.8976384,0 a 1.5,1.5 45 0 1 -1.5,-1.5 l 0,-0.535433 a 1.5,1.5 135 0 1 1.5,-1.5 z"
     inkscape:path-effect="#path-effect5-0"
     inkscape:original-d="M 5.8415766,16.064335 H 23.739215 v 3.535433 H 5.8415766 Z"
     transform="matrix(0.93237,0,0,1.1738438,-1.7901213,-8.9995088)" />
  <path
     id="rect4-6-8-2"
     style="fill:none;stroke:#000000;stroke-width:0.999998;stroke-linecap:round;stroke-miterlimit:83.9;paint-order:markers fill stroke"
     d="m 12.000001,16.409293 v -1.092969 -1.092969 m 0,-4.3718749 V 8.7585118 7.6655423"
     sodipodi:nodetypes="cccccc" />
</svg>
