<?xml version="1.0" encoding="UTF-8" standalone="no"?>
<svg
   width="24"
   height="24"
   viewBox="0 0 24 24"
   fill="none"
   version="1.1"
   id="svg1"
   sodipodi:docname="refresh.svg"
   xml:space="preserve"
   inkscape:version="1.4.2 (ebf0e940, 2025-05-08)"
   xmlns:inkscape="http://www.inkscape.org/namespaces/inkscape"
   xmlns:sodipodi="http://sodipodi.sourceforge.net/DTD/sodipodi-0.dtd"
   xmlns="http://www.w3.org/2000/svg"
   xmlns:svg="http://www.w3.org/2000/svg"><defs
     id="defs1"><inkscape:path-effect
       effect="fillet_chamfer"
       id="path-effect3"
       is_visible="true"
       lpeversion="1"
       nodesatellites_param="F,0,0,1,0,0,0,1 @ F,0,0,1,0,17.710997,0,1 @ F,0,0,1,0,0,0,1"
       radius="0"
       unit="px"
       method="auto"
       mode="F"
       chamfer_steps="1"
       flexible="false"
       use_knot_distance="true"
       apply_no_radius="true"
       apply_with_radius="true"
       only_selected="false"
       hide_knots="false" /><inkscape:path-effect
       effect="fillet_chamfer"
       id="path-effect2"
       is_visible="true"
       lpeversion="1"
       nodesatellites_param="F,0,0,1,0,0,0,1 @ F,0,0,1,0,0.5,0,1 @ F,0,0,1,0,0,0,1"
       radius="0"
       unit="px"
       method="auto"
       mode="F"
       chamfer_steps="1"
       flexible="false"
       use_knot_distance="true"
       apply_no_radius="true"
       apply_with_radius="true"
       only_selected="false"
       hide_knots="false" /><inkscape:path-effect
       effect="fillet_chamfer"
       id="path-effect2-4"
       is_visible="true"
       lpeversion="1"
       nodesatellites_param="F,0,0,1,0,0,0,1 @ F,0,0,1,0,0.5,0,1 @ F,0,0,1,0,0,0,1"
       radius="0"
       unit="px"
       method="auto"
       mode="F"
       chamfer_steps="1"
       flexible="false"
       use_knot_distance="true"
       apply_no_radius="true"
       apply_with_radius="true"
       only_selected="false"
       hide_knots="false" /><inkscape:path-effect
       effect="fillet_chamfer"
       id="path-effect2-3"
       is_visible="true"
       lpeversion="1"
       nodesatellites_param="F,0,0,1,0,0,0,1 @ F,0,0,1,0,0.5,0,1 @ F,0,0,1,0,0,0,1"
       radius="0"
       unit="px"
       method="auto"
       mode="F"
       chamfer_steps="1"
       flexible="false"
       use_knot_distance="true"
       apply_no_radius="true"
       apply_with_radius="true"
       only_selected="false"
       hide_knots="false" /><inkscape:path-effect
       effect="fillet_chamfer"
       id="path-effect2-37"
       is_visible="true"
       lpeversion="1"
       nodesatellites_param="F,0,0,1,0,0,0,1 @ F,0,0,1,0,0.5,0,1 @ F,0,0,1,0,0,0,1"
       radius="0"
       unit="px"
       method="auto"
       mode="F"
       chamfer_steps="1"
       flexible="false"
       use_knot_distance="true"
       apply_no_radius="true"
       apply_with_radius="true"
       only_selected="false"
       hide_knots="false" /><inkscape:path-effect
       effect="fillet_chamfer"
       id="path-effect2-3-4"
       is_visible="true"
       lpeversion="1"
       nodesatellites_param="F,0,0,1,0,0,0,1 @ F,0,0,1,0,0.5,0,1 @ F,0,0,1,0,0,0,1"
       radius="0"
       unit="px"
       method="auto"
       mode="F"
       chamfer_steps="1"
       flexible="false"
       use_knot_distance="true"
       apply_no_radius="true"
       apply_with_radius="true"
       only_selected="false"
       hide_knots="false" /></defs><sodipodi:namedview
     id="namedview1"
     pagecolor="#505050"
     bordercolor="#eeeeee"
     borderopacity="1"
     inkscape:showpageshadow="0"
     inkscape:pageopacity="0"
     inkscape:pagecheckerboard="0"
     inkscape:deskcolor="#505050"
     inkscape:zoom="6.0272353"
     inkscape:cx="-9.1252452"
     inkscape:cy="-13.10717"
     inkscape:window-width="1472"
     inkscape:window-height="923"
     inkscape:window-x="0"
     inkscape:window-y="33"
     inkscape:window-maximized="0"
     inkscape:current-layer="svg1" /><path
     id="path1-6-4"
     style="stroke:#000000;stroke-width:0.999997;stroke-linecap:round;stroke-linejoin:round;stroke-miterlimit:83.9;paint-order:markers fill stroke"
     d="M 6.0511576,15.923728 C 5.7911191,15.529403 5.5745304,15.114786 5.4013813,14.686622 5.2282327,14.258458 5.0985238,13.816746 5.0122476,13.368234 4.9259707,12.919722 4.8831261,12.464409 4.8837039,12.00904 4.8842828,11.553672 4.9282841,11.098248 5.0157,10.649515 5.1031163,10.200782 5.2339477,9.7587401 5.4081844,9.3301341 5.5824217,8.9015288 5.8000643,8.4863599 6.0611053,8.0913732 6.3221452,7.6963866 6.6265835,7.3215822 6.9744105,6.9737065 7.3222376,6.6258308 7.6969884,6.3213488 8.091921,6.0602735 8.4868524,5.799196 8.9019638,5.5815224 9.3305092,5.4072608 9.7590546,5.2329992 10.201035,5.1021506 10.649705,5.014722 c 0.448671,-0.087429 0.90403,-0.1314366 1.359335,-0.1320145 0.455305,-5.79e-4 0.910555,0.042272 1.359004,0.1285611 0.44845,0.086288 0.890099,0.2160149 1.318203,0.3891882 0.428105,0.1731727 0.842665,0.3897923 1.236934,0.6498672 m 2.025663,2.0259463 c 0.260038,0.3943252 0.476627,0.8089417 0.649776,1.2371063 0.173149,0.428164 0.302857,0.8698764 0.389134,1.3183874 0.08628,0.448513 0.129121,0.903826 0.128543,1.359195 -5.78e-4,0.455368 -0.04458,0.910791 -0.131997,1.359524 -0.08742,0.448733 -0.218247,0.890776 -0.392483,1.319382 -0.174238,0.428605 -0.39188,0.843774 -0.652921,1.238761 -0.261041,0.394986 -0.565479,0.76979 -0.913306,1.117666 -0.347827,0.347875 -0.722578,0.652357 -1.11751,0.913433 -0.394932,0.261077 -0.810042,0.478751 -1.238588,0.653012 -0.428546,0.174261 -0.870526,0.305111 -1.319197,0.392539 -0.448669,0.08743 -0.904029,0.131436 -1.359334,0.132015 -0.455305,5.78e-4 -0.910555,-0.04227 -1.359004,-0.128561 C 10.183508,18.902441 9.741858,18.772714 9.3137539,18.599541 8.8856492,18.426368 8.4710906,18.209749 8.0768206,17.949674"
     sodipodi:nodetypes="csssssssssssssccsssssssssssssc" /><path
     style="fill:none;stroke:#000000;stroke-width:1.25742;stroke-linecap:round;stroke-linejoin:round;stroke-miterlimit:83.9;paint-order:markers fill stroke"
     d="m -21.48328,-29.860658 2.852999,-1.73969 a 0.81997312,0.81997312 3.8824341e-6 0 1 0.853788,0 l 2.852998,1.73969"
     id="path2-0"
     sodipodi:nodetypes="ccc"
     transform="matrix(0.2729311,-0.74771413,0.7469186,0.27107059,36.590611,12.979812)"
     inkscape:original-d="m -21.48328,-29.860658 3.279893,-2 3.279892,2"
     inkscape:path-effect="#path-effect2-37" /><path
     style="fill:none;stroke:#000000;stroke-width:1.25742;stroke-linecap:round;stroke-linejoin:round;stroke-miterlimit:83.9;paint-order:markers fill stroke"
     d="m -21.48328,-29.860658 2.852999,-1.73969 a 0.81997312,0.81997312 3.8824341e-6 0 1 0.853788,0 l 2.852998,1.73969"
     id="path2-1-5"
     sodipodi:nodetypes="ccc"
     transform="matrix(-0.2729311,0.74771413,-0.7469186,-0.27107059,-12.590609,11.020187)"
     inkscape:original-d="m -21.48328,-29.860658 3.279893,-2 3.279892,2"
     inkscape:path-effect="#path-effect2-3-4" /></svg>
