<?xml version="1.0" encoding="UTF-8" standalone="no"?>
<svg
   width="24"
   height="24"
   viewBox="0 0 24 24"
   fill="none"
   version="1.1"
   id="svg1"
   sodipodi:docname="cookies.svg"
   inkscape:version="1.4.2 (ebf0e940, 2025-05-08)"
   xmlns:inkscape="http://www.inkscape.org/namespaces/inkscape"
   xmlns:sodipodi="http://sodipodi.sourceforge.net/DTD/sodipodi-0.dtd"
   xmlns="http://www.w3.org/2000/svg"
   xmlns:svg="http://www.w3.org/2000/svg">
  <defs
     id="defs1" />
  <sodipodi:namedview
     id="namedview1"
     pagecolor="#505050"
     bordercolor="#eeeeee"
     borderopacity="1"
     inkscape:showpageshadow="0"
     inkscape:pageopacity="0"
     inkscape:pagecheckerboard="0"
     inkscape:deskcolor="#505050"
     inkscape:zoom="7.035323"
     inkscape:cx="9.0969526"
     inkscape:cy="6.6805746"
     inkscape:window-width="1472"
     inkscape:window-height="923"
     inkscape:window-x="0"
     inkscape:window-y="33"
     inkscape:window-maximized="0"
     inkscape:current-layer="svg1" />
  <path
     style="baseline-shift:baseline;display:inline;overflow:visible;opacity:1;vector-effect:none;fill:#000000;stroke-width:0.999999;stroke-linecap:round;stroke-linejoin:bevel;enable-background:accumulate;stop-color:#000000;stop-opacity:1"
     d="m 9.4211921,2.7576522 c -0.1052748,-0.002 -0.2145981,0.01266 -0.3209782,0.04687 -2.219166,0.713721 -4.1050453,2.227005 -5.282644,4.257929 v 7.09e-4 C 1.2092985,11.580826 2.7596444,17.367858 7.2773148,19.976132 11.794981,22.584418 17.582723,21.034057 20.190997,16.516387 V 16.51566 C 21.361548,14.480436 21.727838,12.08999 21.236306,9.8113391 21.111157,9.2310574 20.530965,8.9393666 20.002813,8.9897206 h -7.27e-4 C 19.332298,9.0536386 18.65378,8.9091376 18.061322,8.5686317 h -7.27e-4 c -0.814483,-0.4704295 -1.347674,-1.2332365 -1.54808,-2.0799655 -0.08496,-0.358942 -0.144778,-0.630508 -0.22156,-0.856415 -0.07678,-0.225907 -0.181392,-0.442786 -0.403352,-0.570943 -0.222179,-0.128239 -0.462064,-0.109795 -0.695926,-0.0632 -0.233861,0.04659 -0.498981,0.130077 -0.852154,0.235762 -0.833676,0.249905 -1.760767,0.169363 -2.575635,-0.301094 C 11.172911,4.5902302 10.70915,4.0749392 10.429557,3.4628102 10.250282,3.0702982 9.8798001,2.7663942 9.421175,2.7576532 Z m -0.014202,0.727171 c 0.1200123,0.0023 0.2842251,0.112255 0.3607453,0.279791 0.3419206,0.748585 0.9100426,1.379539 1.6325846,1.798045 0.99122,0.572272 2.130103,0.672973 3.147998,0.367846 0.35651,-0.106684 0.617876,-0.186052 0.785403,-0.21943 0.167526,-0.03338 0.203933,-0.01202 0.190314,-0.01988 -0.0134,-0.0077 0.02317,0.01302 0.07811,0.174692 0.05495,0.161668 0.117406,0.428322 0.203097,0.790372 0.244735,1.03403 0.901267,1.9699646 1.892491,2.5422594 l 7.28e-4,7.09e-4 c 0.723733,0.4161524 1.55388,0.592302 2.373248,0.5141329 0.226247,-0.021571 0.418965,0.089994 0.453772,0.2513854 0.45374,2.1034511 0.115459,4.3093631 -0.965064,6.1880571 h 7.27e-4 C 17.149335,20.330131 11.818233,21.758042 7.6409005,19.346248 3.4638488,16.93463 2.0356327,11.604664 4.4467435,7.4274552 l 7.09e-4,-7.09e-4 c 1.0872517,-1.874615 2.8276997,-3.271166 4.8757409,-3.92985 0.029054,-0.0093 0.055538,-0.01261 0.083795,-0.01207 z m -1.811537,3.214751 c -0.9085667,1.27e-4 -1.7492447,0.485708 -2.203528,1.27255 -0.7004758,1.2134025 -0.2822549,2.7753078 0.9309781,3.4760778 1.213403,0.700475 2.7753082,0.282255 3.4760777,-0.930978 C 10.500017,9.3036408 10.081727,7.7405162 8.8680029,7.0397252 8.4810692,6.8165202 8.04215,6.6994302 7.5954531,6.6995742 Z m 0,0.727171 c 0.3191009,-1.02e-4 0.6325554,0.08342 0.9089641,0.242864 0.8733435,0.504258 1.1698247,1.6107871 0.6653904,2.4840288 -0.5042408,0.872983 -1.6102145,1.168708 -2.4833198,0.66468 C 5.8135048,10.314078 5.5177798,9.2088148 6.0218077,8.3357092 6.3467951,7.7728152 6.9454772,7.4268362 7.595452,7.4267452 Z m 8.8162419,4.3630278 c -0.908566,1.28e-4 -1.749244,0.485708 -2.203528,1.27255 -0.700475,1.213403 -0.282255,2.775308 0.930978,3.476078 1.213583,0.701036 2.776708,0.282747 3.477498,-0.930978 0.700897,-1.213798 0.281626,-2.776992 -0.932398,-3.477498 -0.386933,-0.223205 -0.825853,-0.340295 -1.27255,-0.340152 z m 0,0.727172 c 0.319101,-1.03e-4 0.632555,0.08342 0.908964,0.242864 0.873561,0.504055 1.170436,1.61063 0.666101,2.484028 -0.504258,0.873344 -1.610787,1.169115 -2.484029,0.66468 -0.872983,-0.504239 -1.168708,-1.609503 -0.66468,-2.482608 0.324988,-0.562895 0.92367,-0.908873 1.573644,-0.908964 z M 9.4588298,13.65244 c -0.9088619,-1.69e-4 -1.7498074,0.485452 -2.2042383,1.27255 -0.7008967,1.213798 -0.282335,2.776281 0.9316883,3.476788 1.2136182,0.700336 2.7763012,0.281843 3.4767872,-0.931689 0.700476,-1.213402 0.281545,-2.776018 -0.931687,-3.476788 C 10.344526,13.769807 9.905602,13.652548 9.4588298,13.65244 Z m 0,0.727171 c 0.3191544,7.8e-5 0.6326122,0.08392 0.9089642,0.243574 0.872982,0.50424 1.169417,1.610214 0.66539,2.483319 -0.504037,0.873199 -1.6100565,1.169319 -2.4833185,0.66539 C 7.676305,17.267839 7.3801393,16.161974 7.8844753,15.288575 8.2095688,14.725497 8.8086426,14.379491 9.4588298,14.379611 Z"
     id="path3528-5-5" />
</svg>
