<?xml version="1.0" encoding="UTF-8" standalone="no"?>
<svg
   width="24"
   height="24"
   viewBox="0 0 24 24"
   fill="none"
   version="1.1"
   id="svg1"
   sodipodi:docname="signin-email.svg"
   inkscape:version="1.4.2 (ebf0e940, 2025-05-08)"
   xmlns:inkscape="http://www.inkscape.org/namespaces/inkscape"
   xmlns:sodipodi="http://sodipodi.sourceforge.net/DTD/sodipodi-0.dtd"
   xmlns="http://www.w3.org/2000/svg"
   xmlns:svg="http://www.w3.org/2000/svg">
  <defs
     id="defs1" />
  <sodipodi:namedview
     id="namedview1"
     pagecolor="#505050"
     bordercolor="#eeeeee"
     borderopacity="1"
     inkscape:showpageshadow="0"
     inkscape:pageopacity="0"
     inkscape:pagecheckerboard="0"
     inkscape:deskcolor="#505050"
     inkscape:zoom="13.922982"
     inkscape:cx="24.635528"
     inkscape:cy="12.461411"
     inkscape:window-width="1472"
     inkscape:window-height="812"
     inkscape:window-x="0"
     inkscape:window-y="32"
     inkscape:window-maximized="0"
     inkscape:current-layer="svg1" />
  <path
     id="path3"
     style="stroke:#000000;stroke-width:0.999999;stroke-linecap:round;stroke-linejoin:round;stroke-miterlimit:83.9;paint-order:markers fill stroke"
     d="m 17.169291,12 c 0,2.854921 -2.314371,5.169292 -5.169292,5.169292 -2.854921,0 -5.169291,-2.314371 -5.169291,-5.169292 0,-2.854921 2.31437,-5.169291 5.169291,-5.1692913 2.854921,-3e-7 5.169292,2.3143703 5.169292,5.1692913 z"
     sodipodi:nodetypes="sssss" />
  <path
     id="path3-8"
     style="stroke:#000000;stroke-width:0.999999;stroke-linecap:round;stroke-linejoin:round;stroke-miterlimit:83.9;paint-order:markers fill stroke"
     d="m 17.148819,12.532086 v 2.7336 c 0,1.051335 0.85066,1.903606 1.900001,1.903606 1.049341,0 1.9,-0.852272 1.899999,-1.8448 V 12 C 20.949028,7.0571045 16.941969,3.0500444 11.999075,3.0502531 7.056904,3.0510654 3.050972,7.0578272 3.051181,12 c -2.09e-4,4.942172 4.005723,8.948934 8.947894,8.949747 1.491574,-0.0037 2.983206,-0.0039 4.474846,-0.0032"
     sodipodi:nodetypes="ccscccccc" />
</svg>
