<?xml version="1.0" encoding="UTF-8" standalone="no"?>
<svg
   width="24"
   height="24"
   viewBox="0 0 24 24"
   fill="none"
   version="1.1"
   id="svg1"
   sodipodi:docname="regulation-style.svg"
   inkscape:version="1.4.2 (ebf0e940, 2025-05-08)"
   xmlns:inkscape="http://www.inkscape.org/namespaces/inkscape"
   xmlns:sodipodi="http://sodipodi.sourceforge.net/DTD/sodipodi-0.dtd"
   xmlns="http://www.w3.org/2000/svg"
   xmlns:svg="http://www.w3.org/2000/svg">
  <defs
     id="defs1">
    <inkscape:path-effect
       effect="fillet_chamfer"
       id="path-effect2-37"
       is_visible="true"
       lpeversion="1"
       nodesatellites_param="F,0,0,1,0,0,0,1 @ F,0,0,1,0,0.5,0,1 @ F,0,0,1,0,0,0,1"
       radius="0"
       unit="px"
       method="auto"
       mode="F"
       chamfer_steps="1"
       flexible="false"
       use_knot_distance="true"
       apply_no_radius="true"
       apply_with_radius="true"
       only_selected="false"
       hide_knots="false" />
    <inkscape:path-effect
       effect="fillet_chamfer"
       id="path-effect2-3-4"
       is_visible="true"
       lpeversion="1"
       nodesatellites_param="F,0,0,1,0,0,0,1 @ F,0,0,1,0,0.5,0,1 @ F,0,0,1,0,0,0,1"
       radius="0"
       unit="px"
       method="auto"
       mode="F"
       chamfer_steps="1"
       flexible="false"
       use_knot_distance="true"
       apply_no_radius="true"
       apply_with_radius="true"
       only_selected="false"
       hide_knots="false" />
  </defs>
  <sodipodi:namedview
     id="namedview1"
     pagecolor="#505050"
     bordercolor="#eeeeee"
     borderopacity="1"
     inkscape:showpageshadow="0"
     inkscape:pageopacity="0"
     inkscape:pagecheckerboard="0"
     inkscape:deskcolor="#505050"
     inkscape:zoom="15.91834"
     inkscape:cx="10.239761"
     inkscape:cy="8.6064248"
     inkscape:window-width="1472"
     inkscape:window-height="923"
     inkscape:window-x="0"
     inkscape:window-y="33"
     inkscape:window-maximized="0"
     inkscape:current-layer="svg1" />
  <g
     id="g1"
     transform="rotate(90,-27.967424,95.416276)">
    <path
       id="path1-6-4"
       style="stroke:#000000;stroke-width:0.999997;stroke-linecap:round;stroke-linejoin:round;stroke-miterlimit:83.9;paint-order:markers fill stroke"
       d="m -117.33254,59.372581 c -0.26004,-0.394325 -0.47663,-0.808942 -0.64978,-1.237106 -0.17315,-0.428164 -0.30286,-0.869876 -0.38913,-1.318388 -0.0863,-0.448512 -0.12912,-0.903825 -0.12855,-1.359194 5.8e-4,-0.455368 0.0446,-0.910792 0.132,-1.359525 0.0874,-0.448733 0.21825,-0.890775 0.39248,-1.319381 0.17424,-0.428605 0.39188,-0.843774 0.65293,-1.238761 0.26104,-0.394986 0.56547,-0.769791 0.9133,-1.117667 0.34783,-0.347875 0.72258,-0.652357 1.11751,-0.913433 0.39493,-0.261077 0.81004,-0.478751 1.23859,-0.653012 0.42854,-0.174262 0.87052,-0.30511 1.31919,-0.392539 0.44868,-0.08743 0.90403,-0.131437 1.35934,-0.132014 0.4553,-5.8e-4 0.91055,0.04227 1.359,0.128561 0.44845,0.08629 0.8901,0.216014 1.31821,0.389188 0.4281,0.173172 0.84266,0.389792 1.23693,0.649867 m 2.02566,2.025946 c 0.26004,0.394326 0.47663,0.808942 0.64978,1.237107 0.17315,0.428164 0.30286,0.869876 0.38913,1.318387 0.0863,0.448513 0.12912,0.903826 0.12855,1.359195 -5.8e-4,0.455368 -0.0446,0.910791 -0.132,1.359524 -0.0874,0.448733 -0.21825,0.890776 -0.39248,1.319382 -0.17424,0.428605 -0.39188,0.843774 -0.65292,1.238761 -0.26104,0.394986 -0.56548,0.76979 -0.91331,1.117666 -0.34783,0.347875 -0.72258,0.652357 -1.11751,0.913433 -0.39493,0.261077 -0.81004,0.478751 -1.23859,0.653012 -0.42854,0.174261 -0.87052,0.305111 -1.3192,0.392539 -0.44866,0.08743 -0.90402,0.131436 -1.35933,0.132015 -0.4553,5.78e-4 -0.91055,-0.04227 -1.359,-0.128561 -0.44845,-0.08629 -0.8901,-0.216016 -1.31821,-0.389189 -0.4281,-0.173173 -0.84266,-0.389792 -1.23693,-0.649867"
       sodipodi:nodetypes="csssssssssssssccsssssssssssssc" />
    <path
       style="fill:none;stroke:#000000;stroke-width:1.25742;stroke-linecap:round;stroke-linejoin:round;stroke-miterlimit:83.9;paint-order:markers fill stroke"
       d="m -21.48328,-29.860658 2.852999,-1.73969 a 0.81997312,0.81997312 3.8824341e-6 0 1 0.853788,0 l 2.852998,1.73969"
       id="path2-0"
       sodipodi:nodetypes="ccc"
       transform="matrix(0.2729311,-0.74771413,0.7469186,0.27107059,-86.793089,56.428665)"
       inkscape:original-d="m -21.48328,-29.860658 3.279893,-2 3.279892,2"
       inkscape:path-effect="#path-effect2-37" />
    <path
       style="fill:none;stroke:#000000;stroke-width:1.25742;stroke-linecap:round;stroke-linejoin:round;stroke-miterlimit:83.9;paint-order:markers fill stroke"
       d="m -21.48328,-29.860658 2.852999,-1.73969 a 0.81997312,0.81997312 3.8824341e-6 0 1 0.853788,0 l 2.852998,1.73969"
       id="path2-1-5"
       sodipodi:nodetypes="ccc"
       transform="matrix(-0.2729311,0.74771413,-0.7469186,-0.27107059,-135.97431,54.46904)"
       inkscape:original-d="m -21.48328,-29.860658 3.279893,-2 3.279892,2"
       inkscape:path-effect="#path-effect2-3-4" />
  </g>
  <circle
     style="fill:#000000;stroke-width:0.999998;stroke-linecap:round;stroke-miterlimit:10;paint-order:fill markers stroke"
     id="path2"
     cx="12"
     cy="12"
     r="2.8346457" />
</svg>
