<?xml version="1.0" encoding="UTF-8" standalone="no"?>
<svg
   role="img"
   viewBox="0 0 24 24"
   version="1.1"
   id="svg1"
   sodipodi:docname="tiktok.svg"
   inkscape:version="1.4.2 (ebf0e940, 2025-05-08)"
   xmlns:inkscape="http://www.inkscape.org/namespaces/inkscape"
   xmlns:sodipodi="http://sodipodi.sourceforge.net/DTD/sodipodi-0.dtd"
   xmlns="http://www.w3.org/2000/svg"
   xmlns:svg="http://www.w3.org/2000/svg">
  <defs
     id="defs1" />
  <sodipodi:namedview
     id="namedview1"
     pagecolor="#505050"
     bordercolor="#eeeeee"
     borderopacity="1"
     inkscape:showpageshadow="0"
     inkscape:pageopacity="0"
     inkscape:pagecheckerboard="0"
     inkscape:deskcolor="#505050"
     inkscape:zoom="4.4253324"
     inkscape:cx="-4.7454062"
     inkscape:cy="-18.755653"
     inkscape:window-width="1472"
     inkscape:window-height="923"
     inkscape:window-x="0"
     inkscape:window-y="33"
     inkscape:window-maximized="0"
     inkscape:current-layer="svg1" />
  <title
     id="title1">TikTok</title>
  <path
     d="m 12.413736,2.566929 c 1.031483,-0.015748 2.055092,-0.00787 3.078701,-0.015748 0.06299,1.2047093 0.496057,2.4330404 1.377936,3.2834234 0.881878,0.8740048 2.125957,1.2755746 3.33854,1.4094312 V 10.417224 C 19.075069,10.377854 17.933351,10.141637 16.901868,9.6534544 16.453055,9.4487326 16.035737,9.1888933 15.626294,8.9211801 c -0.0079,2.2991839 0.0079,4.5983679 -0.01575,6.8896769 -0.06299,1.102349 -0.425192,2.196823 -1.062979,3.102324 -1.031483,1.511792 -2.818862,2.496031 -4.6534847,2.527527 C 8.7681122,21.503699 7.6421421,21.196617 6.6815242,20.629695 5.0909929,19.692699 3.9728967,17.976185 3.8075444,16.133688 3.7917966,15.739992 3.7839227,15.346296 3.7996705,14.960474 3.941401,13.46443 4.6815492,12.031377 5.8311411,11.055012 7.1382114,9.9211676 8.9649601,9.3778673 10.6736,9.7006979 c 0.01575,1.1653401 -0.0315,2.3306791 -0.0315,3.4960191 -0.7795177,-0.251965 -1.6928921,-0.1811 -2.3779229,0.291335 -0.4960568,0.32283 -0.8740048,0.818887 -1.0708527,1.377935 -0.1653523,0.40157 -0.1181088,0.842509 -0.1102349,1.267701 0.1889741,1.291322 1.433053,2.377923 2.755871,2.259814 0.8818785,-0.0079 1.7243875,-0.519678 2.1810755,-1.2677 0.149604,-0.25984 0.314956,-0.527553 0.32283,-0.834636 0.07874,-1.409431 0.04724,-2.810988 0.05512,-4.220419 0.0079,-3.1731886 -0.0079,-6.3385033 0.01575,-9.503818 z"
     id="path1"
     style="stroke-width:1" />
</svg>
