<?xml version="1.0" encoding="UTF-8" standalone="no"?>
<svg
   width="24"
   height="24"
   viewBox="0 0 24 24"
   fill="none"
   version="1.1"
   id="svg1"
   sodipodi:docname="reply.svg"
   inkscape:version="1.4.2 (ebf0e940, 2025-05-08)"
   xmlns:inkscape="http://www.inkscape.org/namespaces/inkscape"
   xmlns:sodipodi="http://sodipodi.sourceforge.net/DTD/sodipodi-0.dtd"
   xmlns="http://www.w3.org/2000/svg"
   xmlns:svg="http://www.w3.org/2000/svg">
  <defs
     id="defs1" />
  <sodipodi:namedview
     id="namedview1"
     pagecolor="#505050"
     bordercolor="#eeeeee"
     borderopacity="1"
     inkscape:showpageshadow="0"
     inkscape:pageopacity="0"
     inkscape:pagecheckerboard="0"
     inkscape:deskcolor="#505050"
     inkscape:zoom="20.508661"
     inkscape:cx="8.9718195"
     inkscape:cy="13.750289"
     inkscape:window-width="1472"
     inkscape:window-height="923"
     inkscape:window-x="0"
     inkscape:window-y="33"
     inkscape:window-maximized="0"
     inkscape:current-layer="svg1" />
  <g
     id="g1"
     transform="matrix(-0.86158198,0,0,0.9122516,14.48152,47.777475)"
     style="stroke-width:1.12796">
    <path
       id="rect1-9"
       style="fill:none;stroke:#000000;stroke-width:1.12795;stroke-linecap:round;stroke-miterlimit:10;paint-order:fill markers stroke"
       d="m 4.2195216,-46.939402 c -0.57457,0.0215 -1.027173,0.40844 -1.028044,0.87901 v 1.812933 c 0,0.541114 -0.449811,0.983135 -1.001674,1.029885 -6.276544,0.531708 -8.819283,5.037957 -9.539441,10.259911 -0.2705863,1.96206 -0.2895953,1.911003 0.422145,0.06718 1.400193,-3.627319 4.907857,-6.291639 9.117121,-6.659938 0.551647,-0.04826 1.001849,0.395016 1.001849,0.936129 v 1.812939 c -0.0017,0.785979 1.159807,1.180499 1.838974,0.624609 l 4.58166,-3.749561 c 1.0158174,-0.830898 1.0158174,-2.178242 0,-3.009141 l -4.58166,-3.747666 c -0.214298,-0.17484 -0.508614,-0.26786 -0.81093,-0.25629 z"
       sodipodi:nodetypes="ccccccccccc" />
    <path
       id="rect1-9-6"
       style="fill:none;stroke:#000000;stroke-width:1.12795;stroke-linecap:round;stroke-miterlimit:10;paint-order:fill markers stroke"
       d="m 9.0860345,-36.275231 1.1454145,-1.122708 1.145415,-1.12271 1.145415,-1.122708 c 0.253954,-0.248792 0.44442,-0.536241 0.571397,-0.843021 0.126977,-0.30678 0.190466,-0.632889 0.190466,-0.958997 0,-0.326109 -0.06349,-0.652219 -0.190466,-0.958998 -0.126977,-0.306781 -0.317443,-0.59423 -0.571397,-0.843021 l -1.145415,-1.122141 -1.145415,-1.122142 -1.1454145,-1.122141"
       sodipodi:nodetypes="ccccssscccc" />
  </g>
</svg>
