<?xml version="1.0" encoding="UTF-8" standalone="no"?>
<svg
   width="24"
   height="24"
   viewBox="0 0 24 24"
   fill="none"
   version="1.1"
   id="svg3"
   sodipodi:docname="signals.svg"
   inkscape:version="1.4.2 (ebf0e940, 2025-05-08)"
   xmlns:inkscape="http://www.inkscape.org/namespaces/inkscape"
   xmlns:sodipodi="http://sodipodi.sourceforge.net/DTD/sodipodi-0.dtd"
   xmlns="http://www.w3.org/2000/svg"
   xmlns:svg="http://www.w3.org/2000/svg">
  <defs
     id="defs3" />
  <sodipodi:namedview
     id="namedview3"
     pagecolor="#505050"
     bordercolor="#eeeeee"
     borderopacity="1"
     inkscape:showpageshadow="0"
     inkscape:pageopacity="0"
     inkscape:pagecheckerboard="0"
     inkscape:deskcolor="#505050"
     inkscape:zoom="8.0985031"
     inkscape:cx="9.5696697"
     inkscape:cy="12.162741"
     inkscape:window-width="1472"
     inkscape:window-height="868"
     inkscape:window-x="0"
     inkscape:window-y="32"
     inkscape:window-maximized="0"
     inkscape:current-layer="svg3" />
  <path
     id="path1-8-1-50-2-8-0-8"
     d="M 7.4573246,3.2073839 C 7.5849714,3.5580904 7.4041471,3.9458694 7.0534405,4.0735161 6.7027339,4.2011628 6.314955,4.0203385 6.1873082,3.669632 6.0596615,3.3189254 6.2404858,2.9311464 6.5911924,2.8034997 6.941899,2.675853 7.3296779,2.8566773 7.4573246,3.2073839 Z M 13.53494,3.0565279 c 0.127645,0.3507023 -0.05318,0.738486 -0.403884,0.8661322 -0.350705,0.1276463 -0.738487,-0.053182 -0.866132,-0.4038841 -0.127647,-0.3507066 0.05318,-0.738486 0.403884,-0.8661323 0.350705,-0.1276462 0.738485,0.053178 0.866132,0.4038842 z m 6.077614,-0.060532 c 0.127646,0.3507066 -0.05318,0.738486 -0.403885,0.8661323 -0.350705,0.1276462 -0.738485,-0.053178 -0.866132,-0.4038842 -0.127645,-0.3507023 0.05318,-0.738486 0.403884,-0.8661322 0.350706,-0.1276463 0.738487,0.053182 0.866133,0.4038841 z M 3.7905496,13.188374 c -0.077767,-0.441052 0.2167277,-0.861642 0.65778,-0.939409 0.4410522,-0.07777 0.8616373,0.216729 0.939409,0.65778 0.077768,0.441052 -0.2167292,0.861637 -0.6577799,0.939409 -0.4410522,0.07777 -0.8616415,-0.216728 -0.9394091,-0.65778 z m 6.077613,0.0047 c -0.077768,-0.441052 0.2167294,-0.861637 0.6577814,-0.939404 0.441051,-0.07777 0.861637,0.216729 0.939409,0.657779 0.07777,0.441053 -0.216729,0.861638 -0.657781,0.939405 -0.441051,0.07777 -0.8616376,-0.216729 -0.9394094,-0.65778 z M 15.945778,13.08971 c -0.07777,-0.441052 0.21673,-0.861638 0.65778,-0.939409 0.441052,-0.07777 0.861639,0.216728 0.939408,0.65778 0.07777,0.441052 -0.216728,0.861642 -0.65778,0.939409 -0.441052,0.07777 -0.861639,-0.216729 -0.939408,-0.65778 z m -7.1615696,3.288559 c 1.3e-6,0.522495 -0.4235679,0.946063 -0.9460637,0.946064 -0.5225016,-2e-6 -0.9460672,-0.423567 -0.94607,-0.946067 3e-6,-0.522497 0.4235722,-0.946064 0.946068,-0.946065 0.5224958,-2e-6 0.9460672,0.423566 0.9460657,0.946068 z m 6.0776146,-0.0019 c 1e-6,0.522496 -0.423568,0.946063 -0.946064,0.946064 -0.522501,-1e-6 -0.946069,-0.42357 -0.94607,-0.946066 3e-6,-0.522497 0.423571,-0.946069 0.946068,-0.946066 0.522496,-10e-7 0.946067,0.423567 0.946066,0.946068 z m 6.077615,-0.05122 c 0,0.522497 -0.423569,0.946064 -0.946066,0.946066 -0.522499,-3e-6 -0.946066,-0.423567 -0.946067,-0.946068 10e-7,-0.522497 0.423569,-0.946064 0.946067,-0.946065 0.522497,-2e-6 0.946065,0.423567 0.946066,0.946067 z"
     style="fill:#ffffff;stroke-width:7.55907;stroke-linecap:round;stroke-linejoin:round" />
  <path
     id="path1-8-1-50-2-9-3"
     d="M 7.0669136,4.9670618 C 7.6794842,5.0750745 8.0885106,5.6592235 7.9804978,6.271795 7.872485,6.8843666 7.2883352,7.293392 6.6757646,7.1853793 6.0631939,7.0773666 5.6541675,6.4932176 5.7621803,5.880646 5.8701931,5.2680745 6.4543429,4.8590491 7.0669136,4.9670618 Z M 13.144529,4.8162029 c 0.61257,0.1080127 1.021597,0.6921617 0.913584,1.3047332 C 13.9501,6.7335077 13.36595,7.1425331 12.75338,7.0345204 12.140805,6.9265069 11.731783,6.3423587 11.839796,5.7297871 11.947808,5.1172156 12.531954,4.7081894 13.144529,4.8162029 Z m 6.077612,-0.060531 c 0.61257,0.1080127 1.021597,0.6921622 0.913584,1.3047332 -0.108013,0.6125716 -0.692163,1.021597 -1.304733,0.9135843 C 18.218421,6.8659769 17.809395,6.2818279 17.917408,5.6692563 18.02542,5.0566853 18.60957,4.6476594 19.222141,4.7556719 Z M 4.6185946,11.190218 C 3.9171852,10.934925 3.555533,10.159364 3.8108257,9.4579532 4.0661184,8.7565425 4.8416817,8.3948929 5.543091,8.6501854 6.2445005,8.9054774 6.6061526,9.6810393 6.35086,10.38245 6.0955673,11.08386 5.320004,11.44551 4.6185946,11.190218 Z m 6.0776134,0.0047 C 9.994799,10.939581 9.6331469,10.164019 9.8884395,9.4626091 10.143732,8.7611984 10.919296,8.3995483 11.620705,8.6548408 c 0.701409,0.2552924 1.063061,1.0308538 0.807769,1.7322642 -0.255293,0.701411 -1.030856,1.063061 -1.732266,0.807768 z m 6.077617,-0.103366 c -0.701413,-0.255293 -1.063061,-1.030853 -0.807768,-1.7322642 0.255292,-0.7014107 1.030851,-1.0630615 1.73226,-0.8077691 0.701414,0.2552932 1.063062,1.0308539 0.807769,1.7322643 -0.255292,0.701411 -1.030851,1.063061 -1.732261,0.807769 z m -9.3458032,7.41475 C 8.1821815,18.941716 8.440574,19.906058 8.0051609,20.660219 7.5697477,21.41438 6.6054052,21.672774 5.8512455,21.23736 5.0970814,20.801944 4.8386889,19.837603 5.2741021,19.083442 c 0.4354176,-0.75416 1.3997556,-1.012556 2.1539197,-0.57714 z m 6.0776102,-0.0019 c 0.754164,0.435415 1.012557,1.399756 0.577144,2.153918 -0.435418,0.75416 -1.399756,1.012555 -2.15392,0.57714 -0.75416,-0.435415 -1.012552,-1.399756 -0.577139,-2.153917 0.435413,-0.754161 1.399756,-1.012556 2.153915,-0.577141 z m 6.077617,-0.05122 c 0.75416,0.435415 1.012557,1.399757 0.577139,2.153917 -0.435413,0.754162 -1.399756,1.012556 -2.153915,0.577142 -0.75416,-0.435415 -1.012557,-1.399757 -0.577144,-2.153918 0.435418,-0.754161 1.39976,-1.012556 2.15392,-0.577141 z"
     style="fill:#ffffff;stroke-width:7.55907;stroke-linecap:round;stroke-linejoin:round" />
  <path
     id="path1-8-1-5-3-9-8-1"
     d="m 5.6968867,5.2134439 c 0,0.4976169 -0.4033981,0.9010154 -0.9010154,0.9010154 -0.4976173,0 -0.9010154,-0.4033985 -0.9010154,-0.9010154 0,-0.4976173 0.4033981,-0.9010154 0.9010154,-0.9010154 0.4976173,0 0.9010154,0.4033981 0.9010154,0.9010154 z M 11.774501,5.0625851 c 0,0.4976173 -0.403398,0.9010154 -0.901015,0.9010154 -0.497617,0 -0.9010154,-0.4033981 -0.9010154,-0.9010154 0,-0.4976168 0.4033984,-0.9010154 0.9010154,-0.9010154 0.497617,0 0.901015,0.4033986 0.901015,0.9010154 z m 6.077615,-0.060529 c 0,0.4976168 -0.403403,0.9010154 -0.901015,0.9010154 -0.497618,0 -0.901016,-0.4033986 -0.901016,-0.9010154 0,-0.4976173 0.403398,-0.9010154 0.901016,-0.9010154 0.497612,0 0.901015,0.4033981 0.901015,0.9010154 z M 6.289007,11.184524 c 0.1036934,-0.588069 0.6644763,-0.980733 1.2525421,-0.877041 0.5880702,0.103693 0.9807327,0.664476 0.8770438,1.252544 C 8.3148996,12.148096 7.7541166,12.54076 7.1660464,12.437068 6.5779807,12.333375 6.1853136,11.772592 6.289007,11.184524 Z m 6.077615,0.0047 c 0.103689,-0.588069 0.664476,-0.980733 1.252542,-0.877041 0.58807,0.103693 0.980732,0.664476 0.877039,1.252544 -0.103689,0.588069 -0.664472,0.980733 -1.252542,0.877041 -0.58807,-0.103692 -0.980733,-0.664475 -0.877039,-1.252544 z m 6.077614,-0.103366 c 0.103689,-0.588068 0.664472,-0.980733 1.252542,-0.877041 0.588071,0.103693 0.980733,0.664476 0.87704,1.252544 -0.103694,0.588069 -0.664477,0.980733 -1.252542,0.877041 -0.588071,-0.103693 -0.980733,-0.664476 -0.87704,-1.252544 z M 5.5076735,18.17438 C 5.2694,18.82903 4.5455422,19.16657 3.8908959,18.928296 3.2362452,18.690023 2.8987023,17.966166 3.1369758,17.311516 c 0.2382735,-0.654649 0.9621313,-0.99219 1.616782,-0.753917 0.6546508,0.238274 0.9921892,0.96213 0.7539157,1.616781 z m 6.0776145,-0.0019 c -0.238273,0.65465 -0.962131,0.99219 -1.6167819,0.753917 -0.6546462,-0.238273 -0.9921891,-0.96213 -0.7539156,-1.61678 0.2382735,-0.65465 0.9621315,-0.99219 1.6167825,-0.753917 0.654646,0.238273 0.992189,0.96213 0.753915,1.61678 z m 6.077615,-0.05122 c -0.238274,0.65465 -0.962131,0.99219 -1.616782,0.753917 -0.654651,-0.238273 -0.992189,-0.96213 -0.753916,-1.61678 0.238274,-0.65465 0.962131,-0.99219 1.616778,-0.753916 0.65465,0.238273 0.992193,0.962129 0.75392,1.616779 z"
     style="fill:#ffffff;stroke-width:7.55902;stroke-linecap:round;stroke-linejoin:round" />
</svg>
