<?xml version="1.0" encoding="UTF-8" standalone="no"?>
<svg
   width="24"
   height="24"
   viewBox="0 0 24 24"
   fill="none"
   aria-hidden="true"
   version="1.1"
   id="svg1"
   sodipodi:docname="brain-display-nodes.svg"
   inkscape:version="1.4.2 (ebf0e940, 2025-05-08)"
   xmlns:inkscape="http://www.inkscape.org/namespaces/inkscape"
   xmlns:sodipodi="http://sodipodi.sourceforge.net/DTD/sodipodi-0.dtd"
   xmlns="http://www.w3.org/2000/svg"
   xmlns:svg="http://www.w3.org/2000/svg">
  <defs
     id="defs1">
    <inkscape:path-effect
       effect="fillet_chamfer"
       id="path-effect1-7"
       is_visible="true"
       lpeversion="1"
       nodesatellites_param="F,0,0,1,0,1,0,1 @ F,0,0,1,0,1,0,1 @ F,0,0,1,0,0,0,1 @ F,0,0,1,0,1,0,1 @ F,0,0,1,0,1,0,1 @ F,0,0,1,0,1,0,1 @ F,0,0,1,0,1,0,1 @ F,0,0,1,0,0,0,1 @ F,0,0,1,0,1,0,1 @ F,0,0,1,0,1,0,1 @ F,0,0,1,0,1,0,1 @ F,0,0,1,0,0,0,1 @ F,0,0,1,0,0,0,1 @ F,0,0,1,0,1,0,1 @ F,0,0,1,0,1,0,1 @ F,0,0,1,0,1,0,1 @ F,0,0,1,0,1,0,1 @ F,0,0,1,0,0,0,1 @ F,0,0,1,0,1,0,1 @ F,0,0,1,0,1,0,1"
       radius="0"
       unit="px"
       method="auto"
       mode="F"
       chamfer_steps="1"
       flexible="false"
       use_knot_distance="true"
       apply_no_radius="true"
       apply_with_radius="true"
       only_selected="false"
       hide_knots="false" />
    <inkscape:path-effect
       effect="fillet_chamfer"
       id="path-effect2"
       is_visible="true"
       lpeversion="1"
       nodesatellites_param="F,0,0,1,0,0,0,1 @ F,0,0,1,0,0,0,1 @ F,0,0,1,0,0,0,1 @ F,0,0,1,0,1,0,1 @ F,0,0,1,0,1,0,1 @ F,0,0,1,0,0,0,1 @ F,0,0,1,0,0,0,1 @ F,0,0,1,0,1,0,1 @ F,0,0,1,0,1,0,1 @ F,0,0,1,0,0,0,1 @ F,0,0,1,0,0,0,1 @ F,0,0,1,0,1,0,1 @ F,0,0,1,0,1,0,1 @ F,0,0,1,0,0,0,1 @ F,0,0,1,0,0,0,1 @ F,0,0,1,0,1,0,1 @ F,0,0,1,0,0,0,1 @ F,0,0,1,0,3,0,1 @ F,0,0,1,0,0,0,1 @ F,0,0,1,0,1,0,1"
       radius="0"
       unit="px"
       method="auto"
       mode="F"
       chamfer_steps="1"
       flexible="false"
       use_knot_distance="true"
       apply_no_radius="true"
       apply_with_radius="true"
       only_selected="false"
       hide_knots="false" />
  </defs>
  <sodipodi:namedview
     id="namedview1"
     pagecolor="#505050"
     bordercolor="#eeeeee"
     borderopacity="1"
     inkscape:showpageshadow="0"
     inkscape:pageopacity="0"
     inkscape:pagecheckerboard="0"
     inkscape:deskcolor="#505050"
     inkscape:zoom="9.9993269"
     inkscape:cx="1.1500774"
     inkscape:cy="17.651188"
     inkscape:window-width="1472"
     inkscape:window-height="896"
     inkscape:window-x="0"
     inkscape:window-y="32"
     inkscape:window-maximized="0"
     inkscape:current-layer="svg1" />
  <path
     id="path1-8-6-1"
     style="fill:none;stroke:#000000;stroke-width:1.03121;stroke-linecap:round;stroke-linejoin:round;stroke-miterlimit:83.9;paint-order:markers fill stroke"
     d="m 24.065663,23.286958 c 0.213767,-0.505402 0.331975,-1.061062 0.331975,-1.644331 0,-1.166538 -0.472833,-2.222641 -1.262814,-3.014017 a 1.9861446,1.9861446 67.811918 0 1 -0.62695,-1.537208 v -1.311873 c 0,-0.552285 0.01459,-1.459887 -0.150405,-1.98471 -0.16022,-0.509634 -0.441506,-0.965627 -0.810146,-1.334266 -0.593478,-0.593478 -1.41336,-0.960552 -2.318976,-0.960552 -0.749663,0 -1.440577,0.251534 -2.821428,0.674808 -0.52793,0.161827 -1.38835,0.161804 -1.916378,-5.5e-5 -0.789933,-0.242141 -1.354071,-0.428074 -1.832595,-0.542857 -0.535661,-0.128489 -1.448541,-0.146487 -1.973364,0.01851 -0.509634,0.16022 -0.9656269,0.441507 -1.3342667,0.810146 -0.5934778,0.593478 -0.9605514,1.41336 -0.9605514,2.318977 v 2.311873 A 1.9861451,1.9861451 112.18807 0 1 7.7628143,18.628609 C 6.7314631,20.064327 6.5,20.826446 6.5,21.642626 c 0,0.583269 0.1182083,1.13893 0.331975,1.644331 0.1392251,0.329165 0.3189845,0.637011 0.6231486,1.057787 0.3235345,0.447573 0.6606238,1.242216 0.8265623,1.76832 0.5515349,1.748627 1.8452271,2.813374 3.3876061,2.813374 0.817868,0 1.56581,-0.299385 2.186249,-0.794542 1.274236,-1.016936 1.912321,-1.016932 3.186562,5e-6 0.620438,0.495154 1.368378,0.794538 2.186243,0.794538 1.542379,0 2.836072,-1.064747 3.387607,-2.813374 0.165938,-0.526104 0.503016,-1.320734 0.826539,-1.768289 0.304178,-0.420792 0.483942,-0.728645 0.623171,-1.057818 z"
     sodipodi:nodetypes="sscccsscsscccsscscscs"
     inkscape:path-effect="#path-effect2"
     inkscape:original-d="m 24.065663,23.286958 c 0.213767,-0.505402 0.331975,-1.061062 0.331975,-1.644331 0,-1.166538 -0.472833,-2.222641 -1.262814,-3.014017 l -0.62695,-0.537208 v -3.311873 c 0,-0.905617 -0.367073,-1.725499 -0.960551,-2.318976 -0.593478,-0.593478 -1.41336,-0.960552 -2.318976,-0.960552 -0.905617,0 -1.725499,0.367074 -3.779528,0.960551 C 13.39479,11.867074 12.574908,11.5 11.669292,11.5 c -0.905617,0 -1.7254989,0.367074 -2.3189767,0.960551 -0.5934778,0.593478 -0.9605514,1.41336 -0.9605514,2.318977 v 3.311873 L 7.7628143,18.628609 C 6.9728332,19.419985 6.5,20.476088 6.5,21.642626 c 0,0.583269 0.1182083,1.13893 0.331975,1.644331 0.2137668,0.505401 0.523092,0.960544 1.2315577,1.851365 0.3262318,2.319821 1.7945252,3.788116 3.6057593,3.788116 1.811234,0 3.279527,-1.468295 3.779527,-3.279528 0.5,1.811233 1.968294,3.279529 3.779527,3.279529 1.811234,0 3.279529,-1.468296 3.60576,-3.788116 0.708465,-0.890821 1.01779,-1.345964 1.231557,-1.851365 z"
     transform="matrix(-0.99836963,0,0,0.94191637,27.423632,-7.0391628)" />
</svg>
