<?xml version="1.0" encoding="UTF-8" standalone="no"?>
<svg
   width="24"
   height="24"
   viewBox="0 0 24 24"
   fill="none"
   aria-hidden="true"
   version="1.1"
   id="svg1"
   sodipodi:docname="brain-display-nodes.svg"
   inkscape:version="1.4.2 (ebf0e940, 2025-05-08)"
   xmlns:inkscape="http://www.inkscape.org/namespaces/inkscape"
   xmlns:sodipodi="http://sodipodi.sourceforge.net/DTD/sodipodi-0.dtd"
   xmlns="http://www.w3.org/2000/svg"
   xmlns:svg="http://www.w3.org/2000/svg">
  <defs
     id="defs1">
    <inkscape:path-effect
       effect="fillet_chamfer"
       id="path-effect1-7"
       is_visible="true"
       lpeversion="1"
       nodesatellites_param="F,0,0,1,0,1,0,1 @ F,0,0,1,0,1,0,1 @ F,0,0,1,0,0,0,1 @ F,0,0,1,0,1,0,1 @ F,0,0,1,0,1,0,1 @ F,0,0,1,0,1,0,1 @ F,0,0,1,0,1,0,1 @ F,0,0,1,0,0,0,1 @ F,0,0,1,0,1,0,1 @ F,0,0,1,0,1,0,1 @ F,0,0,1,0,1,0,1 @ F,0,0,1,0,0,0,1 @ F,0,0,1,0,0,0,1 @ F,0,0,1,0,1,0,1 @ F,0,0,1,0,1,0,1 @ F,0,0,1,0,1,0,1 @ F,0,0,1,0,1,0,1 @ F,0,0,1,0,0,0,1 @ F,0,0,1,0,1,0,1 @ F,0,0,1,0,1,0,1"
       radius="0"
       unit="px"
       method="auto"
       mode="F"
       chamfer_steps="1"
       flexible="false"
       use_knot_distance="true"
       apply_no_radius="true"
       apply_with_radius="true"
       only_selected="false"
       hide_knots="false" />
  </defs>
  <sodipodi:namedview
     id="namedview1"
     pagecolor="#505050"
     bordercolor="#eeeeee"
     borderopacity="1"
     inkscape:showpageshadow="0"
     inkscape:pageopacity="0"
     inkscape:pagecheckerboard="0"
     inkscape:deskcolor="#505050"
     inkscape:zoom="9.9993269"
     inkscape:cx="1.1500774"
     inkscape:cy="17.651188"
     inkscape:window-width="1472"
     inkscape:window-height="896"
     inkscape:window-x="0"
     inkscape:window-y="32"
     inkscape:window-maximized="0"
     inkscape:current-layer="svg1" />
  <path
     id="path1-8"
     style="fill:none;stroke:#000000;stroke-width:0.998699;stroke-linecap:round;stroke-miterlimit:10;paint-order:fill markers stroke"
     d="m 15.693759,19.969444 c 0.05442,0.01849 0.10928,0.03567 0.164529,0.05151 0.529147,0.151767 1.445028,0.152207 1.974194,4.79e-4 1.494147,-0.428416 2.587561,-1.804747 2.587661,-3.43646 -1.41e-4,-0.394106 -0.06543,-0.78309 -0.191118,-1.15188 -0.177587,-0.521048 -0.277477,-1.304392 -0.130679,-1.836511 0.124295,-0.450555 0.213054,-0.910174 0.265456,-1.374611 0.06189,-0.548515 0.06198,-1.447259 2.06e-4,-1.995788 -0.05237,-0.4650603 -0.141203,-0.9252967 -0.265663,-1.3764465 -0.146797,-0.532118 -0.0469,-1.3154647 0.130683,-1.8365184 0.01859,-0.054549 0.03586,-0.1095394 0.05179,-0.164923 0.15219,-0.5290238 0.15297,-1.4449228 0.0012,-1.9740794 -0.428469,-1.4940064 -1.804882,-2.5873095 -3.43669,-2.587409 -0.393952,-1.509e-4 -0.782835,0.064779 -1.151595,0.190076 C 15.172534,2.653985 14.389,2.7525062 13.855634,2.6104884 13.43242,2.4978001 12.981427,2.4141423 12.479815,2.3601821 11.930824,2.3011252 11.033633,2.3011253 10.484655,2.3601795 9.9830419,2.4141386 9.5320488,2.4977953 9.1088341,2.6104823 8.5754557,2.7525019 7.7919072,2.6539822 7.2706868,2.4768836 6.9019297,2.3515885 6.5130496,2.2866597 6.119101,2.2868107 4.1448441,2.2869312 2.5444229,3.8872373 2.5443023,5.8613521 c -1.51e-4,0.3939093 0.064779,0.7827508 0.1900762,1.1514722 0.1771149,0.5212088 0.276902,1.3048951 0.1304009,1.8370959 -0.1241773,0.4511043 -0.2127365,0.911271 -0.2648577,1.3762408 -0.061491,0.548559 -0.061398,1.447297 2.065e-4,1.995845 0.052149,0.464346 0.1406382,0.923895 0.264652,1.374405 0.1465008,0.532199 0.04671,1.315888 -0.1304049,1.837102 -0.01848,0.05438 -0.035647,0.109204 -0.051485,0.164414 -0.1517973,0.529137 -0.1522368,1.445026 -4.787e-4,1.974182 0.4284694,1.494006 1.8048825,2.587308 3.4366896,2.587408 0.3939518,1.51e-4 0.782835,-0.06478 1.1515948,-0.190076 0.5212149,-0.177098 1.30475,-0.275619 1.8381151,-0.133601 0.4232147,0.112688 0.8742075,0.196346 1.3758201,0.250307 0.548991,0.05906 1.446182,0.05906 1.99516,2e-6 0.501613,-0.05396 0.952606,-0.137616 1.37582,-0.250303 0.533379,-0.14202 1.316927,-0.0435 1.838148,0.133598 z"
     inkscape:path-effect="#path-effect1-7"
     inkscape:original-d="m 14.803922,19.520349 c 0.599283,0.416404 1.311656,0.639448 2.041422,0.639168 1.974256,-1.2e-4 3.574678,-1.600426 3.574799,-3.57454 -2.62e-4,-0.729911 -0.223972,-1.44225 -0.641062,-2.041276 0.422971,-1.055673 0.640551,-2.182369 0.641062,-3.319613 -2.76e-4,-1.137865 -0.21786,-2.2652105 -0.641062,-3.3214604 0.41709,-0.5990254 0.6408,-1.3113645 0.641062,-2.0412755 C 20.420022,3.8872372 18.819601,2.2869311 16.845344,2.2868107 16.115578,2.2865311 15.403205,2.5095748 14.803922,2.9259793 13.859315,2.5482823 12.857152,2.3346196 11.482223,2.2941999 10.107293,2.3346196 9.1051306,2.5482824 8.1605234,2.9259793 7.5612399,2.5095747 6.8488669,2.286531 6.119101,2.2868107 4.1448441,2.2869312 2.5444229,3.8872373 2.5443023,5.8613521 2.5440226,6.5910655 2.7670824,7.3033873 3.183517,7.9026276 2.7609472,8.9590015 2.5439906,10.086342 2.5443023,11.224088 c -7.66e-5,1.137124 0.2168758,2.263816 0.6392147,3.319613 -0.4164347,0.59924 -0.6394945,1.311562 -0.6392147,2.041276 1.213e-4,1.974114 1.6005424,3.574419 3.5747987,3.57454 0.7297659,2.8e-4 1.4421389,-0.222764 2.0414224,-0.639168 0.9446071,0.377697 1.9467696,0.59136 3.3216996,0.63178 1.374929,-0.04042 2.377092,-0.254083 3.321699,-0.63178 z"
     transform="matrix(1.0012077,0,0,1.0013951,0.5039104,0.76117871)"
     sodipodi:nodetypes="ccccccccccccccccccccc" />
</svg>
