<?xml version="1.0" encoding="UTF-8" standalone="no"?>
<svg
   width="24"
   height="24"
   viewBox="0 0 24 24"
   fill="none"
   aria-hidden="true"
   version="1.1"
   id="svg1"
   sodipodi:docname="feedback.svg"
   inkscape:version="1.4.2 (ebf0e940, 2025-05-08)"
   xmlns:inkscape="http://www.inkscape.org/namespaces/inkscape"
   xmlns:sodipodi="http://sodipodi.sourceforge.net/DTD/sodipodi-0.dtd"
   xmlns="http://www.w3.org/2000/svg"
   xmlns:svg="http://www.w3.org/2000/svg">
  <defs
     id="defs1">
    <inkscape:path-effect
       effect="fillet_chamfer"
       id="path-effect1"
       is_visible="true"
       lpeversion="1"
       nodesatellites_param="F,0,0,1,0,5,0,1 @ F,0,0,1,0,5,0,1 @ F,0,0,1,0,1,0,1 @ F,0,0,1,0,1,0,1 @ F,0,0,1,0,1,0,1 @ F,0,0,1,0,5,0,1 @ F,0,0,1,0,5,0,1"
       radius="0"
       unit="px"
       method="auto"
       mode="F"
       chamfer_steps="1"
       flexible="false"
       use_knot_distance="true"
       apply_no_radius="true"
       apply_with_radius="true"
       only_selected="false"
       hide_knots="false" />
    <inkscape:path-effect
       effect="fillet_chamfer"
       id="path-effect1-6"
       is_visible="true"
       lpeversion="1"
       nodesatellites_param="F,0,0,1,0,5,0,1 @ F,0,0,1,0,5,0,1 @ F,0,0,1,0,1,0,1 @ F,0,0,1,0,1,0,1 @ F,0,0,1,0,1,0,1 @ F,0,0,1,0,5,0,1 @ F,0,0,1,0,5,0,1"
       radius="0"
       unit="px"
       method="auto"
       mode="F"
       chamfer_steps="1"
       flexible="false"
       use_knot_distance="true"
       apply_no_radius="true"
       apply_with_radius="true"
       only_selected="false"
       hide_knots="false" />
  </defs>
  <sodipodi:namedview
     id="namedview1"
     pagecolor="#505050"
     bordercolor="#eeeeee"
     borderopacity="1"
     inkscape:showpageshadow="0"
     inkscape:pageopacity="0"
     inkscape:pagecheckerboard="0"
     inkscape:deskcolor="#505050"
     inkscape:zoom="4.7968843"
     inkscape:cx="8.4429803"
     inkscape:cy="-23.035786"
     inkscape:window-width="1472"
     inkscape:window-height="896"
     inkscape:window-x="0"
     inkscape:window-y="32"
     inkscape:window-maximized="0"
     inkscape:current-layer="svg1"
     showguides="true" />
  <path
     id="rect1-2-9"
     style="fill:none;stroke:#000000;stroke-width:1.90325;stroke-linecap:round;stroke-miterlimit:1;paint-order:stroke markers fill"
     d="m 18.921875,-26.773438 0,4.363282 a 5,5 45 0 0 5,5 h 3.269531 a 2.0802051,2.0802051 25.67461 0 1 1.624572,0.780967 l 2.377809,2.973222 A 0.35069258,0.35069258 160.67461 0 0 31.818359,-13.875 v -2.535156 a 1,1 135 0 1 1,-1 5,5 135 0 0 5,-5 l 0,-4.363282 a 5,5 45 0 0 -5,-5 h -8.896484 a 5,5 135 0 0 -5,5 z"
     sodipodi:nodetypes="cccccccc"
     inkscape:path-effect="#path-effect1"
     inkscape:original-d="m 18.921875,-31.773438 v 14.363282 h 9.269531 l 3.626953,4.535156 v -4.535156 h 6 v -14.363282 z"
     transform="matrix(0.52553203,0,0,0.52529208,1.073977,28.056466)" />
  <path
     id="rect1-2-9-3"
     style="fill:none;stroke:#000000;stroke-width:0.999987;stroke-linecap:round;stroke-miterlimit:1;paint-order:stroke markers fill"
     d="m 11.272871,12.67847 h -1.09613 c -0.4237957,0 -0.8246052,0.19261 -1.089296,0.523463 l -1.5943504,1.992879 c -0.1388389,0.173543 -0.4187832,0.0754 -0.4187832,-0.146813 v -1.699253 c 0,-0.370184 -0.3001985,-0.670276 -0.6705124,-0.670276 -1.851569,0 -3.3525619,-1.500463 -3.3525619,-3.3513787 v -2.924602 c 0,-1.8509155 1.5009929,-3.3513787 3.3525619,-3.3513787 h 5.965203 c 1.851569,0 3.352562,1.5004632 3.352562,3.3513787 v 2.924602 c 0,0.4627289 -0.09381,0.9035547 -0.263462,1.3045077 -0.08482,0.200477 -0.188607,0.390986 -0.309103,0.56928"
     sodipodi:nodetypes="ccccccsssssccsc" />
</svg>
