<?xml version="1.0" encoding="UTF-8" standalone="no"?>
<svg
   width="24"
   height="24"
   viewBox="0 0 24 24"
   fill="none"
   version="1.1"
   id="svg1"
   sodipodi:docname="signin-email.svg"
   inkscape:version="1.4.2 (ebf0e940, 2025-05-08)"
   xmlns:inkscape="http://www.inkscape.org/namespaces/inkscape"
   xmlns:sodipodi="http://sodipodi.sourceforge.net/DTD/sodipodi-0.dtd"
   xmlns="http://www.w3.org/2000/svg"
   xmlns:svg="http://www.w3.org/2000/svg">
  <defs
     id="defs1" />
  <sodipodi:namedview
     id="namedview1"
     pagecolor="#505050"
     bordercolor="#eeeeee"
     borderopacity="1"
     inkscape:showpageshadow="0"
     inkscape:pageopacity="0"
     inkscape:pagecheckerboard="0"
     inkscape:deskcolor="#505050"
     inkscape:zoom="4.0301857"
     inkscape:cx="-3.9700404"
     inkscape:cy="4.9625504"
     inkscape:window-width="1472"
     inkscape:window-height="923"
     inkscape:window-x="0"
     inkscape:window-y="33"
     inkscape:window-maximized="0"
     inkscape:current-layer="svg1" />
  <path
     style="baseline-shift:baseline;display:inline;overflow:visible;opacity:1;vector-effect:none;fill:#000000;stroke-width:0.999999;stroke-linecap:round;stroke-linejoin:round;enable-background:accumulate;stop-color:#000000;stop-opacity:1"
     d="m 12.000005,2.55118 c -5.20724,0 -9.44882,4.24159 -9.44882,9.44882 0,5.20727 4.24159,9.44882 9.44882,9.44882 h 3.77953 a 0.9448805,0.9448805 0 0 0 0.9449,-0.9449 0.9448805,0.9448805 0 0 0 -0.9449,-0.9449 h -3.77953 c -4.18594,0 -7.55903,-3.37305 -7.55903,-7.55902 0,-4.18593 3.37309,-7.55902 7.55903,-7.55902 4.18597,0 7.55902,3.37308 7.55902,7.55902 v 1.41732 c 0,0.79394 -0.62339,1.41732 -1.41732,1.41732 -0.79394,0 -1.41727,-0.62338 -1.41727,-1.41732 V 12 c 0,-2.59803 -2.12644,-4.72438 -4.72443,-4.72438 -2.59803,0 -4.72439,2.12636 -4.72439,4.72438 0,2.598 2.12635,4.72438 4.72439,4.72438 1.3346,0 2.54208,-0.56361 3.40345,-1.46155 0.59672,0.87943 1.60433,1.46155 2.73825,1.46155 1.81525,0 3.30711,-1.4918 3.30711,-3.30706 V 12 c 0,-5.20723 -4.24155,-9.44882 -9.44881,-9.44882 z m 0,6.61418 c 1.57667,0 2.83464,1.25793 2.83464,2.83464 0,1.57666 -1.25798,2.83464 -2.83464,2.83464 -1.57671,0 -2.83464,-1.25797 -2.83464,-2.83464 0,-1.57672 1.25791,-2.83464 2.83464,-2.83464 z"
     id="path1" />
</svg>
