<?xml version="1.0" encoding="UTF-8" standalone="no"?>
<svg
   width="24"
   height="24"
   viewBox="0 0 24 24"
   fill="none"
   version="1.1"
   id="svg1"
   sodipodi:docname="signin-phone.svg"
   inkscape:version="1.4.2 (ebf0e940, 2025-05-08)"
   xmlns:inkscape="http://www.inkscape.org/namespaces/inkscape"
   xmlns:sodipodi="http://sodipodi.sourceforge.net/DTD/sodipodi-0.dtd"
   xmlns="http://www.w3.org/2000/svg"
   xmlns:svg="http://www.w3.org/2000/svg">
  <defs
     id="defs1" />
  <sodipodi:namedview
     id="namedview1"
     pagecolor="#505050"
     bordercolor="#eeeeee"
     borderopacity="1"
     inkscape:showpageshadow="0"
     inkscape:pageopacity="0"
     inkscape:pagecheckerboard="0"
     inkscape:deskcolor="#505050"
     inkscape:zoom="14.049683"
     inkscape:cx="9.2528778"
     inkscape:cy="9.8222857"
     inkscape:window-width="1472"
     inkscape:window-height="923"
     inkscape:window-x="0"
     inkscape:window-y="33"
     inkscape:window-maximized="0"
     inkscape:current-layer="svg1" />
  <path
     id="rect3538"
     style="baseline-shift:baseline;display:inline;overflow:visible;opacity:1;vector-effect:none;fill:#000000;stroke-width:1;stroke-linecap:square;stroke-linejoin:round;enable-background:accumulate;stop-color:#000000;stop-opacity:1"
     d="m 8.8374275,2.55118 c -0.860978,0 -1.561837,0.70086 -1.561837,1.56184 v 15.77364 c 0,0.86098 0.700859,1.56216 1.561837,1.56216 h 6.3248195 c 0.860979,0 1.562162,-0.70118 1.562162,-1.56216 V 4.11302 c 0,-0.86098 -0.701183,-1.56184 -1.562162,-1.56184 z m 0,0.50391 h 6.3248195 c 0.590515,0 1.05826,0.46741 1.05826,1.05793 v 15.77364 c 0,0.59052 -0.467744,1.05793 -1.05826,1.05793 H 8.8374275 c -0.590516,0 -1.057935,-0.46741 -1.057935,-1.05793 V 4.11302 c 0,-0.59052 0.467419,-1.05793 1.057935,-1.05793 z M 11.02556,3.30704 a 0.31495836,0.31495836 0 0 0 -0.315101,0.3151 0.31495836,0.31495836 0 0 0 0.315101,0.31477 h 1.948878 a 0.31495836,0.31495836 0 0 0 0.314778,-0.31477 0.31495836,0.31495836 0 0 0 -0.314777,-0.3151 z m -0.536779,17.3856 a 0.06299167,0.06299167 0 0 0 -0.06283,0.0632 0.06299167,0.06299167 0 0 0 0.06283,0.0628 h 3.022437 a 0.06299167,0.06299167 0 0 0 0.06282,-0.0628 0.06299167,0.06299167 0 0 0 -0.06282,-0.0632 z" />
</svg>
