<?xml version="1.0" encoding="UTF-8" standalone="no"?>
<svg
   viewBox="0 0 24 24"
   fill="none"
   stroke="currentColor"
   stroke-width="1.5"
   stroke-linecap="round"
   stroke-linejoin="round"
   version="1.1"
   id="svg1"
   sodipodi:docname="model-source-preference.svg"
   inkscape:version="1.4.2 (ebf0e940, 2025-05-08)"
   xmlns:inkscape="http://www.inkscape.org/namespaces/inkscape"
   xmlns:sodipodi="http://sodipodi.sourceforge.net/DTD/sodipodi-0.dtd"
   xmlns="http://www.w3.org/2000/svg"
   xmlns:svg="http://www.w3.org/2000/svg">
  <defs
     id="defs1" />
  <sodipodi:namedview
     id="namedview1"
     pagecolor="#505050"
     bordercolor="#eeeeee"
     borderopacity="1"
     inkscape:showpageshadow="0"
     inkscape:pageopacity="0"
     inkscape:pagecheckerboard="0"
     inkscape:deskcolor="#505050"
     inkscape:zoom="10.749227"
     inkscape:cx="20.652647"
     inkscape:cy="13.024192"
     inkscape:window-width="1472"
     inkscape:window-height="923"
     inkscape:window-x="0"
     inkscape:window-y="33"
     inkscape:window-maximized="0"
     inkscape:current-layer="svg1" />
  <path
     id="rect1"
     style="stroke:#000000;stroke-width:1;stroke-miterlimit:83.9;paint-order:markers fill stroke"
     d="M 5.885826,17.408069 V 6.8203665 m 12.228347,0 V 17.408069"
     sodipodi:nodetypes="cccc" />
  <path
     id="path2"
     style="stroke:#000000;stroke-width:1;stroke-miterlimit:83.9;paint-order:markers fill stroke"
     d="M 18.114173,6.3307084 A 6.1141734,3.2795274 0 0 1 12,9.6102359 6.1141734,3.2795274 0 0 1 5.885826,6.3307084 6.1141734,3.2795274 0 0 1 12,3.051181 6.1141734,3.2795274 0 0 1 18.114173,6.3307084 Z" />
  <path
     id="path2-5"
     style="stroke:#000000;stroke-width:1;stroke-miterlimit:83.9;paint-order:markers fill stroke"
     d="m 18.114173,17.669292 c 0,1.811233 -2.737409,3.279527 -6.114173,3.279527 -3.376765,0 -6.114174,-1.468294 -6.114174,-3.279527"
     sodipodi:nodetypes="csc" />
  <path
     id="path2-5-7"
     style="stroke:#000000;stroke-width:1;stroke-miterlimit:83.9;paint-order:markers fill stroke"
     d="m 18.114173,12 c 0,1.811233 -2.737409,3.279527 -6.114173,3.279527 -3.376765,0 -6.114174,-1.468294 -6.114174,-3.279527"
     sodipodi:nodetypes="csc" />
</svg>
