<?xml version="1.0" encoding="UTF-8" standalone="no"?>
<svg
   width="24"
   height="24"
   viewBox="0 0 24 24"
   fill="none"
   version="1.1"
   id="svg1"
   sodipodi:docname="unlike.svg"
   xml:space="preserve"
   inkscape:version="1.4.2 (ebf0e940, 2025-05-08)"
   xmlns:inkscape="http://www.inkscape.org/namespaces/inkscape"
   xmlns:sodipodi="http://sodipodi.sourceforge.net/DTD/sodipodi-0.dtd"
   xmlns="http://www.w3.org/2000/svg"
   xmlns:svg="http://www.w3.org/2000/svg"><defs
     id="defs1" /><sodipodi:namedview
     id="namedview1"
     pagecolor="#505050"
     bordercolor="#eeeeee"
     borderopacity="1"
     inkscape:showpageshadow="0"
     inkscape:pageopacity="0"
     inkscape:pagecheckerboard="0"
     inkscape:deskcolor="#505050"
     inkscape:zoom="4.3013468"
     inkscape:cx="-17.668885"
     inkscape:cy="14.181605"
     inkscape:window-width="1472"
     inkscape:window-height="923"
     inkscape:window-x="0"
     inkscape:window-y="33"
     inkscape:window-maximized="0"
     inkscape:current-layer="svg1" /><g
     id="g2"
     transform="matrix(0.99984562,0,0,0.99984324,-1.7478447,-1.2713737)"
     style="stroke-width:1.00016"><path
       id="path28-3"
       style="fill:none;fill-opacity:1;fill-rule:evenodd;stroke:#000000;stroke-width:1.00015;stroke-linecap:round;stroke-dasharray:none"
       d="m 21.048736,13.021971 c 0.147396,-0.399686 0.253805,-0.790901 0.323122,-1.171379 0.06932,-0.380478 0.101538,-0.75022 0.10057,-1.106964 -9.92e-4,-0.356743 -0.03514,-0.700487 -0.09862,-1.0289696 C 21.310331,9.3861774 21.217555,9.0729579 21.099369,8.7772645 20.981183,8.4815711 20.837588,8.2034022 20.672479,7.9450243 20.507369,7.6866453 20.320746,7.4480545 20.116503,7.2315178 19.91226,7.0149797 19.690396,6.8204957 19.454809,6.6503254 19.21922,6.4801564 18.969906,6.3343022 18.710762,6.2150275 18.451619,6.0957528 18.182644,6.0030564 17.907733,5.9392034 c -0.27491,-0.063854 -0.555757,-0.098866 -0.838646,-0.1027715 -1.136989,0 -2.717806,0.4399872 -3.94127,2.4781416 C 12.082521,6.55586 10.638658,5.8364319 9.2592062,5.8364319 4.6702113,5.8989079 0.6670861,13.924444 13.127817,20.642482 c 0.77944,-0.419876 1.494526,-0.844861 2.149153,-1.27269 0.654628,-0.427831 1.248794,-0.858502 1.786398,-1.289755"
       sodipodi:nodetypes="csssssssssccccsc" /><g
       id="g1"
       transform="matrix(0.60922596,0,0,0.60922596,6.0906205,4.3338158)"
       style="stroke-width:1.64169"><path
         style="fill:none;stroke:#000000;stroke-width:1.64169;stroke-linecap:round;stroke-linejoin:round"
         d="m 21.460207,16.114841 5.80315,5.80315"
         id="path1" /><path
         style="fill:none;stroke:#000000;stroke-width:1.64169;stroke-linecap:round;stroke-linejoin:round"
         d="m 21.460208,21.917991 5.803149,-5.80315"
         id="path1-9" /></g></g></svg>
