<svg width="20" height="20" viewBox="0 0 20 20" fill="none" xmlns="http://www.w3.org/2000/svg">
  <path d="M10 7.75C8.75736 7.75 7.75 8.75736 7.75 10C7.75 11.2426 8.75736 12.25 10 12.25C11.2426 12.25 12.25 11.2426 12.25 10C12.25 8.75736 11.2426 7.75 10 7.75Z" stroke="currentColor" stroke-width="1.25"/>
  <path d="M16 10C16 9.5335 15.6519 9.15114 15.1986 9.09786L14.4874 9.01422C14.3504 8.60967 14.1427 8.23789 13.8763 7.91221L14.3189 7.34111C14.5974 6.98164 14.5646 6.47092 14.2426 6.14895L13.851 5.75736C13.5291 5.43539 13.0184 5.40264 12.6589 5.6811L12.0878 6.12367C11.7621 5.85731 11.3903 5.64964 10.9858 5.51264L10.9021 4.80141C10.8489 4.3481 10.4665 4 10 4C9.5335 4 9.15114 4.3481 9.09786 4.80141L9.01422 5.51264C8.60967 5.64964 8.23789 5.85731 7.91221 6.12367L7.34111 5.6811C6.98164 5.40264 6.47092 5.43539 6.14895 5.75736L5.75736 6.14895C5.43539 6.47092 5.40264 6.98164 5.6811 7.34111L6.12367 7.91221C5.85731 8.23789 5.64964 8.60967 5.51264 9.01422L4.80141 9.09786C4.3481 9.15114 4 9.5335 4 10C4 10.4665 4.3481 10.8489 4.80141 10.9021L5.51264 10.9858C5.64964 11.3903 5.85731 11.7621 6.12367 12.0878L5.6811 12.6589C5.40264 13.0184 5.43539 13.5291 5.75736 13.851L6.14895 14.2426C6.47092 14.5646 6.98164 14.5974 7.34111 14.3189L7.91221 13.8763C8.23789 14.1427 8.60967 14.3504 9.01422 14.4874L9.09786 15.1986C9.15114 15.6519 9.5335 16 10 16C10.4665 16 10.8489 15.6519 10.9021 15.1986L10.9858 14.4874C11.3903 14.3504 11.7621 14.1427 12.0878 13.8763L12.6589 14.3189C13.0184 14.5974 13.5291 14.5646 13.851 14.2426L14.2426 13.851C14.5646 13.5291 14.5974 13.0184 14.3189 12.6589L13.8763 12.0878C14.1427 11.7621 14.3504 11.3903 14.4874 10.9858L15.1986 10.9021C15.6519 10.8489 16 10.4665 16 10Z" stroke="currentColor" stroke-width="1.25" stroke-linecap="round" stroke-linejoin="round"/>
</svg>
