<?xml version="1.0" encoding="UTF-8" standalone="no"?>
<svg
   width="20"
   height="20"
   viewBox="0 0 20 20"
   fill="none"
   version="1.1"
   id="svg3"
   sodipodi:docname="edit.svg"
   xml:space="preserve"
   inkscape:version="1.4.2 (ebf0e940, 2025-05-08)"
   xmlns:inkscape="http://www.inkscape.org/namespaces/inkscape"
   xmlns:sodipodi="http://sodipodi.sourceforge.net/DTD/sodipodi-0.dtd"
   xmlns="http://www.w3.org/2000/svg"
   xmlns:svg="http://www.w3.org/2000/svg"><defs
     id="defs3"><inkscape:path-effect
       effect="fillet_chamfer"
       id="path-effect4"
       is_visible="true"
       lpeversion="1"
       nodesatellites_param="F,0,0,1,0,3,0,1 @ F,0,0,1,0,3,0,1 @ F,0,0,1,0,3,0,1 @ F,0,0,1,0,3,0,1 @ F,0,0,1,0,3,0,1"
       radius="0"
       unit="px"
       method="auto"
       mode="F"
       chamfer_steps="1"
       flexible="false"
       use_knot_distance="true"
       apply_no_radius="true"
       apply_with_radius="true"
       only_selected="false"
       hide_knots="false" /><inkscape:path-effect
       effect="fillet_chamfer"
       id="path-effect3"
       is_visible="true"
       lpeversion="1"
       nodesatellites_param="F,0,0,1,0,0,0,1 @ F,0,0,1,0,0,0,1 @ F,0,0,1,0,5,0,1 @ F,0,0,1,0,5,0,1 @ F,0,0,1,0,5,0,1 @ F,0,0,1,0,0,0,1 @ F,0,0,1,0,0,0,1"
       radius="0"
       unit="px"
       method="auto"
       mode="F"
       chamfer_steps="1"
       flexible="false"
       use_knot_distance="true"
       apply_no_radius="true"
       apply_with_radius="true"
       only_selected="false"
       hide_knots="false" /></defs><sodipodi:namedview
     id="namedview3"
     pagecolor="#505050"
     bordercolor="#eeeeee"
     borderopacity="1"
     inkscape:showpageshadow="0"
     inkscape:pageopacity="0"
     inkscape:pagecheckerboard="0"
     inkscape:deskcolor="#505050"
     inkscape:zoom="4.4490167"
     inkscape:cx="-17.531964"
     inkscape:cy="20.229189"
     inkscape:window-width="1472"
     inkscape:window-height="923"
     inkscape:window-x="0"
     inkscape:window-y="33"
     inkscape:window-maximized="0"
     inkscape:current-layer="svg3" /><path
     id="rect3"
     style="stroke:#000000;stroke-width:2.1116;stroke-linecap:round;stroke-linejoin:round;stroke-miterlimit:79.1;paint-order:stroke fill markers"
     d="m 55.305788,-21.574179 v 9.448819 l 0,4.4488196 a 5,5 135 0 1 -5,5 H 22.510511 a 5,5 45 0 1 -5,-5 V -35.471817 a 5,5 135 0 1 5,-5 h 4.448819 9.448819"
     inkscape:path-effect="#path-effect3"
     inkscape:original-d="m 55.305788,-21.574179 v 9.448819 9.4488196 H 17.510511 V -40.471817 h 9.448819 9.448819"
     sodipodi:nodetypes="ccccccc"
     transform="matrix(0.47357684,0,0,0.47357684,-7.2420566,20.217031)" /><path
     id="rect4"
     style="stroke:#000000;stroke-width:2.22637;stroke-linecap:round;stroke-linejoin:round;stroke-miterlimit:79.1;paint-order:stroke fill markers"
     d="m 71.263512,-43.634346 4.338583,0 a 3,3 45 0 1 3,3 v 23.896162 a 9.0070274,9.0070274 108.42154 0 1 -1.798876,5.400842 l -1.571539,2.0974302 a 2.2478065,2.2478065 180 0 1 -3.597752,10e-8 l -1.57154,-2.0974303 a 9.007026,9.007026 71.57846 0 1 -1.798876,-5.400842 v -23.896162 a 3,3 135 0 1 3,-3 z"
     sodipodi:nodetypes="cccccc"
     inkscape:path-effect="#path-effect4"
     inkscape:original-d="m 68.263512,-43.634346 h 10.338583 v 29.896162 l -5.169291,6.8991146 -5.169292,-6.8991146 z"
     transform="matrix(0.31102202,0.31102202,-0.32433086,0.32433086,-19.089908,-6.5885302)" /></svg>
