<?xml version="1.0" encoding="UTF-8" standalone="no"?>
<svg
   width="20"
   height="20"
   viewBox="0 0 20 20"
   fill="none"
   version="1.1"
   id="svg3"
   sodipodi:docname="globe.svg"
   inkscape:version="1.4.2 (ebf0e940, 2025-05-08)"
   xmlns:inkscape="http://www.inkscape.org/namespaces/inkscape"
   xmlns:sodipodi="http://sodipodi.sourceforge.net/DTD/sodipodi-0.dtd"
   xmlns="http://www.w3.org/2000/svg"
   xmlns:svg="http://www.w3.org/2000/svg">
  <defs
     id="defs3" />
  <sodipodi:namedview
     id="namedview3"
     pagecolor="#505050"
     bordercolor="#eeeeee"
     borderopacity="1"
     inkscape:showpageshadow="0"
     inkscape:pageopacity="0"
     inkscape:pagecheckerboard="0"
     inkscape:deskcolor="#505050"
     inkscape:zoom="12.594261"
     inkscape:cx="6.6697047"
     inkscape:cy="10.798569"
     inkscape:window-width="1472"
     inkscape:window-height="923"
     inkscape:window-x="0"
     inkscape:window-y="33"
     inkscape:window-maximized="0"
     inkscape:current-layer="svg3" />
  <g
     id="g3"
     transform="matrix(0.4982538,0,0,0.4982538,18.986572,-3.4348492)"
     style="stroke-width:2.00701">
    <path
       id="path5-18-9"
       style="fill:#040606;fill-opacity:1;fill-rule:nonzero;stroke:none;stroke-width:0.267601"
       d="M -24.358929,9.8318869 A 18.018897,18.018897 0 0 0 -36.052258,26.28504 c 0.66017,0.631559 1.406702,1.009738 2.523439,1.128907 1.74104,0.187464 3.634734,0.341669 4.929676,1.519521 0.255496,0.232441 0.488088,0.518438 0.539074,0.859351 0.104315,0.696907 -0.701216,1.275289 -0.654312,1.978545 0.102426,1.535736 2.482583,1.401071 2.988284,2.853506 0.310299,0.891704 -0.269103,1.828913 -0.494136,2.746091 -0.326173,1.328202 -0.01134,2.751194 0.597657,3.976555 0.326929,0.657184 0.703635,1.433537 1.117191,2.175798 a 18.018897,18.018897 0 0 0 1.746066,0.572258 c 0.02268,-0.09789 0.03402,-0.184441 0.03893,-0.249826 0.02268,-0.350741 -0.0805,-0.696416 -0.148536,-1.040996 -0.274015,-1.377335 -0.735722,-3.385285 2.105462,-6.667994 0.855761,-0.988157 1.865272,-1.882733 2.410129,-3.070299 0.545273,-1.187074 0.427502,-2.82977 -0.683565,-3.517568 -0.884863,-0.547578 -2.079005,-0.317103 -2.990249,-0.820309 -0.665008,-0.36737 -1.078299,-1.07074 -1.691414,-1.519521 -0.792454,-0.579893 -1.83069,-0.676989 -2.812498,-0.707037 -0.981354,-0.03024 -2.001184,-0.0189 -2.89062,-0.437518 -0.889852,-0.416919 -1.59927,-1.414261 -1.326161,-2.357404 0.185197,-0.638589 0.749745,-1.07966 1.283187,-1.476586 0.615874,-0.457436 1.231824,-0.914646 1.84766,-1.373027 0.80795,-0.600832 1.681399,-1.309342 1.81251,-2.306646 0.109229,-0.831571 -0.318614,-1.780271 0.165922,-2.464856 0.470664,-0.662287 1.481952,-0.61217 2.146507,-1.080076 0.692296,-0.487483 0.876321,-1.469556 0.679672,-2.292964 -0.196913,-0.823408 -0.698003,-1.533165 -1.158198,-2.244132 -0.134173,-0.207496 -0.266835,-0.419339 -0.388687,-0.6367371 z m 5.119144,0.7265761 c -0.296315,0.0015 -0.587528,0.115276 -0.804662,0.336 v 0.002 h -0.002 -0.002 v 0.002 l -0.0019,0.0019 h -0.002 v 0.002 c -0.388725,0.399647 -0.560693,1.000101 -0.441411,1.54492 0.07257,0.33222 0.243401,0.634998 0.318236,0.966803 0.07748,0.34696 0.04498,0.709266 0.08391,1.062501 0.03893,0.353763 0.170079,0.727899 0.472668,0.914041 0.451502,0.278173 1.059553,0.0076 1.408214,-0.39258 0.348851,-0.399194 0.551207,-0.910904 0.906255,-1.304655 0.455622,-0.50521 1.132611,-0.784366 1.539062,-1.330092 0.198425,-0.2657 0.314457,-0.655029 0.115275,-0.919937 -0.20485,-0.272126 -0.607256,-0.259653 -0.947263,-0.257763 -0.732812,0.0019 -1.463168,-0.174237 -2.117215,-0.503887 -0.165544,-0.08315 -0.345827,-0.123213 -0.523427,-0.123213 z m 9.2500155,0.02646 c -0.7730645,0.609902 -1.5456755,1.220183 -2.3183625,1.830085 -0.417373,0.329197 -0.877115,0.751824 -0.826167,1.281222 0.08088,0.852964 1.388296,1.145688 1.503912,1.994154 0.07143,0.525695 -0.387061,0.997078 -0.88868,1.171881 -0.500221,0.175748 -1.044737,0.145512 -1.572284,0.205228 -2.166614,0.247937 -3.999004,2.289487 -3.945297,4.47069 0.05367,2.180258 2.041927,4.151093 4.222639,4.121083 0.668674,-0.01134 1.327937,-0.183685 1.99612,-0.207118 0.667767,-0.02268 1.396233,0.136819 1.8222613,0.652347 0.4319622,0.522066 0.4443212,1.26017 0.4374803,1.937499 -0.015118,1.617222 -0.034016,5.363225 -0.048756,6.980447 -0.00756,0.575358 0.00756,1.204498 0.3749291,1.646476 0.4260662,0.511597 1.2126237,0.588775 1.8398741,0.361323 0.6258519,-0.226394 1.1309102,-0.693884 1.6152189,-1.150413 1.3873512,-1.307112 3.7865575,-5.304491 5.72265831,-8.068346 A 18.018897,18.018897 0 0 0 -0.02020715,26.706004 18.018897,18.018897 0 0 0 -9.9909033,10.58492 Z" />
    <path
       style="baseline-shift:baseline;display:inline;overflow:visible;opacity:1;vector-effect:none;fill:#000000;stroke-width:4.02809;stroke-linecap:round;stroke-linejoin:round;enable-background:accumulate;stop-color:#000000;stop-opacity:1"
       d="M -18.037109,8 C -28.499323,8 -37,16.500677 -37,26.962891 c 0,10.462213 8.500677,18.964843 18.962891,18.964843 10.4622133,0 18.96484338,-8.50263 18.96484338,-18.964843 C 0.92773437,16.500677 -7.5748957,8 -18.037109,8 Z m 0,1.890625 c 9.4409111,0 17.07421837,7.631354 17.07421837,17.072266 0,9.440911 -7.63330727,17.074218 -17.07421837,17.074218 -9.440912,0 -17.072266,-7.633307 -17.072266,-17.074218 0,-9.440912 7.631354,-17.072266 17.072266,-17.072266 z"
       id="path3529-3" />
  </g>
</svg>
