<?xml version="1.0" encoding="UTF-8" standalone="no"?>
<svg
   width="24"
   height="24"
   viewBox="0 0 24 24"
   fill="none"
   version="1.1"
   id="svg3"
   sodipodi:docname="structure.svg"
   inkscape:version="1.4.2 (ebf0e940, 2025-05-08)"
   xmlns:inkscape="http://www.inkscape.org/namespaces/inkscape"
   xmlns:sodipodi="http://sodipodi.sourceforge.net/DTD/sodipodi-0.dtd"
   xmlns="http://www.w3.org/2000/svg"
   xmlns:svg="http://www.w3.org/2000/svg">
  <defs
     id="defs3" />
  <sodipodi:namedview
     id="namedview3"
     pagecolor="#505050"
     bordercolor="#eeeeee"
     borderopacity="1"
     inkscape:showpageshadow="0"
     inkscape:pageopacity="0"
     inkscape:pagecheckerboard="0"
     inkscape:deskcolor="#505050"
     inkscape:zoom="4.669244"
     inkscape:cx="8.0312788"
     inkscape:cy="10.387121"
     inkscape:window-width="1472"
     inkscape:window-height="868"
     inkscape:window-x="0"
     inkscape:window-y="32"
     inkscape:window-maximized="0"
     inkscape:current-layer="svg3" />
  <g
     id="g10-3-06"
     transform="matrix(0.05624495,0,0,0.05624495,65.573098,66.639035)"
     style="fill:#ffffff;stroke-width:67.1977"
     inkscape:export-filename="../../Neuroartan/website/docs/assets/icons/layers/website/sections/home/featured-functions/signals.svg"
     inkscape:export-xdpi="96"
     inkscape:export-ydpi="96">
    <path
       id="path1-8-1-50-2-6-7-7"
       transform="rotate(-80,3.566877e-6,1.4762164e-5)"
       d="m 925.18787,-1231.0786 c 0,13.8071 -11.19289,25 -25,25 -13.80712,0 -25,-11.1929 -25,-25 0,-13.8071 11.19288,-25 25,-25 13.80711,0 25,11.1929 25,25 z m -23.19973,70.4984 c 0,-13.8071 11.19288,-25 25,-25 13.80712,0 25,11.1929 25,25 0,13.8071 -11.19288,25 -25,25 -13.80712,0 -25,-11.1929 -25,-25 z m 59.81719,137.1695 c 0,13.8072 -11.19288,25.00004 -25,25.00004 -13.80712,0 -25,-11.19284 -25,-25.00004 0,-13.8071 11.19288,-25 25,-25 13.80712,0 25,11.1929 25,25 z m -164.25143,-207.646 c 0,-13.8071 11.19288,-25 25,-25 13.80712,0 25,11.1929 25,25 0,13.8071 -11.19288,25 -25,25 -13.80712,0 -25,-11.1929 -25,-25 z m 62.24004,150.9102 c 0,13.8071 -11.19288,25 -25,25 -13.80712,0 -25,-11.1929 -25,-25 0,-13.8071 11.19288,-25 25,-25 13.80712,0 25,11.1929 25,25 z m -21.18966,81.89807 c 0,-13.80707 11.19288,-24.99997 25,-24.99997 13.80712,0 25,11.1929 25,24.99997 0,13.80712 -11.19288,25 -25,25 -13.80712,0 -25,-11.19288 -25,-25 z M 743.97604,-1215.183 c 0,13.8071 -11.19289,25 -25,25 -13.80712,0 -25,-11.1929 -25,-25 0,-13.8071 11.19288,-25 25,-25 13.80711,0 25,11.1929 25,25 z m -22.06907,76.9107 c 0,-13.8071 11.19289,-25 25,-25 13.80712,0 25,11.1929 25,25 0,13.8071 -11.19288,25 -25,25 -13.80711,0 -25,-11.1929 -25,-25 z m 63.53223,158.23858 c 0,13.80712 -11.19288,25 -25,25 -13.80712,0 -25,-11.19288 -25,-25 0,-13.80712 11.19288,-24.99998 25,-24.99998 13.80712,0 25,11.19286 25,24.99998 z M 620.34426,-1192.4636 c 0,-13.8071 11.19288,-25 25,-25 13.80712,0 25,11.1929 25,25 0,13.8072 -11.19288,25 -25,25 -13.80712,0 -25,-11.1928 -25,-25 z m 61.50421,146.7371 c 0,13.8072 -11.19288,25 -25,25 -13.80712,0 -25,-11.1928 -25,-25 0,-13.8071 11.19288,-25 25,-25 13.80712,0 25,11.1929 25,25 z m -23.72019,67.54677 c 0,-13.80712 11.19288,-24.99997 25,-24.99997 13.80712,0 25,11.19285 25,24.99997 0,13.80712 -11.19288,25 -25,25 -13.80712,0 -25,-11.19288 -25,-25 z"
       style="fill:#ffffff;stroke-width:134.395;stroke-linecap:round;stroke-linejoin:round" />
    <path
       id="path1-8-1-5-3-9-0-9-0"
       d="m -1082.1295,-1119.4377 c 0,11.0457 -8.9543,20 -20,20 -11.0457,0 -20,-8.9543 -20,-20 0,-11.0457 8.9543,-20 20,-20 11.0457,0 20,8.9543 20,20 z m 126.22067,24.1512 c 0,-11.0457 8.95431,-20 20,-20 11.0457,0 20,8.9543 20,20 0,11.0456 -8.9543,20 -20,20 -11.04569,0 -20,-8.9544 -20,-20 z m 84.65088,-24.1512 c 0,11.0457 -8.9543,20 -20,20 -11.04569,0 -20,-8.9543 -20,-20 0,-11.0457 8.95431,-20 20,-20 11.0457,0 20,8.9543 20,20 z m -172.19155,114.7607 c 0,-11.0457 8.9543,-20 20,-20 11.0457,0 20,8.9543 20,20 0,11.04568 -8.9543,19.99998 -20,19.99998 -11.0457,0 -20,-8.9543 -20,-19.99998 z m 98.60354,-24.1512 c 0,11.0457 -8.9543,20 -20,20 -11.04569,0 -20,-8.9543 -20,-20 0,-11.0457 8.95431,-20 20,-20 11.0457,0 20,8.9543 20,20 z m 137.79621,24.1512 c 0,-11.0457 8.95431,-20 20,-20 11.0457,0 20,8.9543 20,20 0,11.04568 -8.9543,19.99998 -20,19.99998 -11.04569,0 -20,-8.9543 -20,-19.99998 z m -290.89275,66.45832 c 0,11.04569 -8.9543,20 -20,20 -11.0457,0 -20,-8.95431 -20,-20 0,-11.0457 8.9543,-20 20,-20 11.0457,0 20,8.9543 20,20 z m 132.73192,24.15119 c 0,-11.04569 8.9543,-20 20,-20 11.04569,0 20,8.95431 20,20 0,11.0457 -8.95431,20 -20,20 -11.0457,0 -20,-8.9543 -20,-20 z m 106.04492,-24.15119 c 0,11.04569 -8.95431,20 -20,20 -11.0457,0 -20,-8.95431 -20,-20 0,-11.0457 8.9543,-20 20,-20 11.04569,0 20,8.9543 20,20 z m -177.04914,114.76072 c 0,-11.04569 8.9543,-20 20,-20 11.0457,0 20.00003,8.95431 20.00003,20 0,11.0457 -8.95433,20 -20.00003,20 -11.0457,0 -20,-8.9543 -20,-20 z m 94.36608,-24.1512 c 0,11.0457 -8.95431,20 -20,20 -11.0457,0 -20,-8.9543 -20,-20 0,-11.04569 8.9543,-20 20,-20 11.04569,0 20,8.95431 20,20 z m 123.22345,24.1512 c 0,-11.04569 8.95431,-20 20,-20 11.0457,0 20,8.95431 20,20 0,11.0457 -8.9543,20 -20,20 -11.04569,0 -20,-8.9543 -20,-20 z"
       style="fill:#ffffff;stroke-width:134.395;stroke-linecap:round;stroke-linejoin:round"
       transform="translate(-1.1590398e-5,1.5711429e-5)" />
  </g>
</svg>
