<?xml version="1.0" encoding="UTF-8" standalone="no"?>
<svg
   width="24"
   height="24"
   viewBox="0 0 24 24"
   fill="none"
   stroke="currentColor"
   stroke-width="1.5"
   stroke-linecap="round"
   stroke-linejoin="round"
   version="1.1"
   id="svg1"
   sodipodi:docname="password-security.svg"
   inkscape:version="1.4.2 (ebf0e940, 2025-05-08)"
   xmlns:inkscape="http://www.inkscape.org/namespaces/inkscape"
   xmlns:sodipodi="http://sodipodi.sourceforge.net/DTD/sodipodi-0.dtd"
   xmlns="http://www.w3.org/2000/svg"
   xmlns:svg="http://www.w3.org/2000/svg">
  <defs
     id="defs1">
    <inkscape:path-effect
       effect="fillet_chamfer"
       id="path-effect1"
       is_visible="true"
       lpeversion="1"
       nodesatellites_param="F,0,0,1,0,0,0,1 @ F,0,0,1,0,1,0,1 @ F,0,0,1,0,0,0,1"
       radius="0"
       unit="px"
       method="auto"
       mode="F"
       chamfer_steps="1"
       flexible="false"
       use_knot_distance="true"
       apply_no_radius="true"
       apply_with_radius="true"
       only_selected="false"
       hide_knots="false" />
    <inkscape:path-effect
       effect="fillet_chamfer"
       id="path-effect1-4"
       is_visible="true"
       lpeversion="1"
       nodesatellites_param="F,0,0,1,0,4,0,1 @ F,0,0,1,0,4,0,1 @ F,0,0,1,0,4,0,1 @ F,0,0,1,0,4,0,1"
       radius="0"
       unit="px"
       method="auto"
       mode="F"
       chamfer_steps="1"
       flexible="false"
       use_knot_distance="true"
       apply_no_radius="true"
       apply_with_radius="true"
       only_selected="false"
       hide_knots="false" />
  </defs>
  <sodipodi:namedview
     id="namedview1"
     pagecolor="#505050"
     bordercolor="#eeeeee"
     borderopacity="1"
     inkscape:showpageshadow="0"
     inkscape:pageopacity="0"
     inkscape:pagecheckerboard="0"
     inkscape:deskcolor="#505050"
     inkscape:zoom="12.151292"
     inkscape:cx="5.7195565"
     inkscape:cy="7.2008804"
     inkscape:window-width="1472"
     inkscape:window-height="868"
     inkscape:window-x="0"
     inkscape:window-y="32"
     inkscape:window-maximized="0"
     inkscape:current-layer="svg1" />
  <g
     id="g1"
     transform="matrix(0,1.1154786,-1.1154786,0,-16.419715,11.417271)"
     style="stroke-width:1.34471">
    <path
       d="m 8.6119278,5.1647704 -3.792893,3.7928931 a 1,1 89.999999 0 0 0,1.4142135 l 3.792893,3.792893"
       stroke="currentColor"
       stroke-width="1.25"
       stroke-linecap="round"
       stroke-linejoin="round"
       id="path1"
       style="stroke:#000000;stroke-width:2.13221;stroke-dasharray:none"
       inkscape:path-effect="#path-effect1"
       inkscape:original-d="M 8.6119278,5.1647704 4.111928,9.6647703 8.6119278,14.16477"
       sodipodi:nodetypes="ccc"
       transform="matrix(-0.30252145,0.30252145,0.29216741,0.29216741,-6.1186617,-35.828745)" />
    <path
       id="path3"
       style="stroke:#000000;stroke-width:0.896476;stroke-linecap:round;stroke-linejoin:round;stroke-miterlimit:83.9;paint-order:markers fill stroke"
       d="m -5.1522311,-31.152231 c -0.782968,0.782968 -1.3700853,1.687663 -1.7613731,2.653256 -0.3912877,0.965592 -0.5867455,1.99208 -0.5863952,3.018636 3.509e-4,1.026556 0.196511,2.053179 0.5884584,3.019039 0.3919486,0.965859 0.9796844,1.870956 1.7631879,2.654459 0.7835035,0.783504 1.6886002,1.371239 2.6544602,1.763187 0.9658593,0.391949 1.9924819,0.588108 3.0190379,0.588459 1.026556,3.51e-4 2.053044,-0.195107 3.018637,-0.586395 0.965592,-0.391288 1.870287,-0.978405 2.653255,-1.761373 0.782968,-0.782968 1.370085,-1.687663 1.761373,-2.653255 0.391288,-0.965592 0.586747,-1.992081 0.586395,-3.018637 -3.51e-4,-1.026556 -0.19651,-2.053178 -0.588458,-3.019038 -0.391948,-0.96586 -0.979684,-1.870957 -1.763188,-2.654461 -0.783503,-0.783503 -1.6886,-1.371239 -2.65446,-1.763187 C 2.57284,-33.30349 1.546217,-33.499648 0.519661,-33.5"
       sodipodi:nodetypes="csssssssssssssc" />
  </g>
  <ellipse
     style="fill:#000000;stroke:none;stroke-width:1;stroke-linecap:round;stroke-linejoin:round;stroke-miterlimit:83.9;paint-order:markers fill stroke"
     id="path1-7"
     cx="7.4645667"
     cy="12.283723"
     rx="1.5118113"
     ry="1.5101603" />
  <ellipse
     style="fill:#000000;stroke:none;stroke-width:1;stroke-linecap:round;stroke-linejoin:round;stroke-miterlimit:83.9;paint-order:markers fill stroke"
     id="path1-6"
     cx="11.999999"
     cy="12.283723"
     rx="1.5118113"
     ry="1.5101603" />
  <ellipse
     style="fill:#000000;stroke:none;stroke-width:1;stroke-linecap:round;stroke-linejoin:round;stroke-miterlimit:83.9;paint-order:markers fill stroke"
     id="path1-1"
     cx="16.535433"
     cy="12.283723"
     rx="1.5118113"
     ry="1.5101603" />
</svg>
